/* XPM */
static char *result[] = {
/* columns rows colors chars-per-pixel */
"64 64 100 2 ",
"   c black",
".  c #010000",
"X  c #000100",
"o  c #010100",
"O  c #000001",
"+  c #010001",
"@  c #000101",
"#  c #010101",
"$  c #191918",
"%  c #3C240E",
"&  c #3D240E",
"*  c #3C250E",
"=  c #3D250E",
"-  c #3C240F",
";  c #3D240F",
":  c #3C250F",
">  c #3D250F",
",  c #0B1121",
"<  c #111934",
"1  c #6C421E",
"2  c #6D421E",
"3  c #6C431E",
"4  c #6D431E",
"5  c #6C421F",
"6  c #6D421F",
"7  c #6C431F",
"8  c #6D431F",
"9  c #5C5C5D",
"0  c #EC1C24",
"q  c #ED1C24",
"w  c #EC1D24",
"e  c #ED1D24",
"r  c #EC1C25",
"t  c #ED1C25",
"y  c #ED1D25",
"u  c #A46630",
"i  c #A56630",
"p  c #A46730",
"a  c #A56730",
"s  c #A46631",
"d  c #A56631",
"f  c #A46731",
"g  c #A56731",
"h  c #AF6E35",
"j  c #F44336",
"k  c #F54336",
"l  c #F44337",
"z  c #A9E61C",
"x  c #A8E61D",
"c  c #FEA04C",
"v  c #FFA04C",
"b  c #FEA14C",
"n  c #FFA14C",
"m  c #FEA04D",
"M  c #FFA04D",
"N  c #FEA14D",
"B  c #FFA14D",
"V  c #2C408E",
"C  c #405BCC",
"Z  c #4C6CF2",
"A  c #4D6CF2",
"S  c #4C6DF2",
"D  c #4D6DF2",
"F  c #4C6CF3",
"G  c #4D6CF3",
"H  c #4C6DF3",
"J  c #4D6DF3",
"K  c #03A8F4",
"L  c #02A9F4",
"P  c #03A9F4",
"I  c #EE9B9A",
"U  c #EE9B9B",
"Y  c #EF9B9B",
"T  c #ECBEA8",
"R  c #EDBEA8",
"E  c #ECBFA8",
"W  c #EDBFA8",
"Q  c #ECBEA9",
"!  c #EDBEA9",
"~  c #ECBFA9",
"^  c #EDBFA9",
"/  c #F4E49C",
"(  c #F5E49C",
")  c #F4E59C",
"_  c #F5E59C",
"`  c #F4E49D",
"'  c #F5E49D",
"]  c #F4E59D",
"[  c #F5E59D",
"{  c #FCFAF9",
"}  c #FEFEFD",
"|  c #FFFCFF",
" . c #FEFEFE",
".. c #FFFEFE",
"X. c #FEFFFE",
"o. c #FFFFFE",
"O. c #FEFEFF",
"+. c #FFFEFF",
"@. c #FEFFFF",
"#. c white",
/* pixels */
"i p a p d d s s a s i u B B m d f s p f s s g p i a f d g B B B s d u f s s a d f a i u p u p B M s s s N m s i g d a u M N n p ",
"s f d d s u u i f u g a g p m B n f p d d v B s g p g i d p u M B i d i s a u a u i p f g s d a M M p u d M B a a s a p s g u a ",
"a f u p f p s g f d i p p a d f M M m m M n p i i i d d f s a g f a f a u p p d f f u d u i i p f p s d u s a i g f u u p a i u ",
"8 2 2 5 5 5 4 2 7 6 8 8 1 4 1 2 4 8 1 3 5 6 5 8 6 4 2 8 2 6 2 2 3 7 4 5 2 7 3 6 4 7 6 7 6 3 7 4 2 8 4 6 8 8 3 2 8 3 7 4 5 7 8 6 ",
"s u g s f a i p d f f p g d p d s a g s u p u p a g f f s d p s s f u u a a d u f a i d u s s f i s f g g f a u a d f s s i f p ",
"d f g c f p u g p i p p N m c B b m B B M n b n b m N v f p f i s d u u g d a g f f g g f a f u u f s d u u a p M v M m N c N m ",
"c N n m p d f u i p i p g f p f p d s f i u s s o   o M c . O X . s s f g u a g g f g u f f f g s d i p s s a u i a d u f d M m ",
"a g d s p f f a a f g u a p g f u s f p f a u . o X.. o . X ..O.+ # . . X X O a s d g p g p g a a g s s i s i p i g d a p M n b ",
"d p p a f s d p g u p i p p u i d s p i i g o   X.#.  @.+.o.o...  X o.X.@.o.. s g f s p u a s u p i d u u s s d i s u s f a p a ",
"s N B v m B b a d u f f d f p u u a a d g i X o. .@.. ..X.@.@.o.+ O..... .@ . g i i f i s u a M m M B m v b n B a d g i s s a g ",
"g a p u p s f a i f u a u a u s i a i m c b # X.X.o.O.X...o.O.+.#.o. . .O u p i f p s g a d i a a u g a s d p i g d p a s i p p ",
"a d p s s d s g f p g s p u i p i i s a s a X . o.X. .O.@.@...+.O.X.O.o @ p g p i a f d p i p d i p f g f s f a u s d f a p p i ",
"i s s i a u f u d p s p s i u p d a d s d a g . o.+.o.o.#...X.#.+. .O.  . u p d p d d i a u u f a s p i p i g u i u u s i u a u ",
"3 3 6 3 1 3 4 1 5 1 4 5 3 5 7 1 8 5 7 1 8 6 5 6 # ..O.@.#.o.....o.o.X.X # - & : > % = 6 6 6 1 2 1 2 6 7 4 4 3 1 5 1 7 6 4 3 8 6 ",
"d p a d s p u i f u s s i f u p s g f a p g f s @ +.o.o.@.@.#.X.@.. O X - * - = & * 2 3 d u d d f s a g a a i g d d g a f g u i ",
"n M N n B M m c B N n a a p i g a s i p p i d g @ +   X # X @ O . . X 7 3 > - * - 8 4 d g g g u p s g g d u g p d i d d i M M c ",
"g i a s p i p d a u N m M p p i f p u p f p i + ^ ~ + o E R W +   ~ ~ o 8 7 6 5 8 8 u s i i s d a a f s v B B N m c v v b m s s ",
"s i g p i g a u d i i a a b v n i d i i g p i + ! W x Q T   ! z T T ~ # p a 6 d u d d i d p f d s B c N M g p i s s s i u d i d ",
"b v M v N n M N u f s a g u f n c N a g u d s   R ! W X X #     ^ E E @ u f u p p s s i g g a u c c s i i s g v m v c c c m v b ",
"u d d u i p f n m M c g i g i i p B M b c p g . ~ o ~ . #.o.#.  ^ O E @ g d s d a p d u f s i s a f u d v M c n d a i f f f s d ",
"d d d g f a i g f a N n B i i g g f d u a p a X Q O ^ O k k k   ! o Q + d s f s     o     u a s a p v c m p d g u a g d i p d g ",
"N M m B M a g f f f u u M n u a s d   X + o + y # R O E U Y I E + E . # m N p X ) _ ' _ / + X X u i u d i u u p u u p B B v c B ",
"p i p f s p f a a a a d s i a f   O +.#.X.  X j l . + E ~ W R ^ ! @ w # . X X   . ( _ ) _ _ _ O o g f g d i a g a a f i s f u d ",
"2 5 1 6 5 4 5 2 6 2 1 8 8   X   X.#.O.o.+...O.. r w # # X # # X   e 0 r . O   [ [ _ ) ( _ ) [ ) [   8 4 2 1 8 5 6 5 1 5 4 4 1 7 ",
"f f s g u d g u u s d i . . #.#.o.+.#.+.@.#.@.#.# o t w t 0 e 0 q + + o X   ' ) _ ( ' _ ) _ ] _ _ O   i p u d a a i u u g p g a ",
"n M B b v v M f u p i g   #.o.o.#.#.#.#.@.@.o.O...# t r   . @       X. .@.  [ _ _ ( ) _ ) [ ( _ ( . O   s u u g s u g g f f n n ",
"s g a d i g s u i p u u   #.#.@...#.o. .o.o.X...@.. # # . ..#.@.....X.O.o.  _ [ _ _ _ _ L _ [ _ _ /     u i d d s f f M M m B u ",
"i u g s f u f c c B c h   @.o.#.@.+.o.+...O.o.#.X +.o.+.o..... .+.O.@. ...  _ ( ] ( _ P P _ L P ( ( ) O @ a f a p g M d i f g a ",
"a p s a u M M p d f g g . X.@.#.O.#.#.+.#.@...@.@  .O.#.o.O.+.#.X. .#.O.+.  ) _ _ [ _ P P P P P ( ( _ + X g u p M M p f a u d s ",
"s g s f n b i i u p f d @ O..... .{ O.| }  . .#.# @.X.X.#.@.+...X.O.X.@...  _ _ ) [ ) P P P P _ [ [ _ _   a d m v u d p g a d d ",
"g g i M N i d a g s s a . @ O.#.#. .o... .$ 9 X.# o.@.@.......o.#.O.O.+.@.  ) _ [ _ _ P P P P _ ) ( [ /   p n d p u i g u f d g ",
"d g a B a u i u g f i f f X X #.X. .#.@. .#.. #.o O.X...O.O.+. .+.+...@.O.O _ _ ) _ _ _ _ P _ _ _ _ _ ) . g a f s p p i p a d g ",
"s g p a s f u g 4 8 6 3 4 o X.+...o.@.X.O.X.O @.. X.+.o o  . .#.o... .@...  ) ' _ ( [ ) _ ' ) ) _ ( ' ) o s p i u i d u p p a g ",
"3 1 3 3 7 7 7 2 6 > > > ; o O.@.#.+.o.+.o.X O O.  +.X.  # O.@.@. .+.O.O...  _ _ _ _ / ' ) ( _ ) P P / [   2 6 8 7 4 3 4 4 2 6 2 ",
"a f u g u a f g 8 8 5 6 2 5 o X.+.+.O.o.#.X   #.+  . .O.+.@.X.O. ...#...o.O _ _ _ _ _ _ _ ) _ P P _ _ ] O p i s f s s a g p i i ",
"f a s m d u u a f s p p f u g  .X. . .#. .+ . @.O O. .@. .#.o... .O.o. .X. .  ) _ [ ( ) ) _ P P P [ [ )   X p a u s p d i s s s ",
"u u m B f d i f i a f a g i s X # #. .o.#   O o.. # o.+.o.+...o.+.#...+.o.X.  ) [ _ ` [ _ _ P P P P _ ( '   p f g B u p i i a d ",
"g v n a d g u g g u a p g p g     @ #  ...+ X.X.X.O #.O.X o @.o.+.@.#.#.X..   [ _ ] ) [ ) P P K P P _ ] ) . g i g v B s u f a a ",
"m M f f g f d u f d s i f d a o @ X.X @.o   o  .O.o O.X.@ @ O.+.#.X.@.+.X.  [ ( _ [ _ _ _ P P P L [ _ _   X p d d d M p u f c n ",
"s i p u i g u g g f f s s u s u O   + o ~ O o O X o X @.@.o.#.X...o.X.+...O ' ] _ _ _ [ _ _ _ _ ( ` ) [ o f d f i s d N v M n a ",
"g i p p u u i s d u u u f a p M . o X ~ R Q o G A . # o +.o.@.+.o. .X.@. .. _ _ ) (   ) _ ' ( ) _ _ ) + + i p f s p s p u g i f ",
"a M v M v M v n B v m n b b M N p O Q E T ~ o o . G J O   o .   # . . o O   ) ) ` ]   [ _ _ [ ) ) )   X p p u d g d p f s a p d ",
"g a a g i d s p g u a d s g a s i u @ R Q W W O F D D D F S F D J   O O _ ( / [ ( [ _   _ _ ( ) _ / O a f f g s i d i s a f d p ",
"5 3 5 3 4 6 8 1 8 8 8 6 5 6 2 2 7 4 8 o O ~ Q X   A D @ S A D .     _ _ [ _ ' ( ' _ _   _ ' ( ( )   2 7 8 8 2 4 8 2 4 8 5 1 6 1 ",
"d g p s i f f f f s i f u f u d f d s s #   O ! ~ Z   o # F X + _ _ _ [ _ ) _ ( _ ) _   [ _ _ _ [ O s f i a p s s d s f i s d s ",
"f a g f u d u u a p s f p g p u s p a u u     . T X ^ W W A J O + _ ) ' _ _ ( [ _ [ _   _ _ [ _ [ X p d d a d f g i d u d a s f ",
"4 6 f p u i v n M m d f s i g d i g u M M d @ D O ~ ^ Q + . V X   [ _ _ ) _ / _ ( ( _ _ ( _ _ ] _ o i u u i s f s a u s g u 5 8 ",
"s g u u f b v a f B c d i f d a f f g u a v n O . R ^ ^ E X C H .   ] ) _ _ ( [ ( _ ' / _ _ [ _ _ ' X u i i g p g p v B n p i g ",
"p i g M M f s u p u M M d a g g s f d s s f a + X R ! o Q , S F O @   X       ` _ _ _ ( _ [ _ ) _ (   M m s u u u s f p v v M p ",
"i i a g s u s d i f f v m i d g g s u a g d p d   < o O O S A D   Z D F F   . ) _ ( [ _ ) _ [ _ [ _ X s M s g u i s u d s u i d ",
"a s p a d a a g u a u d a g i d s p s i d i g g s # O       @       . . X X [ ( _ _ [ _ _ ' _ ( _ O . p g f d u d g f s a s i g ",
"g u a u d s i f a s u u s a s g f d a s d d p a f o . [ _ ) [ _ + _ / ( ( ' ( ( [ ( _ _ / _ _ [ ( o f s p p d g u p p a i u f i ",
"3 7 8 5 5 3 3 5 1 1 7 8 8 8 6 2 4 8 3 4 1 8 5 5 4 X O @ _ _ _ ( _ o [ [ ( _ _ _ _ [ ) ( _ ) _ _ . @ 1 8 1 4 2 1 2 6 4 2 3 4 2 4 ",
"d g i u p d s d u f a a f p s a g a d f i p d f f p X     ( [ _ _ + [ [ _ ( ) _ _ ( _ _   [   . . p 6 3 6 7 a f a p g p i u a a ",
"f s i p p B N B c g d p s g u d d g s s s p u a s f i d X @         _ _ _ ) _ ] [ X +   .   @ d a a d g u p g p f N B b B i i g ",
"d d p v B d u d p m B p i s p p p d i p g g s f u u g s f @ J J O O   O   . X   .   o . b B n v B s f p g s d d B B f f B c p p ",
"d B M d s g s f d s n f i f g B B N N B a s d s i a f p b     Z D O J   i c d u i s B B f d s g b M i s u d f u v b g i u M g a ",
"f p f u p f p M d n b f f i m g a p u B g u s i f B B m f i X o A # G o s a a i g N n g g a p a s N g d d p u u a B B g i N p i ",
"g p p i i s g b m N i g p u g f s a p N B m c N M N a a f s a + + X o # M f g a s M d g f u g p s u d g s f d i p u u i f g a u ",
"i u d d u d f i i g f g g p p a s p s d f s b B i i f @ X   + +   . O X O + N B M i f u g u d u a g d g d 8 2 8 2 6 8 s d g u s ",
"8 3 4 4 7 4 3 4 4 8 6 5 1 7 3 8 5 6 2 1 7 7 6 3 5 8 4 . X O   X O   O @ O   4 7 5 8 4 3 1 4 7 7 5 6 1 1 7 7 5 7 8 4 6 1 3 4 7 3 ",
"p a s g s a a d g d f g f p a s i u u s u u f g i p a @   # o @ a O X X # X i i d i g u d d s i s d n d f u u i i d d f i g a f ",
"d p i g g s a B n B B p a u u p a f p s f u d p s B B X O O . . g     X . o i a f s b M B B B N f d p B B g u u g p B B f d s u ",
"u d p u i s a g p i i c B p s d g i f p s u u g s p d u s B B s i s d u a u s a a u i f p d i B i u s B N f s d d f i B B p p i "
};
