/* XPM */
static char *result[] = {
/* columns rows colors chars-per-pixel */
"64 64 89 1 ",
"  c black",
". c #010000",
"X c #000100",
"o c #010100",
"O c #000001",
"+ c #010001",
"@ c #000101",
"# c #010101",
"$ c #040301",
"% c #0D0905",
"& c #26170B",
"* c #25180C",
"= c #2A1B0D",
"- c #2F1D0E",
"; c #34200E",
": c #3C240E",
"> c #3D240E",
", c #3C250E",
"< c #3D250E",
"1 c #3C240F",
"2 c #3D240F",
"3 c #3D250F",
"4 c #402812",
"5 c #472B14",
"6 c #482F17",
"7 c #483018",
"8 c #573519",
"9 c #6C421E",
"0 c #6D421E",
"q c #6C431E",
"w c #6D431E",
"e c #6C421F",
"r c #6D421F",
"t c #6C431F",
"y c #6D431F",
"u c #8E592A",
"i c #A3662F",
"p c #A46630",
"a c #A56630",
"s c #A46730",
"d c #A56730",
"f c #A46631",
"g c #A56631",
"h c #A46731",
"j c #A56731",
"k c #F44236",
"l c #F54236",
"z c #F54336",
"x c #F44237",
"c c #F54237",
"v c #F44337",
"b c #F54337",
"n c #23B04D",
"m c #F59A4A",
"M c #FEA04C",
"N c #FFA04C",
"B c #FEA14C",
"V c #FFA14C",
"C c #FEA04D",
"Z c #FFA04D",
"A c #FEA14D",
"S c #FFA14D",
"D c #4C6CF2",
"F c #4D6CF2",
"G c #4C6DF2",
"H c #4D6DF2",
"J c #4C6CF3",
"K c #4D6CF3",
"L c #4C6DF3",
"P c #4D6DF3",
"I c #ECBEA8",
"U c #EDBEA8",
"Y c #ECBFA8",
"T c #EDBFA8",
"R c #ECBEA9",
"E c #EDBEA9",
"W c #ECBFA9",
"Q c #EDBFA9",
"! c #FEA2B0",
"~ c #FFA2B0",
"^ c #F2F2F3",
"/ c #FEFEFE",
"( c #FFFEFE",
") c #FEFFFE",
"_ c #FFFFFE",
"` c #FEFEFF",
"' c #FFFEFF",
"] c #FEFFFF",
"[ c white",
/* pixels */
"asdsgggjhfdpSZCfhgshpfjsfshgjSZZpfpfgfdghhaphpsSAfpfACfajfdpZZVd",
"shgafppdhpjdssCZNhsggNSfjsgagspCNdgafapdpddhjfjdZCspfSVdjfasfjpa",
"ddpphsfjhfashsahZmANZVsdaagghgddhshppssjhfpapdpshsdhpfdadhppsdaf",
"y00eee00trrq9y90w;=48reyrw0ywr00qtq90eqr0trwrwtw0wwryyqyywtweywr",
"fphfhdgdghhsjfs@OX'O$*7sdgjhfgsffhppsdgphdagphfhafhjjhdpdgjfgahp",
"ghjMhspjdassACN@'_]`]]XSMMSZhpfgfgfphgdfhjhjhdhpphfgpajsZNZMAMAV",
"NAVVsahpadahh@ /`[`(()op#@dZMCACfhfhhfjjjhhphhhjfgdsjfdpfdjphgZC",
"djgpsjhsdhjfd@`(''[[X@ o+/X@oXphddjfjgfsfgdsghjddjffafdsdjgdaCVB",
"gsdshggshpsa#o[('_[+ [[)[_[``[@sgpgdpppghhgsfdfpsahpggfjafafhdsd",
"gASNCVMdppdh#]]'][O#@[// O_'#opjgdsphggjaajafpaZCNSCNBVSsgjagpdf",
"jdsfshsdafpd.]`)[ #`][`'O @O##ahdafhspsajsfgsgajjpdjagspgaddfaps",
"dgsfggfjshhf.)`))([[/['.o).+OO&spdddhshsajhgsadgashjhfhjpfahdssg",
"agfadphpgsjs ])([']_`XX_[()(/#6jgfphgfsgsggddpphdpfaaahpappfapda",
"wqrqeqw9erweX/')]_')(_`'[''[' 5rww1>:2>,,><rry9090yqwwq9e9t0wwyr",
"jsdgpsfajpff#@[)__)`]`/](XOXO%uag0901,1<:<0wjpgghfdjddadggjshhap",
"VZAVSNCNSANd OOXo[])['`^['O#a-hhdpa9q31,1ywadjjpdfgjgpjpadjgpZZB",
"jajfsasgdpSM...Wo#@X.O o#@OpshjjffssytrewwppdahgjshfZSSACMMNBAff",
"fajsphdpgsad.nQURT#@ # o+hidsggsjapgsjegdggagshggSMAZjsafpfapgpg",
"VZZNANZApjh@XETTIQW@o#  +paddddjfdgpphpsshhajsdpMMfashgNSNMCMCNB",
"pgafashNCZ.oWETEWEoU#o@@XdgSZdhfgghfhgfgdsgphfgpjjpgNZAVgsahhjpg",
"jggjhdadhd  O#o .Y U#+@+hdafSZMafpjjgfhfaggappdfdsNMCsgjpdggasdj",
"CZCSZgjhhhpp !~TEoORT..@#ajhhjVNBCZVVAfdhfgddhgapafjgfsspasSANMS",
"sashfshdjddh#YIYTUIR#X#vXpafafgaaapsdjggssapghjsdhhjfaajasgdfhpg",
"0e0req00 X+ oOo.@#+XXbvx Xo9yt0990e0r0rw0r0t0y0ryry0y9y9ee9r0w0t",
"hhfapgjX Xblkbccclvxzb+@()@+fhfapghgjddajfsgadsgjsaappfadasahpdh",
"SZSBVNo@o#X@@xckx#@+.o`])[#+OMNNSZZNMZSShsggfajaahdahppjfajjshMV",
"phdjsj. ((.`X+o])](()_])/(_# NafgdajpfhpgaajdfsddssgpaggfhhZSCSs",
"apjfhs@O[( ))][+.O/]'_/[]))`ojfjdjfjhahhhspjapfjdpfSZdhdsjNfahjd",
"sppda+oX'(#X[#@.`))(`)']']]_ fjajNZZZSMCppjffaajdsCMdhpdZZssspgf",
"fjghV@O['[[X.@(`)(][`_](['('ofSSNfdgpspjNSCjjhppANfpssgANpapjdgg",
"jgaCAO.])`X.O)_)[/`]'/[oX']+ NNgssdgdahfsjahgfSBShdspsSgsaaappaj",
"ajdVd..['' #['[[]/']))X/[((OXjgfahpfhAANSVSZSZsfjpgdhjdhfahasdgj",
"fdsdff+[[[ _][[][/)_[] ''[`@.jsfjhjhpadfaddgpfhsjappsgsagdpppsjj",
"qqqweto[[ #[([_][('` +/]]()) 9qwye9te09rwwt90wtqrrr9y9rytwq0w0e0",
"djpgpd@'_X) _[('[`[o@/`[][''Xaddhsaadshfgshsjhgsgjgpfsafhfgajpag",
"fdfCas X.#`O.[/[[/[O]/[)_'[/Xfphfgdhsdpjspaaphssspppdhsdphsfafff",
"psCVhgaXo#_[ .X[[@ `']/[_)_[XfsshgfsVASSMNZNCNSgpddsdgshjSpsagag",
"dNSdgjp I.('][O@XO_(])['['][+sadfMVNsspagsfppdSZSAjaajjajNSpfjdd",
"CZhhjhO IX# ''_[X/(((_]](()[.djSCfgjppphpBSZdjahhSBZdasgggNspsMV",
"fdspaj.RWIR +O_)O()`/__`/').jdMNdfhpjddsggapAMNffdfCNhgjahjAMZSs",
"dapsa.XIR . X.X  ()])]``]__@sSdpdfshdsVfspSdsjSafdhdjaphhsfdfjah",
"gZoo+XR   [[).X[))](([['/X@+ZagfahphaaZAZssafVVshdpdsdsghgsspjsg",
"dO+X.RY _)[_]#[]]`[/]/`[`'X agfsasghddgdSSSNCZdhpjsdfhhfajsfshgs",
"e RRIIE. O[]'.]///'`_[_(/Oo@0yy99e0qy0eqwqwryw90y9wtty0yy00y99r9",
"g IIUIT FJX@.@'`]'`/_[[OoO@sdpgddadhhfgjjffpfjafpjfhadsffgfjdffg",
"soX. RI@LFPPFP#O +Xo##.Po.hfhsdffpdhshagfsddpdgpadhggdfhjhgpgsfh",
"wrjj .X.KPHPPPHPLFHLPGPKXhjfdssdjapsSSZVBdpashphgfgspdphpjpfjpey",
"fjpphVZ.LPPHHHKKGKLHHPJF NSCZNsNSSZZSpsgCNACdpsssSBpgajshdNSVdpj",
"sagZZhh PHJPGGLGPHPPPFHL.ogdgZVd#ssgpjsfsadNNMChapCNAfapffjsZZZs",
"agjdpshX@HJJPPHLKPLGHLFLPXX.O.#X+@jjffshfsahdgZZpjpsZjdpafpgfaag",
"jfsdgd..XODFDJPFJHLHPPJPHGPKP  o+Ogdjgggfppsfdjsgsgsjhggfghpdppj",
"jpjpgh+KF..JJHLLJPDKGPHPPFLP+. o  ghhjshfdpfpdhfhjhfpsgspfsdaaha",
"qeyeeX.PJP  HHPPLHPHGHFFHKO.0ro.  rre9y0yq9y90reey9r9w090ew9qww0",
"gjpps@LLPJKo.@LHFJPPHPJK  afe.. OXpppjppdffjpgfsssr9rydhdhdsdfda",
"hfpsa.FKHKL.@ X+LJLHHX+XhhagfO@  OjsahpdhjgfgfjasggjfsjssSSBAaaj",
"aasMS..PJKKOXas @+O#+gfhasjfspO@#ZSVVSpshfdaNSSNVghsjhggZSjhSMps",
"jSAjfg PLPHo@ jSSSSSsfgfadhsBAZZhddgaMgpafSSjgfjBVafpghpMVjppZjg",
"hshspdO.LDGKo CjdhaSjsfahSSBhafjddjhfdjajAVjddddfCjgahpssSShpCha",
"gssaadd @JLH fjhfdsSSZVAZMddhfdpajASZsjapZgdhpdsffgjfhfasppasjjp",
"asghpgsd @PX sddfsfghhBApajpdjphgdfghSSSZphphdhpjdgjgt0y0ryggjfg",
"y9wwtw#Xo @@ t9yt009tyrweywrtttttqqery0ttyqw9wteer99tyetrqr9wwqq",
"sdsdfdo. Xo..pdhappfpphjdsahhsfhdggfpsadadjahpfafgSghspdagjjajdh",
"gsajdfdOO..X+papdhsphafsfSANACafjphdghgshfBZSSSAffsSVjapjsSShffp",
"sghpgfdjhppBSssfdahdfaajfsgpfSSfgfgpdpfjdaassfaSaphSAdggghdSSpha"
};
