/* XPM */
static char *result[] = {
/* columns rows colors chars-per-pixel */
"64 64 74 1 ",
"  c black",
". c #010000",
"X c #000100",
"o c #010100",
"O c #000001",
"+ c #010001",
"@ c #000101",
"# c #010101",
"$ c #3C240E",
"% c #3D240E",
"& c #3C250E",
"* c #3D250E",
"= c #3C240F",
"- c #3D240F",
"; c #3C250F",
": c #3D250F",
"> c #6C421E",
", c #6D421E",
"< c #6C431E",
"1 c #6D431E",
"2 c #6C421F",
"3 c #6D421F",
"4 c #6C431F",
"5 c #6D431F",
"6 c #EC1C24",
"7 c #ED1C24",
"8 c #EC1D24",
"9 c #ED1D24",
"0 c #EC1C25",
"q c #ED1C25",
"w c #A46630",
"e c #A56630",
"r c #A46730",
"t c #A56730",
"y c #A46631",
"u c #A56631",
"i c #A46731",
"p c #A56731",
"a c #A8E61D",
"s c #A8E71D",
"d c #FEA04C",
"f c #FFA04C",
"g c #FEA14C",
"h c #FFA14C",
"j c #FEA04D",
"k c #FFA04D",
"l c #FEA14D",
"z c #FFA14D",
"x c #4D6CF2",
"c c #4C6DF2",
"v c #4D6DF2",
"b c #4C6CF3",
"n c #4D6CF3",
"m c #4C6DF3",
"M c #4D6DF3",
"N c #ECBEA8",
"B c #EDBEA8",
"V c #ECBFA8",
"C c #EDBFA8",
"Z c #ECBEA9",
"A c #EDBEA9",
"S c #ECBFA9",
"D c #EDBFA9",
"F c #FEA3B0",
"G c #FFA2B1",
"H c #FFA3B1",
"J c #FEFEFE",
"K c #FFFEFE",
"L c #FEFFFE",
"P c #FFFFFE",
"I c #FEFEFF",
"U c #FFFEFF",
"Y c #FEFFFF",
"T c white",
/* pixels */
"erewuuwyryewzljuyyruyupwtrrupzzzyuwiyytuiieriwrhkwwyldyeputwkkzw",
"yiueyyweiwptprjkfiiuufzypwpwuiwjltueytwtwerrpyutkzrwukztpytrytwt",
"yrwrirwpiyerrruikkjfkhiteeeupytrrrieerrpiiwuyeerrryywyteuiwwrtew",
"3,,2241,4355>32,<5,<23233115,3,,<4<232<3,435,<41,11355>,5<452253",
"rwiuitutuiiriuruyprywrwrtptiyuryyiwwrtpyitwuwpyieyitirtwtuiyueyw",
"uitfirrprerrljdzgjzzkhlhldzkwwiewuywputyiippitieyrwuwwtrkdkdldlk",
"dlhdreiwereii@##ruiieeyuX@ kdX o@yyipytppiprpipeyueriytwetywiukj",
"tpuyrprrryp@+XV..yirurwO.Uo#@XPU  + X oryuprurpttpiyeytrepuewkhh",
"urrtyyurpwrONVVV#yreep  LK.KTYKYO+TPUYouiiurytywreuwuuypeywyitrt",
"ylhfjzdtuwpXVVNVoptuit.YKK#UYJLK@TTPP# peeiuywtkjkhjfghzwupeiwty",
"iprwriiteiw+ VV.@tejdh+YPPUTIKJUKITU wreiryuruettwptwurwiprtyert",
"turyupypiriy@VO@eeytwt@oULJKKITYJYYX rtrepiuweruwyipyyiuwyeitrrr",
"tuyerwiwerur#V@rutuyuru@TYUUTIJPTUI @yruruuetywptyreeeywewwyewte",
"1<5<2>,>2,13#VX>524>532,.LYTTTJKTUIo.=%;&$*335,,>,3<1,<,2>431<53",
"urtuuryerwyy@VX+ipitrpwi TTTLPYPT + =&=*%*,5ueuuiitpttepuuptiiww",
"hklhzfjfzlf+VVV tyerreupO.X+X +OoXX25;=&=5<eppiwryuuuwpreepyykzd",
"uepyterurwl.VVV rrwriteOVS  VCVO.VV.543>11wwtepettpifzzljddfglyy",
"yeprwytwpru+VVV+ ueetre VVaVVVVsVVV@rp2uruueerruyzjzkpreywyewueu",
"gfkflhklwiioVVVC+@epwywXVVVVV.CNVVV.wiwtwiyepttwdjweewuhzfdlfjfg",
"wuewerihjkdXVS+XY##ddit+V BVNVVVV#N@ieyutruwiyeytrwufkghuieiiiwu",
"tuupitetitl@@#JYT#.@trtXVOV+o ..S@V+uwiypiyeewtytrfdjrupwtuuerpp",
"jkjzkeprrpw#+T @@PT.. #q@C SFHGN.B  dliriyuttrpererueyrrwwrzzfdz",
"rerpyritpteuXX.PTKUUKUX##XXAZAVNV.9@+@+Oowewupprtpipyetpuripiiwu",
",2>321,>3,>3X#YLTILTTUY q9. . @X#q67OOTU Oo.X53453315>123>>2,1>4",
"piwtwypwwyuet#TLPTLUTPTI #q607987@Oo@YIJPIPUY.o+pwuewwutteweprpp",
"hfzdhfkiwryrroPULKUPTTYKP@68#O ..oTYTIUTKLLITTTT@Oteiwwpieuurigh",
"yiturpyuerwyt@PKPTLIUPTUUO.+ JTYYUUIKUJYUYIYKIIYI@ ueeuuyiykfdzw",
"erpyiwijdzgzjlXIIIYITILK+IUTYIUULYKIUUJTYTIIYLTIYUoOktrtrpkyeipt",
"trwtwkkwuipppi++LUJYTJKTXYITUKUUKJPTLLLLYUTUKUPIJYPX pwrkkrrrwuy",
"ypuihgeewriuurw#PLYYIYKU TUJUKTTTPUYTPTYLPYIPPUKUTUP@rujfwuwptuu",
"ppekleuipyutptw@XIITLKJT+PJTKKKPTYULYTLKLPUTPLYPTJKU@Xzurweuwrup",
"uptztwewtputietw@+TKIIIT YILPTJYKLTJTLTUKIJLTY#LJTJoP eiwwrerrut",
"yurpyyrp143>,,222 OITTYIoPIooPUYTPUYJYPUTUJTYLOOTTP@K @eyeywwrpi",
"5><<244,3::*-*-;<5oUYTTP+TJ @LIILPYJIUUUKYYPIY@oIYOXPKO541<11,5,",
"tirywtyp3523,,445p LTUTU JYJKILYYILTTYITUYY  ##  KOUTOXOiuueiweu",
"wtyjurypiywwieutiw.+YKUIOUIYKTUTPPPYLJTUUPI+Mv#t@#JTY.B.wyrueyiy",
"wwjziuerutippwytwi. OUPK.@UPIKJITKPUYYITLT#MmM er+U..CCXpzwrweeu",
"uhztepwpuwrrprppueoMO#KITXPYX.PPLUPTKPYLT@#MMv fh#X NC #pfkwwptr",
"jkiipiuwiuyeyurtty.MnXoYL+LTOOKKIIPPITLoO+MMnM+iylO.DB.Xuukrwidh",
"yerwepyppiiwuwywpi+vnnO XoXUYKTKKLPYLT.#MMMmnM+yyte+Coupepugfzlt",
"teyrwweyuwryitrkdf#XMMMMcX .PUKKLIIUTX.vMMMMv#+eiti S#riiryrypei",
"pkfkfkghzflhgdklrwO+MMMMMMMX.@.OO@.o OMcMMMMMo.iitwOoZOupurrepiu",
"tttteeyrptteittuerw++MMMMMMMMxMMMvMMMMMMMMMnM@tiwp++BCXywptytiur",
"2<2<134>5,5333,,415O.xMMnMMnMmMMMMmMmnmMMMMmM@>,1>@@CNX15,,52>3,",
"upryepyiiieiriwuyeiyX.MmmvMMMmoMMoMMvMMvMMnMMXeywt @A  yiuyieuuu",
"ippiwuwwtwyiruryyrtwwOcmMMmMMnMX XmvMMMMMMMM+.peuur oXuipruwurii",
"13ptyefgkjpiuupueprkfe+mMMMmMMMm.vMMMvMvmcMM+pwipyurwtuiypwypt45",
"ypwwightrzdpetutiipwthg MMMMMMmM#MMnMMMnMMM rrrrrzhwueprptfzhtwp",
"wepkkriurwkzutppypuyypto+vmMnMmM@MMMnMmmmvo kdlrtrjfjywwywprkfkr",
"eutprwiueiihdeupyywtperyomMnnmMm.MxMnMvcMX+rpukkwtryjipweyweywee",
"tyttutiiytwyppeuyrypueppu MvvmMM+vMMMMnM.Xwrytprurutpiuuuuiupywi",
"pwpwuieytywriewprueyuurei XmmnMM vMMMMMM eeyytiyiriyrrytwyrteeit",
"<2522<<2><5,453,5541>52>1>@oMvmnvXMbMvmO+<>5>13425>5>1,>,21,<153",
"upewrurueittirweutuieipiiieOMMxMM vMMn Xwyypwyprrr3<34tipipitytt",
"iytrtzzzjpyiypyuppywyrutireu@nnMMXmcnMXtituyuypwitupwrprwlkgjeei",
"uerfzuwprjzrwwrrruerpuyietpii.MMx MMM  riytthzhfziprpyuuzzpizdrr",
"pzkpyuyiyrzieipzzzhztyuyetirdXXMm MM opweyzziuwpgzeyweiwfgtwwkit",
"rriiwprkuglpywjperuzptyeizllie +M mO ppeplhpetrtylpuurwwtzzpwlre",
"prreetpgjlwprypiytrlzkdlkhttiytX O Xkrpeekptiwtrywupyipurwwerpuw",
"eruywureepiuptrtyryuiyglweiOXX.O  O   zzkeiriwuwtpupu5,5,,5yupyy",
"5<1,4,<11532>4<525,24435251oo... @X   1424<<>14223>>4522313>1,4>",
"rtwpyteupuiptwtiewwyrtypert  OX t.    ttuepwyyyeyuhuiwreeuuiwpti",
"ureptyrzhhzrtwertrryyeyrwzlXOX+ p@    uriyhkzzzliurzzpewprzziuyw",
"rurweutprewgzwiyteityiwpyrytyzzweyuwewuptewiiyezerizlryuuiezzriu"
};
