/* XPM */
static char *result[] = {
/* columns rows colors chars-per-pixel */
"64 64 71 1 ",
"  c black",
". c #010000",
"X c #000100",
"o c #010100",
"O c #000001",
"+ c #010001",
"@ c #000101",
"# c #010101",
"$ c #3C250E",
"% c #3D240F",
"& c #3C250F",
"* c #3D250F",
"= c #6C421E",
"- c #6D421E",
"; c #6C431E",
": c #6D431E",
"> c #6C421F",
", c #6D421F",
"< c #6C431F",
"1 c #6D431F",
"2 c #A46630",
"3 c #A56630",
"4 c #A46730",
"5 c #A56730",
"6 c #A46631",
"7 c #A56631",
"8 c #A46731",
"9 c #A56731",
"0 c #F44236",
"q c #F54236",
"w c #F44336",
"e c #F54336",
"r c #F44237",
"t c #F44337",
"y c #F54337",
"u c #22B04C",
"i c #FEA04C",
"p c #FFA04C",
"a c #FEA14C",
"s c #FFA14C",
"d c #FEA04D",
"f c #FFA04D",
"g c #FEA14D",
"h c #FFA14D",
"j c #3E50B4",
"k c #3F51B5",
"l c #4C6CF2",
"z c #4D6CF2",
"x c #4C6DF2",
"c c #4D6DF2",
"v c #4D6CF3",
"b c #4C6DF3",
"n c #4D6DF3",
"m c #ECBEA8",
"M c #EDBEA8",
"N c #ECBFA8",
"B c #EDBFA8",
"V c #ECBEA9",
"C c #EDBEA9",
"Z c #ECBFA9",
"A c #EDBFA9",
"S c #FEA2B1",
"D c #FFA3B1",
"F c #FEFEFE",
"G c #FFFEFE",
"H c #FEFFFE",
"J c #FFFFFE",
"K c #FEFEFF",
"L c #FFFEFF",
"P c #FEFFFF",
"I c white",
/* pixels */
"345477798652hfd68748269464879hff262676578832824hg626gd639652ffs5",
"48736225829544dfp8477ph69473742dp573632525589695fd426hs596346923",
"5522846986348438ffgpfs453377875584822449862325248458265358224536",
"1-->>>--<,,;=1=-:1=;>,>1,:-1:,--;<;=-X+O.X,:,:<:-::,11;11:<:>1:,",
"6286857578849647755244245798674668224oJJI.3oo# OX689985257967382",
"789i84295344gdphadhhfsahiihf8267676O.IILI++XLLHK+8672394fpfigigs",
"pgss43823538895847983262595fidgd686 PIGIOXIPIJIOO7549652659287fd",
"5972498458965998264474447559262855. HLI +JLJ o #OX66365459753dsa",
"7454877482434423964339426532578472+PIIIOGJK .IIPI#82776936368545",
"7ghpdsi522589842455793558764352975 IIII PLL.GLGJPXhdpash47937256",
"9546484536254524653gdsp88872493853 IKGPJJIXIII+.XO59374273556324",
"57467769488652323385755a3762456425OIJILPJHIPPJIX3489868926385447",
"3763528274942324757875783868776976OJIGFIJIHLPGOo5263338232263253",
":;,;>;:=>,:>=><=1><=,,,,--;;<>-,::X JLHGJGHIL .-=-1;::;=>=<-::1,",
"945724639266383269854767685688937-+@ X LLFPIL 778659553577948832",
"sfgshpdphgp55439963453798532338852OX MO .O+.O@O25679729235972ffa",
"9396434752hif483822485394452489966OumVVC. .  O.79486fhhgdiipag66",
"6394285274355asp37335434285547749  VVCVVm   OXX77higf94362632727",
"sffpgpfg2989928ssa37296442355559  NVVVAV Co.@ +2ii63487phpididpa",
"2736348pdfi859334hfai896257hf586XO X@ XV@V.X+ 729927pfgs74388927",
"9779853585gsh339987284568536hfi362.SDCZo.VZO@  654pid47925773459",
"dfdhf7988822fs2567339673739889spad.MmmBVCMX  qX323697644234hgpih",
"434864859558675848545656223636@ X  OO oO  Owww#.O889633934756827",
"->-,>;--,-=1,<:<,<;-:-,,-1>=1o.@ry0w0wt0ewew#OPL.o1-1=1=>>=,-:-<",
"88632792267332324777624f9888.oo..o#wwewO+.#OLIPIO+@3226353438258",
"hfhaspf43567458555s6493f9246  KL L+#XoXXKJIJGGPLIX+38229639948is",
"28594926342653557sh3569g298s IPIXJLPGILLLJKKXHLIGI 72377688fhdh4",
"3296848iihahfgdiap5387i338fXKLIJ#IIPIIPJPPLJP JHIG#hf58549p63895",
"42253fp27899988694374f33hsh#JIIL.JIOJIIGJPIGHJ.III# 5825ff444276",
"6978sa3322866425824gp74hf99#GI o+JLOIKJJILIIHGX+LLIX447gp2329577",
"973dg379978585235hi395ai997 HG  @II+JLGGJIIIIPJ+ IKO24h743332239",
"395s52329839835237592974599+IGLI PLJ.KPLGPGJIPIH@PI@895863834579",
"65456629:1>=--><>5769252752.GPIKoLLG#GFIFHJIIJJPI+Po474375222499",
";;;:><<-,***%$%&;-<=<:::;><#JJII#.PK# HIPLPILJGII@OX1=,1<:;-:->-",
"5927258911>,-=<<1997396443 OIJGFI@IIIOPIIIPKJGIPIo.X643686739237",
"656d34658644837593523266o ..IJIHLOIPGH@GKIJPJPK+XJL  84528463666",
"24ds8734758992252889837O+ILOIK.XI#IHPI. .JPKLI++IJLJ.#@89h243737",
"5ph5792672449479776246s  oIoOLoXI.XIILHI+oILPJXPIIIJ## O p@O@#55",
"df889872896347459672soOJI+O2.IJIJI#IIGILLP OPJ+IPL OmCV @7OCV is",
"654239699986722278dsOX OIL@XoHIIPIXLJJPIIIIX o+OIL+oVVCMO #Vm h4",
"532432367236822p #++XNV#@G . +PJPLO.IIJPJLIJIG@+ooXO X@OCVmM.X38",
"7fihpfpshpasiafo.VO.CVA@ Xo5f@FIIPJ@IPIIPIIKLIJJ+O25454X omNX.47",
"555553729233695.VCVmmX# 85963O.OLHL+IPILIIIILJJPXo4568863.+oO874",
">;>;:,;=1:1,<,-.VZC+ =>><:==-+cn#o++IIIIIGJIK#..#=:<<1-11--1==,=",
"794838848638282#X X.59585674ocxzbccb@ # #O.#@jk+2968354667695667",
"43572722546849866oO269879886 cczxbccznxccczcl o##587756898727468",
":,9962psfd787753374fp798389.XcbbxzvznblccczX zcn@6742528292692>1",
"69228sf54fi9397588765ssffphXzcccccczcczx    cnxx+.a2739485phs529",
"437ff88743ff759969766837227ocznccvxxnxoO  ccccccc#+pg6326694@Of4",
"37952487388sd37996659348667Xccczcczc#o486O+vzcxcncOof952362+@+X#",
"964575282526996934837399973@cccnzxc+.77762 @nznxcccb OO#O@o .+#o",
"929278285624636987386747866Onxccccco8948652 bxncxcxncnxvzcc +@XO",
";>1>>=:>=;11111-:1;;=1>=:=>-.cccccX@>=1-1;=1 czxncclccnccn.#O+ X",
"7922426768558425357429398436@ xvzc.2292256692+vnxcxcccccn.o4X  .",
"86243hhfd96869678966748588376Occnc.4382589767X.@nccnzccOoohag X9",
"334ih7254dh833484738976834964.Oncz@ssh248653phho#@X@#  Ofh98hi24",
"9hg9676872s8349hhhhh46763584agX+zc.73i7236hh9769as362782is922f97",
"8484254d5sa963d9583h94638hha836+XcO865939gs955556d9738244hh82d83",
"7443355adg394698654hhfsgfi558652.O.hf4932f7582546679686342234992",
"3478274539897455646788ag2392592X. .@8hhhf282858295797<-1-,177967",
"1=::<:;-11,>=<=1<--=<1,:>1:,<<X X o.,1-<<1;:=:<>>,==<1><,;,=::;;",
"454565779789525832262289543884O. @XO24353593826367h7842537993958",
"7439565hafh45232584283646hgpgd3@X.85787486afhhhg664hs93294hh8662",
"47827659822ah4465385633964726hh6767252695334463h328hg577785hh283"
};
