/* XPM */
static char *result[] = {
/* columns rows colors chars-per-pixel */
"64 64 95 2 ",
"   c black",
".  c #010000",
"X  c #000100",
"o  c #010100",
"O  c #000001",
"+  c #010001",
"@  c #000101",
"#  c #010101",
"$  c #070402",
"%  c #080502",
"&  c #080603",
"*  c #0D0805",
"=  c #0E0804",
"-  c #0E0805",
";  c #161007",
":  c #191007",
">  c #1C1209",
",  c #201509",
"<  c #24170B",
"1  c #2A1B0D",
"2  c #3C240E",
"3  c #3D240E",
"4  c #3C250E",
"5  c #3D250E",
"6  c #3C240F",
"7  c #3C2511",
"8  c #472D15",
"9  c #503116",
"0  c #5B381B",
"q  c #5B391B",
"w  c #6C421E",
"e  c #6D421E",
"r  c #6C431E",
"t  c #6D431E",
"y  c #6C421F",
"u  c #6D421F",
"i  c #6C431F",
"p  c #6D431F",
"a  c #6B4220",
"s  c #7C4D25",
"d  c #8D582A",
"f  c #A16530",
"g  c #A46630",
"h  c #A56630",
"j  c #A46730",
"k  c #A56730",
"l  c #A46631",
"z  c #A56631",
"x  c #A46731",
"c  c #A56731",
"v  c #F44236",
"b  c #F54236",
"n  c #F54336",
"m  c #F44237",
"M  c #F54237",
"N  c #F44337",
"B  c #F54337",
"V  c #22B04D",
"C  c #EB9346",
"Z  c #FEA04C",
"A  c #FFA04C",
"S  c #FEA14C",
"D  c #FFA14C",
"F  c #FEA04D",
"G  c #FFA04D",
"H  c #FEA14D",
"J  c #FFA14D",
"K  c #4C6CF2",
"L  c #4D6CF2",
"P  c #4C6DF2",
"I  c #4D6DF2",
"U  c #4C6CF3",
"Y  c #4D6CF3",
"T  c #4C6DF3",
"R  c #4D6DF3",
"E  c #ECBEA8",
"W  c #EDBEA8",
"Q  c #ECBFA8",
"!  c #EDBFA8",
"~  c #ECBEA9",
"^  c #EDBEA9",
"/  c #ECBFA9",
"(  c #EDBFA9",
")  c #FFA3B0",
"_  c #FFA2B1",
"`  c #FFFDFC",
"'  c #FEFFFD",
"]  c #FEFEFE",
"[  c #FFFEFE",
"{  c #FEFFFE",
"}  c #FFFFFE",
"|  c #FEFEFF",
" . c #FFFEFF",
".. c #FEFFFF",
"X. c white",
/* pixels */
"h j k j z z z c x l k g J G F l x z j x g l c j l j x z c J G G g l g l z l k z x x h g x g j J H l g l H F l h c l k g G G D k ",
"j x z h l g g k x g c k j j F G A x j z z A J l c j z h z j g F C k z h l h g k g k k x c l c k G F j g l J D k c l h j l c g h ",
"k k g g x j l c x l h j x j h x G G H A G D j k h h z z x a 7 : < j x g g j j c x l g h g k g j x j k x g l k h k x g g j k h l ",
"p e e y y y e e i u u r w p w e t p w r y u y p u t e ; $ # X ..  X + w e y r u e i u t u t i t e t t u p p r p p t i t y p t u ",
"l g x l x k z k z x x j c l j z z k k g j j g j k z c   | } X.| X.X.O g j k z g x k h z g x l x h l x c c x k g k z c l z h x g ",
"z x c Z x j g c k h j j H F A J S F J J G D S J + O J + [ { } ..X.|  .X # z k l x c x c x k x g g x l z g h c j G A G Z H Z H D ",
"A H D D j h x g h k h x x c k x j z c x o O # O [ X   . O # .   X.} { [ + l c c c x x g x x x c l z k j c l k g l k c g x z G F ",
"k c z g j c x j k x c l k c c x g l j @ X... ...} X. ...[   O @ X.X.] [ #   l j l z k j z x c k k c l l h l k j k c z k h F D S ",
"z j k j x z z j x g j h j j g h c l j h O X  .} # . ..{ [ @ O O  .X. .[  .X g z x x z j l k l g j h x g z z l c h l h l x k j k ",
"z H J A F D Z k g g k x c x j g j k k z . @ + O o   | X.{ ..[   # } [ | { @ z c h h c h l g h G F A J F A S D J j z c h z g k l ",
"c k j l j x j k h l g k j k g j l k h * O   o # ..X + X.} [  .X. .} }  .| . j h c j l z j z h c c g k c h z j g z h k k l h g j ",
"k z j l z z l c j x x l k g h g h h x , O ..] [ [ { } o o | ] | X.X. . .|   x j h c x z j h k z h j x c x l x c g l h x k j j z ",
"h z l h k g x g z j c j g h g j z k z 8   } X.} X.} |  .| ..| ..[ [ ] { ] o j z j z z k k g g x k g l h h h x g h g g l h g k h ",
"t r u r y r t w y u t y w y i w p y i 9 + o O # X [ ] } ..X.| } X.{  ...o . 3 4 4 3 5 u u p w e w e p r t t r w y w i e t t p u ",
"c j k z g j l h c g l l h x h g l c x k = z X   X.X.X.X.[  . .[ [ + # O O O 6 5 2 5 e t c g z z x l k c k k h k z z c j x x h g ",
"D G H D J A F A J H A k k j h c c l h j k h z   o X o   . +   o @ @ ~ #   + 6 4 6 p t h k c c g k l z c z g c g h k c z g G G S ",
"c h c l j h j z k g J Z G j x h x g g j x k h f j + @   O X . o E E ( ! V   u y t t g g k h x z c j x l G J J H F Z Z A S H l l ",
"l h c j g x k g z j h k k S D A h z h h k j h j g #   O # # + Q / ! W Q ~ O @ z k z z h z j x z z J Z H G c j h l g l h g z g z ",
"D G G A H A G H g c x c c g x D D S h z g c l j j   O o @ O Q   / ( Q ~ Q Q   # j x x h c j k g Z Z l h j x z A J A Z F Z F A S ",
"g z h l h j x A F G Z x k c h h j J G S Z x c l g k + X # o (   ! @ X # # + @   k j z g x l z g c c g z A G H D z j h x x c g z ",
"c z z c x k h k x k H D J h h c c x z g x j k l x o O + O E / #   E Q _ ) X x l h z z h g g k l k j A Z F j z c g k z z h j k c ",
"F G F J G z c x x x g g G D g k l z h h c l z h z O B # X X ! / W W Q Q ~ . l k x l z k k x z h g h l c z l j j g h j J H A Z J ",
"j h j x l j x k c k k x l z k x j x k j k l k   X @ B v B @ O X + + X @ + .   # + + h g z x c j k x x c l h h c h j z k l x g z ",
"e y e u y r e e u e w p u i t i u i r e t e X o { X.+ X n B N b N m n N M N b v . @ X i e p e u p u p e p w p w y y w u e t e i ",
"x x l h g z c g g l z h h g h g j z z z l @ # O ..{ ] |   + + + . B n b N @ O   @ @ . O h k j z c j h h g g l h k h j h x g k x ",
"J G J S D A G j h k l z j k x k k k D l j o @ } ] X.[ X.[ [ [ {  . .X.o X o | # [ } + @ l h c h h x k h x g g c l h c c j x Z D ",
"g x k c j c g l h j g l k h k k z D J h k O .... .| {  .X.[ [ | @ . + ..X.} ..@ | } { # k l j k k j j z g h z z l x x G J F J j ",
"h g c l x j x Z Z J S J G H F Z S A k h x . {  .{ [ X.X.|  .] ..[ | o O o X.+ @  .{ X.[ # g l c k g l J G k x k j c A l h x c k ",
"j g g k h G A g z x c c c x x l c j h z j X  .]  .] } | [ | ..| X.] [ ] X   @  .{ X...{ . h h c k j F Z k x g k G G j j j g z l ",
"l c z x D S h h g     @ # j g k x g j H A #   ]  .# o X.} X.| [ [ [ [ X.{ | o o ..] X.... x g g H A l g j O O - d g h g c k z z ",
"c z h F H h z c X . W ! X + X . k J Z h c O @ |  . ...+ | } ] ..X.{ [ [ X.[ } . | X.X. .X l J S J x k j + O W ~ % 0 h h g g h c ",
"h c k D k g h g + W / W W O O . + + k o X X o  ........ ] ] X.} } } [ X.}  ...  O { {  .+ + # l c O X O + X / W ~ & q h j k z c ",
"l k j k l l g c # ! ~ + / ! W ! . X   X + X } ....[ [ {   + { } } [ [ { [ } ..[ o O ..@ # o . X @ o ^ + O ( W / o @ g g g j c c ",
"r r r t y i i e O # Q . . @ O ^ E o { | @ + X.| { { ..{ X.  O ..]  .] ..X.X.[ } X.  #   ]   o { . # ( ! E ! # # X > r e t e y e ",
"k c g z g k x c p @ + O e w o o ~ O [ O ] X { ..} X.X...X.X.X ] } }  .{ X.X.| { ] [ X.|  .{ @ } [ . / . . .     1 s z h c g h z ",
"l k l F h j l k x l j j x h z # . X O # ` @  .| {  .} | [ [ } X o  ... .[ } {  . .X.X...} + X ..O # O + k x j k g x j l h l l l ",
"g j F D x z h j z k x c c g g k   x x . + + ..| } X.} .. .} ] } @ O @ | [ ] .. .]  .| X.' + ..+ . k k j k z j x c J g j h z h z ",
"k A J k z c g l z g j j c j z c z z l g j + X .. .{ X.] { } } ]  .X.+ @ .   ] X.[ } [ X.. O o o J H c h h c c h c A J g l c k k ",
"F G x x c x z g x c l h j z j k c l z g D J   |  ...X.] [ X. .} ....]  .O @ . . # @ O o X c h x x J S G k h j z z z A j g j Z D ",
"l k j g h c l c c c x l z g g g z x F D A h +  .X.X.] | X.X.{ [ X.X.} X.+ [  .| { X.+ o H Z A l l k l F A x z c h x c H Z G J j ",
"k h g j h g h l z g h l x g g A Z A A k h h # # O ] X.} X.| .. ...X...O o ..[ [  .{ O k j c J h l k x k c h g x x j l k l c h x ",
"z G Z J A G A D J A S D Z S G F j g z j z k @ .  .}  .[ { X.[ ] ..| ..X.O { | { | X.o h l D D j x k g k j k j z x z j j g c j z ",
"k k k k k h z g c g h h l c k z h l g x c l + # X  . .} |  .} }  .{ | ] X  .X. .X X O A F G k x g c j k l x x l h c j l j x z j ",
"y r y r t u r w p t p u i u e e i t p t y w y   @ + + } } .. . . .[ { } @ . o @ I R   u p t w e p w t i i p e p p e e p w w u w ",
"z c j x h x x j x l h x g x g c l h x l k c k x X I I X . @ O @ X . X   P I T I T L I g l c h l g c l x h k j l l z l c k l l z ",
"j h k z g z g g k j l x j c x l l j j g l c x z .   I R R I I L L P R I T I P P K R X k g k z g h k x z z k l x c x z g z j l x ",
"t u c c l g A D G F z x z z k h h z j G A z c x #   . o   P I R T R I I P I I P I X . h j x g x z l z j g k g x g c g l c g y p ",
"l c g g x D G k j G Z c h c z k x x z l k D D G X K L I O . L L U I R I P Y R R Y X X F k g j j j J S g z h c j x k A J D k g c ",
"j h z G G x x z j h G G z k c c l c z l l x h z   @ I I I @ O U I I P I I I I I X . # A A Z F x h g F A H l h g l l c j G G G j ",
"h z c k g j x z h x x D F h z c c l l k c h j x l . + R R R O T I R L T R P T I @ T   . k z G G g c g j G c k g h l g z l h h z ",
"c l j k z k g x g k g l c c l c h j x h z h c c c z o @ O . o L I R K I I L R L   Y K X l k c j z j z j c x z z l z x g k g g c ",
"c g c g z x g x k l g j l h l c x z h x l z j z x l l g + O L K Y Y L R P I Y o U I L   O k x l x c x l g j z j g l j k h h x h ",
"r y p y y w t y w r p p p p p e t p r r w p y w t w y O o L I I I Y T R I R .   P T P I X e u y y p w u w t e w e y t w r t t e ",
"z c g g j g l z l x k k x j g k h k z j g c h c x j     P I P I L P T U Y P # @ I I U P   z l j j j u w u p k x k x k j k l k h ",
"x l g j h J J G F c l x l c l z x c l l z j . k X . . I Y R K R K I L P O o O P P L I R   l c h j z z c l j c j j J J S H h h c ",
"h h j Z J z g k j F J x h h j x j z h X . O   O   P L R R X +   . . @ O X @ X L I P P I O J J A D z x j c x z z G J c x J Z g j ",
"c J H c l z l x z g D x h j c J J J J     .   X + X . X X o G G x k k z h Z     I I I U . z l c S D h l g z x g Z D c g g G c z ",
"x j x j g k j F k D S c l h F c k x h +   X   h x J J S x h l c k k c x l k c h + I I   O k k k l F c z h x g j j J J x g F x h ",
"z j j h h k k S F H h c j l c x l k j   O + O H G Z k k x l k g h c H J G j c h X   P X O g k j l l z c l x l h j g g h j c c g ",
"h j z x g z j k h c x c z j k k l j l o   . X H g h c g k c g x z k l z x J J J G   O . O   x g c k z c z i e p e u p z z c l z ",
"p w t t i t r e p p u y w i w p i e e     @ u t y p t u i i i i i r r y u p e i i O . X . # i y y u w w i p y i u r u w t t r r ",
"j k j k l k z z c z x c k g k x h g g l g g x c k j h x x j l x k z z l g j h k h   #     o   h l z J z x j g k h z c c h c k x ",
"z j h c k l k J S G J j k g h g k x j g x h l j l J H A H F h l c g x k z x z j x l @ X O   J H l l j J D c h g c j J J x l l g ",
"j z x g z l k c x g g S J j j l k h x k l h h c l j z g l J J l z l z g k g l c k h h j j l h J h g x J H k z z z x k J J g x h "
};
