/* XPM */
static char *result[] = {
/* columns rows colors chars-per-pixel */
"64 64 65 1 ",
"  c black",
". c #010000",
"X c #000100",
"o c #010100",
"O c #000001",
"+ c #010001",
"@ c #000101",
"# c #010101",
"$ c #3C240E",
"% c #3D240E",
"& c #3C250E",
"* c #3D240F",
"= c #3C250F",
"- c #3D250F",
"; c #6C421E",
": c #6D421E",
"> c #6C431E",
", c #6D431E",
"< c #6C421F",
"1 c #6D421F",
"2 c #6C431F",
"3 c #6D431F",
"4 c #EC1C24",
"5 c #ED1C24",
"6 c #EC1D24",
"7 c #EC1C25",
"8 c #ED1C25",
"9 c #A46630",
"0 c #A56630",
"q c #A46730",
"w c #A56730",
"e c #A46631",
"r c #A56631",
"t c #A46731",
"y c #A56731",
"u c #FEA04C",
"i c #FFA04C",
"p c #FEA14C",
"a c #FFA14C",
"s c #FEA04D",
"d c #FFA04D",
"f c #FEA14D",
"g c #FFA14D",
"h c #02A8F4",
"j c #03A8F4",
"k c #02A8F5",
"l c #03A8F5",
"z c #02A9F5",
"x c #03A9F5",
"c c #F4E49C",
"v c #F5E49C",
"b c #F4E59C",
"n c #F5E59C",
"m c #F4E49D",
"M c #F5E49D",
"N c #F4E59D",
"B c #F5E59D",
"V c #FEFEFE",
"C c #FFFEFE",
"Z c #FEFFFE",
"A c #FFFFFE",
"S c #FEFEFF",
"D c #FFFEFF",
"F c #FEFFFF",
"G c white",
/* pixels */
"0qwqrreewe09ggsrteqteeyq0wtryggger9teewrtw09q9qgdeeefse0yrw9dfaq",
"etrre990t9ywyqsgatqrrigeyqy0rq9dg0r0ew9w90qtyerwddq9rdgwwewqey9w",
"wt9qtqeytr0qqwrtddssdaq000rrtewytwtw9qqrtt9r900qtqer9ew0yt99qw09",
"3::<<<,:2133;,;:,3;><1<31,:3:1::>2,<:2>1,2121>2,:3,133>:3>2,<231",
"e9yetw0qrttqyrqrewye9q9qwytterqeet99wwr9tw0r9eet0etyytw9wrtee0tq",
"rtyutq9yq0qqfsugpsggdapapsfitqt0er99yrwyttyytwt99ter99wqdidsfufs",
"ufasqrt90q0qytqtqret09ee0ywduufs9eety9wyyty9tttyer0qeew90wr9trds",
"wyreqttwwty9wqyt9etqtw99rwwy9t0ewyytyreweryqyqywwyee0e0q0yrwqdap",
"rqqwterqy9q0qq90req00yqeew99wrqqr9rw999eyteq9we9q0r99eer0e9etwqw",
"efgisgpwr9ttrtq99wwry0wytre .  yrwqetryy00t0e9wdsdgsipagwry0eewy",
"ywq9qetw0t9w9w9e0w0supitet  GGG w0etq9q0tqeywr0ww9ywerq0yrqwe0qq",
"wrqeereytqyeq90q00ewewwa0XGGGGAO9qwwtqyq0wtrq0qr0qtytetw9ertwqq0",
"0ee0w9t9rqeqe09qrwrerwyq  SGSCGore9ee9qrX r0w99tweq0q0y9099e09w9",
">>1>;>,;<;,<><2;3<2;31<1 AGAGGG ,,$% . OGG X11;:;:12,,>;<;21,>31",
"rqwreq90t9ee0t9qeytwqytX GGSADG y:+@OGDGGGG r9rrtewyww0yrrywty90",
"adfagdsugfawwq0ywe0qq0r ZDZFGGG  . GGCDAG   y   .eyyr9yqr0rr0ddu",
"y0weq0qrw9fsdqq0tq9qtq0 GGDAGGGVGGGGGZGGG o  XGG  teiggfsuiipsee",
"e0yq0yw9r00wwpia0r00yq0 GSFFGDZGGGGDGFGAAGFAFGGCG@ fdyq0eee09r0r",
"pidifadf9tewy9taufwy9reXGZGAGGDGGGGGADFGGGGGDDGGGFO00eyisiuuusip",
"9rr90qtasduy0y00qgdpuqy GGAFFZZGGAGDVZDGGGGDGGFGDF riduarw0ttter",
"rrrytw0ytwfag00yytr9wqwe GAGGGGGADGFDGAGGGGGGGDGG. usqry9wyr0qry",
"fdsgdwyttt99da9wer0rwee0.GGGFFFGGGGGGFGGGGADGGDO.@9r099q99qggiug",
"q0qteqtwwwwre0wtte0qw0we9.AGAGDFGGFGGAGGGAGGO @qwytyr0wywwt0et9r",
":<;1<,<:1:;33<;212:,3:1,:XGGSSDAFAGFCGDGGFGG 312313,:;3<1<;<,,;2",
"ttey9ry99er00q099yert09dw GSAD @    O     . .qtry9r0q9rww099yqyw",
"adgpiidt9q0yqwtwwwge9yrOo     NnbmbmmNNNNmm eey00tw0e99ye9yyttaa",
"eywr0ye90q990www0af0weXNNmbBNmNNNBNNmNnnNbNBO qwwwqr90rrettddsg9",
"09yet9tuugugsfsiaiwrOOcNNNNNNmNNmNNNmNN  NNNN@ rqq0gdwtwqydr0tyw",
"wqew9ddqrtyyttt9yqr@BNNNmnNbNNNbNNNncN. zO .bNb@.qfuwy9qddqtw9re",
"eyetap009qtr0q9wt0q mNBNnBNbnbMBbBbNN .hkkk  MBN+ r9qwrsi9rqywrr",
"yy0df0rwyeewyw000gObBbNNMmNN    NmNNN kzkkkh .NNM Xq9qarq90y9try",
"rywgw909yt0tt0q9wr  mmNNNBNb kz bmNNb  kkkzkk.NNNN ytywteqq0qwry",
"eyqwet9y,31>,:<2<q .BNbNNNbN zz nmmbBNOxkkkkk+NNNNX9qeq090r9qqwy",
">;>>222:1---*&*=>3 4ONNvNNbb    bnNBNN hhkklj NNNN.;3:132,>,,:1:",
"wt9y9wty33<1:<223X 47  NNNNBNNcmNNmNMN   kk . NNb  9eq0eteewyq00",
"twesr99wteqqt9ywe  565OXNNbNNbNbNBbbNbBB@   NNbNN.09yyqw9eqr0eee",
"99sgtr0t0wtwy0e0O   554OO XNNNNbNNNNNmmNNNBmMNBN owqwrqtyg9q00wr",
"yiawry9yy9wqyqy OBN..44445 @  NnNNNBNmMBNbNmNNNm+gy09yy0yige9tww",
"sdttytr9tre0 X@nBNBbb 67464445    NNNBNNBNBNbN O gpdw0qrrrdq9tua",
"e0q90y9yytt XNbNNmNNmB+O4474754444O.+o    . XO.  Oygdtrt0erfidaw",
"y0qq990er99ONBbbNNMNNNN OX 545745844445444444+ NNbX y0qteqeq9y0t",
"wdididiagi cNcNNNNBNNNNNNm  Oo   XOOX o+o  . NNBmNbO .9ryrqtewqr",
"ywwy0reqy9.NNNNNNNBBNNNNBcNNmNbNBNNmbBNNnNBBNNbNNBmbN  e0r0ewtrq",
"<><>,13;3 NmNNNbNNbNbBNNMNnNMNmBBbNmNvNbNBmNNNnNNBcbmM .3:,3<;1;",
"ryqe0tttt  NNNmNNbNNNNmNNNmNBNNNNBBNNNNbNmBmNBBccNcNbmN eret0ere",
"twyt9r99wqObNNBN X ONNmmNmmmNbbNcNBmNNmBNNnmNNNNNmBNNMmOy0r9rwet",
",1tq90iadsr XO  0y9d OXNNNBNNbNBNmNNNNBbNBmmBNmmmNNnmNN ew9ey9<3",
"ey99tpiwtgur0trwtty9w@ mNNNmBNNNcmNbBbNmNNbBNmNmMMNNNNBOyqigaq0y",
"q0yddte9q9ddrwyyetree.NNNNbBNBBNNvNMNNm.  NmNNNNcbNNN O@9etqiidq",
"00wye9er0ttis0ryye9w BNbmbNNBNNNNNNNm# te..mNBmNmmN #ey90e9re90r",
"weqwrwwy9w9rwy0reqe XNNbBbBNBNNNmnBBN.rre0  NNBbNNc ytr9rytewe0y",
"y9w9re0twe99eweytrwXNNBNNcmNbNNNN #  yt9e9r  BbmBNN qqry9qqw09t0",
">23<<>><;;23331:,3>XXNMNNNc .  OO311<;3132<3# NmNb O;,:;:1,:>,:,",
"ry09qrer9twwtqewywrt.NNBNN o1<1;1,909y99qeey9y@ NN@>12wtwqyq09ww",
"te0qqgfguyrqey9rryee  . XX ret0qy9yq0t9ytwrerey O ry9qyqtfgpg00y",
"rrqigr9rqsgq0eqqqr0qyyet99yet9rdfgggda0qtty0pgaigetqyerrggttguqq",
"rgdreyetreat0tyggffgwere0wtqpffgywwr0ur90eggtreypd0e9rt9ipy09dyw",
"tqt9qtqdraptt0sywq9gy9e0tggst0etwwyteww0yfayywqwefyrrq99wggy0fq0",
"yqq00eypsf0yq9ytewqfgsufdfwwtew90yfgdtywedryt9yqe9ryetr0q990tyw9",
"09rr9rt00ytyyqqweqertepg00t9qy9yr0erqafgd0t9y9r9wyryr3:3:13ery9e",
"3>,,2,>,,31<;2>3<1:;221><3,322>222:<13,2<3,>;,22<1;;22<23,1;>,2>",
"qweyewwryrtytqwe099e99ty0qwtttetwe0r9w00r0y9rre0erart9900rrt0ywt",
"rq0yyewgaggqw99qwtqet9rqeggppg9ty9tyrt0wtepdgggftrqggy99yqggtre9",
"9rq90ewyq00ugqery0tqe99yeqr9egge0er9w9eww90tqr0g09egfterrt0ggqq0"
};
