/* XPM */
static char *result[] = {
/* columns rows colors chars-per-pixel */
"64 64 108 2 ",
"   c black",
".  c #010000",
"X  c #000100",
"o  c #010100",
"O  c #000001",
"+  c #010001",
"@  c #000101",
"#  c #010101",
"$  c #110B05",
"%  c #120B05",
"&  c #191918",
"*  c #3C240E",
"=  c #3D240E",
"-  c #3C250E",
";  c #3D250E",
":  c #3C240F",
">  c #3C250F",
",  c #3D250F",
"<  c #372210",
"1  c #3C2712",
"2  c #3E2612",
"3  c #4D3016",
"4  c #4D3116",
"5  c #4E3116",
"6  c #633D1D",
"7  c #633E1D",
"8  c #643E1D",
"9  c #6C421E",
"0  c #6D421E",
"q  c #6C431E",
"w  c #6D431E",
"e  c #6C421F",
"r  c #6D421F",
"t  c #6C431F",
"y  c #6D431F",
"u  c #7E4E25",
"i  c #5D5D5C",
"p  c #EC1C24",
"a  c #ED1C24",
"s  c #EC1D24",
"d  c #ED1D24",
"f  c #EC1C25",
"g  c #ED1C25",
"h  c #ED1D25",
"j  c #895629",
"k  c #8F5A2B",
"l  c #9F642E",
"z  c #A46630",
"x  c #A56630",
"c  c #A46730",
"v  c #A56730",
"b  c #A46631",
"n  c #A56631",
"m  c #A46731",
"M  c #A56731",
"N  c #F54236",
"B  c #F54336",
"V  c #F44237",
"C  c #F54337",
"Z  c #A9E61C",
"A  c #A8E61D",
"S  c #F79C4A",
"D  c #FEA04C",
"F  c #FFA04C",
"G  c #FEA14C",
"H  c #FFA14C",
"J  c #FEA04D",
"K  c #FFA04D",
"L  c #FEA14D",
"P  c #FFA14D",
"I  c #02A8F4",
"U  c #03A8F4",
"Y  c #02A9F4",
"T  c #03A9F4",
"R  c #02A8F5",
"E  c #03A8F5",
"W  c #02A9F5",
"Q  c #03A9F5",
"!  c #EE9A9A",
"~  c #EE9B9A",
"^  c #EE9B9B",
"/  c #ECBEA8",
"(  c #EDBEA8",
")  c #ECBFA8",
"_  c #EDBFA8",
"`  c #ECBEA9",
"'  c #EDBEA9",
"]  c #ECBFA9",
"[  c #EDBFA9",
"{  c #F4E49C",
"}  c #F5E49C",
"|  c #F4E59C",
" . c #F5E59C",
".. c #F4E49D",
"X. c #F5E49D",
"o. c #F4E59D",
"O. c #F5E59D",
"+. c #FEFFFD",
"@. c #FEFCFE",
"#. c #FEFCFF",
"$. c #FEFEFE",
"%. c #FFFEFE",
"&. c #FEFFFE",
"*. c #FFFFFE",
"=. c #FEFEFF",
"-. c #FFFEFF",
";. c #FEFFFF",
":. c white",
/* pixels */
"x c v c n n b b v b x z P P J n m b c m b b M c x v m n M P P P b n z m b b v n m v x z c z c P K b b b L J b x M n v z K L H c ",
"b m n n b z z x m z M v M c J P H m c n n F P b M c M x n c z K P x n x b v z v z x c m M b n v K K c z n K P v v b v c b M z v ",
"v m z c m c b M m n x c c v n m K K J J K H c x x x n n m b v M m v m v z c c n m m z n z x x c m c b n z b v x M m z z c v x z ",
"y 0 0 e e e w 0 t r y y 9 w 9 0 w y 9 q e r e y r w 0 y 0 r 0 0 q t w e 0 t q r w t r t r q t w 0 y w r y y q 0 y q t w e t y r ",
"b z M b m v x c n m m c M n c n b v M b z c z c v M m m b n c b b m z z v v n z m v x n z b b m x b m M M m v z v n m b b x m c ",
"n m M D m c z M c x c c L J D P G J P P K H G H G J L F m c m x b n z z M n v M m m M M m v m z z m b n z z v c K F K J L D L J ",
"D L H J c n m z x c x c M m c m c n b m O O b b x M v K D D L J z b b m M z v M M m M z m m m M b n x c b b v z x v n z m n K J ",
"v M n b c m m v v m M z v c M m z b @ o *.. z z n v v M z m x b v M M m M n b v b n M c M c M v v M b b x b x c x M n v c K H G ",
"n c c v m b n c M z c x c l 4 + # O =.*.o # c b b v z z v n c c n z n v z z z b M m b c z v b z c x n z z b b n x b z b m v c v ",
"b L P F J P G v n z m m 6 $ X # # . ;.;.;.x v M m n b m z x z M n v c b m n M M x x m x b z v K J K P J F G H P v n M x b b v M ",
"M v c z c b m v x m z v . @ *.%.. =.$.-.X # F m b m M z m m n M v x b m c z c x m c b M v n x v v z M v b n c x M n c v b x c c ",
"v n c b b n b M k 2     . &.%.%.. ;.&.;.. o v H x x b z m M b c z c v v m c M c x v m n c x c n x c m M m b m v z b n m v c c x ",
"x b b x v z m z . + .   -.-.:.;.-.;.*.$.@ @ @ c n z z n M M n v n b z b b z c n c n n x v z z m v b c x c x M z x z z b x z v z ",
"q q r q 9 q w 9 . o ;.O $.&.$.:.%.-.$.&.&.X e r w 0 q q t t 0 r w w * = * : = > , * ; r r r 9 0 9 0 r t w w q 9 e 9 t r w q y r ",
"n c v n b c z x   &.=.. *.&.;.;.&.$.&.$.O @ m b b b v m m b M x o 0 @ X o X o ; = - 0 q n z n n m b v M v v x M n n M v m M z x ",
"H K L H P K J # *.*.=.&.-.=.:.%.%.%.=.*.o o @ M m v x b x n o   } } } { | o.o # . o w n M M M z c b M M n z M c n x n n x K K D ",
"M x v b c x c n X ;.=.*.%.*.&.-.*.:.$.. o ] / # c c v z z     { } O. .O.O.X.O..   O z X x x b n v v m b F P P L J D F F G J b b ",
"b x M c x M v z o X # :.:.-.=.-.;.X   +   ) ) O O m c x c | } O.} { ......} } { } o.@ . n c m n b P D L K M c x b b b x z n x n ",
"G F K F L H K L z m o + :.-.*.  O / ) Z ) [ _ ] O c x v x   .  .o.O.| X.X...O.X.O.} #  .X M v z D D b x x b M F J F D D D J F G ",
"z n n z x c m H J K D M X +   X ) (       ' O ( ' + n   X O.O.} } o. .R | T T E | X.O.o.. b x b v m z n F K D H n v x m m m b n ",
"n n n M m v x M m v L H O + ' O ( _ O   . + ' + . . o X @   { O.X.|  .T I  .I Q O... .}  .O v b v c F D J c n M z v M n x c n M ",
"L K J P K v M m m m z z + [ ) A o o $.*.B . o ) @ h g . @ } | | | |  .T T U T T o.| O.| O.o M v z x z n x z z c z z c P P F D P ",
"c x c m b c m v v v v n @ O ( ` ` + C B ~ ^ [ ` s a   @ ;.  O.X.o.}  .T T T T T | }  . .} O.O c v M m M n x v M v v m x b m z n ",
"0 e 9 r e w e 0 r 0 9 y y o ] . [ / ) ! ' ) X O f @ =.&.-.@ O.| |  . .X.E U T T {  .T T | |     + r y w 0 9 y e r e 9 e w w 9 t ",
"m m b M z n M z z b n x x c + ] O + _ ] ( o O a p # =.-.%.*.  O. .| | } O.{ X.X.| o.E T X.o.X.} . z n x c z n v v x z z M c M v ",
"H K P G F F K m z c x M c v @ X ] o X # o p g X X &.*.&.$.-.O  .}  .O.o. . . .| O.| T T o. .{ ..X.o v x b z z M b z M M m m H H ",
"b M v n x M b z x c z z x o . N V d + p g @   -.=.-.=.*.%.o . o... .|  . .} ..O.| Q E I U T X. .X v c n z x n n b m m K K J P z ",
"x z M b m z m D D P D P O o X N s d X g f   %.-.=.*.*.&.+ X X.O.  O.X...O. . . .| O.Q U Q Q X.X.O.. x P K v m v c M K n x m M v ",
"v c b v z K K c n m . . =.$.$.=.&.@ O f o o &.=.=.-.@ O O.o.. +   X.X.o.O.| ..| } } E Q Y T X.{ o . O O v M z c K K c m v z n b ",
"b M b m H G x x z c o %.%.-.;.;.=.-.&.+ *.-.*.&.$.%.o   o.o.:.%.*.  o.} o...o.o...o.W T o.o.o.| { X o.O X 8 n J F z n c M v n n ",
"M M x K L x n v M O :.=.-.$.;.;.&.*.X =.=.=.&.*.-.=.X o.o.  =.$.%.  o.o.o.| o.o.O.O.O.O.O.| O.O.o.X.X.O.O.% S n c z x M z m n M ",
"n M v P v z x z M   &.=.%.%.=.=.&.:.:.@ =.;.&.$.$.&.O  .O.o ;.%.$.o.| o.o.o.o.O.| o. .X.|  . .O.o.| | O.O.. 5 m b c c x c v n M ",
"b M c v b m z   X =.-.;.:.*.=.*.&.-.=.# =.*.:.%.$.$.    . $.%.:.$.o.o.| | X..   O.| O.{ | X.} { o.  . O {   c x z x n z c c v M ",
"q 9 q q t t t . :.-.;.*.*.*.%.$.:.=.;.&.X %.$.@ @ + ;.*.$.&.;.# + O.o.o.o.X.X { O .  .| } } } X.o.  r o   0 r y t w q w w 0 r 0 ",
"v m z M z v m   ;.-.&.&.:.*.:.@.+.& i &.o   ;.$.  -.$.:.%.O   .. .o.| o.| o.o...    | O.o.| | o. .+ v   b c x b m b b v M c x x ",
"m v b J n z z   *.-.$.&.=.%.;.#.%.%.;.. ;.  -.$.$.-.=.%.+ @ | X. .o.o.O.O.o.o.| | O.   .X.|  .| o. .... M M c v z b c n x b b b ",
"z z J P m n x m O =.;.:.=.;.&.*.-.$.:.O *.%.+ %.:.=.  O @ o.o.O.o. .o.o.| o.O.o.o.o } } }  .o.{  . .o.O.o n c m M P z c x x v n ",
"M F H v n M z u .   ;.-.$.=.$.;.:.&.&.+ O %.# &.  + | @ @ | } O.O.{ ....o.o.O.O.| X.|  . .| } } | .. . .. M M x M F P b z m v v ",
"J K m m M m n z m   @ =.*.*.&.%.:.;.*.X # # *..   X...@ } |  .o.o.o.o.O.O.o.o.| ..|  . .O.| { } X. .o.O.o x c n n n K c z m D H ",
"b x c z x M z M M m O . . *.%.-.&.:.&.$.    ;.    o o.o.| .. ...X.O.o.o.O.| o.| O.o...} }  .| |  . .} + # m n m x b n L F K H v ",
"M x c c z z x b n z z o ;.$.%.$.:.$.*.+ #   &.*.@ o .. .O.o.| ....o.| o.o...X.| o. .{ O.| } .. . .} o.{ X O c m b c b c z M x m ",
"v K F K F K F H P F J H + . -.&.%.*.;.-.:.o + + + . o o.o.| ..@ O {   ..o.o.X.o.X...o.} { o. . ...| O.O.+ X O X M n c m b v c n ",
"M v v M x n b c M z v n b M v =.+ ;.@ %.@ @ # o O . o...| O.O   | {   o.O.O.o.o.o.o.o.o.O.O.O. .} | | o.o.o.    x n x b v m n c ",
"e q e q w r y 9 y y y r e r 0 X . . &.X . [ ' # # o X o.o.o...O...o.. o.| o.o.o.o.{ | O.O.{ | o.o.. o.o.O.o.o.X.o 0 w y e 9 r 9 ",
"n M c b x m m m m b x m z m z n # O .   ] ] ( ] [ O   { o.| { o.o.  O.} O.o.o.X.o.} { X. . .O. .O o...o.  # o o.@ n b m x b n b ",
"m v M m z n z z v c b m c M c z b c + . / _ ] ) ) _ ( @   | ..|   X ......o.o.| O.| o. .| X.o     O c . n v n . . . n z n v b m ",
"w r m c z x F H K J n m b x M n x M + O / @ / O / O ( O   O...o.@ o.O.o.o.o.X.o...o.o.X.|   .     b x z z x b m + v z b M z e y ",
"b M z z m G F v m P D n x m n v m m M z .   . + @   . | . ....O. .O. .O.o.o.o.o. .o.X.| +   . c c P G z x x M c M c F P H c x M ",
"c x M K K m b z c z K K n v M M b m n b b m v n z c o O O   o.o.O . o.o.| O.X.| ....O.o.. O.  c x c J K J b z z z b m c F F K c ",
"x x v M b z b n x m m F J x n M M b z v M n c n b b M x + X ..o o X.| O.O.o.} o.o.o.O.o.o.o.. o.o M z b K b M z x b z n b z x n ",
"v b c v n v v M z v z n v M x n b c b x n x M M b n x M x o   @ X O.| O. .| |  .o.o.o.O.o.o.| o.  c n c M m n z n M m b v b x M ",
"M z v z n b x m v b z z b v b M m n v b n n c v m b z c c b n . X     X @ | ..X.O...o.| o. .o.o.  . m b c c n M z c c v x z m x ",
"q t y e e q q e 9 9 t y y y r 0 w y q w 9 y e e w 9 e 0 0 y 9 9 e X O + . #   | ..o.} ..o.X.{ ..o y 9 y 9 w 0 9 0 r w 0 q w 0 w ",
"n M x z c n b n z m v v m c b v M v n m x c n m m c x b r e r 9 r w z x   O o.| O.o.X...o...| ..  c r q r t v m v c M c x z v v ",
"m b x c c P L P D M n c b M z n n M b b b c z v b m x n b m x c M z M c x # o...O.O.} X.O.o.O...# v n M z c M c m L P G P x x M ",
"n n c F P n z n c J P c x b c c c n x c M M b m z z M b m z n K L P P P . | ....{ ..X.O.O...} + 1 b m c M b n n P P m m P D c c ",
"n P K n b M b m n b H m x m M P P L L P v b n b x v m c G L L P M v v n x . o.O.| ..o.o.|   % 7 G K x b z n m z F G M x z K M v ",
"m c m z c m c K n H G m m x J M v c z P M z b x m P P J m x b m v v M m @ . o.o.O.O..  .  3 l v b L M n n c z z v P P M x L c x ",
"M c c x x b M G J L x M c z M m b v c L P J D L K L v v m b v z x M L P O o.| o.  X   < j z M c b z n M b m n x c z z x m M v z ",
"x z n n z n m x x M m M M c c v b c b n m b G P x x m z c M z M n x b n + o.O @ K x m z M z n z v M n M n y 0 y 0 r y b n M z b ",
"y q w w t w q w w y r e 9 t q y e r 0 9 t t r q e y w y t t q t t t 0 @     w t e y w q 9 w t t e r 9 9 t t e t y w r 9 q w t q ",
"c v b M b v v n M n m M m c v b x z z b z z m M x c v m m m b m v b x n z v x x n x M z n n b x b n H n m z z x x n n m x M v m ",
"n c x M M b v P H P P c v z z c v m c b m z n c b P P G G P z m M z m M n m x v m b G K P P P L m n c P P M z z M c P P m n b z ",
"z n c z x b v M c x x D P c b n M x m c b z z M b c n z b P P b x b n z v z b v v z x m c n x P x z b P L m b n n m x P P c c x "
};
