/* XPM */
static char *result[] = {
/* columns rows colors chars-per-pixel */
"64 64 63 1 ",
"  c black",
". c #010000",
"X c #000100",
"o c #010100",
"O c #000001",
"+ c #010001",
"@ c #000101",
"# c #010101",
"$ c #3D240E",
"% c #3C250E",
"& c #3D250E",
"* c #3D240F",
"= c #3C250F",
"- c #3D250F",
"; c #6C421E",
": c #6D421E",
"> c #6C431E",
", c #6D431E",
"< c #6C421F",
"1 c #6D421F",
"2 c #6C431F",
"3 c #6D431F",
"4 c #A46630",
"5 c #A56630",
"6 c #A46730",
"7 c #A56730",
"8 c #A46631",
"9 c #A56631",
"0 c #A46731",
"q c #A56731",
"w c #F44236",
"e c #F44336",
"r c #F54336",
"t c #F44237",
"y c #F44337",
"u c #FEA04C",
"i c #FFA04C",
"p c #FEA14C",
"a c #FFA14C",
"s c #FEA04D",
"d c #FFA04D",
"f c #FEA14D",
"g c #FFA14D",
"h c #4C6CF2",
"j c #4D6CF2",
"k c #4C6DF2",
"l c #4D6DF2",
"z c #4C6CF3",
"x c #4D6CF3",
"c c #4C6DF3",
"v c #4D6DF3",
"b c #ECBEA8",
"n c #EDBEA8",
"m c #EDBFA8",
"M c #EDBFA9",
"N c #FEFEFE",
"B c #FFFEFE",
"V c #FEFFFE",
"C c #FFFFFE",
"Z c #FEFEFF",
"A c #FFFEFF",
"S c #FEFFFF",
"D c white",
/* pixels */
"56769q9q0874gds4096049q68409q.Od#.OX98790054046gf848fs85q874sii7",
"609484470..  Xsdi0699ifO  9 XDXoXDDAO5474770q8q7df648ga7q0468q45",
"7744068q0 mnm@50ddfidX#DDX#.DAD DADD+6690845474706704875q0446758",
"3::<<2::2 omXX;:,3>><.CDSDODSSDODDD#.<>1:21,1,2,:,,:33>33,2,<3,1",
"84q8079790 mX86997786#DSDDAVSDC.DZD 67940q594840580qq07479q89404",
"90qu064q75 +.sugpsggdXDDZDDCDDSDSDD 09780q0q0704408945q0didufufa",
"ifaa65045.OmOq7069q05.OOSDZDSDDDDZoX04qqq004000q8976q87487q40qsd",
"7q946q067XMmOqq04876966#CSACCDCDDS@ q986897698q77q88587q7q575sap",
"967609960 Mb 645q4655q6oO+@+O@+ADA+X4449089687846504998q58580767",
"9fgifau74oMnmX646779q57X..o.#OXX+X#X099q54q5845dsigsipag69749478",
"q76860675X. O+46875fdai . #O @+O#+XX6469q699695qq477496495768546",
"796999096.DS.XXO5507977 o  ++ @+. O+06065q096575560q080q48707669",
"598574048X  DDDXX7809q@.Oe.#X+@+e+X 9869699775407489550454499475",
">>1><>:;<  BDSSDO 2;1oX+orweeweeeO#Oo*$%%$&113;:;:3>,,>;<;2:,,21",
"q6794684q4.DDADDSO+ + CAOeweyeeXXXDDO o+ &1,0899087q775799960054",
"adfagdsigfoDADDDDVDSDVDD@XeetX.@DADADD#D   O7.94789qq4q457q94ddp",
"q7q8656974OOADDADDDDNAADSoo#oDDDDDDBADDASD @@ O9q608dggfsuuipf88",
"89q65074965XDADSDDDDDADSSDDSDDSDCDADVDCDDDBDDAXX aufdq0784874949",
"adddsidf4q0O.DADDDCDDSDSSAS ASDCAASDDACDDCDDDDCDo 8560qigiususdp",
"4858560isdu0  VCZDSVDDADDDD .SDX DDACDDCDDDDADSDD  9idfi96900q89",
"q99q075707fagO DDCCASDSDCBCA#@DXDDASDDCADDDDDDSCDD.uu6974qq9566q",
"sdsgd9000044dgo.BSBDNDDDDDDADSDDDZDAZDDDVDDDDSAACDD.q864456gfaug",
"65008607q770897+.CCDDDDDDADCSD#DZADCSDDSDSBDD  DDSD.855q56978049",
":<:1<>::1:;312,2 +DASDDDDDDSS.@DDCDSDDDDDCSDD. DDDD  ;3;<<;1:,:2",
"008549q4489954546O.DDDZADDDDDOXDDDDDDDDADASAC#..DCDD 58475650400",
"gdgpidd65789670777 DADDDDDDCDDXSSDDBDDDDASDADXqODSAAO45q89qq60ua",
"407q6q48564875579a DDSSDDDDSCAACDADDSDDDDDDSD@6XoDDA@599800dgsg6",
"54q8060uugpgdfsupi.SDDCAAABNCZDSADDADDSDDDDC#48q  Xo q076qi850q7",
"64475di490qqq0q866  DCDDDCSDCDSDSDDDVCASDDSo.55qXDDD 047dg666598",
"8q90aa5944088645046X.XDDDAADADDDCDCZSDDDDXXqq044OXX .09fi854q799",
"q95sf59qq90707457gookl+...DDSDA oo . ### kX+98gpg.mX 0g96555445q",
"5q7i7454q05qq57459ohkkzkkcX  X@kkkkkkcckkhkOgd68q MX077085056797",
"876q888q,31;::<2< @zlkkckckkkkckkkhkkkkkkchkO806q m 69659744460q",
">>>,<22:1-=-*%*=>Okkkkchkkkkhkklkkklkzkhkkkk O2;1 b@3>133,>:,:<1",
"77494q0q31<1:;223OOhlhklkkkkkkclkkkclzkckhlklX+6qXO486580899q459",
"878s94870866059705Xkclkkkhkkhlh#kckclkjklcjkhcX6XX O706740685888",
"46sa8956970q954740okzkkkkkkcvvhXckcchcllkkkjkv+9 .mX#960qg465859",
"7ig79q449466q45q99+khkkjclkclk+Ookkklkkjlhckkc#d mm  qq5qig48977",
"sd00q0940q956567q89 kkckkkkklXOg@Okhcjkkkckklk.0 X  756998i646ua",
"87648q8qqq08q48598d .klkllchO ui7  X+ckcklk kkv#878si89q50qfudg6",
"656654599458044iuii7Ockkklkc#g7878OO @O.kkc+kvk+8q07q54006858750",
"9dpfidiagipappds64q6o+kkXoOco598504655d.#hOckkv.0757676909468q6q",
"77777594q4558q794846q kkkchkX986569q77q#oO kkkl.4q65800859686096",
"<><>,1>;3>3121::2:3,<XkhlkkxO+3;;<:>31< lklhkk@.3;,223;33::3;;1;",
"5q60500608504q4q85087.Okj.@ll@97757808#kkchkcOo84q804768098q7889",
"6579494876806q0886648qOOkkkklO78847@7+llkhk#+79457099780q0949680",
",1qq84iids909975596di9qXkkkkk.67qo@ .kklkh .6050989647404q4874<3",
"8q440as76duq5q970094qaaX.vlkk.6ig  oohkoOXfs74666gp495q607iga747",
"459gd00965dd97q78q988059#kkkk@a70.O + @ 657iius054sig85488q6ddd7",
"99q74609500is59qq887q56qo hck.679 X.#860965079dg4q46dq7458694759",
"q84797408758qq8q580595qqq.kklX56qO@Oq95q844687q65696q0998904744q",
"q47496407846858q095089690 +o O5785O@0q60874847080q08469648675505",
"><32<;,<;>23331:,3>>;3<;,X o+#2;2;11<;3:3;<3<:1<<3;1;,:;:<:;>:,:",
"9q4464899076064757904q5q.X  O#1;1,444944788q6986661;137070777875",
"08465ggdsq008q890q889607 X . #5677q650470q9898q5699q86q66ggpf55q",
"556ug9477sg055606990q9805 .XO45dsdgpag470875iggia906q099dgq0gu40",
"qgfq898694a056qggggg68985706pfdg87795u9458ggq98qpa584904ua044dq9",
"0666477sqapq85sq705gq6850ggp059qq79087q5qfaq77778iq946466gg04s05",
"96655q7fsf506800976gfdpfds7708745qfgd7q54g976476889q8q8564856qq4",
"569045775q0q9677868980pf45q47q4096890gggd5060704q69q92:3:1399q85",
"3;,,2,>:331<;2;32::;231,<33122222,><13:223>,;,21<1;;23<2:>,;,,>>",
"07478798q90q74705498440q76560740599946575785048589f9064759qq5q70",
"965q787gpdg67454706405868gfiff58q405909609psgggs896gaq54q0gg0884",
"6904987q046ag6087907855086948gg8989474897556685g540gf799907gd485"
};
