/* XPM */
static char *result[] = {
/* columns rows colors chars-per-pixel */
"64 64 89 1 ",
"  c black",
". c #010000",
"X c #000100",
"o c #010100",
"O c #000001",
"+ c #010001",
"@ c #000101",
"# c #010101",
"$ c #140C06",
"% c #29190A",
"& c #3C240E",
"* c #3D240E",
"= c #3C250E",
"- c #3D250E",
"; c #3C240F",
": c #3D240F",
"> c #3C250F",
", c #3D250F",
"< c #6C421E",
"1 c #6D421E",
"2 c #6C431E",
"3 c #6D431E",
"4 c #6C421F",
"5 c #6D421F",
"6 c #6C431F",
"7 c #6D431F",
"8 c #EC1C24",
"9 c #ED1C24",
"0 c #EC1D24",
"q c #ED1D24",
"w c #EC1C25",
"e c #ED1C25",
"r c #EC1D25",
"t c #ED1D25",
"y c #A46630",
"u c #A56630",
"i c #A46730",
"p c #A56730",
"a c #A46631",
"s c #A56631",
"d c #A46731",
"f c #A56731",
"g c #F44336",
"h c #F54336",
"j c #A9E61C",
"k c #A9E61D",
"l c #FEA04C",
"z c #FFA04C",
"x c #FEA14C",
"c c #FFA14C",
"v c #FEA04D",
"b c #FFA04D",
"n c #FEA14D",
"m c #FFA14D",
"M c #4C6CF2",
"N c #4D6CF2",
"B c #4C6DF2",
"V c #4D6DF2",
"C c #4C6CF3",
"Z c #4D6CF3",
"A c #4C6DF3",
"S c #4D6DF3",
"D c #EE9A9A",
"F c #EF9A9A",
"G c #EE9A9B",
"H c #ECBEA8",
"J c #EDBEA8",
"K c #ECBFA8",
"L c #EDBFA8",
"P c #ECBEA9",
"I c #EDBEA9",
"U c #ECBFA9",
"Y c #EDBFA9",
"T c #F4E49C",
"R c #F5E49C",
"E c #F4E59C",
"W c #F5E59C",
"Q c #F4E49D",
"! c #F5E49D",
"~ c #F4E59D",
"^ c #F5E59D",
"/ c #FEFEFE",
"( c #FFFEFE",
") c #FEFFFE",
"_ c #FFFFFE",
"` c #FEFEFF",
"' c #FFFEFF",
"] c #FEFFFF",
"[ c white",
/* pixels */
"uipissaapauymmvsdaidaafiuidsfmmmasydaapsdpuydyimbayanvaufspybnci",
"adssayyudyfpfivmcdisszmafifusiybmusuapypyuidfaspbbiysbmppapiafyp",
"pdyidiafdsuiiisdbbvvbcipuussdappdpdpyiisddysypuidiasyapufdyyipuy",
"711444316577<3<137<245475317151126341425365652631735772172634675",
"ayfadpuisddifaisapfayiyipfddasiaadyyppfydpusyaaduadffdpypsdaaudi",
"sdfldiyfiuiinvlmxvmmbcxcxvnbdiduasyyfspdddffdpdyydasyypibzbvnlnv",
"lncvisdyuiudfdidisdduyaaoX bl.#oOaadfapffdfydddfasuiaapyupsydsbv",
"pfsaiddppdfapifdyadifpyO.].   _`+#+..X.pasfisifppfaauapiufspibcx",
"siipdasifyiuiiyufaiuufo __ [([)/ @_[/].afdsiypayiusyysafuayadpip",
"anmzvmlpsyddfdiyyppsfuX[']O'[[[[+`]((@ fuuduaypbvbmvzxcmpsfuaapf",
"fpiyiadpudypypyaspuvlx+)']'_]_/]['//Oyiudiafpsuppyfpasiufsipauii",
"psiaasafdidaiyuyuuapap ./)(')))'(`[.#ifiupdsiupsuidfdadpyasdpiiu",
"uaaupydysiaiauyispsaspsO[(_)]/`''(] #aisissupyydpaiuiufyuyyauypy",
"2272<23<4<34246<746<7545#)`()_(/)(]X@;*>,&-555<1<152332<4<653275",
"sipsaiaudyaaudyiafdpifaa@[)/[)])]++X;=;-*=12sussdapfppufssfpddyy",
"cbncmbvlmncppiufpauiiusf++X#OXO@+.X42,;=;73sfffyiaffsyfisussubbl",
"fupaiuispynvbiiudiyidiu@YPOOUKL+@PK.765<73yauuasppdalmmnvlzzxvaa",
"aufiufpysuuppxzcusuupiu@HJkPK IjKPIoif5syssusidsamlnbfiuaaauysus",
"xzbzncbnyddpfydclnpfysa.IJP.X   YKH@ydypiaauffpyllauuafzmzlvlvzx",
"yssyuidcvblfufuuimbxlifoPoK [[[XP+U#fsaspisydauapdyszbxcspudddas",
"sssfdpupdpncmuuffdsypip IOK.hgh P I+sadafdyuyypapizlvisfypfsuisf",
"nbvmbpfdddyybcypa  X#+#wXLOJGFDK+K.Xvniidysppifpyuysuyyiyyimmzlm",
"iuidaidppppsaup#o'']( XggXOPHJHHHXr+.#++oyuysdfipfdfsupfuidpadys",
"1415435151<774#o[]/['(`+8qXo  .o.qwr+O')O.o@X75675731<7454<433<6",
"ddapysfyyasu#.@`(/['[]`'@#8wt9909#.oX/[[``(_[+XXfysuyysppuyufifp",
"cbmxzzbdyiyX['`/'/`_']_(_#eroO@@  _('[`[`/__(]`_@ puauyfayffidxc",
"afpsifayui.]_`')['_`'(]'[. #O/`/)_)`(///'][(/[[])+Osyussaddbbvmy",
"uyfadydl@.#]][(/'__'___/X('[[([_[][//('''/_)]][/]_X.bpipifbsudfp",
"piapybbO .[`[]/])__([`_[@'`]('__/)['_[//_)[[[']/]']X fyibbidpysa",
"afadcxoX[Xo]((())(][[]/]#]_)'_]__')('//`[]_`]_(''_`_+psvzysifpss",
"ffubn oX+@+[]_/_))['/[//.]'])(__')`/)_'_)]_))]/(((_'. msiyufydsf",
"sfpmpOPU#`_ __')'O()]`]`o]))/''`'`_`'/()(]/(_[o]][_X( pdaiiuipsf",
"afip.PKKLO(o+XXO@+$`)(']._'Xo((_[_`[(]`//]/''`+o]/[#/X.uyuayiiff",
"2<22OYULO+..@X:%27o`_[)] ]/ .`/]`/``(']/)`[)'].#//  `'@763233151",
"pdyf@KLI X.514667fo]]'['O/)((')``((__`_)`]'o+oO +`@'[X@#daaufiuu",
"dpav UKodaiydyfpdy# [/]]O[`]'[/_/[(`_/')['[#CVXp+.['[oL yaisuaaa",
"yyv.PO#ospdpfuauyi .X`[(.O['(((([_(`[[][_) NVZ+syo`.oKUofmyiuups",
"f+cXY#yfsypififfss.AO+//) [(Xo])]]/_)([/]@.CSV bcoX@UL+ofzmaadpp",
"vO L dsydsaudsippdXZB X`].`]X@(''_]`]`).+XZBAC@damX#UP+@ssbiydlc",
".IHUYOyffddasyayfd.CMS+ +oX]`_][())_)_#@ZACNSN+aapfoI#sduasnzbcp",
".JJUJ@@asyyydpiblz+oZASZZ @._[]])`)[`o#MZBVCM.#uapdXU.idaiaiyfud",
"+.PHJozcmzvcxxbniyOoNMVVBSV@O.o#XX.o+@MBMSCSS #ddpyOXI+sf Xiapis",
"f#H#ouaifypsafpauyyO+NBVAVVAZNZNSVVBVSANCMZSS#udysX#HYXao .apdsi",
"42o +56<77754511637+ SVBSNVAMMBBZVCANNSBVSNSNO<17<.@UI.3 WWX4<5<",
"sfiauddddaudydysdsaaO+MSNASABMoZC#AAVVCVZBSSA uaypO.P+oa RW uass",
"dpfdysyypiadifiyaipyy@BVAAVCZNSo++SAZASBVMZZ  fup i#.osdX~^.spad",
"35dpauzcbvsdasfsufibbs.AZAMSSSSA ABZASASMBSA.dyf XfyyuadO^^ fy47",
"afyydxzpimlsudspddfypzc CVASNBCS#CBNVZSANCS#piii W yuufi WW@ciuf",
"iufbbddyiybbspffadsaadp#@NSNAABZ@VSVZMZAVV#@blvi.! .vayyOER.zzbi",
"uupfayasuddzvusffaypfsis AAZNVVMXMNVVMVAVX@dfsbb WE bafy WWoayus",
"paipsppfypyspfusaiausuffa@ACZAASoVAVVSAV@@iispfis W^ ds@WW^Xpayf",
"fypysdudpayiapafdspassiud.oSNNVA SASBSVC ysaapdad RER.XWW^R uudu",
"26744224<26777513723<7443<o@BZBSNXCNASCO#2<7<3564 EW^RWW!WR 2313",
"sfuyisasydppdiapfpsduisddiu#NBNSS+VVSZ XiaafysaiiOWW^W^WW!T+pypp",
"dauiimnmlfsiafysafaaaiapddusOBMVVXVNAZ+fdpsasafsiXEW!WR^WRQ!@uuf",
"ssizmsysivmiuyiiisuiffadyyfadXSBS@VVB#.idafucmc+##WRWTEW^E^W.lii",
"smbsafadsacdudfmmmmmpasaupdix.oAS#VVoXsyuamO X@^WR^~W!WW^^^W  fp",
"didyidibscxfduvfpiymfyaudmmndu@+SXV. ppufncOWT^WRE^WE^~^~WWWR.iu",
"fiiuuafxvnufiafdapinmblnbnppdap OX +bdfpabsXW!WWQEW!^TWR^ERR^ouy",
"uissysiuufdffiipaiasdaxmyud@o.#+ oO +Xnmbud oEWWWWRWT^^R^W^WWoaa",
"723363233754<627451<6652473.  Oo@ #O@X364732X #O X + XWRW^^E~#62",
"ipafapusfsdfdipauyyayydfuipXO+##pO X# upsufyasauascsdy@ O@X+ fpd",
"siufpapmcmmipyuipdiadysiamnO@O..f@ X #updaxbmmmndsimmfyyfimoOsay",
"ysiyuapfiuulmiasfudiayyfaisyammauasypyappyudisumuyamndassdu miiu"
};
