/* XPM */
static char *result[] = {
/* columns rows colors chars-per-pixel */
"64 64 63 1 ",
"  c black",
". c #010000",
"X c #000100",
"o c #010100",
"O c #000001",
"+ c #010001",
"@ c #000101",
"# c #010101",
"$ c #3C240E",
"% c #3D240E",
"& c #3C250E",
"* c #3D250E",
"= c #3C240F",
"- c #3C250F",
"; c #3D250F",
": c #6C421E",
"> c #6D421E",
", c #6C431E",
"< c #6D431E",
"1 c #6C421F",
"2 c #6D421F",
"3 c #6C431F",
"4 c #6D431F",
"5 c #A46630",
"6 c #A56630",
"7 c #A46730",
"8 c #A56730",
"9 c #A46631",
"0 c #A56631",
"q c #A46731",
"w c #A56731",
"e c #FEA04C",
"r c #FFA04C",
"t c #FEA14C",
"y c #FFA14C",
"u c #FEA04D",
"i c #FFA04D",
"p c #FEA14D",
"a c #FFA14D",
"s c #02A8F4",
"d c #03A8F4",
"f c #02A9F4",
"g c #03A9F4",
"h c #02A8F5",
"j c #03A8F5",
"k c #02A9F5",
"l c #03A9F5",
"z c #F4E49C",
"x c #F5E49C",
"c c #F4E59C",
"v c #F5E59C",
"b c #F4E49D",
"n c #F5E49D",
"m c #F4E59D",
"M c #F5E59D",
"N c #FEFEFE",
"B c #FFFEFE",
"V c #FEFFFE",
"C c #FFFFFE",
"Z c #FEFEFF",
"A c #FFFEFF",
"S c #FEFFFF",
"D c white",
/* pixels */
"678700998965aau0q97q99w768q0waaa905q9980q865757ai999pu96w085ipy7",
"9q009556q5w8w7uayq700ra9w7w6075ia6069858567qw908ii750ia889879w58",
"8q57q79wq067780qiiuuiy766600q98wq8q85770qq505667q7905986wq557865",
"4>>111<>3244:<:><4:,12142<>4>2>>,3<1>3,2<3232,3<>4<244,>4,3<1342",
"95w9q8670qq7w07098w957578wqq90799q558805q860599q69qwwq8580q996q7",
"0qweq75w7677pueatuaaiytytuprq7q69055w08wqqwwq8q55q905587iriupepu",
"epyu70q56767wq7q709q65996w8ieepu599qw58wwqw5qqqw906799856805q0iu",
"8w097qq88qw587wq59q7q855088w5q698wwqw09890w7w7w88w9969676w087iyt",
"0778q907w576775609766w799855807705085559wq975895760559906959q878",
"9paruat805qq0q755880w68wq09q565w0879q0ww66q6958iuiaurtya80w6998w",
"w87579q86q585859686uetrq9qw5qq0w869q7576q79w806885w89076w0789677",
"8079909wq7w975676698988y6695qw975788q7w768q0767067qwq9q8590q8776",
"699685q507979657080908w70550ww08095995707006855q897676w565596585",
",,2,:,<:1:<1,13:413:4212<>,,33>2<<$%$=%-;$*222:>:>23<<,:1:32<,42",
"07809756q5996q579wq87wq9998qq9w6w>:>=&=*%&>,0500q98w886w00w8qw56",
"yipyaiueapy8876w8967760wq86960qww563,;=&=4<0www579ww05w706006iie",
"w689767085pui776q757q76w77855qww907743214459669088q9raapuerrtu99",
"96w76w8506688try6066w7675q76760qw0507820500607q09aepiw7699965060",
"trirpyip5q98w5qyep8w5097q7686880q885X # 7996ww85ee9669wrureeeurt",
"500567qyuiew6w667aite7w9580aOO X+.@.#bx@ +05q9698q50riey086qqq90",
"000wq86wq8pya66wwq05878987 OOXbbbnmnnmcbb #6558987reu70w58w0670w",
"piuai8wqqq55iy58906089969@ Onbnbbzbbcccbbxbo87w856506557557aarea",
"767q97q88880968qq9678689+#.zbbbbnbfbckgcbbc .qq78wqw068w88q69q50",
">1:21<1>2>:441:323><4>2Xzbnnzbvmbbjlsjhkmnnb 423424<>:4121:1<<:3",
"qq9w50w5590667655w90q6+obmmbshbbbbmkgshjnbmzb#q0w50675088655w7w8",
"yiatrriq576w78q888a95w@zcnxbhjkkmnnbggdjbcbbbn+66q86955w95wwqqyy",
"9w806w@##75568886yp68X@xbbnmmfjddbzMbbglzbnbcz#o887056009qqiiua5",
"65w9q5 N+aeaupuryr807 nmbnbfgjlgzmMbnmbbbzmbbxx O76ai8q87wi06qw8",
"87985ioSS.+#Xqq5w7007OzMxbzbflggbbnbnbnzmmzMbmbzx@ e8w57ii7q8509",
"9w9qytXCBV.@O.58q67X bbbzbnbnbbzbbnbbbmbbM.Oozmbv..5780ur507w800",
"ww6ip6XAAVBND @6    bnnzbzmbbbbbbmbmmbbmO@Xzbmbbbb. 57y0756w5q0w",
"0w8a85+oSSSDCO@5Onzbbbmzcnbbbzbzbbbbbbn#.bmxvbbbbx@oqw8q9776780w",
"9w789.#..SNVSVO bbbMmcnbnmmbbmczbbcnbbcvbbbnmbbxzbb@79765605778w",
",:,,3+CDBASDVCo mnznbbbbmbbnbbnbbmbbzbzMnbbMbbbbnnM X>243<,<<>2>",
"8q5w5.NDNVNSZDXbbxbxzbzmbbxbnmbznnbnbnbzzzbbnbbzzbmb#769q998w766",
"q89u0X#NABNNND@bbbbzbmznbmbxnnzMbbznbMbbmb.zMmMzzbzm#.7859706999",
"55uaq0 CZDDSSV.zbnbzmbnbbbnMbbnnmbbzbbnbmc#bbbxzxnbmbX7qwa576680",
"wry80w ZSNCBDZ#bbbnbbznMcbbzbxzxzmnnzmbnbbnzzzbbbbnbbXw6wra95q88",
"uiqqw# ooCVNVC+bMcnnnbbbnbbbxmbzmbbmnzbmbbbbnczbbcbbbX7000i75qey",
"96756oZSNNBZSAobmnbbbmmbbbbcbbbbbbbnMmbbbmbbbbnnbbbczm+q690priy8",
"w6775o+SVCVB  @ bbzzmbbbbnnbzbncbbbbbbcb Oo bbmzMmbbbbXq97975w6q",
"8iririXoCZ@+ttX mbzbbM+zbcbbbzbcbmmbzbzbbO+bzbzzmbzxzb@0w07q9870",
"w88w609o@..09w X m. #.mbbMnbMbbbbnnbnbz#bnb.nnxbbbvbb@#960698q07",
"1,1,<24:444212>> bb  .zbbzMxmnMbbbbbMzb znbmmbzzbbncz.><4><41:2:",
"0w796qqqq96q5q50  b  @bzbbbnmnzmzvmmMzzXbcbbbxnzzmznX 79909q6909",
"q8wq5055879q7w759  +@.bnmzbxbmvbbmmnnmnXbvnX+znnMmnX 80qw605089q",
"<2q756ryiu0q96w06wO OA zmbzmbxbbnnbbcnm@bnnbOXX bz. 569q9859w514",
"9w55qtr8qae06q08qqw58+  czvcbbnnmbbbbmn.bzbbO77#bzbO 6w7w7ray76w",
"76wiiq9575ii08ww9q099.D mb X AC xbmm+o+X  bx@eu nbbM  5559q7rri7",
"668w95906qqru60ww958w0. X XVVAZOobbb.  OO@o@q0iX bmbn w569509560",
"8978088w58508w60979606o.XBAASD#ZVObbm 00967708w7  bbbX 50wq9896w",
"w585096q8955989wq08900O#AAASZ  o.0    q5950098q9q  mbb w577865q6",
",3411,,1::34442><4,<:41@+oXXo#::14221:424314:<1314     :>2<>,<><",
"0w6570905q88q798w80q670qq7.9212:2<565w55799w5w97q72,238q87w76588",
"q9677apaew079w500w9997589q609q67w5w76q5wq80909w0880w57w7qpata66w",
"007ra0507ua769777067ww9q55w9q50ipaaaiy67qqw6tayra9q7w900aaqqae77",
"0ai09w9q09yq6qwaappa890968q7tppaw8806e0569aaq09wti6950q5rtw65iw8",
"q7q57q7i0ytqq6uw875aw596qaauq69q88wq9886wpyww8789pw007558aaw6p76",
"w77669wtup6w75wq987pauepip88q9856wpaiqw89i0wq5w7950w9q067556qw85",
"650050q66wqww7789790q9ta66q57w5w06907ypai6q5w5058w0w04>4>2490w59",
"4,<<3<,<<421:3,412>:332,14<433,333>124<314<,:<3312::33134<2:,<3,",
"789w9880w0qwq789655955qw678qqq9q8960586606w5009690y0q556600q6w8q",
"076ww98ayaa785578q79q5079aatta5qw5qw0q68q9tiaaapq07aaw55w7aaq095",
"5075698w766ea790w6q7955w97059aa969058598856q706a659apq900q6aa776"
};
