/* XPM */
static char *result[] = {
/* columns rows colors chars-per-pixel */
"64 64 79 1 ",
"  c black",
". c #010000",
"X c #000100",
"o c #010100",
"O c #000001",
"+ c #010001",
"@ c #000101",
"# c #010101",
"$ c #130C06",
"% c #3C240E",
"& c #3D240E",
"* c #3C250E",
"= c #3D250E",
"- c #3C240F",
"; c #3D240F",
": c #3C250F",
"> c #3D250F",
", c #6C421E",
"< c #6D421E",
"1 c #6C431E",
"2 c #6D431E",
"3 c #6C421F",
"4 c #6D421F",
"5 c #6C431F",
"6 c #6D431F",
"7 c #704621",
"8 c #EC1C24",
"9 c #ED1C24",
"0 c #EC1D24",
"q c #ED1D24",
"w c #EC1C25",
"e c #ED1C25",
"r c #EC1D25",
"t c #A46630",
"y c #A56630",
"u c #A46730",
"i c #A56730",
"p c #A46631",
"a c #A56631",
"s c #A46731",
"d c #A56731",
"f c #F44336",
"g c #A9E71C",
"h c #A9E61D",
"j c #FEA04C",
"k c #FFA04C",
"l c #FEA14C",
"z c #FFA14C",
"x c #FEA04D",
"c c #FFA04D",
"v c #FEA14D",
"b c #FFA14D",
"n c #4C6CF2",
"m c #4D6CF2",
"M c #4C6DF2",
"N c #4D6DF2",
"B c #4C6CF3",
"V c #4D6CF3",
"C c #4C6DF3",
"Z c #4D6DF3",
"A c #ECBEA8",
"S c #EDBEA8",
"D c #ECBFA8",
"F c #EDBFA8",
"G c #ECBEA9",
"H c #EDBEA9",
"J c #ECBFA9",
"K c #EDBFA9",
"L c #FEA2B1",
"P c #FEA3B1",
"I c #FFA3B1",
"U c #FEFEFE",
"Y c #FFFEFE",
"T c #FEFFFE",
"R c #FFFFFE",
"E c #FEFEFF",
"W c #FFFEFF",
"Q c #FEFFFF",
"! c white",
/* pixels */
"yuiuaappipytbbxaspusppduyusadbbbpatsppiasuytstubcptpvxpydaitcxzu",
"psaapttystdiduxcksuaakbpdudyautxbiaypitityusdpaiccutacbidpiupdti",
"iutusupdspyuuuasccxcczuiyyaaspiisusytuuasstatiyusupptpiyisttuiyt",
"6<<3332<5466,6,<26,1343642<6<4<<1513<314<5464152<224661<61523564",
"ptspsiauassudpuapiiptutuidispauppsttuidpsiyatspsypsddsitiaspayst",
"asdjsuuduyuuvxjblxbbczlzljbcstsypaptdaipssddsisttspattiuckcjvjvc",
"jvzjuystyuysssusuassytppX#.cjo+.Oppsdpiddsdtsssdpayuspityiatsacx",
"idapudsuisdpiudptpsuaut@.Qo.O RT.#. o oupaduaudiidppypiuydaitczl",
"auuispaudtuyiutydpuyyd  RU.EYQTTO#!!Y!.assaupiptuyataapdyptpsiui",
"pvbkxbjiatdsdsuyuiiadyX!RTOWQUQY#WQRRoOdyysypticxkbxklzbuadyptip",
"diutussiyptititspiyxjz+QWRW!TYER!UYU tuysupauayiitditautdauipyuu",
"ia@XoapdsuspitytyypipiX.ETEETQ!RYQ!X.uduydsauyiayusdspsdtpysiuui",
"y@G#Xtstauaupytuaiapaia+!ERW!QUWWYQX@puauaayittsipuyyystyttpytiy",
"o#JASX2,3<23,33,635,6434#RWWT!RU!WQXO-&:*%=446,<,<41221,3,542164",
"+HHGS.Oysttpysyupdsiudpp@!EY!TQQQ++ -*-=&=<2ayaaspidiiydaadisstt",
"XHKFH+xkbvkiiuydipyuuyad#oX@XX.O..@31>-*-62ydddtupadatduyydatccj",
"dX.S.yuaitvxcusysutusuy+JF OASSO+GK 654,62ttiysaiispkbbvxjjklvpp",
"pXdXF#itauyiilkkyayyiuy@AAhAAHGgAAGXud3auaayausapbjvcduyptpytaya",
"lkc#H  otssidtszjvydtapoSSGKG.AFFDA#tstiuspydiitjjpyypakbkjxjxkl",
"tayt#JD.xcjsydyyubcljudXSoKSSAGDS.K#sapaiuatspypistakclzaiysssta",
"daad+DDA@o#zbyyddsapiui.HOJ+o o+F JOapspdspyttipiukjxuadtiaayudd",
"xcxb#JDJ@##@@@t7p   X@#q@S HPLIF+F. jvuuspaiisdytytaypuuttubbkjb",
"uyus@JADD+Wo..OO.!WE! @ffXOKASFSAX0@+#o++tytasduidsdayidyusipsta",
"<3<43OSDoQR+!!WR!!W!!WE+8qo#+ .oXqe0+O!Q@+.OX64564626,6343,3<2,5",
"sspit Xo@o@QYR!!!!!W!TQEO#88r0rw9+ o EWYUUTRW.oOdtayttaiiytydudd",
"zcblkkoX!.#TRYETTRQY!R!YR@8roO   o!U!QW!EERRWQER@ iysttdpydduslz",
"psiaudpO XEW!TUWU!RQWYEYW  # UQTTRTQYEYUWEERWQRQQ+Oatyaapssccxbt",
"ytdpstsj#+#EQRTW!R!RWRTR EQ!QYWWRTWEWYUWWYTETT!EQR@+ciuiudcpysdi",
"iutitcctasXEWWWWY!!Q!EY!XQE!WYY!RU!QQTQUTQ!!RUTUQWQXXdtuccuuutap",
"pdaszlyytus+!QEY!UR!!!W!#Q!TWWRRTWEQWWYURTQEQYRYE!EU+uaxktaudiaa",
"ddycvyaddppi# +YWTWWT!TU.!Y!TYRRWQETQ!WURQTTRTUYRE!R.Xbautyatuad",
"adibitytdsydsyX+E+URRQEQoQQRU!UEWTTTYUYUYQUYTT@QT!RoE isptuyuiad",
"pduipptd264,<<3oo+$!E!T!#REXoQWQ!RE!YQEEUQUWWU+OQT!#Y oypypttudd",
"1,11355<4>>>;*;:16oURQRWoTE@#EEQERWUUWEUY!!TER##EEO.QWO652122<4<",
"istatisd6634<,556d+YQW!WOUTYQWRE!UUT!QRWERE ++OO#!@EYXXOspaydtya",
"sipxaupdsputsyaist+O!YRE#RWQU!TYR!REQU!TYYW#BZ@i#.!Y! Fotpuaypsp",
"ttxbsayuaisidtpitsX.@W!Y.#!YEYYYWQYE!QQ!UQONmV at#QO#FKXdbtuyyya",
"dkbiadtdatuududdaaXCO#YURo!W#o!TQ!UQRYQEQ@OVZn@cz+o@JH.@dkbtpdii",
"xcssdsatsapysauiis@ZZ.oEUoEEXOREW!RWQEQX+XVMMMOspbOOSHo@aacutsjz",
"pyutydpddsspatptds+mMVO @#@QWRQ!YUR!TQ#XCCBVNn+ppip K#adysavkcbi",
"dytuttypattpsiucjk+oVCCZCXO.R!QTTERQEX.nNCmVN+#ypis S.uspupupdys",
"dckckckzbkvzllcvutO#NBmmCCNo#o.X@X...@VMCNVNZ ossitOXKOadauutdua",
"iiiiyypudtiypdiaytt@+nMmZBVZZVBVCNZNNVCVZCBZCOistd #SFXpydipisau",
"3131245,626434<<526..NZCZmNZVNNBCZCCVmZCZZmNn@,<6, #AK 26<<63,4,",
"adupysssspyststapyspO+nCmnVZNCoVVoZNNZMNZNZZZXyptiO.GOOppapsypaa",
"sidstattiupsuauppuittOBZCZZCZVZXO.ZnVZZZCCBN++dyyyuOo#asduataups",
"24dipykzcxasaadayducka CZZMZmVCN+CBmZVCZBMCV+stsapattipspdtpdt36",
"pdttslkiubjdydaissdtizz ZNCZCZnV@VnMZmVVmVZOiuuuubltaydudikbzutd",
"uydccssyutccaiddpsappsio@VCVBZCZ@CmCBMZCMZ@Xcjxuyuxkxpttppduckcu",
"yaidttsaysszjyaddptidyusXBZZmmZMomNNmMNMNoOsdacctdtpcsdtyptaptyy",
"ipuiaiuspitpddyapupyayddp+ZZVCCZ NBMNZmZ@Xtupiduauaudsaaaaspiptd",
"dtitasysiptupypdsaypaauysO ZmmNCOZCBMZnV yyppispsdspuuaitpuiyysy",
"13633,13,152566<2612,63,2,#.CVCVNXBVCNC #1,6,24536,6,2<,<32<122<",
"adytuapatsiisutyaiasyuassuy@VMNVV+NMZVXXuppdtapuuu4146isisduipii",
"spyuibbbxdpspdtasdpppupissyaONBZZXmZVZXisiapapdyuiadtudusvblxyyd",
"ayukbatauxbuytuuuayudapsyudpsXVZNONNm+.uspiyzbzkbpsudpaabbdsbjuu",
"abcdpapsatzsysdbbbbbipapyisul.XZC+NN@oatypbbsapdlbyptastkldttcdi",
"susutducazldsyxdiuybdipysbbvsy .ZXmo idydvzdiiuipvdaauttubbdtvuy",
"duuyyddlxvydupdspiuvbcjvcliispi@XXO+cudytcaistiuptadpsayuttyudat",
"yuaptauyydsdduuipupasplbtys@o+O+ X.#XXvbcystsyatidada5<6<46padpp",
"612252122643,5,634<,5542362.. OX o#O  253611,25334,,5635424,2<11",
"uitdpiyadasdutisyttputsdyui @O@OiO Xo yiaydtpppypazasttyyaasydis",
"auydipibzbbuityuiuupsypupbvO@ +od@ XXXausplcbbbvsaubbdytdubbsapt",
"uautypiduytlbuspiysipttdpuaypbbpypatitpdiyysupybytsbvsaaasybbuuy"
};
