/* XPM */
static char *result[] = {
/* columns rows colors chars-per-pixel */
"64 64 61 1 ",
"  c black",
". c #010000",
"X c #000100",
"o c #010100",
"O c #000001",
"+ c #010001",
"@ c #000101",
"# c #010101",
"$ c #3C240E",
"% c #3D240E",
"& c #3C250E",
"* c #3D250E",
"= c #3C240F",
"- c #3D240F",
"; c #3C250F",
": c #3D250F",
"> c #6C421E",
", c #6D421E",
"< c #6C431E",
"1 c #6D431E",
"2 c #6C421F",
"3 c #6D421F",
"4 c #6C431F",
"5 c #6D431F",
"6 c #A46630",
"7 c #A56630",
"8 c #A46730",
"9 c #A56730",
"0 c #A46631",
"q c #A56631",
"w c #A46731",
"e c #A56731",
"r c #F44336",
"t c #FEA04C",
"y c #FFA04C",
"u c #FEA14C",
"i c #FFA14C",
"p c #FEA04D",
"a c #FFA04D",
"s c #FEA14D",
"d c #FFA14D",
"f c #4C6CF2",
"g c #4D6CF2",
"h c #4C6DF2",
"j c #4D6DF2",
"k c #4C6CF3",
"l c #4C6DF3",
"z c #4D6DF3",
"x c #EDBEA8",
"c c #ECBFA8",
"v c #EDBFA8",
"b c #EDBEA9",
"n c #EDBFA9",
"m c #FEFEFE",
"M c #FFFEFE",
"N c #FEFFFE",
"B c #FFFFFE",
"V c #FEFEFF",
"C c #FFFEFF",
"Z c #FEFFFF",
"A c white",
/* pixels */
"7898qqqew096dap0wq8w6qe806wqedaa6060q09qww76w68ds060sp07e096aay9",
"8wq60669w6e988payw8qqys0e8q7e86py9q70769699we0e9ap860di9e0780e67",
"9966w80ew078w87waasyai8977qqwq99w8w6688ew0676968w89w6097ew668970",
"5,,224,,4231>5>,15><232531,513,,<4<>>2<3,4313141,11355<551412513",
"06w0w9q9qww8e08qq99688689qew0+O0@oX 89q6w97q606w70weew969qe0q6w6",
"qwetw86e9788sptdupddaiu O i. Ao XABAXq90wewew9w66w0q67e8ayatstsi",
"ysii87w6799wwe9w8qew7O.BA O AAAOAAAA@0eeeww6wwwe0q98e09609e6wqaa",
"9eq68ew890e09eew6088q AAAA.ABAAOCZA oq0w0q98q0e99e0070999eq97piu",
"q898wqq8w6878867e0877oCBAAAAABA CAAO666qwwq8090687w6qq0e7070w989",
"qsdysit9669wew86899qe ZAAAAABAAAZABowqqe76e7067apydpyuid8q96q690",
"e9808w8970698968097saO#@AAMAANAAAZ#o868qe80q8q7ee69e6q86q7980768",
"9q80qq0e8ww0967677w9q99@BAAAAZAAACo.w8w87ewq879q78wew0we607w988q",
"7q0796w6q8e86768q90wqeqo@OX+O.#ACB@#q08q8qq9976w960777w67660q697",
"<<3<.X,>2312>24>524>333o##++O Xo XO+$-%&&%*335>,>,5<11<>2>4,1143",
"e89o.no.e6007w760ewe8q0X.O.ooo++oo@X=&=*$*,1w0qqw09e9979qqq8ww76",
"ias vcnXdsy9987ee098977+o X+@X X@#+X<:$&=5179ee690qee6e679eq6aau",
"e7e vv+X96dta8w70668w9 .Or O@@ Xr#o 5432116697wqe8w0addspttyus00",
"07e8OO.6q8799uiy7q699.O .rrrrrrrr+#O e2q9qq7q8w0qitsaew906096q6q",
"iaaaOXas6ewee6wiiuOXOoAB#X+rrrrrrXAAoX#..ww7e896tt078weydytptpyu",
"6q70 O ypatw9e76 XAAABAAAm@+orrr#oAAZAoAO#X6wO  .O6qyasyq87wwe6q",
"eqqe v  w9sid77X.BAZAAAAAmVMCX#O.AVCAAAAAAo..ABAA .tp8q96eqq788e",
"papd vv.@w6oO #CAAZAZNAAAAAAAAAAAZAAABAAAAAZAAAAAA .q086678dsytd",
"87wwXOc.AX@AANAAAAAZACAVAABOBVAAAAAACAZAAAAAAAAAZAZ++77e78q90w6q",
",2,32 v A AABBBCAZAABCCAZZA oAA# AAACAAAAABNAAAAA ..X>5>22>3,1,4",
"ww076q  A.AAAANBAAACAAAAAZAZ @BXAAAAAZCAAAAAAAAA OBAZO@79787w69w",
"daduia XBXBAAACAAAAAAAANABAAAZAMZAAVAABAABZBC #.OZ .+v e0qee8wti",
"6w9e8e6oO AAAAAAACBACAVZZAAAAA.AABAAACACAAAAA+89o Oxvv# 0wwadpd8",
"76e0w8wttX .O# OAAAAAAAAAAAAC.OAZZCAAABCCZAAA.0e96 .Xvb 8ey07we9",
"86697ay6qweeewe. . AAAZBAAAAAO@ZAAAVAAAAAAAAA+7e98pt.@c.aa8887q0",
"0eqwiu7q66w00867w6oAAZZBCAACAA.MABACABCAABAAAX66sy068.  y076e9qq",
"eq7ps7qeeqw9w9679dOABAACAAAAAAAAAAAAAAAAAZAZA@dudw986O @.777667e",
"7e9i9676ew7ee7967qOCBBAAAANAAAAACAANAABAAAAA a80e6q9w vxvXw789qe",
"0989000e153>,,2429XOAACAAAAAVZAAAAACAZAAAAA..0w8e7668 cx .6668ee",
"<<<1244,3:::-&-;<,4 oXACAAAAAAAACAAAZAAAAO O,14<33,>5 .X 1<,1,2,",
"9e6q69we5523,>445ee oh ##o o..#OACAAAo@o hhX#wq8qeq60870w0q7e67q",
"090pq809w088w7q9w79Xjhhhljhhflhh .XO#hhhhhhjXw8886609w896w807000",
"68pi0q78q9wee7696wXfhhzfhhhhhhhklhhhhhhfhhjh Odq69987q8wed68707q",
"9yd9qe66q688e6qeqXofhjhhhfljkllhhhhhhjhhhhhlhOdasse77ee7eyd60e99",
"pawwewq6weq78q89XOhhjhhhjjhllhhffhlhfjhhhhhl. 7wwdua978qq0y868ti",
"09866e0eeew0q667+jjfhjlzjlhlhhf+hhhhhhhhhljl@ty0090pywqe7westad8",
"97887670q670w66yohffhhlhhhfhhhh hljlhhfhlhhh@ed70ew9e76ww807097w",
"qatsyayidyuituap@hhghhllfghhhf+O@hhhhhhjfhlj ii8w979898qwq680e8q",
"999997q6e6770e9q jlhhjlhhfhhh+X8 #hhhjhhhlh#pa9w6e890ww07q808wq8",
"2<2<13<>5<5343,ohhhXhhhhfh## @5>>O.hhhhhhhO@51>>5>1445>55,,5>>3>",
"7e8w7ww8w07w6w6.hhl hhhoO@@O#6q997.hhhhhhjo6we706e0w69800q0e900q",
"879q6q60980w8ewOhjjh@h .eww0ww9006Xh#o@hhOo969q679wqq90wewq6q80w",
"13ee06yiapqwqq9 hjhh +X+7we09889e7olfhjhh#678w7wq0q8696w6e609625",
"0e66wip98ate7eq.XhhlhhfOdydpay8yd#+hhhfff sp96888du6q7e8w9ydi96e",
"87qdawwq87aaq9e9X@hhhhhh@6q9qai9wXhhX.hjoo9yytpw76pys07600e8aaa8",
"7qe968wq7wwyp7qee0OOhhfhh q@6889q hhhhh+O87w9qaa6e68ae96708q077q",
"e069q96w6970ee0e70w+XhhhhhooX.78eohffkh 066809e878q8ewqq0qw6966e",
"e6e6q86w9068070ewq7w0Oo#fjXo .790+lhhhOX096069w0wew068q8608977w7",
"<2522>12><45553,15<<>52XOOXO.o4>4Olhhh+,5<>5>,3225>3>1,>,2,><,1,",
"qe66860q0w99w86979q86e7ew8 o  3>3Ojlz X6900e8q08883>359w9w999097",
"w0687ddape0w0e0qwe00q8w9wwq.# 789olhl 69weq0q0e78qqe08e88ddus77e",
"778tdq699pdw778w8q7weq0w78eX+67ap#X @.69w097yddyiqw8ewqqadewdt68",
"edse0q08q6iw78eddddd80q079w8usaaw    .q670ddeq0eui706qw6tie66aeq",
"w8w8699peiue07pe9w7de807wdduw7qe9oX +.@7esie99990aeq6w688ddw6pw7",
"q8877e9sps7e80ww098ddaisat99w0967XX  o+76aq9w69800qe0e0786678ee6",
"78qw67897eweq899080qwwus67e69e6wq9#  odda6w8w9w6e8qeq4,5,35qqe0q",
"5>1141<,5532>4>54,,>4531255344444<<235,445<1>14323>>45243<,>11<<",
"896909q0eqwe969w766066we9878w80w7qq0687979w7w6070qsqw8697qee7e9w",
"q87e909duad896769w86w7080dsysp70e6w7qwq8w0uaddds008die76ewddw006",
"8qw6q09ew66id8809qw9077e08q60dd0q0q6960e9778807d76wds9qqqw9dd6w7"
};
