/* XPM */
static char *result[] = {
/* columns rows colors chars-per-pixel */
"64 64 74 1 ",
"  c black",
". c #010000",
"X c #000100",
"o c #010100",
"O c #000001",
"+ c #010001",
"@ c #000101",
"# c #010101",
"$ c #3C240E",
"% c #3D250E",
"& c #6C421E",
"* c #6D421E",
"= c #6C431E",
"- c #6D431E",
"; c #6C421F",
": c #6D421F",
"> c #6C431F",
", c #6D431F",
"< c #EC1C24",
"1 c #ED1C24",
"2 c #EC1D24",
"3 c #EC1C25",
"4 c #ED1C25",
"5 c #EC1D25",
"6 c #ED1D25",
"7 c #A46630",
"8 c #A56630",
"9 c #A46730",
"0 c #A56730",
"q c #A46631",
"w c #A56631",
"e c #A46731",
"r c #A56731",
"t c #FEA04C",
"y c #FFA04C",
"u c #FEA14C",
"i c #FFA14C",
"p c #FEA04D",
"a c #FFA04D",
"s c #FEA14D",
"d c #FFA14D",
"f c #02A8F4",
"g c #02A9F4",
"h c #03A9F4",
"j c #02A8F5",
"k c #03A8F5",
"l c #02A9F5",
"z c #03A9F5",
"x c #ECBEA8",
"c c #EDBEA8",
"v c #ECBFA8",
"b c #EDBFA8",
"n c #ECBEA9",
"m c #EDBEA9",
"M c #ECBFA9",
"N c #EDBFA9",
"B c #F4E49C",
"V c #F5E49C",
"C c #F4E59C",
"Z c #F5E59C",
"A c #F4E49D",
"S c #F5E49D",
"D c #F4E59D",
"F c #F5E59D",
"G c #FEFFFC",
"H c #FFFDFF",
"J c #FEFEFE",
"K c #FFFEFE",
"L c #FEFFFE",
"P c #FFFFFE",
"I c #FEFEFF",
"U c #FFFEFF",
"Y c #FEFFFF",
"T c white",
/* pixels */
"8909wwqq0q87ddpweq9eqqr980ewrdddqw7eqq0we087979daqqqspq8rw07asi9",
"qewwq778e7r0r9pdie9wwydqr9r8w97ad8w8q070789erqw0aa97wad00q09qr70",
"0e79e9qrew8990weaappai9888wweq0re0e0799wee7w7889e9qw7q08re779087",
",**;;;-*>:,,&-&*-,&=;:;,:-*,*:**=>-;*>=:->:>:=>-*,-:,,=*,=>-;>,:",
"q7rqe089wee9rw9wq0rq79790reeqw9qqe7700w7e08w7qqe8qerre070weqq8e9",
"werte97r9899sptdupddaiuiupsye9e8qw77rw0reerre0e77eqw7709ayapstsp",
"tsip9we78989re9e9wqe87qq8r0attsp7qqer70rrer7eeerqw89qq0780w7ewap",
"0rwq9ee00er709re7qe9e077w00r7e8q0rrerwq0qwr9r9r00rqq8q898rw09aiu",
"w990eqw9r7989978wq988r9qq0770w99w7w0777qreq970q798w77qqw8q7qe090",
"qsdypdu0w7eewe97700wr80rewqe787rw09qewrr88e8q70apadpyuid0wr8qq0r",
"r0979qe08e70707q808ptuyeqer7eewr08qe9798e9qr0w8007r0qw98rw90q899",
"0w9qqwqre9rq978988q0q00i88q7erq979o @@r980ew989w89ereqe07qwe0998",
"8qq807e7w9q9q879w0wqw0r9w7+X #..@##ZAX#o9ww8077e0q9898r7877q8707",
"==:=&=-&;&-;=;>&,;>&,:;: +X@CCADDDSFZBD X$%:::&*&*:>--=&;&>:-=,:",
"w90wq978e7qq8e79qre09reX+#ADZZASDCABAAFVD.*=w7wweq0r008rwwr0er78",
"iasidaptdsi0098r0q8998##.FDZSCCDgBDzhZBCFoXwrrr79qrrw7r9w8ww8aat",
"r80q989w07spa998e979e#ADCCFAFDFZklgzjjBZVZ q88qw00eqyddsptyyupqq",
"q8r98r07w8800uyi8w88OoCSVAfjCFCCCghljlFBCCDOw9ewqdtsar98qqq87w8w",
"uyaysias7eq0r7eits0r#BFFDDjkllDVFBgfhhDVDSSDOr07ttq88qrypytttpyu",
"7ww789eipatr8r889dau ZCFAZVgjlfAFAFBhgBDFVDDOX8q0e7wyatiw08eeeqw",
"wwwre08re0sid88rrewXSZCBZfzjhhCVCZAFZSSVCCABCo q09ytp9wr70rw89wr",
"sapda0reee77ai70qw8 BDFCFCfzhgFCBBDDVDDCBFFASFFO787w8779779ddytd",
"989eq9e0000wq80eeq8 CSCFBACBDZZDZBFBVVDAX+oDBVZ+0rerw80r00e8qe7w",
"*;&:;-;*:*&,,;&>:>* VBCFFVCFCZZVCBFFVF oXZSAVVAC+:,-*&,;:;&;--&>",
"eeqr7wr77qw889877rq F#FZDZAFDDBFFVSZZ# BVCFCAVCZX7w897w00877r9r0",
"iaduyyae798r90e000dqO CCAVSCFDCFSCDZSCDDFACDSSZCD 08q77rq7rreeii",
"qr0w8rX##97780008is80XoASSZCFCSACFVASDVBVZASCDFDF#9w78wwqeeaapd7",
"87rqe7XY+dtdpspyiy0w9O@..# O A.OX.BSDDFFSCZDDCSDAo8da0e09raw8er0",
"09q07aXIY.+Xoee7r9ww9#@.PUPI A TII CCFDDSBZVDBDDCS t0r79aa9e07wq",
"qrqeiu@LLK @XX7 #+.+. 6oPJYJ@F YTLJ#DACAACBCZZBDDV.790wpy7w9r0ww",
"rr8as8#PULIJL#@Mnbbmo63#IJTJODFXTLL@DZFFBZCDFFDBCZC 79iw978r7ewr",
"wr0d07+#KYUYL#.Ncx@@c 2X+PIJ+VA#oLP@FFADFZCADCSAAAZXer0eq99890wr",
"qr90q.X  YLLLJOM M xo 2<XTYLX#ZF+JPXZSBDADCAACDDCDF#9q9878w7990r",
"=&==>@UJJJLTLT.nb.bMN 22oITI++#CXLToVSFVCVSCZDBBZAV .*:,>-=--*:*",
"0e7r7.KTJILLUT.M xOv 221#YPJK#.Z.PY@BCDDDCDCDZVZABDSo98qeqq0r988",
"e0qpwXOYUKYKPU#vvbNM 225+PTUIoVDXKJ #.SDDCoAZSSCZADCO+907q9w8qqq",
"77pdewXPIUTYIY+n c M 224+OPPP.F#XJU @XCACB@BDBFDAFADF 9erd79880w",
"ryi0wrXPJPIKTI+vb bM 2232oUJI@F@.LY#FVCCCDDFADDDSDDAZor8rydq7e00",
"paeer@X@oJLUKL#MXNOM 2234#JTJOA LLT@DX CZFCSFDCDFCAFV 9wwwa97eti",
"q8978 YYIILIYU+vNv#@ 15## YK OVOTYK . O+CADVASDAFFFAFC+e8qwsyai0",
"r8997 +TJTLU@ @mNvcM.22.PI.++ DX XX@.#.C Oo@CDFCDAAAFAoeq9q97r8e",
"0ayayaO.PY##uua@o.@O42oUJKYYXCF.#YJUYT.ZDO+ZZDBCSCADAS+wrw9eq09w",
"r00r8wqoX# wqr0q877e#OTUKJPL@FZO OX P#.#FCD.SAVAACABAO#q8w8q0ew9",
";=;=-:,&,,,:;:**>-,-+oJUYUYP #DF.@+#@OO DDCDCZDFBFCFB *-,*-,;&:&",
"wr9q8eeeeq8e7e7wewqq.PYYLJKJG#ASD UOI#MXZSCZBCCFBBAC  9qqwqe8qwq",
"e0re7w7709qe9r97q907 ULIYKUYH.  XoJIPTO DBD#ODAVDBV.X0wer8w7w0qe",
"-:e978yiapweq8rw8r7aOUPTTPKTUYYXXTYIoX.@SBDAOXOX#@.778qeq07qr7;,",
"qr77euy0edtw8ew0eer70XLYITPTTILTIITIOL .FDFC@99#9du788r9r9ydi98r",
"98raaeq797aaw0rrqewqqOYTYLYLJUTJUKU@oX+oDAAF.tp989papq777qe9yya9",
"880rq7qw8eeyp8wrrq70rw+LPYLUPPJYIYPO+oe  #XOewaa7r7qaqr78q7wq78w",
"0q90w00r707w0r8wq9q8w8oKTUPTTK@KJo80w7wwq899w0r9w9w9rew7wreq0q8r",
"r707wq8e0q77q0qrew0qwwXoTJITT@O#+wweere7q7wwq0eqereq99wr799087e8",
"=>,;;==;&&>,,,:*-,=-&,; ..Xo.+&&;,::;&,:,>;,&-;>;,&,&-*&*:-*=-*-",
"wr879wqw7e00e9q0r0we89wee9 q:;:&:-787r779qqr7rq9e9:=:>0e09r98700",
"eq899dsdtrw9qr7wwrqqq970qe8wqe89r7r98e7re0wqwqrw00wr79r9esdud88r",
"ww9ydw7w9pd98q999w89rrqe77rqe7wasdddai89eer8udiydqe9rqwwddeedt99",
"wdawqrqewqie8erddssd0qwq80e9ussdr00w8tw78qddewqrua8q7we7yur87ar0",
"e9e79e9awiuee8pr097dr7q8eddpe8qe00req008rsirr090qsrww9770ddr8s98",
"r9988qrups8r97req09sdptsas00eq078rsdaer0qawre7r9q7wrqew89778er07",
"87ww7we88rerr990q9qwequd88e79r7rw8qw9isda8e7r7w70rwrw,*,*:,qwr7q",
",=-->-=--,:;&>=,;:*&>>:=;,-,>>=>>>*;:,->;,-=&->>;:&&>>;>,-:&=->=",
"90qrq00wrwere90q877q77er890eeeqe0q8w7088w8r7wwq8qwiwe7788wwe8r0e",
"w98rrq0didd907790e9qe7w9qdduud7er7erwe80equadddsew9ddr77r9ddewq7",
"7w978q0r988td9qwr8e9q77rq9w7qddq8qw707q0078e9w8d87qdseqwwe8dd998"
};
