/* XPM */
static char *result[] = {
/* columns rows colors chars-per-pixel */
"64 64 87 1 ",
"  c black",
". c #010000",
"X c #000100",
"o c #010100",
"O c #000001",
"+ c #010001",
"@ c #000101",
"# c #010101",
"$ c #3C240E",
"% c #3D240E",
"& c #3C250E",
"* c #3D250E",
"= c #3C240F",
"- c #3C250F",
"; c #3D250F",
": c #6C421E",
"> c #6D421E",
", c #6C431E",
"< c #6D431E",
"1 c #6C421F",
"2 c #6D421F",
"3 c #6C431F",
"4 c #6D431F",
"5 c #EC1C26",
"6 c #ED1C26",
"7 c #EC1D26",
"8 c #ED1D26",
"9 c #EC1C27",
"0 c #ED1C27",
"q c #EC1D27",
"w c #ED1D27",
"e c #A46630",
"r c #A56630",
"t c #A46730",
"y c #A56730",
"u c #A46631",
"i c #A56631",
"p c #A46731",
"a c #A56731",
"s c #AAE71C",
"d c #ABE71C",
"f c #FEA04C",
"g c #FFA04C",
"h c #FEA14C",
"j c #FFA14C",
"k c #FEA04D",
"l c #FFA04D",
"z c #FEA14D",
"x c #FFA14D",
"c c #4C6CF2",
"v c #4D6CF2",
"b c #4C6DF2",
"n c #4D6DF2",
"m c #4C6CF3",
"M c #4D6CF3",
"N c #4C6DF3",
"B c #4D6DF3",
"V c #4C6EF2",
"C c #4D6EF2",
"Z c #4D6FF2",
"A c #4C6EF3",
"S c #4D6EF3",
"D c #4C6FF3",
"F c #4D6FF3",
"G c #ECBDA8",
"H c #EDBDA8",
"J c #EDBCA9",
"K c #ECBDA9",
"L c #EDBDA9",
"P c #ECBEA8",
"I c #EDBEA8",
"U c #ECBFA8",
"Y c #EDBFA8",
"T c #ECBEA9",
"R c #EDBEA9",
"E c #ECBFA9",
"W c #EDBFA9",
"Q c #FFA2B2",
"! c #FFA3B2",
"~ c #FEFEFE",
"^ c #FFFEFE",
"/ c #FEFFFE",
"( c #FFFFFE",
") c #FEFEFF",
"_ c #FFFEFF",
"` c #FEFFFF",
"' c white",
/* pixels */
"rtrtriuitaeexxlupipaupatrtpraxlzaeeueeriptyreetllurrlkuiyiyeklfa",
"iyirrtrraeaeitklgptiaxxipyaretuxxyreereitrpaapaylfpurlxypurteyey",
"tteupauaairyptrpklkkljpyyuiityayetpreppiputpetyttypueiyiearupyae",
",><122<<322414>>,2:4:4122<<4,1>:<13:<214:,>32,3<<>>2<4,24,4<:3:2",
"uuypptiiapyepptriutuetrtaiyyuatuupeueyaapyaiepiurrprapyeyrtiirpe",
"upafetuattttjkfzhklxggjfjflkpepyuaueapyipppapypeepaiutapfjxflfzz",
"gkjfyrpprtrpparytipprtue@@+kzX oOiupauarypaeuttapiatuiyretyttigx",
"riritipuyyriiyaipiayipt+ (#@#X('.X..oOOtiiatieayippuruytriraujjh",
"utaperutaepurttryutiiy.o_^o__)'` +'/^'Xipputepueeyauiiaaiurepyyy",
"uhxgkxfrauyprtyppytiur ''/o^`~/~@``_/XXieryruepllgxkgkxkeiaeueau",
"aayetptteirrtyppuyyxfj (/^)__~)^^~').ituiueipprpteayeapuarpyurut",
"tiepiiuypptireaeiiuyiaO )(_(/)`_(`/#Oyatypeitriryrpyuepaeerpyeyy",
"riuuytteapiyerttiyrpiyuX^__~_))/''' #ptataiyrauaatepirprrteurepi",
"<,4>11<<22<3<:1:41124412X(('''``_'/@+;%-%%%32<::,:2,>,21113><,:2",
"uuyauairpryurpreuaaaeaeuX')/((`'_O@.=&=&$*><ieuepearyaryiiaypayu",
"jkzlxlklzlfyreiayuetiria+X@o+X#+ oX1:;=&;<<aapartuuaiepytytyexgz",
"auyititipuzzkturptetpeeOPYO.PLK+.RW@4122<<ueyiyiyrpajxxjxzflhziu",
"pyuryaturtipyhgfrrrrytrXYPsKYKIdPIP@ty1ateiratyiukzzlatiueuyeiii",
"jxlzzhxzyppyaeujfxeieiuXPLJKT PYYULXeputyiprayteffuryargxgjlhzlh",
"etrtripjklfprirutkgjgta#UoKLHGTYROP ppuittiepuiryppiglzxrtrapapu",
"yippirrrptxjlrrpipiutpy#K@W+o.# W+I+iiyiauirrtyuytffltaaeariitta",
"fxkllryptpytgjeruur+. #5@IXP!!QI+LO+hfetpeayytayeruarpateupzxlhz",
"yrituuptatyauiapu X`^^ X@. LKLYIR.6O+oo@otreppityapairaiteuyupep",
">1>22<2>2>,4433. _'`'_~ ww +.  o@w87@O''X#o#X>2134444,<121:14<:4",
"upureriteuerep X''`~'/`'X#57q6w08# XX``)^)(^(+XOitireeeryityuyai",
"llljgglpeyeayO.('/('_((^^O59+.@. #'~))/_^'(`'(/(@+ripepauraapphg",
"tpyruauerteut '(''''^^'``#.o.~((/`^)~_^'^'`^~`)`'..ieruaupulllzu",
"rtyuttpfkxhx@+/_`('_()`/#_~'`_)``_(_^^~)'/(`(~`)`_o+lrpytykiryyr",
"tptyeggurpt. _^(_'`((~^_ _)(_^'(_`('(`/~_^''/(``_)/XOpeullyuapap",
"uyiujfiiey+ (''^^^()/`'' `/^/~~/(/_`(`'~/('^((_~)`__@eizgyatayri",
"aiyfzrrra.X^'^`(_)~`^`__+___(^_^(()``//^))`/(~`''()'XXjitrrrueii",
"uarxtrrrOXO((_^_```'^`('o`_~(`_)`~'~'~'_^')~(`#`(`~X^ yaieprtypp",
"@aytuprO ^`+'~^)__`/`'`_#)~.o^)`_/(~'`/^)'`(~^O@^~'O_XOerrpeetiy",
"O@,,@OoOI#_+())/~(~'``~`.`~+ ()^_`_`~_)'`_/)('@o)`+.^^#43><<<2>>",
"L#@#XKWWRO~. _`(`@#(`)'_O^/'()/')~/_`)``_/^+..@  (._`XXXuuiraeri",
"KPYWYIRPWE+' @   e++~_''@^'^~`)`///(~)'(_/)+SSoto@)_`.W.ruereutu",
" @@X@IUYHI++#Xuyta..X_'(.@_^)(^'')')/``'(^#VSS.ir+`+.RU.axtyruri",
"OglerX O +OXyuuaii.C#@~)'o~(@.`((^'`(_)') oCSS.hhO.XYI +plxtuayy",
"kluuypiupyireiprrp+SAX `(.~_  )__`_()`~.O CCBC+pix# KR @rilpetfg",
"urettpuaiepiieuepp+CNS+X o ))'(^~~///_ @AVCCSA.peyu Ioayrpizgxjy",
"ryepyriuiueiprplhg@OSACNNoO.((^^^_)^)X.NSCSNC.OiuytOT+tueyuyuyyp",
"plglgllhlgzjhjlltu+#SNSCSCS +.+ o  +OXVCNSNSSX.rpyrO@T+ayattepta",
"tyyyuipiatyrepyieee+.SmSSSSSFSbSbSFCVFSSSCSNBXypea+ YUotrayprayy",
"3>2:423>4<4232<>3<4+ bSbSNSCSFFFSSCNSVFACCSNA#>>4:@#ET 4<>4>1<3:",
"iutuyrptpiaeepriuyeu# mZZbBANcoNCXSCFSbSCACCF@rueyo@P@Oupiupruia",
"eyrpeietytuptapeuyyre CFSSBCbCS@  SSSCBNNSSZ@opurrp.X#iprppeipup",
"42aruugjlxipayaiyrexgi#ZVSZSCSSM+SCVSNVFSFCm+uepiuueryuppaeuat14",
"paeethkytlharrayaparrjjODSSCNCMV#NbNZNSVSVVoytptexherrpapygxjtei",
"ytixfppitrlxiypauieuiryX+ASABNNbOACSNnCCCSoOgfherellkueeuyaplkky",
"iayaurpirppjgriayeuyaeppXNAbFbFboACACbCnAX ayalztaetgaairutieuar",
"aetyaitauyupraiuettrirappOCZSNSN+SSNSCFS+ etitptitptppiiiiaerita",
"aeaeraeptuueieuypareeiteaX@bSFCSXCSNAcCCXyreirppaappttuepuuterui",
"33>31:>1:11,,4<:<43,>311<>@XSSNZNXSSNSv +,:2:>2312:4>>><214>,,4<",
"uaaetriaeppypaetryipryrtupeOSSCSF+CANS# yuuaeaattt1,44yuyuiptura",
"puptyjzzlaupuaurypruupptpyriXBCSmOCCSCoyuyaepuaetyuareiepxxhzrya",
"yiegjuertlxtrtrrrueaaiuprttut VAC+NSS@Xrariejxxjxpatiuiazlpezfep",
"efkpuaupiijpeutxxxjjariuryaajXObS SSo+aurazxpiuafjiueiarjjaeezay",
"pttteaefijhpiykyrtrzatuiuflzaioXC@S .eaapzxatyyiujyrrtuutkgtrlpa",
"apprreifkziateipuatzjlgzlhypuirX. + lpaaegayuiyteuupupueteuitiat",
"ruppuatyepeyattyuuurppjxerp X.@XX +. .zzxruepiueyaitp3<4>12iiyui",
"4,<<4<4<,:23:::>:>>:332<:4>o . . Oo #@>3:4,<1<3132:1431,232:,4,3",
"tyauutriaiaayertyeeateuiati   .oy@X ooryeiyyiuuruaxupeerraaariyp",
"ieraiiilxxxtayrtyetupiryuxkXo@oOa+#X  reaihkxjzzputxzaruptxxieue",
"tpteeuyateegjapurapaaeraptiruxgureyeaeaarryrtuixrrpzzyeiaurxxueu"
};
