/* XPM */
static char *result[] = {
/* columns rows colors chars-per-pixel */
"64 64 88 1 ",
"  c black",
". c #010000",
"X c #000100",
"o c #010100",
"O c #000001",
"+ c #010001",
"@ c #000101",
"# c #010101",
"$ c #060402",
"% c #080503",
"& c #080603",
"* c #0A0603",
"= c #151006",
"- c #191007",
"; c #1D1208",
": c #20140A",
"> c #24170B",
", c #2B1B0D",
"< c #3C240F",
"1 c #3C2511",
"2 c #472C14",
"3 c #513117",
"4 c #5B381B",
"5 c #6A411D",
"6 c #6C421E",
"7 c #6D421E",
"8 c #6C431E",
"9 c #6D431E",
"0 c #6C421F",
"q c #6D421F",
"w c #6C431F",
"e c #6D431F",
"r c #6B4320",
"t c #7C4E25",
"y c #A46630",
"u c #A56630",
"i c #A46730",
"p c #A56730",
"a c #A46631",
"s c #A56631",
"d c #A46731",
"f c #A56731",
"g c #F44236",
"h c #F54236",
"j c #F44336",
"k c #F54336",
"l c #F54237",
"z c #F44337",
"x c #F54337",
"c c #22B14C",
"v c #EA9347",
"b c #FEA04C",
"n c #FFA04C",
"m c #FEA14C",
"M c #FFA14C",
"N c #FEA04D",
"B c #FFA04D",
"V c #FEA14D",
"C c #FFA14D",
"Z c #4C6CF2",
"A c #4D6CF2",
"S c #4C6DF2",
"D c #4D6DF2",
"F c #4C6CF3",
"G c #4D6CF3",
"H c #4C6DF3",
"J c #4D6DF3",
"K c #ECBEA8",
"L c #EDBEA8",
"P c #ECBFA8",
"I c #EDBFA8",
"U c #ECBEA9",
"Y c #EDBEA9",
"T c #ECBFA9",
"R c #EDBFA9",
"E c #FEA3B0",
"W c #FFA3B1",
"Q c #C1C1C0",
"! c #F3F2F2",
"~ c #FFFDFC",
"^ c #FEFEFE",
"/ c #FFFEFE",
"( c #FEFFFE",
") c #FFFFFE",
"_ c #FEFEFF",
"` c #FFFEFF",
"' c #FEFFFF",
"] c white",
/* pixels */
"uipissaspapyCMNadfidydfiyidsfCBCasyasapsaipydyyCNaydmNaufapyBBMp",
"adssdyuudyfufiNBndissnCafpsusdyvBpsuauuiyuidfafpBNiiaBMpfauiafyp",
"piyydidfiauidisfBBNnBMipuussdap>-1ryyiifadisypuididdyapupdyiipuy",
"e7700077wqqe0e679e66000eq97e7OX ]OO$=08q7wqeq9w9799qee8ee8w90we0",
"aydaipspsddifyisfppaiiyipspda@]]'])_ psydpusydaauadffdpypsfasudy",
"sdfbdiyfpuiiVNnCmNCCnMmMmbC#O^]s'/(].sXodfdfdpdyydasyuupBnBbVbVC",
"nVMBiudyupufifpdiudduyaypfp+/(]_X.X..o /+#.#dddfaspifapyypfydsBV",
"pfsaifiipdsaipfdyaiisdiisp .(^]]OX.__))/])]]oifipfaauapipfspyNmm",
"sypidssiayiupiyudaiuufiaap@')`]/OXX^((+@``@ apayiufyssafuauadipp",
"aVCnNMbpuypdfdiuippsfuppds.((^].X^'`''..+X #aypBNnCNnmMCisfusypa",
"fpiyifdpuaypipyiapuVNMndad+__))`]`/)`.O'.@@O&suppyffusiyfsipauyi",
"psiassafiadapyuyuuapappmuu _/'])__`o#^'//^/O:uisuidfdydfyaudpiip",
"uaaypyaysisiyuyiapsdspsdud@^]/`']___]_)^(_` 2yadsyyuuudyuyyauypp",
"98e80896079q60q6e0w6qqqq77O#'`])`']')//.+O +3e6766q8998606w798e0",
"fipsyiaufyaauduiafdpisasadO@O#+`]``/]!<^@X7*sassdapfppupssfidduy",
"MBVMCnNnCVnppiufpauiiusfdp+ @Y@@o ..O#X@Oe9ufffyuasfsyfiuufsyBBm",
"fufaiuyspyCNBisaduyidiufii@cPPTLX.X@.Oo659yypuispidanCCVNbbnmVaa",
"aufiydpysiuppmnnusuupisiy@OTIKLRK+O@.@#sissusidsaCbVBfiuayayysys",
"mbBnVMnVyfdffydMmmufysai @PPUKRIXP @o+ iidaufipybbaupasnCnbNbVnm",
"asuauidMNBbdufuuiCBmbifa OO#OX@I YX+++aspisydasyffysnBVMsiudddys",
"fssfduypdpVMCuuffdsyddpadpXEWPI  PI+#.oapssuyypapinbNisfypusuips",
"NNNCBsfddfyyBMypaauufasusp RPTILIU@ @z+pdasppdfuyuafuaiiyuiCCnbC",
"iuidaidpfppfaspdiauifa.#@X+Oo#..XO#jgkOXXiuysdfipadfaupfuispadys",
"707q0877q76eqw9wqw889#o+ghzhkjgzhgjkX@`)oX6w7e70eqe9e6e0006q797w",
"adyuysdyyasuuduyisss Oo@ O@zgxl ++  __^'O @sppdsfiupyyaupuiudyff",
"CBCmnnBiaiasipdpfpCa +^/O(#X#(``^]/^`/]^)@#saufuudpudyyfauffidNM",
"ydpfifaauiyapuppsMVuX')`o(]]]#.#/(/'/)_``) ppaippiisyussaddBCNCi",
"uyfadidbbCmCNVNnmnp+_`^/@o]OX.'/_`/(](`)`(XfuyafpyaCBpdpifBaudfu",
"fdypyBnysdfffddafiu.(])(]X.+^)/)'``^_)/_`) aauuffiNbpdyiBBdiiysa",
"afsdMmp4%OOssiypdyi@(])(o _(`])'/')((.+_^.OffdyyNnaO#XOVnyuyfpss",
"fsuBVu4%YPO+dpyupCb.']]_.)/(^/)'(/))X^`]_XOdsaCm+X# II. iuuuyyuf",
"ufpMp4&RYTo#+ooyu ++`/(O@'`)''/]]]^^.(](/X@@XB#+.+.LURP@aaduipsf",
"apipaa@oTLYOORX#. .O#'@X/`))(`/(''O+/`]'_)X+Xoo.IUIU+RI#suayyiff",
"868e0w;X@OLKKRX ^o.(+@ Q_'])'^_/(O '''^)']O@_(@LRO+o#P#Ow98997e7",
"idusypt,+ + .T+/'X^__(^)(^`](]]]^@]_`]])'] 'O/+UX#uy +Oadasufyus",
"apaNapapdaii@OoO]X+]_'``^)/^`)/oo)/`_)_)`]+~+ +.#yyyffiuyaisuada",
"yyNCdsuiapdpfia.O'#^]]`_('_`'@o@)))/')])_] XObC yppipsidfCyiusus",
"fnCpsfyasyiipisfo.O.])`]]^X.O+'//))''`(^^XXyipCBMVfuuffufnCyafpp",
"VNddfdsydfauisippdfO.+O+@.@ /_``)/_/^](`] CBpfudaCmBpuisssniyibM",
"ayiyufafffdasyyyfdNMoO]'_']+(])]`^]]/_]`/+uyVnnaapaNnasfudfmbBCp",
"puyiuyuysypadyynbnnpuO/_/)'#X'(_/)/](]^O#@CpifCuapdpfuyddiapafud",
"fBbCnBnMCnVMbmBNiysysX'^/`(O)]_'(/)))//(+XiuaMMiapyppuyfdsiiyfis",
"iffppusyfyuuafpssaydfX X]``X)_(]_(`]`]]@#.CnBBpdyfipdddaufpaidsi",
"08089qw6e9eq0q77w9ee0 DD@X @(^`()`')_.OO#89qe967e09wwe7ee77e06q6",
"ufiauddidaudyiyfaudapDZHSHSDXO.X@ @o@SH faaaafuayfadupiaasafuaas",
"ipfdysyypisdifdaaiiyyoSSZSDSSASDADDJDA  dippipsyupdsspadfdsysiad",
"9qffaynMBNsdssffusiBnO ASDDZHDGDJDSOX .+mpyuydyduasiypafafysfy0e",
"afyydmBiiBbfufspddsafO#FGJDJDJDZZD XAAZXNnVbpyiiiCmysudidpnCnpys",
"iysBBsdsiuBBspffadsaa#.oDDHJZHDDSOXSFD#.iypnnbNiuyNnNayyaafiBnBd",
"usppyidsuddMNusffayp. JODADDSHJDFOHJJ+.daiudpsBByfydBfpyuaysyyuu",
"faipspidapyaffasdiduOZG.DDJDDSJAG .O #ssayyiapfisisifdssssdypayf",
"fypysdydiayiauafdsuO JJH.ADSJAAJSD#Odfddspuaypdadfdayisiyadpuudu",
"90e0069068w9wee79e8XSDHA  DDJDAAADAoO6e7e86e66q00e6q6976q0e78897",
"sfyyiyasydppdiypsps JJFS .DZSJSDDJDDX yypaafyfaiiiq6qepdpdpipapu",
"dauiuCCBNfaddfysdfs.GSSHD  @ZZJSGSSHAO.od sasafuissfyifiiCCmVuuf",
"uuinCsyyiNCduyiipsuOASDDA @ OO oX+#SJAG .oXXXCVnCsdifassCCffCmyp",
"sBNfasadsyMduifCCCCoFSHS+ dimVBCdp.oX.X+  .. safmMuaysdynMfyyBdu",
"didiyfiBuMmfauNfpdu..GDOdCCVduafppfdapsuf X +pipaVfsudyiiCCdyNiu",
"dyiuuppmNVufiafddpi XS @BmppdaiypfVCBifuu o Xypiaasfadyuiyyuyffy",
"uisdysiuufdfsiipaiX oOXVyudypfyfspasdCCCB@ .opauppsfsw7e7qessfys",
"e699e987eeq06w6907.O .O90e9q8wwww86wqe7w0e  X9w00q66we0wq8q69998",
"dpypapssfsdfpypdu.+X # fpiuddiadpsusypupupfudaauasCufiypusfsufid",
"fiufpapMmBCipyuypi OO aiaCVnVVuafydisdsidamBCCCVasiCMfuyfiCCdyay",
"isdauapfiyymCidapudpauufdisuaCCauasypyafuuuiiauCuydCVfssaduCVydu"
};
