/* XPM */
static char *result[] = {
/* columns rows colors chars-per-pixel */
"64 64 73 1 ",
"  c black",
". c #010000",
"X c #000100",
"o c #010100",
"O c #000001",
"+ c #010001",
"@ c #000101",
"# c #010101",
"$ c #3C240E",
"% c #3D240E",
"& c #3C250E",
"* c #3D250E",
"= c #3C240F",
"- c #3C250F",
"; c #3D250F",
": c #6C421E",
"> c #6D421E",
", c #6C431E",
"< c #6D431E",
"1 c #6C421F",
"2 c #6D421F",
"3 c #6C431F",
"4 c #6D431F",
"5 c #A46630",
"6 c #A56630",
"7 c #A46730",
"8 c #A56730",
"9 c #A46631",
"0 c #A56631",
"q c #A46731",
"w c #A56731",
"e c #F44236",
"r c #F54236",
"t c #F44336",
"y c #F54336",
"u c #F44237",
"i c #F54237",
"p c #F44337",
"a c #22B14C",
"s c #FEA04C",
"d c #FFA04C",
"f c #FEA14C",
"g c #FFA14C",
"h c #FEA04D",
"j c #FFA04D",
"k c #FEA14D",
"l c #FFA14D",
"z c #4C6CF2",
"x c #4D6CF2",
"c c #4C6DF2",
"v c #4D6DF2",
"b c #4C6CF3",
"n c #4D6CF3",
"m c #4C6DF3",
"M c #4D6DF3",
"N c #ECBEA8",
"B c #EDBEA8",
"V c #ECBFA8",
"C c #EDBFA8",
"Z c #ECBEA9",
"A c #EDBEA9",
"S c #ECBFA9",
"D c #EDBFA9",
"F c #FFCDD2",
"G c #FECCD3",
"H c #FEFEFE",
"J c #FFFEFE",
"K c #FEFFFE",
"L c #FFFFFE",
"P c #FEFEFF",
"I c #FFFEFF",
"U c #FEFFFF",
"Y c white",
/* pixels */
"678700908985kgh9q07q5qw755q0wljl90q909809775q55lh957fh96w985jjg8",
"9q00qq66q5w6q7hjdq790dl9w806 .Xhj806966q567qw9w8jh779jg8w9679w58",
"8755q7qw7977q70wjjhdjg7868oX+I.oq7O+577w9q705867q7qq59868q577865",
"4:>121>>322414:<<4::1 oO <OLULU.o++H#O,2>3242<3,><<244,44,3<1341",
"95q978086qq7w570w889+#YUIo#LYYJY LLYJoX5q8605q9969qwwq85w0w906q5",
"0qwsq7588677khdlfkllXIILYO PIKUI YHKHJ 99wqwq8q55q9056.ojdjskskg",
"dklj76q5686w7w8q76qq#HKHIKXHUJLPKYYLI #qwq85qqqw9087XO @58w5q0jk",
"8w097w778q0978wq5077@+OJKJKYLLYYLYIUX.97906707w78w99 CV+8w0w5hff",
"0987q00795768756q5766wX+HLLPJ.+@O.Po+590wq97989576w5oSC 6969q786",
"9kldhgs8658qwq767880w68+.OJ#.#NDD@X@700w66w6958jhdjh@O@@70w60589",
"w8757wq869587877986khgdq@@#NO@CBO.D@oO76q7w0706885ww60 +w0789657",
"8079009w79q986650698988+ @VSaZVVaBNNOXq76qq0767067qwq5  596q877w",
"69958q9507075657980q080XOZSVNAXVSZVC.@707008859q05966.+o65595588",
"<,4,1,<:1><2:12:413:242.@CS@V   N.NS@.%-&%*224:>::2,<@Ao1:3><,41",
"87805796w5996q679wq8709 .OV.oXF.+.BSO&=*$*><0900q98w@OS.w0w7qq66",
"gjkgjdhdlfd8876w8967700. X.VVFGFCNABO;=&=4<6www5890 oCB 66w05jjk",
"w6wq765085lhj709q657q76w57@+CVCSSSCBN+.:<<55867087O@X O.hssdfk99",
"96w75qw50768wfdd606677075@.XX  O+BNSo+Ho@X0607q0O# YLY Oq5955050",
"ssjdkgdk5wqww5qgff6w+O   YXrtyup.@Xo. KY# O@#O# OH#@.@XXldshskdf",
"906967qgkds98w6 O#+oJYLIILO.ttteeiyeoLLLYI+LLYUHPJPIKHoO076qqq50",
"w00wq658q8kg X.+HUHPIUIUP.O X o++#Oo+IKHPYL#YLJUULUPJKY@58606780",
"hhhllwwqq + OPUPYYYLHYYJJ YKJIUYYJLPYLLKYKI+YYPIUKLUPY#+567llhsl",
"767q97q8 +PULHUHKILLUPILLOYYYPLKIPULJIKPKHKHoLPUPYLYPY w67089q50",
">1>21,>@HIYKIUPJYUUUYIKYKOKY@.LYYLJKLIUKYUUUY KHUHLIJIO311:2><>3",
"9q9650q IUJLKJJ#+#O+YLJLK KK #IYIKUYLUILPUKUI.JLYLHYI+968676q5ww",
"ljlfddj+oo @O @8w8l+JLYYUoUILYHLYUKLPLLLUUJYLXUYIYKP+O5w96ww7qhg",
"5q8w7w9+ YYYXo880gXLJHKPH LUULILKYPLPILLYLUUUKOLUUK #6009qqjlhl7",
"65w9q7qs #X.Okhdfd@IYKLKYOLYYYKYYPYYJUULJLYHYJ@LYL oj8q87wj96qw6",
"wq585jd50XCV@qq9w7XPLLHIU.PYOoKYIPUHLUKJYUYHKKX+Oo s8q57jjq77509",
"9w0qgf889OOZ@758q5#UKYYJHooUX+LYUPYLPHJYLLPLJKoOhd95780kd565w890",
"w06jl60wq0ON#8568l YYYJKPY IUUUUYPYPYLYUJHLUHL flq8757l07666556w",
"6w8g8565wq V 68560ooLYPJPY@IIPKKYPULUYIPLIPLLU+9w9087w8q99q678ww",
"9888995w<4oO >1317@ #KUPPYY PLHYJKKJLYLLYJYK+  7w5557976069557ww",
",:,413322; #o+ -,>3OmX.ILLLY.HYJPYLJJLUKJLO @ .:222:4:22,<,<<>4>",
"7q6058qw<  CADX14wwXbxxX.O.I .HJPYLUKIP.   nMo076w655769q906w566",
"989h9898q+oSNN+8q6oomMMnnc# X+ Oo.+.OX cxMxMm q77655ww7659706qq9",
"95hlq06798@XCoo85 oMbbcnMxMmMcxvnOzMxccnxMvcn. 05887807qwj576050",
"wdl80w59057oXO0wO+MMnbMcMccvmnnmv@cxxmMvnnvMvn+jgkw66wq6wdl59w88",
"khwqwq05qw965078 vMzMzvvMMMcmbxn #nxMxcbnvbMvM#q9lfj867000d757sg",
"95756w9w8wq9055+czcznzvMzcxmnvOXvxzcxbvMMMncMM .989hd90w0qwfsjlw",
"66576565w589q55XxcxzvxcvzvMn+XOMnvvbxxMvvvmnvMv 98q8w65qq7989w6q",
"wjsldjdgldkgsf. vnMvxcvmMnxM mvbvzvmxvvzvccxcvxX9857865wq0775w70",
"7wq88605w6609wOvvmcxxMMvMcmxvxmmxvzvzxxxcMMcvmM 5w78q7q96w897q97",
"1,1,<23:4<4212#zvxmcvvM  .. Xo@#.@OxvxxznnmMvcn@41<334>42>>21:2:",
"6w796qq7q96q57.nzMnxvnOO090775088+xcvnvbbvnzcn 95w9q6679909w6990",
"78w9505587077w.xcbxMbc 0wqq9q7805 nzzczzzMMvmvo568q0089qwq05079q",
"<2ww95dgjk0q00+vmnmvMz #6qw98778q.xxvxnMvcvMcXoq0907589w9w50w514",
"9w95qfj77jsw6wX XbxzcMv@jdlhjd7dl#cvvmnncmvcm#q57lf906q7q8dld850",
"750jj0q076jj08wwo@@cxMxX.5980jg8qOozvcxvxMbM@@h705hdh95599w7jdjq",
"608857q96qqgh60ww95O+cvv#o06577800.Mcvzbvzc+X0jj5w5qjw8569505566",
"w978087q9w59ww90q7q60 ObmX@w5567w9.vvmnxnM+796w70707wq0000q5895w",
"w6850q5q79779698q069907XXOo 7968q6@vczxxM@6958w9q0w9570759q866q0",
"<1411:<1:,3<343><4,<:41:@@+o.42:1<Xzzznx ,:4::2114:2:<>:214>,,<>",
"0w5775905q68q758080q586.. +.@12:2..nczM.899w5w97772:248q8q87w986",
"99676lljhw9qqw50qw09079X.X  97658#MbMM@#qw0909w6700w57w77llfk66w",
"667dl0557hlq6577806qw09 X  9776jk.Mzm o7q986dlkdl0q7w900jjwwlf58",
"0jhw909q05gq67wlljlg790988q7fkjlq nc sw569llw098fg6950q5dgw55jq6",
"q7q75w7j6gfw96hw8q6kw796qllkq69wX...9806wkgw88789kw06q577llq5h76",
"q576688fhk6w79wqq87llhgkjf88q975OX .+@w66jw8q78q990w9q5675565ww5",
"670q50766wqw07789790q9fk56q58w5w.+X. +llj5q5q8q6880w03>4>2406w50",
"4:<<4<,>4421:3:<12>:342<14<2,333 .o#+ >314,<:<3112::34132,2,<<<,",
"q8589800w0qw858q655955qw876qq79q8060586868w6q99690l6w75w00w06w7q",
"w76w897gfjl785658779q6979lkdkf69w5q70q07q9fjlllk907lgw65w7ll9597",
"70q9598w755fl79986q8966wq7069lj96005859w6667796l65qlkw009q6lh5q6"
};
