/* XPM */
static char *result[] = {
/* columns rows colors chars-per-pixel */
"64 64 78 1 ",
"  c black",
". c #010000",
"X c #000100",
"o c #010100",
"O c #000001",
"+ c #010001",
"@ c #000101",
"# c #010101",
"$ c #130C06",
"% c #29190A",
"& c #3C240E",
"* c #3D240E",
"= c #3C250E",
"- c #3D250E",
"; c #3C240F",
": c #3D240F",
"> c #3C250F",
", c #3D250F",
"< c #6C421E",
"1 c #6D421E",
"2 c #6C431E",
"3 c #6D431E",
"4 c #6C421F",
"5 c #6D421F",
"6 c #6C431F",
"7 c #6D431F",
"8 c #EC1C24",
"9 c #ED1C24",
"0 c #EC1D24",
"q c #ED1D24",
"w c #ED1C25",
"e c #EC1D25",
"r c #A46630",
"t c #A56630",
"y c #A46730",
"u c #A56730",
"i c #A46631",
"p c #A56631",
"a c #A46731",
"s c #A56731",
"d c #F44336",
"f c #A9E71C",
"g c #A9E61D",
"h c #FEA04C",
"j c #FFA04C",
"k c #FEA14C",
"l c #FFA14C",
"z c #FEA04D",
"x c #FFA04D",
"c c #FEA14D",
"v c #FFA14D",
"b c #4C6CF2",
"n c #4D6CF2",
"m c #4C6DF2",
"M c #4D6DF2",
"N c #4C6CF3",
"B c #4D6CF3",
"V c #4C6DF3",
"C c #4D6DF3",
"Z c #ECBEA8",
"A c #EDBEA8",
"S c #ECBFA8",
"D c #EDBFA8",
"F c #ECBEA9",
"G c #EDBEA9",
"H c #ECBFA9",
"J c #EDBFA9",
"K c #FEA2B1",
"L c #FEA3B1",
"P c #FFA3B1",
"I c #FEFEFE",
"U c #FFFEFE",
"Y c #FEFFFE",
"T c #FFFFFE",
"R c #FEFEFF",
"E c #FFFEFF",
"W c #FEFFFF",
"Q c white",
/* pixels */
"tyuyppiiuitrvvzpaiyaiisytyapsvvvipraiiupaytraryvxiriczitspurxzly",
"iappirrtarsusyzvjayppjvisystpyrxvuptiururtyasipuxxyrpxvusiuyisru",
"uyryayisaityyypaxxzzxlyuttppaiuuayatryypaarprutyayiiriutuarryutr",
"711444316577<3<137<245475317151126341425165652631335772172634675",
"iraiaupypaaysiypiuuiryryusuaipyiiarruusiautpriiatiassaurupaiitay",
"pashayysytyyczhvkzvvxlklkhcxayatipirspuiaassauarraiprruyxjxzchcz",
"hclzytartytasayaypaatriiX#.xho+.+iiasiussasraaasiptyiiurtuprapxz",
"uspiyaauuasiuysariaypurO.Wo.  QRo#. . oyipsypysuusiitiuytspurxlk",
"pyyuaipysrytuyrtsiytts  TY.RUWYYO#QQTQ.iaapyiuirytprppistiriauyu",
"icvjzvhupraasayrruupstXQTYOEWIQU#RWTUo sttatiruxzxvzjklvupstirus",
"suyryaautarururaiutzhk+WETEQWURTQIUI rytayisuptuursuipyrspyuityy",
"upyippisayaiurtrttiuiu .RYRRYWTUIWQo.ysytsapytuptyasaiasritauyyt",
"tiiturarpypyitrypupipup+QITEQWIEEUWX#iypyppturrauiytutartrritrut",
"2272<<3<4<34<44<746<7545#TEEYQTIQTWXO;*>>&-555<1<152332<4<653275",
"pyupiyitariitaryisauysii@QRUQYWWW++X;=;-*-13ptppaiusuutsppsuaarr",
"lxclvxzjvcjuuytsuityytps#oX@XX.O..X42,;=;73tsssryipsprsyttpptxxh",
"stsiytypurczxyytayryaytOHD OZGZO+FJ 765<73riutipuuaihvvczhhjkcii",
"itsytaurputuukjltpttuyt@ZZgZZGFfZZFXys4pypptpyapivhcxsytiritrptp",
"kjxjclxcraausralhcusrpioGGFGF ZDDSZ#raruyiitsuurhhittisjvjhzhzjk",
"rptrtyalzxhatsttyvxkhysXAoJDAZFSA.J#apipuypraitiuarpjxklputaaaip",
"sppsautuauclvttssapruyu.GOH+oOo+D HOpiaisartrruiuyjhzypsrupptyps",
"zxzvxtsaaarrxlrui   X@#q@A ALKPD+D. hcyyarpuuystrtrptiryrryvvjhv",
"ytyaiyauuuupituooQERQ @ddXOHZASAZXeO+#o+#rtrpasyusasptustyauiarp",
"1415431151<774X#RQEQQUR+9qX#+ .o qw0+OQW@+.@X75275731<7454<413<6",
"aaiurpsrript#+#IEYQEQWWEO#88e0089+ oXRQUIIIUE.XOsrptrrpuutrtsyss",
"lxvkjjxaryi EIIYETWUQTTUT#8eoO.  oQUEWEQRITTEWRT@ utatrsitssyakl",
"isupysiity.RQEEIQQTWEUREE  # IWITTYWURIIERRUEWTWW+Oprtppiaaxxzvr",
"trsiarah#.#WWQIIQTQTITYT EQQWUEUTYQRUUIEEUYRYYQRWT@.xuyuysxitasu",
"uyrurxx@O RRQWIWWQTWQRTQXWRWEUTQTIQWWTYIUYQQTIYIWEWX sryxxyyurpi",
"isialko@WXoQUUUYWITQQWRW#WQYETTTYEIWEEUITWWRWUTERTQY+ypzjrpysupp",
"sstxc oXO@oWRTETTYEQYQYR.EIQYUTTEWRYYQEIYWYYTYIUTRQT.Xvpyrtpryps",
"psuvuOSZ+RT EYEIQ+UYTWEWoWWTIQIREIYYEIUIUWIUTYOWYQToR uaiyytyups",
"isyu HSSDOQooo+O++$WRQIQ+TRXoWEWQTRQUWRRIWIEEI+XWYQ#I otrtirryss",
"2<22@FHD@ooOX@:%27oITWTQ.YR@XRIWRTEIIEWIUQQYRT##RRO.WEO763233151",
"uarpOSJGXXo51<667s#UWEQEOUYUWETREIIYTWTERTRo++OO#Q@RTXX+aiptsytp",
"auizoHS.aiyratsuar+ QUTR+TRWIQYUTQTRWIEYUIE#NCXu#.QUQ Doriyptiai",
"rrzoF  opuaustiura .@RQU.#QURUUUEWURQQRQIWOMnB pr#R@#DJosvrytttp",
"sol JorspruysyssppXVO#UIYoQE#oQYWQIWTUQRW@+BCmXxl+o#HJ+@sjvrisuu",
"z@ DXaprapitapyuuaXCC.XRI.RWXOTREQTEWRW +XBMmmOaivOOAG#@ppxyrahl",
"#FJJG+rssaaiprirsa+nmBO @#@WETWQUITQYW#@VVNBMb+iiup J#patapcjxlu",
"@AGFG#@iprriauyxhj+oBCVBVXO.TQWYYWTWRX.bMmbBM+#tiuaOZ.yaiyiyista",
"#oDZAojlvjzlkkxcyrO#MNnnVVMX#..XXX...@BmVMNMC oaaurOXJOpspyyiuyp",
"uoF#otiysrutisuptrr@+bmnCNCVCnNBVMCMMBVBCVNMV@tarp #ADXitsuiuapy",
"42@X+56<73754511637..MCVCnMCBnMVCCVVBnCVCCnMb@<17< #ZJ 371374<5<",
"psyitaaaaitararpipiiO+bVnbnCMVoBBoCMMCmMCMCCCXtiruO.FO+iipiatipp",
"ausarprruyiaysyriyurr VCVVCVVBCX++CbBCCCmVBC++stutyOo#pasuprpyia",
"35auitjlxzpappsptsyxjp.VCCbCnBCM+VNnCBVCNmCC+arspisrrtiaisrisr47",
"isrrakjuyvhstapuaasrull CMVCmCbB@BmmMnBBnNCOuyyyyvkrttsysujvlyts",
"ytsxxaatyrxxpussiapiiau#@CVBNCVC@VbCNmCVmC@Xxhzytyzjzirrriayxjxy",
"tpusiraptaajztpssiruspypXNVBnnCmonMMnMMmmoOaspxxrsrixasrtirpirtt",
"uiyupuuaiuriustpiyitptssi+CCBCVCoMNmMCnV@Xyypusypypysappppaiuirs",
"srurpatauiryiuisapuippytaO CnnMVOCVBmCbB tpiiuaiasaiyypuriyuttat",
"26744<24<26777713723<74<3<#+mCNBMoNBVMV #2<7<35647<7<31<14312311",
"pstrypiprauuayrupupatypaayt#nmMCB+MmCBXXyiisrpiyyy5257uauysyuruu",
"aityuvvvzspaisrpisiiiyiuaatpOMNCCXnnBC@saupipispyupsrysyacvkvtts",
"ppyjvprpyzvytryyyptyspiatrsiaXCCMOMMB#.yaiutlvljviaysippvvaavhyy",
"pvxsipiapilatasvvvvvuipituayk.XCV#MM@oprtivvapiskvtirparjksrrxsu",
"ayayrsyxplksatzsuytvstitavvcatX.CXno uutsclssuyuicsppyrruvvsrcyt",
"syyttiskzctsyisaiuycvxhcxcuuaiu@XXO+xastrxpsaruyirpsiaptyrrtastr",
"typirpyttsassyyuiyipaikvrta@o+@# X.+@Xcvxtararpruspsp617157ipsii",
"723363233754<627451<6652473. .OXXo#O  364722<36445<<6746535<3122",
"yuisiutpspasayuatrriyrastyu @+@+uO Xo tuptsripitiplparrttppatsua",
"pytsuiuvlvvyurtyuyyiarpyivcO@ Oos@ XXotyaikxvvvcapyvvsrrsyvvapir",
"ypyrtiusyttkvyaistayirrsiyprivvitiprurisurtayptvtrivcaippatvvyyt"
};
