/* XPM */
static char *result[] = {
/* columns rows colors chars-per-pixel */
"64 64 92 1 ",
"  c black",
". c #010000",
"X c #000100",
"o c #010100",
"O c #000001",
"+ c #010001",
"@ c #000101",
"# c #010101",
"$ c #140C06",
"% c #29190A",
"& c #3C240E",
"* c #3D240E",
"= c #3C250E",
"- c #3D250E",
"; c #3C240F",
": c #3D240F",
"> c #3C250F",
", c #3D250F",
"< c #6C421E",
"1 c #6D421E",
"2 c #6C431E",
"3 c #6D431E",
"4 c #6C421F",
"5 c #6D421F",
"6 c #6C431F",
"7 c #6D431F",
"8 c #EC1C24",
"9 c #ED1C24",
"0 c #EC1D24",
"q c #ED1D24",
"w c #EC1C25",
"e c #ED1C25",
"r c #EC1D25",
"t c #ED1D25",
"y c #A46630",
"u c #A56630",
"i c #A46730",
"p c #A56730",
"a c #A46631",
"s c #A56631",
"d c #A46731",
"f c #A56731",
"g c #F44236",
"h c #F44336",
"j c #F54336",
"k c #A9E61C",
"l c #A9E61D",
"z c #FEA04C",
"x c #FFA04C",
"c c #FEA14C",
"v c #FFA14C",
"b c #FEA04D",
"n c #FFA04D",
"m c #FEA14D",
"M c #FFA14D",
"N c #4C6CF2",
"B c #4D6CF2",
"V c #4C6DF2",
"C c #4D6DF2",
"Z c #4C6CF3",
"A c #4D6CF3",
"S c #4C6DF3",
"D c #4D6DF3",
"F c #2196F2",
"G c #2096F3",
"H c #2196F3",
"J c #2197F3",
"K c #EE9A9A",
"L c #EF9A9A",
"P c #EE9B9B",
"I c #ECBEA8",
"U c #EDBEA8",
"Y c #ECBFA8",
"T c #EDBFA8",
"R c #ECBEA9",
"E c #EDBEA9",
"W c #ECBFA9",
"Q c #EDBFA9",
"! c #F4E49C",
"~ c #F5E49C",
"^ c #F4E59C",
"/ c #F5E59C",
"( c #F4E59D",
") c #F5E59D",
"_ c #FEFEFE",
"` c #FFFEFE",
"' c #FEFFFE",
"] c #FFFFFE",
"[ c #FEFEFF",
"{ c #FFFEFF",
"} c #FEFFFF",
"| c white",
/* pixels */
"uipissaapauyMMbsdaidaafiupdsfMMMasydaapsdpuyiyiMnaaambaufspynmvi",
"adssayyudyfpfibMvdissxMafifusiynMusuapypyuidfaspnniysnMppapiafyp",
"pdyidiafdsuiipsdnnbbnviuuussdapfdpdpyiisddysyuuidiasyapufdyyipuy",
"711444316577<3<137<245475317151126341625365652631735772172634675",
"ayfadpuisddifsisapfayiyipfddasiaadyyppsydpusyaaduadffdpypsdaaudi",
"sdfzdiyfiuiimbzMcbMMnvcvcbmxdiduasyyfspfddffdpdyydasyypinxnbmzmb",
"zmvbisdyuiuifdidisaduyaaoX nz.OX+aadfypffdfydddfasuiaapyupsydsnb",
"pfsaiddppdfypifdyadidpyO.'.. X][+#...X.pasfififppfaauauiufspinvc",
"siipdasifyiuiiyusaiuufo ]|O|{]]_ O]|_'.afdaiypayiusyyaasuayadpip",
"amMxbMcpsyddsdiyyppsfuX|{} {]||]+[}``@.fuuduaypnbnMbxcvMpsfuaapf",
"fpiyiadpudypypyaupubzc+'[}{]}]_{]{__Oyiudiafpsuppyfpasiufsipauii",
"psiaasafdifaiyuiuuapap .{'`{'}}{{[|.oifiupdsiuisuidfdadpyasdpiiu",
"uaaupydysiaiauyispsaspf+|{]'|_}{{_} #yisissupyydpaiuiufyuyyauypy",
"2252<23<4<34246<746<7545#'__}]`__`}X#;*>,&-555<1<156332<4<653275",
"sipsaiyudyaaudyiafdpifda@|''}]|'}++X;=;-*=12syssdapfppufssfpdfyu",
"vnmvMnbzMmvppiufpauiiusf++O#OXOO .X62,;=;73sfffyiaffsyfisussunnz",
"fupaiuispymbniiudiyidiu+QRO WYT+oRY.765477yauuasppdaxMMmbzxxcbaa",
"aufiufpysuuppcxvusuufiu@IUlYI EkIIEoip5syssusidsaMzmnfiuaaauysus",
"cxnxmvnmydapfydvzmpfysa EUR.X.  QYY@ydyiiaauffpyzzauuafxbxzzzbxc",
"yssyuidvbnzfufuuiMnczifoRoYO|]|XR+W#fsaspisydauapdysxnzvspudddas",
"sssfdpufdpmvMuuffdsypip EOW jhj R.U+sadafdyuyypapixzbisfypfsuisf",
"mnbMnpfdddyynvypa  X@.#roTOTPLKY+Y.XbmiidysppifpyuysuyyiyyiMMxzM",
"iuidaidppppsaup#o[{}` Xhg OWRQIIEXr+.#++oyuysddipfdfsupfppduadys",
"14<5434151<774#o|}[|{`[.89@oX .o qwroO{]O.X@X75675731<7454<433<6",
"ddafysfyyasu#.@[``|{|}[|@o88t8909#.oX]||[[`]]+XXfysuiysppuyyfifp",
"vnMcxxndyiuX|{[[{`[]'}]`]#er.O@O  '_[{[|[`]``}[]@ puayyfayffddvv",
"afpsufayui.}][{'|_][|`}`|.X#O_|_']'[`___{||`_|||'@ syussaddnnbMy",
"uyfadydz#.#}}|`_{]`{]'][X{|{|]]'|'|__{{{`_]'  .{}]X.npdpifnsudfp",
"piapynnOXo{[|__|']]`|[]|O{[}]{]}_'|[]{`_]'}  /. O .   yinnidpysa",
"afadvcoX|X }```''`}||}'}#}''{]}]]{']``}[}|]  ///  //+ sbxysifpss",
"ffunm oX+@+]|]_]'}|{_|_'.}{}'`]]{[[_''{]]|''[ /////^/  siyufydsf",
"sfpMpORW#[' ]|{'{O`'}[}[o}'`_[{[{[_[`[`'`}'`]| O//////Odaiiuipsf",
"afip.RYYT@`o+X O@+${'`{}.]|@o``]|]_}`}['_}[{{[.  ///^/ uyusyiipf",
"2<22OEWTO+ .@X:%27o[]]'} }_ .[_}[_[[`{}_'||'{' # /////O763233151",
"pdyf@WYE X.514667fo}_{}{O_'_`{'[[``]'[|'{}{o+.O  /~~//@adaapfiuu",
"dpab WY.daiidyfpay# {'}}O|[}{|'`_[]_][{'|{|#ZCXp ^///~ pyaisuaaa",
"yyb.RO#oupdpfuauyi oX[|`.O]{`{`]||`{]}'|]]OBCA+s //~// dfMyiuups",
"f+vXE#yffypififfss.SO+'_'O|_X#['}}[]'`|_}@.NDCOnO///// ufxMaydpp",
"bO T dsydsaudspppdoAS.X[[#[}X@`{{]}[}`'.+XSVSZ#d ////) sssniydzv",
" ERWQOyffddaayayfd.ZND+ +oX}[]}|`'']']#@ASZNDN+  /////Xduasmxnvp",
"oUUWU@@asyyydpinzx+oASDAA @.||}}'['|[o@NAVCSN+# ~/^/// daiaiyfud",
"+oEUUoxvMxbvccnmiyO BNCCVDD@ .ooXXoo+@NVNDNDD #.^//^/  sfsidapis",
"f#I#osaifypsafpauyyO+BVCSCCVZBABDCCVACSBZNDCA#u /^/// fausuapdsi",
"42o +57<77754511637+ SCSSBVDNNCVASZSBCDVCDBDBOX //^// 1371374<5<",
"sfiauddddaudydysdsaaO+NAAVCSNNoDZ#VSCCNCAVDDS   /()// iaasaduasa",
"dpfdysyypiadifiyaipyyXVCSSBZABD#++SSZSDVCNANXof.)/H// sdfusyspad",
"35diyuxvnbsdaufsufynns.DBSBDDDDS DNZSDZSNVDS.d X//HF^ adapyafy47",
"afyydcxpdMzsudspddfypxvOZCSDAVZD#SVBCBASBAA# O.//~GH/ fifixMviuf",
"iufnndayiynnspffadsaadp+XBCBSSVDOCCVAZ       /////HH/ yyyadixxni",
"uupfayasuddxbusffaypfsis NSDBBCNXNCSDN  ^///~///!//// fyuaysayus",
"paipsppfypyspfusaiausuffa#SAASSD.CVCCDD.X////^~////// sysfdapauf",
"fypysaudpayyapafdspassipd..DBNCS DSCCDCZ  ///(HG/H// isfyiipuydu",
"26744224<<6777513723<7443<o@VAVDNXZCSCZO#.  ///JHH// 31<15312313",
"sfuyisasydppdiapfpsduisddiu#BVCDC+CVCD @iaa  //HHH// 6pdpifiuypp",
"dauiiMmMzfsiafyssfaaaiypadusOVNCVXCB .    O (/~//)/ yifidmMcMuuf",
"ssixMsysibMiuaiiisuiffadyyfadXDVS@C  #.//~))/)^///X fassMMddMzii",
"sMnsafadsavdudfMMmmMpasaupdic.XZC#C  X///)//)..X   aysdyxcfuynfp",
"didyidinsvcddubfpiyMfyaudMMbdu@#D#C   .        pamfssiyypMMfumiu",
"fiiuuafcbmufiyfdapimMbzmnmppdap.OXX+ndfpansfdyfiaysfadsuiyyudfpy",
"uyssysduufdffiipaiasdacMuud@o.#+ oOX+XmMnudyfysypfsfs717157asfya",
"723363233754<627451<6652473.  Oo@ #@@X364732<36645<<6646735<2362",
"ipafappsfsdfdipauyyayydfuipX@+##pO X# uusufyssauasvsdyyuussdufpd",
"siuffapMvMMipyyipdiadysiaMMO@O..f@ X.#updacnMMMmdsiMMfyyfiMMdsay",
"ysiyuapfiuuzMiasfudiayyfaisyaMMauasypyappyudisuMuyaMmdassduMMiiu"
};
