/* XPM */
static char *result[] = {
/* columns rows colors chars-per-pixel */
"64 64 70 1 ",
"  c black",
". c #010000",
"X c #000100",
"o c #010100",
"O c #000001",
"+ c #010001",
"@ c #000101",
"# c #010101",
"$ c #3C240E",
"% c #3D240E",
"& c #3C250E",
"* c #3D250E",
"= c #3C240F",
"- c #3D240F",
"; c #3D250F",
": c #6C421E",
"> c #6D421E",
", c #6C431E",
"< c #6D431E",
"1 c #6C421F",
"2 c #6D421F",
"3 c #6C431F",
"4 c #6D431F",
"5 c #A46630",
"6 c #A56630",
"7 c #A46730",
"8 c #A56730",
"9 c #A46631",
"0 c #A56631",
"q c #A46731",
"w c #A56731",
"e c #F44236",
"r c #F44336",
"t c #F54336",
"y c #F44237",
"u c #22B04C",
"i c #FEA04C",
"p c #FFA04C",
"a c #FEA14C",
"s c #FFA14C",
"d c #FEA04D",
"f c #FFA04D",
"g c #FEA14D",
"h c #FFA14D",
"j c #3E51B4",
"k c #3F51B5",
"l c #4C6CF2",
"z c #4D6CF2",
"x c #4C6DF2",
"c c #4D6DF2",
"v c #4D6CF3",
"b c #4C6DF3",
"n c #4D6DF3",
"m c #ECBEA8",
"M c #EDBEA8",
"N c #ECBFA8",
"B c #ECBEA9",
"V c #EDBEA9",
"C c #ECBFA9",
"Z c #EDBFA9",
"A c #FEA2B0",
"S c #FFA3B1",
"D c #FEFEFE",
"F c #FFFEFE",
"G c #FEFFFE",
"H c #FFFFFE",
"J c #FEFEFF",
"K c #FFFEFF",
"L c #FEFFFF",
"P c white",
/* pixels */
"6787000wq985hfd9q07q59w797q0whff59590980qq65q57hg959gd96w985ffs8",
"7q069558q5w877dfpq700ph9w706075dp8069658588qw9w8fd759hs8w9679w56",
"8855q79wq967q76qffgpfs786600q088q7q5577wq9565857q78q59868q557869",
"4>>111>>322,:4:><4:,12@.++o4<2>>,3,:>1,2>32<2<3<><<244,44<3<14<2",
"95q9q8080qq7w97X+O#oo7.PHPoq90799q557805q8605q9q69qwwq8580w906q5",
"0qwiq75w8677gdpOJHKKo++PKPL..5909095q089qwqwq8q55q9056w7fpfigigs",
"pgss76q5686qqw8OOPHPLPX@PFPLOdgd9q9qq9wwwqq5qqqw9087w98598w5q0fd",
"8w057wq78qw98wXO# X PKH  PKPO 5q88w9w09790870qw88w9969878w086dsa",
"0787q007q57677+PLPP  JFH PPPL.q705085550qq07989576q5009w6969q878",
"0ghpdsi8558qwqXLHFJF KPP PPPP 5w0875q00w66w6956fdphdpash70w60589",
"w8797q78695878O .+PPPXPFGPFKP 6q869q7576w790706ww58w607506889657",
"8079009w7qq98565 PHLLPGHLPPHP@975888q7q76wq0768067qwq9qw596q8770",
"609685q507w75657oOPLKGPFPDHPPX9w095q09707008855q859666q565596586",
"<,2,1,<:12<1:13:4.OKPKKHFLPP.X>2<<=%$-%&&%*224:>:>4,<<,:1:3><<42",
"w7805796w5996q659w KPLHKK X #+w60>:>=&=*$*><w500q98w886800w7qq65",
"sfgshpdphgp8876ww oO.+ . OM XOqq856:,;=&=4<68ww5890w05w568w05ffa",
"w6w9767085hif7q6q+O O  .BBBmuOww99774321<<5586q0w7q9fhhgdiipag99",
"96w75q8507688asp6@ O   mBBZmB  7w6507w10800607q00higfw7695965050",
"sffpgpfg5wqww5qssO X. V BZBmBN  98055q577qq6w785ii967q0phpididpa",
"506967qpdfiq8w667h +@.B@BXX@X XX00q9q0908705q905ww50pfgs076qqw50",
"w00wq868q8gsh66ww  OOCB.oCVSA.i695ww09q96006558987pid70w5800678w",
"dfdhf0wqqq55fs589Xe.  VVBNmNM.spadfssg98q9088q06569w0977567hgpih",
"767q97q8w88q908O.#rrrOX Oo +O  X O578w0077650qw78qqw966w67089q50",
">1>21,>>2>:423..JLO#rtrrerreryre@.o>2>2<>2>3>4>2424>4:4:11:2><>3",
"qq9650w559066#+OPPPDOo. Xrrrr+o+.oX.w886w9706870w76655968676q58q",
"hfhaspf768907+XKKPFKHPPJ@Xo #+K PL  ifhhq70096w66q86q55w96ww7qis",
"5q8w7w5967598 PKPPHXJKPPKKPFLKHXPPPo59q5066w8978877056009qqfhdh7",
"65w9q7qiihahf#HPGPXKPKPLPLPPLPPoPPKJ 6qqq75w659w859hf8q87wp96qw8",
"75586fp50qww #PPP.HPPPLHFPPH+PG.KPPP#hid55w9966w87di8q58ff777509",
"9w0qsa6655q9XPPK#XFLPPKKPHKPOKH o HF 75wphdwwq55gp95770gp565w800",
"w06dg60ww0q8OJP.+PLKPPPPFFKH#PP@  KL 6q97w6q09hahq8757h07666556w",
"6w8s8565wq6w@PL@LPLPPFLFPPJOHPH PPKP#ggphshfhf79w508qw8q96q6780w",
"9878995w<41:oLOLLHLHHHPDPDF#PPKoPHLFO689688059q7w6557076085557ww",
",,,<133>2;;;XO@PPHPKPLKLLL.oKK.+PPHH#>:2<<3:><3,222:4:243<,><>1>",
"8w5058qw4412X.#PPPHHJLPPPP+PPP@PHKPPOXq907q7wq070w059769q906w560",
"989d6798q97X JP@+JLHLHPJF@LFLL@JHPLP.o X75665q7775558q785q796999",
"57dsq0670O#oHPHP++PPKLH.O.PPHL@L .JPOPPOOpfpdph05887807qwh576060",
"8po@OX5XOOooPPPPLXPPKPo+PJKPPX.L oPOoP+  79558hfhgw66ww6wph59w88",
"df BVO0O BBB@@KLK+HPO LKPPFPP#GPPPP.5O+PP of8w6qqhaf867000p757is",
"98.mB# @VBBBo.KPO+# @HPPPLHHKXPLPPLoX#DPO XOgip9989dpq0w6qwgifh7",
"86o.MmBV.O@ @Xoo+@FPHPKHLPPP. PLFPO . P@#BNX+O# 98q8w65qq7989w6q",
"0f. Cmo opasiaO#HHPKJPKLLPPPXFLPPD@q6o# @CBB.OB..8587870q0775w70",
"888O#..5w5669w.XLHKKPPGPPPLP+KHL .+q8808 #XmNBVVow789qq96w797q07",
"1,1,<2,:4<4232>+. #KPPKPPPPP+@##cc.,4>1,<,< +BCB :<334>44>>4::2:",
"0w7q6qq7q96q5q5w.kj@#. # #OXxzcxzzc#q90ww995.o X#w9q6879909w8990",
"76805055879q7wq+#X ccccccxccccnczcc.7q6097885OX568q0089qwq05079q",
"<2ww95psfd0q008Oncc Xcncclbnczcxcvcoohfsa8567q5q0907585q5w59w514",
"9w55qsf87fiw6w.#xccc    cczcccccccccX570dpgd85777ha506w7q8phs85w",
"76OOfqq076ff0+Xcccccxc  Ooccxxzccczc.w79768ppidq65dpg96599w7fff7",
"#X.@+7q06qqso@ccccccz#Oq99ooczcczccc 97q976q80ff5w57fw8569509660",
"o+ . o@O##O nccnxccc@ www06o+cccccccX000955798w70707wq0090q5855w",
"O @+Xccczcccnxcxcnxc+070q995occczcbcOw7q985958q9qwq95707597866q6",
"XO. #.nccncczccnccc :41:<:1>@Xccccc+1:4>4,:4:>2114:2:<>:>1<:,<<>",
".O X7o.ccccxcxcxcv+75w6wq7691.nznc @5w55899w5097772:248q8q878986",
"qX 76h XOcczczcb@.X907q8qq609.nccc+76q58qw0909w6700w97w77hhag66w",
"667ih058O  o@X #o06qw09q67w97Xzcn+.ssh57q986phhps0q7wq00fhwqhi57",
"whgw909q05sq67whhhhh790968q7a.cz+@806i0569hhw09was6950q5isw55fw0",
"q7q7587d8saw96dw8q6hw796qhhaq cX.8wq98w6wgsw88889dw06q577hhq5dq6",
"0776688adg6w79wq987hhfsgfi88q.O.6wghf7w65f08q587990w9q9675567ww5",
"670q50786wqw07889790qqag56w5@o +X890qhhhf5q5q8q5w80w03>4>2400w90",
"4:<<3<,>4421:3:43>>:342<14<2+o X X,124>334,<:<3112::34132,2:<<,,",
"78789800w0qw858q655955qw876qOXO oO09576868w6q59690h0q75860ww6w8q",
"076w898hafh785658q75q6979hgpgd+X@5q80q07q9afhhhg997hsw65w7hhq995",
"70q5098wq55ah77986q8966w97059hh90905859w8667796h65qhg8000q8hh5q6"
};
