/* XPM */
static char *result[] = {
/* columns rows colors chars-per-pixel */
"64 64 60 1 ",
"  c black",
". c #010000",
"X c #000100",
"o c #010100",
"O c #000001",
"+ c #010001",
"@ c #000101",
"# c #010101",
"$ c #3C240E",
"% c #3D240E",
"& c #3C250E",
"* c #3D250E",
"= c #3C240F",
"- c #3D240F",
"; c #3C250F",
": c #3D250F",
"> c #6C421E",
", c #6D421E",
"< c #6C431E",
"1 c #6D431E",
"2 c #6C421F",
"3 c #6D421F",
"4 c #6C431F",
"5 c #6D431F",
"6 c #A46630",
"7 c #A56630",
"8 c #A46730",
"9 c #A56730",
"0 c #A46631",
"q c #A56631",
"w c #A46731",
"e c #A56731",
"r c #F44236",
"t c #F44336",
"y c #F44337",
"u c #FEA04C",
"i c #FFA04C",
"p c #FEA14C",
"a c #FFA14C",
"s c #FEA04D",
"d c #FFA04D",
"f c #FEA14D",
"g c #FFA14D",
"h c #4C6CF2",
"j c #4D6CF2",
"k c #4C6DF2",
"l c #4D6DF2",
"z c #4C6CF3",
"x c #4C6DF3",
"c c #4D6DF3",
"v c #ECBFA8",
"b c #EDBFA8",
"n c #EDBFA9",
"m c #FFFEFE",
"M c #FEFFFE",
"N c #FFFFFE",
"B c #FEFEFF",
"V c #FFFEFF",
"C c #FEFFFF",
"Z c white",
/* pixels */
"7898qqqew096gds0wq8w60e808wqegdd6060q09qww76w68gf060fs07e096dda9",
"8wq70669w6e988sdiw8qqig0e8q7q86si9q70769699we0e9ds860ga9e0780e67",
"9966w80ew078w87wddfida8977qqwq99w8w6688ew0676968w89w60979w668970",
"5,,222,,433<>5>,15><232531,513,,<4<>,2<3,4313141,11355<551412513",
"06w0w9q9qww8e08qq99688689qew0q800w6689q6w97q6w0w70weew969qe0q7w6",
"qweuw86e9788fsigpsggdapguugdw60q0q06wq90wewew9w66w .X#e8didufufa",
"ifaa87w6797wwe9w8qew76069e9dusfs0w0ww0eeeww6wwwe0 .bn. 609e6wqds",
"9eq68ew89we09eew6088q888q99e6O w    eq080q98qwe99 bnbb+89eq97sap",
"q898wqq8w6878867e0877e8  O7  Z   ZVZO66qwwq809068.X@bb e7070w989",
"qfgisau9669wew86899qeO ZZ O.ZZZXZNVZ qqe77e7067dsi+ X.@g8qe7q690",
"e9808w8970698968097fs@ZZZZ ZZZZ ZCZ. 687e80q8q7ee69  O86q7990768",
"9q80qq0e8ww0967677w9q CZZNZVZZZ ZZZOw8w87ewq879q78we#Xwe607w988q",
"7q0796w6q8e86768q9qwq ZZZmZZZZZZZZZOq08q8qq9966w9607 . 676607697",
"1<3<2<1>2312>24>524>3  @ZZZNZZNZZZ.O$-%&&%*335>,>,5<Ob+o2>4,1153",
"e89q6807e6007w760ew98q0 VVZZZZCZZV@.=&=*$*,1e6qqw09e bbXqqe8ww76",
"adfagisigfi9987ee07897qXOo ...OMZZ+@<:=&=5179ee690qo@bb o9eq6ddp",
"e7e0878q96gud8w7w668w97X.XOo.O +oOX#5432116697wqe8w #XOoXuuipf00",
"07e86w96q8799pai7q77987.OO.#  O+o@ #8e2q9qq7q8wqqguXCZZZo6076q6q",
"addifidf6ewee6waap7q6e0@.+ o X O X+ 6w688ww7e896uuXOOX +giususip",
"6q7078wisduw9e778gdpuw   tX  @ +t O.wq0q98q6w0q6e+ ZNZZ q87wwe6q",
"eqqew979w9fag77eewq6wX.XottyttttrO@@O0w07qq76690+XZZZZZ 69qq789e",
"sdsgdqewww66da690qOOO#ZZ.ttrtttXX@VZO. + 0q99wq  CZZNZ  678gfiug",
"878w08w9e99w0q OX+ZZZZZZO ttt..OZZNCZCoZOXX6q  OZVZZZZ e78q90w6q",
",2,32<,,3,>5O.oZZmZZZVZZZXOOoZZZNZZmZZZVZZ OXZZZCZCZZo5>22>3,1,4",
"ww076qe660qOOVZZZNCZZZZZZZZZNCCZZZZZZNZZZZZZZZZmZZZNX+079787w69w",
"gdgpaid87O.ZZZZZZZZZNmNCZZZ ZZVZZZZZZZZZZZVZZZVVZZZV 66e07ee8wua",
"6w9e8e60@OZZNZZZNZZZNZZZZZZ .ZmX ZZZZZNZZVZZZZCZZZZ+67qq0wwdgsg8",
"76e0w8wu  ZZZNZZNZZCZVZCZZZZ OZoNZZZZZZZNZZZZZZZZ  gd9w98ei07we9",
"86697di6..OZZNZZZZZZNZZNZZZZZZZZZZZZZCVZZZZVZZZo#+su9w69dd8886q0",
"0eqwap77 Z+ZZZZZZZZZZZVZNZZZZZ.ZZZZZZZZVZNZZN#..fi0688qfi676e9qq",
"eq7sf7qe Z  ZZCVCZZZZZZZZZZZZOOmVZZCZVZZZVZZZogpgw9868gq8777667e",
"7e9a9676+ONOO@ O. OCZZCNmZZZZ@OZZZBVZZZZBZZZVO80e6q9we9w07w789qe",
"0989006e .ZNXX2429XZZNZZZZNZZB ZZZZZZZZNZZNZZ w8e7668q87q96668ee",
"<<<1244,ob O#&-;<,@ZZCZZZZCVZZZZZZZZZZZZNZZZZ.4<333>5>3541<,1,2,",
"9e6q69we#b X,>445e#ZNCZVVZZZZZZVZZZZZCZZZZZC wq8qeq60870w0q7e67q",
"090s7809obO8w7q9e7XXZZZZZZZZZZZNZNZZZZZZZZZ. w8886669w896w807000",
"68sawq78 v+ee6696wwX. ZZZNZZZCZZZZZZZZZZZXXisigq69989q8weg687q7q",
"9ig9qe60.b+8e8qeqq@ kx.#OXZZZZZX  XO.oo@XhXX69gdgfe77ee7eig60e99",
"sdwwewqXXoX78q89e0 kkhlkhk@O#  kkxkkkkkkkzk 9e7wwgpd978qqqi868ua",
"09867e0.bbo0q666q  kkkkkkkkkkkxlxkhjkkkkkkkk ui0090siwqe7wefudg8",
"9768767Xbb.ow66iu kkkhklxklkkkkxlkkjklkkkhkkO g709w9e76ww8090e7w",
"qdugidiobbb.upds8O.klcxhkkkklkkhxckkkkkkkkkkkOO8w969898qwq886e8q",
"999997qXOo  0e9q70 klkckzkkkhklOkkkllkkhkkhkkk w6e890ww07e808wq8",
"2<2<13<>515343,,41 khkkkkkkkkhzXkkxkkkkkxkkkxk ,5>1445,55,,5>>3>",
"qe8w7ww8w07w6w6e07XlklkkkkkkkkO  kkkkkkzkkkkkkO06e0w79800q0e900q",
"879q6q66980w8ew0088Xkklckxkkk. 0O+kkkkxhklkkkk 679wqq90wewq6q80w",
"13ee06iadsqwqq977q8 Xkkkkkkx X89e @@Okkkklk khh q0q8696w6e60e625",
"0e66wad98due7eq9wwq0.kkkkhkk.i8igg. o@  kkloxkxO8gp6q7e8w9iga96e",
"87qddwwq87ddq9ee0eq0 XkkX@Ok da9w88q6e8XXh kkkk 76sif07600e8ddd8",
"7qe968wq7wwas7qee009e kkhkkhO889qqee008 o+ kxzk.6e68de96706q077q",
"e089q96w6960ee0e78w7q kklkkkXX78e6q9eqq khkxlk .q8q8ewqq0qw6966e",
"e6e6qw6w9068070ewq7w0O+kkX kk 7907qwwe klkkkk o0wew068q8608977w7",
"<2522>12><55555,15<<>5X kkkkko2>413 2 kkhxk  ,3225>3>1,>,21><11,",
"qe66860q0w99w86979q86e7 lklkx 3>3o  okkllk  6q08883>359w9w989097",
"w0687ggdse0w0e0qwe00q8w Okkxk.789O oXlhoO.q0q0e78qqe08e88ggpf77e",
"778ugq698sgw778w8q7weq0wOkkkk.7ds XX   Xw097iggiaqw8ewqqdgewgu68",
"egfe0q0wq6aw78eggggg80q0. lkk@ddw@   uq670ggeq0epa706qw6uae66deq",
"w8w8698s9ape07se9w7ge807w kkk 0e9XX 09e7efae99990seq7w688ggw6sw7",
"q887799psf7e80ew098ggdafd  .OO967e@Xd8e76dq9w69800qe0w0786678ee6",
"78qw6q897eweq899080qwwpf6     6wq90qwgggd6w6w9w6e9qeq4,5,35qqe0q",
"5>1141<,5532>4>54,,>4531O X  .444<<235,445<1>14223>>45243<3>11<<",
"898909qqeqwe969w766066we #   X0w9qq0687979e7w6070qgqw8697qee7e9w",
"q87e909gpdg896769w86w7080X   s70e6w9qwq8w0pdgggf008gae76e8ggw006",
"8qw6q09ew66pg88097w9077e08q60gg0q0q6960e9778807g76wgf9qqqw9gg6w7"
};
