/* XPM */
static char *result[] = {
/* columns rows colors chars-per-pixel */
"64 64 75 1 ",
"  c black",
". c #010000",
"X c #000100",
"o c #010100",
"O c #000001",
"+ c #010001",
"@ c #000101",
"# c #010101",
"$ c #3C240E",
"% c #3D240E",
"& c #3C250E",
"* c #3D250E",
"= c #3C240F",
"- c #3D240F",
"; c #3C250F",
": c #3D250F",
"> c #6C421E",
", c #6D421E",
"< c #6C431E",
"1 c #6D431E",
"2 c #6C421F",
"3 c #6D421F",
"4 c #6C431F",
"5 c #6D431F",
"6 c #A46630",
"7 c #A56630",
"8 c #A46730",
"9 c #A56730",
"0 c #A46631",
"q c #A56631",
"w c #A46731",
"e c #A56731",
"r c #F44236",
"t c #F54236",
"y c #F44336",
"u c #F44237",
"i c #F44337",
"p c #F54337",
"a c #23B14D",
"s c #FEA04C",
"d c #FFA04C",
"f c #FEA14C",
"g c #FFA14C",
"h c #FEA04D",
"j c #FFA04D",
"k c #FEA14D",
"l c #FFA14D",
"z c #4C6CF2",
"x c #4D6CF2",
"c c #4C6DF2",
"v c #4D6DF2",
"b c #4C6CF3",
"n c #4D6CF3",
"m c #4C6DF3",
"M c #4D6DF3",
"N c #ECBEA8",
"B c #EDBEA8",
"V c #ECBFA8",
"C c #EDBFA8",
"Z c #ECBEA9",
"A c #EDBEA9",
"S c #ECBFA9",
"D c #EDBFA9",
"F c #FECDD2",
"G c #FFCDD2",
"H c #FECDD3",
"J c #FFCDD3",
"K c #FEFEFE",
"L c #FFFEFE",
"P c #FEFFFE",
"I c #FFFFFE",
"U c #FEFEFF",
"Y c #FFFEFF",
"T c #FEFFFF",
"R c white",
/* pixels */
"7898qq0q9096lgh0we8w6we868wqeljl0q60q09q0896w66lh06wfh07e096jjg9",
"0wqqw677w6e7e8hjdw8qqdl0e9q7qw6hj9q70778678we0e9jh880jg9e0780e69",
"9866w8we8078w8qejjhdjg8977qqw099w8w6688e0w8q6978w8ww60979w688976",
"5,,222,,433525>,15>>222531,5,3,><4<>,2<3,4353141,11355<55<412452",
"06w089q9qww8e68qe99088689q9OX.800w6689q6w97q6w0070weew969qe0q7w6",
"qwesw86e9788khdlfhlldgfgf@ oU @q0.#6eq90wewew9w66w0q6779jdjskskl",
"dkgj87w6797e8e9w87ww#XO 9XTKIP#OooU oqewewe6wwwe0q98e09669e6wqjk",
"9eq08e889wq089ew608#+IKL#@RTURYXRPKL@ 080q98q8e89e0070989eq96hff",
"q698wqq8068798   .8.LUTRO YIUUUOURPPL@6qwwq8090687e6qq0e7070w899",
"0kldhgs9769wew SD 9+LKPPPOKTYRRPURKTX#ee77e7069jhdlhdfgl8qe7q690",
"e9868ew970698.VSS@7X +YLYRIKITTPYUTo@687w8qq8q7996ee7q86eq890768",
"9q80qq0e80w09 VV O 90O#LILULO @O Y#Xw8w87wwq878q78wew6we607w9889",
"70069606q8q867..@Oqwq9O# LX+@BBD+O+0008q8qq9960wq66777w676607699",
"1<5<2<1>2,13>XXV.24>333.O.N oAC@OV+o#-%;&%*335>,>>3<11<>2>4,1<52",
"e89q6807e6007oVV#ew98q..#VNaDBCaDDZO.&=*$*,1q0qqw09e9979qqe8ww76",
"gjkgldhdlkd9O .#O07887XONNVBDXBDAND.o:=&=517eee670qeq6e877eq6jjf",
"e7e0876q96lh RRYRX68w8oXNVoC +XA.CS+O43>1166978q98w0dllkhssdfk00",
"07e86w96q879oRTUY@7798X# C..XH+# VNO8e2q8qq7q8wq0lskje8706066q6q",
"fsjdkgdk6ewee   O+@e6q#@X#DCJFGSCVB@6w688w07e896ss0790qdldshskdf",
"0q7078wghjsw7oLPRR#fs8e06ooBNCDZSBCA#.0q98q6w0q6ee6qdjkgq87www6q",
"eqqew769w9kglOITRRY@ww90O# @#XOOVSA+.Y@oX O#@#9098dsh8qe697q789q",
"hhhljqewwe66jORTTRRO#+ .Y@tiyrt+o. X II#ORTYRT+ X70e7088678lldsl",
"878w08w9e99e0OOLRIIYIYYTTO+tyyuipur.URKLRXIITIRIO@we079e78q90w6q",
",2,32<,,3,>534OTLURYTTYI+@+o.o+oO# +RTLPLXRIYRUTRO.15>5222>3,1,4",
"0w676qw660q77wX RUTTTYKL+IPIKYRTUIURPTRTU@OPRRYRURo.66079787w6ee",
"ljlfddj8080q89w oRYPRYIL+LPRTYPLRITTKKIIP8  RPRUIRP.w66e07ee8whg",
"6w9e8e0078609799 @PRKKIK.PTooPIKIPITYYKTLIIXURPPYTTR.7qq0wwjlhl8",
"76e0w8wsslflhkhdfXXRTYTK ITo#PIITTITTIRPRLRX RLRUTURXOw98ej07we7",
"ew696jd6qweeeww0e8+YTPTLoPYKPUYYLKYTYRYTIKRY.ITLRRLo o68jjw886q0",
"0eqwgf9706wqq869woUYKRTP IRLIIPRRTRYLPIRIKTR + RIY oR.qkd676e9qq",
"eq7jk7qeeqw9w9679.YPTPPT IRRLPIRUKIKPUPPRPIYT.XX+OoRI @q8777667e",
"7e9g9676ew7qw7967.LLIIRP YR#oITYULUTLIPITYLTR 86O I .X.O00w789qe",
"0989006e15,2,,242 UKPRLUX.I  TRKLLIIUKYYRLRIT w8e  .CVCoq70668ee",
"<><5244,3:::-&-;<OLYRPLUT+LIPIUTYRKRUIUUKYYIL#2>333 XVDO41<11,5,",
"8w7q69we5523,>445..PRRUUKoKLTLUIKRRUUYRRTUUTR#q87e76  Sow0q7e67q",
"090h0909w088w7q9w.X@LLKTRL#KURTTKRYUIRRRRYPoXow88666eOS#608q70w0",
"66hlwq7809w9e8096wXboOLPUKU PKPURLIKITTLROX+XXlq69989 NXel687q7q",
"edl9qe60q68898qeqqOvxvo+@ YOoPLKPYUKIP X.+xcO9ljgke77XC#edl60e99",
"khwwewq6we078q899#.cMxnmc. @+# oOO#OO+znnxvz.#7w0lfj  @Xqqd868sg",
"06867e0eeew0q666e#.bvvMcbcvnbx.MvncmmMvnbczbvOO0090hoDZ 7wefsjl9",
"97687676q690w66ds@xxmvbMMMmcxnXMcbnmvbxvcmbvMm+o09w9 SS w8090e7w",
"ejsldjdgldkgsfjh8OnmMnMnncnvbnX+nnMzzMnMxvzmMmb.0969O  Xwq886e8q",
"8ee997q6e6770e9q#.MvzxMmMxbvvcbv.XMMbMczmMmnMcnv#e89www07e908wq8",
"2<2<134>515323,, xmvxbvvzcvmbmvMm@O nMbxbMnxxMzzX21445,55,,52>3>",
"7e807ww8w07w686eXnMnzxncbMxccbzmbmM cxbMcccxmxzv..0w79800q0e700q",
"89ew6q6698qw8ew0XMcxcmncxccbMxmxmMxcvxmvzmmxccbxvOwqq90wewq6q80w",
"13ee06dgjhqwqqeeomcnvMbncbMcx    @@X@+  ocvcvmxxz#q8690e0e6qe625",
"0e66wfj88jse7eq9w nMzmvmbcMvzxOdlljjl68qO@xnzbvzb f6q7w8w9dld96q",
"86qjjqwq87jjq9ee0#zcvnxcvzczbxX9w86q6e808.mnmmbvvohdh06600e8jdjw",
"7q9968wq7wwgh7qeeoXvMbvnMnnMnx.9qqee0q8wo.bvvbbbv+6wje96706q6677",
"e089q98w0960ee0qw8OmxcccMmbvvc 8e0q9qqqqoxbvnvbXoXq8ewqqqqw6906e",
"e696qw6w8068070ewq@.mMvzzvczb#@9w7qwwew+XMxMxX@owew068q860w977w7",
"12522>12><41455,15<O#zmvmxzcbX2>41332> #xMvoo>3225>3>1,>325,<<1,",
"qe66860q6w99w869q9qw6ObxnMmcv+3>31666O@cn Oe6e08883>359w9w989097",
"w0787lljhe0wwe6qweq0q8@MxbbMc@7698e8X.O@ eq0q0e78qqe68e88llfk77e",
"778dlq668hlw76889q7wee0+cnxmmX7jkdl+o.#ow097dlkdlqw8e0qqlleelf69",
"qjhe0q0wq6gw78elllll80q0+mczbo#lw99...OX.0lleq0efg706qw6dge66jw7",
"w8w86e8j7gfe07he9w7ke807#Onzcv+e99ew@XO okge99890keq7w688llw6h87",
"w687799fhk7e80eww98lljgkjX.bmM.69eklj oo+je9w69800qe0w6786676ee6",
"78qw6q877eweq889080qw0fk67wXvm.eq90qwlllj686w90799qeq4,5,35qqe6q",
"5>1151<,5532>4>12,,>45312513#XXO4<>435,425<1>14223>>45243<3>111<",
"w96909qqeqwe969w766066we98X#.+X#9q7q697979e7w0070ql7e8697qeq7e8w",
"e87e909gfjl896769880w7080l.OO @oe6w8qwq8w0fjlllk0q8lge76e8llw606",
"8qw0709e866fl8w097w9077ew8.@#o.X70q6960e7778807l76wlkeqq0w7lk6w7"
};
