/* XPM */
static char *result[] = {
/* columns rows colors chars-per-pixel */
"64 64 80 1 ",
"  c black",
". c #010000",
"X c #000100",
"o c #010100",
"O c #000001",
"+ c #010001",
"@ c #000101",
"# c #010101",
"$ c #3C240E",
"% c #3D240E",
"& c #3C250E",
"* c #3D250E",
"= c #3C240F",
"- c #3D240F",
"; c #3C250F",
": c #3D250F",
"> c #202020",
", c #202120",
"< c #212120",
"1 c #212021",
"2 c #263238",
"3 c #273238",
"4 c #263338",
"5 c #273338",
"6 c #263239",
"7 c #273239",
"8 c #263339",
"9 c #273339",
"0 c #6C421E",
"q c #6D421E",
"w c #6C431E",
"e c #6D431E",
"r c #6C421F",
"t c #6D421F",
"y c #6C431F",
"u c #6D431F",
"i c #445A64",
"p c #455A64",
"a c #445B64",
"s c #455B64",
"d c #445A65",
"f c #455A65",
"g c #445B65",
"h c #455B65",
"j c #A46630",
"k c #A56630",
"l c #A46730",
"z c #A56730",
"x c #A46631",
"c c #A56631",
"v c #A46731",
"b c #A56731",
"n c #FFEB3A",
"m c #FFEA3B",
"M c #FEEB3B",
"N c #FFEB3B",
"B c #FEA04C",
"V c #FFA04C",
"C c #FEA14C",
"Z c #FFA14C",
"A c #FEA04D",
"S c #FFA04D",
"D c #FEA14D",
"F c #FFA14D",
"G c #607C8A",
"H c #617C8A",
"J c #607D8A",
"K c #617D8A",
"L c #607C8B",
"P c #617C8B",
"I c #607D8B",
"U c #617D8B",
"Y c gray62",
"T c #9F9E9E",
"R c #9E9F9E",
"E c #9F9F9E",
"W c #9E9E9F",
"Q c #9F9E9F",
"! c #9E9F9F",
"~ c #9F9F9F",
/* pixels */
"klzlkcxclvkjFSAxvclbxxblklvcbFSFxkjxxxkcvlkkvjlFSxjjDSxkzczjSSZl",
"xvckxlkkvjbzclASVvlccZFcblbkcljDFzkkxkjzjklvbxbzSSljcSFzbxklxbjz",
"zljlvzxcvxkzvlcvSSASSZlzkcccvxzzvlvjjlvcvvjxjzzlvlvxjxzkzvjjlzkj",
"uqqrrrqqyttu0eqqeu0wrtrutequetqqwywrqrwtqytutwyeqeetuuwtuwyeryyt",
"xjlxvzclcvvjbxlkxzzxjljlzczvxclxjvjjlzbxvzkcjvxvkxvzbvzjzcvxckvj",
"xvbBxljblkllFABFCAFFSZCCCBFSvjvkxcxjbczxvvvbvzvjjvxcjjblSVSBABDS",
"VDZBlkvjzlkvvbzvlcvvkjxjzbzSBADAjxxvbxzbzvbjvvvbxczlbxzjxzcjvcSA",
"zbkxlbvlzvbxzlbvjxvlcvllczzbjvjvzbbxbcvlxcblclbzbbxxkxzlkbczxSZC",
"clvlvjclbjlkkljkbxlkkblxxzjjzcvjcjczjjjcvvxlxzxjlkbjccxbkxkxvzlz",
"xDFVAFBbcxzvbvlklzlcbkbbvcxlkzjbczlxvcbckkvkxjzSAVFAVCZFlcbkxjzx",
"bzljlvvzjxjzlzjvxzzDAZVvxvbjlbcbzkxvljlkvlxclckzzjbzjcvjbklzxkjl",
"zclxccxbvvvxzjkjkkxzxzzCkkxjlzxljzzzvlblkbvclkzcklvbxxvbjjkvzlzz",
"kcxczjvjclcljkjlxzcxczcvkxjbcccbcxjvxxlclcczkjxvzjjkckvjkjjxkjzc",
"ewuwr0ewtqer0rr0uyy0utrtqqwwyrqtee=%$-%;&%*tte0q00tweew0r0yqewut",
"cjzcxvxkvjjxkvklxbvzlbxxxvzvvvbkcq0q=&=*$*qecjccvxzbzzkbccbzvvkj",
"ZSDZFSAVFDVzklkbzxjljkcbvzkxkkvvbjkrw:=&=uekbbbjlxcbcjblkzbcjSSC",
"bcbxlcjczjDASlvkvljlvlkbzlzjlvbbxvllurt0eejjzklczzvxVFFDABBVCDxx",
"vkbljvzjclkzzCVVkckkzlkljvvklcclbkjclbrclcckclvcxSBDSblkxjxklckc",
"CVSBDZSDjvvzbjvZBFjbjcxlllkzkzzbvlbjjvjllvvkbzzjBBxkzvcVFVBABAVC",
"jckjklvZASBvkbkclFSCBlbxjzcFSklxckvvvcxX.X +++. zvjcVSDZclkvvvjc",
"bccvczkzlzDZFkkbcvcxvlzxvzkxFSBcxkbvccOpfpppsfah.lBBAlcbjzccklzb",
"BFAFSkbvvvjjSZjzxckkzxckczzbvbZVCASZCOdigsfddfhps jbkxzljjlFFVBF",
"lklvxlvzbzzcxczvlxklzxzxjjkxjxckkkjvz.saiappdspfp vbckbbklxzxvjc",
"qrqtreqqte0uuywyty0eeqtttuyruyq00qr0u+@sdpdpsdfaO.ueu0urtr0rte0y",
"vvxkjcbljxckklkxjcxcvjjSbvlvvvvkxcvcv@fOOOoX    dockjjxkzclkblbb",
"FSFCVVSljlxblzvzzkZxjbkSbjlxcBVVFSSVBOpfpdgifhfff zkvjjvxkbblvCV",
"jvzblbxxkljxzkzzkZDkzxbDlbvZZBkxckkbj fsphfphfhdg lcjkccxvvSSAFj",
"kjbxvlvBBFCFADAVCVzzlcCkblSVlbxczbxvb hfpdssdpfsf jFSkvzlbSxkvbz",
"bllzjSSj@ OOXo..#@@+ X+ oX#@#  OX@@o OhfphsfffffpO@XOO+XoSzlljcx",
"xbcvZCkk#~!TETEYTWW~TWYT~Y!!TYWY~ETWT.ihfffffhfff QEQEYY#jcjbzcc",
"bbkSDkcb QWWQYR46743329244E!YY!~YT~!R  pgdafhhdhO.YYWTTY.kkkjjcb",
"cbzFzjkj R!TW22X792 7O485O25TWEQR!ER45O @hfhhffOX69TTWQR@jvklzcb",
"xbzzxxkbOYTT8337 544X344 2746YQTYQY7322O@O#@O+o 5332YYWE kxjjlbb",
"w0wwryyqOWWY~23 3659O6646X22YRYTWYQW832432825662795RT~WE.eweeqtq",
"zbjcjzvb YYQ~RY6472+3O3963WT!<,!><R!QE42834293377~RTQQYW+xckbjkc",
"xzxAclxbXETY~QRYQRWWRTWWTQEYT<<E1<!RYWWTY!TYEYW~!RWRYR!Qoxlckxvx",
"jjAFvckl@Y!YWW!~RWR~WQQW!TWQERWT!YQRWWQQ!!YRTYYQYRWWTEET Fjlkckc",
"bVFzcbjcX X#+#OX + XO. @ #o+@.@XO#O+  .O .+. +XX +  O  ..VFjxbzz",
"ASvvbvcjvbx+GKIILGKJPKIHJUJUGPLIHKHLHUPIPKIPKUHIILIJLIOcccSljlBZ",
"xkljkbxbbvvOIIGILGUJILUHUIIIPHLPIGPGJGLJJULGIKHPPIKJIGobkvcDVSFz",
"kkjljjkxcxjOLGJHLILJLPUUIJJUIPLGLIHGUIUJLIIPUHJHGUIIJL.vjlxzxbkv",
"bSVSVSVZFVD KJ       X .                  O        GUG.bbclljblc",
"zzzzkkxlbjzoIH GKLIHLHILGIJHIILUHLLIJIKIPILKKILULP UPJ+xkbzvzvcl",
"rwrwety0ueuOKL G      .    .                   X U HHJOuuqqur0t0",
"cblxkvvvvxz UJ L NNNMNNNNNNNNNnNNNNNNNNNNNNmNnNN L JHU xxcxvkxcc",
"lzbvjcjjzlxXLG I NNNNNNNnNmMNNNNNNNNmNNNNNNNNNmN U ILUOvbvxjclxv",
"etbzxjVZSAc#KP I NNNNNNNNNNNNNNNNNMNNNNNNNNNNMNn L PKIXvxbjxbjru",
"xbjjvCSzlSB+LJ I       O .  X O       .          L KIL lbzVFZzjb",
"lkcSSvvcljSXIP LULIIHLPLPIJIGLLHJIJUIUIGLGILPIJIUJ PHGXjxxblSVSl",
"jczbjjvckvv+PJ   O  X   X        O                OJJL.jkxjcjjkk",
"bxlzbzlvxzx.PGIIPJIUJJGLPLHHIPILUJGPIIGPIJJKHIIKGJIJKPXcccvjzxjb",
"bjzjcvkvlxjoIJLPIUUHGHIUKIJPHJIUHKLJIIGJUUKJPHHKULLJIL+ljxlzjkvc",
"wrurr0er0wyX. @oX.X+X ..@o.Xo.o#O .X+o#+@o+.O+X@ + @ oo0qreqweeq",
"cbkjlkxcjvbzv@LHILKPI@cvvlkxrrt0tejjjbjjz.JPLPHUIG wtuzvzvblzxzz",
"vxklzFFFAbxvx.IIJLKJG xzvvkcxlkjzlblkvjzv@GUJIIUIIobjlcjvFFCDkkb",
"kkjVFcjklAFvk+ X .O oOxvklbxljkSDSFZFFjlv O#XO#o XOlbxccFFbvFBjl",
"cSSbvcxvcjFvkvbFFFFFzxcxkzvlCDFFbzzckBcjkxFFvcxbCZkxjcvjZZbjjSbz",
"vlvljblScFCbxkAbzlkFbzxkvFFDvkxbzzbvxzbkbDZbzzlzxDbckljjlFFvjDlk",
"bllkkzbCADkblxbvxzlDFSZDSCzzvxzjjbDFSlbkjSbzvjzlxxcbxvxkljjklbcj",
"klbxjclkkbvbbllzxlxcvxCFjkvxzbjbczxclFDFSkvjvkxjzzcbcyquqtuccbxc",
"uweeyeweeutr0y0urtq0yyte0uetyyyyyw0ytuqyruwe0qyryt00uurytet0weww",
"lzjbxzkcbcvbzjzvzjjxljvbzlkvvlxvzcccjzkzkkbjxxxkxcFcvjjzkcbbkbzv",
"clkbzxkFZFFlbjklzllxvkclxFDZDFkxbjvzcvclvxCSFFFDvclFFbkjblFFvxxj",
"lbljkxzblkjCFzvxzkvzxjkbxlckxFFxcxcjzjvbzkkllxkFkjvFDbcccvkFFjlk"
};
