/* XPM */
static char *result[] = {
/* columns rows colors chars-per-pixel */
"64 64 145 2 ",
"   c black",
".  c #010000",
"X  c #000100",
"o  c #010100",
"O  c #000001",
"+  c #010001",
"@  c #000101",
"#  c #010101",
"$  c #3C240E",
"%  c #3D240E",
"&  c #3C250E",
"*  c #3D250E",
"=  c #3C240F",
"-  c #3D240F",
";  c #3C250F",
":  c #3D250F",
">  c #212020",
",  c #202120",
"<  c #212120",
"1  c #202021",
"2  c #202121",
"3  c gray13",
"4  c #263238",
"5  c #273238",
"6  c #263338",
"7  c #273338",
"8  c #263239",
"9  c #273239",
"0  c #263339",
"q  c #273339",
"w  c #6C421E",
"e  c #6D421E",
"r  c #6C431E",
"t  c #6D431E",
"y  c #6C421F",
"u  c #6D421F",
"i  c #6C431F",
"p  c #6D431F",
"a  c #524130",
"s  c #724E2F",
"d  c #77573C",
"f  c #445A64",
"g  c #455A64",
"h  c #445B64",
"j  c #455B64",
"k  c #445A65",
"l  c #455A65",
"z  c #445B65",
"x  c #455B65",
"c  c #50626B",
"v  c gray40",
"b  c #666667",
"n  c gray44",
"m  c #A46630",
"M  c #A56630",
"N  c #A46730",
"B  c #A56730",
"V  c #A46631",
"C  c #A56631",
"Z  c #A46731",
"A  c #A56731",
"S  c #A36D3E",
"D  c #A36D3F",
"F  c #A36E3E",
"G  c #A36E3F",
"H  c #A46D3F",
"J  c #A46E3E",
"K  c #FF5622",
"L  c #FE5722",
"P  c #FF5722",
"I  c #FE5723",
"U  c #FF5723",
"Y  c #F54236",
"T  c #F44336",
"R  c #F54336",
"E  c #F44237",
"W  c #F44337",
"Q  c #A17249",
"!  c #A1734A",
"~  c #A2724A",
"^  c #A2734A",
"/  c #A17853",
"(  c #807971",
")  c #8C7E71",
"_  c #8D7E71",
"`  c #FEEA3A",
"'  c #FFEA3A",
"]  c #FEEB3A",
"[  c #FFEB3A",
"{  c #FEEA3B",
"}  c #FFEA3B",
"|  c #FEEB3B",
" . c #FFEB3B",
".. c #9F8D7C",
"X. c #A08A77",
"o. c #A18A77",
"O. c #A18B77",
"+. c #A08A78",
"@. c #A18A78",
"#. c #A08B78",
"$. c #A18B78",
"%. c #A08C7C",
"&. c #A08E7E",
"*. c #F19F57",
"=. c #F29F56",
"-. c #FEA04C",
";. c #FFA04C",
":. c #FEA14C",
">. c #FFA14C",
",. c #FEA04D",
"<. c #FFA04D",
"1. c #FEA14D",
"2. c #FFA14D",
"3. c #8BC24A",
"4. c #8BC34A",
"5. c #8AC34B",
"6. c #607C8A",
"7. c #617C8A",
"8. c #607D8A",
"9. c #617D8A",
"0. c #607C8B",
"q. c #617C8B",
"w. c #607D8B",
"e. c #617D8B",
"r. c #7E868A",
"t. c #928F8C",
"y. c #9F9790",
"u. c #9F9791",
"i. c #9F9890",
"p. c #9E9A91",
"a. c #9F9893",
"s. c #9D9C9A",
"d. c #9E9C9A",
"f. c gray61",
"g. c gray62",
"h. c #9F9E9E",
"j. c #9E9F9E",
"k. c #9F9F9E",
"l. c #9E9E9F",
"z. c #9F9E9F",
"x. c #9E9F9F",
"c. c #9F9F9F",
"v. c #A09790",
"b. c #C09F81",
"n. c #C19F81",
/* pixels */
"M N B N M C V C N Z M m 2.<.,.V Z C N A V V A N M N Z C A 2.<.2.V M m V V V M C Z N M M Z m N 2.<.V m m 1.<.V M B C B m <.<.>.N ",
"V Z C M V N M M Z m A B C N ,.<.;.Z N C C >.2.C A N A M C N m 1.2.B M M V M m B m M N Z A V A B <.<.N m C <.2.B A V M N V A m B ",
"B N m N Z B V C Z V M B Z N C Z <.<.,.<.<.>.N B M C C C Z V B B Z N Z m m N Z C Z Z m V m B B N Z N Z V m V B M B Z m m N B M m ",
"p e e y y y e e i u u p w t e e t p w r y u y p u t e p t u e e r i r y e y r u d s u p u r i t e t t u p p r u p r i t y i i u ",
"V m N V Z B C N C Z Z m A V N M V B B V m N m N B C B Z V C N V m Z m m N B ^ D Z B M C m Z V Z M V Z B A Z B m B C Z V C M Z m ",
"V Z A -.V N m A N M N N 2.,.-.2.:.,.2.2.<.>.:.:.:.-.2.<.Z m Z M V C V m A ~ / D v.$.Z ^ G J Z m m Z V C m m A N <.;.<.-.,.-.1.<.",
";.1.>.-.N M Z m B N M Z Z A B Z N C Z Z M m V m B A B <.-.,.1.,.m V V Z A V y.#.B Z A S Z Z Z A V C B N A V B m V B C m Z C <.,.",
"B A M V N A Z N B Z A V B N A Z m V Z N C Z N N C B B A m Z m Z B A A V A v.$.N g.g.p...~ %.A B ^ A V V M V B N M A C B V <.>.:.",
"C N Z N Z m C N A m N M M N m M A V N M M A N V V B m m B C Z m C m C B m m m x.j.g.g.d.@.B D m N M A m C C V A M V M V Z B N B ",
"V 1.2.;.,.2.-.A C V B Z A Z N M N B N C A M A A Z C V N M B m A C B N V Z C l.l.k.g.h.j.+.g.J b.n.=.2.*.;.:.>.2.N C A M V m B V ",
"A B N m N Z Z B m V m B N B m Z V B B 1.,.>.;.Z V Z A m N A C A B M V Z N Q F j.j.h.l.C j.l.l.B O.m A B m C Z m A M N B V M m N ",
"B C N V C C V A Z Z Z V B m M m M M V B V B B :.M M V m N B V N m B B B i.O.A N h.h.! h.k.h.g.j.g.N #.A D V Z A m m M Z B N B B ",
"M C V C B m Z m C N C N m M m N V B C V C B C Z M V m A C C C A C V m Z V V u.d.s.&.~ J j.h.l.j.g.j.m o.C M Z m M m m V M m B C ",
"t r p r y w t r u e t y w y y w p i i w p u y u e e r r i y e u t t = % $ - % ; a ( t.f._ h.l.j.l.g.j.) t t r w y w i e t r p u ",
"C m B C V Z V M Z m m V M Z M N V A Z B N A V V V Z B Z Z Z A M C e w e = & = * $ * _ _ +.g.C j.g.g.B A B B M A C C A B Z Z M m ",
">.<.1.>.2.<.,.;.2.1.;.B M N M A B V m N m M C A Z B M V M M Z Z A m M y r : = & = p t M j.g.g.X.h.V H A C m A N M B A C m <.<.:.",
"A C A V N C m C B m 1.,.<.N Z M Z N m N Z N M A B N B m N Z A A V Z N N p y u w t t m l.j.g.g.j.a.B Z V ;.2.2.1.,.-.-.;.:.1.V V ",
"Z M A N m Z B m C N M B B :.;.;.M C M M B N M N m Z Z M N C C N A M m C N A y C N C H M j.g.l.C D <.b.b.<.A N M V m V M N C M C ",
":.;.<.-.1.>.<.1.m Z Z B A m Z >.-.2.m A m C V N N N M B M B B A Z N A m m Z m N N #.Z M A h.B S -.-.V M B Z C ;.2.;.-.,.-.,.;.:.",
"m C M m M N Z >.,.<.-.Z M A M C N 2.<.:.-.N A V m B C 2.<.M N V C M Z Z Z C V     . . b v n + X B Z m C ;.<.1.>.C N M Z Z Z m C ",
"A C C Z C B M B N B 1.>.2.M M A C Z C V Z N B V Z B M V 2.<.-.C V M A Z C C . l l g j g g c j r.v N -.-.,.N C A m B C C M N B A ",
"-.2.,.2.<.M A Z Z Z m m <.>.m B V C M M B V C M C B B A Z A >.;.:.,.<.>.:.+ l T W T T R T 3.T R f   m A M V B N m m N 2.2.;.-.2.",
"N M N Z V N Z B A B B C V C B Z N V M N B V B V m m M V m V C M M M m Z B . E T T 4.T T T 4.T Y W + Z A C M A A M N V B V Z m C ",
"e y e u y t e e u t w p p i r i u i w t t e u u u p i y p i e w w e y w p + # T T Y 5.E T T T R O + p t p w p y u y w y u t w i ",
"Z Z V M m C A N m V C M M N M V m C V C Z m m <.A Z N Z Z Z Z M V C Z C Z # k O + + o o X   X X l o C M m m V M B C N M A N A A ",
"2.<.2.:.;.;.<.N m N V A N B Z B B M >.V m A M <.A m N V C -.;.;.2.<.<.;.-.O g g j h z f j j g l l   B M Z m m Z V M A A N Z :.;.",
"m Z B A N A V V M N m V B M B B M >.1.M B V A 1.N A Z >.>.-.M V C M M A m o f j j j k g j k x l k + N C m M C C V Z Z <.<.,.2.m ",
"M m A V Z N Z -.-.2.:.2.,.1.,.;.:.;.B B N C :.M A N <.;.N A V C B A V Z A   x g g l j z l f l z f   m 2.<.M Z B N A <.V M Z A B ",
"A N N B m <.<.m @ + + O . + + . o # X @ o # o X   . + @ # X O   X # @ O X O x g g x g g l j x g j O + X O O +   o <.B N N m C V ",
"V A C Z >.:.M M @ z.l.h.h.l.g.x.k.z.x.c.j.g.g.g.c.c.l.h.h.j.l.h.h.j.h.g.h.  f x z l k l l j l j z   z.x.g.c.l.g.@ m C m A B C C ",
"A A M <.1.M C A @ z.g.x.z.h.j.4 8 8 5 5 4 5 q 4 6 0 g.j.g.c.c.k.j.h.c.x.j.O . l k k h g f x l g @ . j.g.x.l.h.k.. M M M m m C A ",
"C A B 2.B m M m . j.x.c.l.5 4 X 9 0 4   q + 7 8 6 O 4 5 h.h.k.z.j.x.c.g.8 P O   X x l g l h x O o L 6 z.h.z.x.j.@ m Z M N B C A ",
"V A B B V V M A O g.h.h.6 6 6 9 X 5 8 6 @ 9 7 6 . 0 0 8 8 j.z.k.g.c.g.9 5 6 U O @ + o X O . o O P 5 5 4 c.g.x.j.+ M V m m N A A ",
"r w r r y i i e @ l.l.g.x.9 6   5 q 9 q + 8 8 6 4   4 4 k.g.l.z.g.g.x.h.0 7 5 K U K P U K K I U 9 5 7 j.h.c.c.k.  t r t t e u e ",
"B A m C m B Z A   l.g.g.k.x.h.8 0 9 8 + 4 O 5 q 0 4 j.c.l.< 2 j.1 , j.l.z.k.4 0 7 6 0 4 0 5 5 9 9 z.x.k.z.c.z.g.# V C M A m M C ",
"V B V ,.C N V A   k.g.k.x.g.j.g.h.g.c.z.g.h.c.l.k.z.k.g.z.< 3 c.> < j.j.l.g.z.h.l.j.k.j.k.g.j.c.z.g.l.g.j.l.g.c.. V N C M V Z V ",
"m m ,.2.Z C M N @ j.x.g.l.g.x.l.g.g.j.c.l.z.x.g.j.h.l.h.h.j.l.c.k.l.z.j.l.j.c.h.x.l.z.x.h.k.j.h.l.j.j.x.k.c.k.h.  2.m N M C M C ",
"A ;.2.B C A m C X   X # + # O X   O   o @ . o X   @ X O @ o # X + # O o X + + + O + + o   + o X X +   o O + O . . ;.2.m V A B B ",
",.<.Z Z A Z C m Z A V # 6.8.8.e.w.0.8.6.q.9.w.0.8.e.9.e.6.6.0.w.6.q.7.w.7.7.q.w.6.9.0.7.7.e.7.w.e.0.7.8.0.w.+ C C C <.N m N -.>.",
"V M N m M A V A A Z Z + 8.9.6.w.0.w.8.8.w.q.9.9.e.9.e.q.w.9.0.q.8.6.0.7.8.6.8.6.8.0.0.8.w.8.q.q.q.0.9.8.w.8.+ A M Z C 1.;.<.2.B ",
"M M m N m m M V C V m @ 8.9.6.7.0.8.q.w.w.q.e.8.8.6.7.e.w.0.w.w.9.w.7.6.q.w.q.8.q.w.6.q.9.7.8.e.8.q.0.9.w.0.+ Z m N V B V A M Z ",
"A <.;.<.;.<.;.>.2.;.1.  8.6.    X     X X X .   @ . X   . @     X X     + X       . O     X .   O O   0.7.6.. A A C N N m A N C ",
"B B B B M M V N A m B o e.w.  6.7.q.8.7.0.7.0.0.7.e.6.7.q.w.6.e.q.6.q.w.9.8.e.e.e.0.w.q.w.e.6.7.0.q.O q.e.w.+ V M A B Z B Z C N ",
"y r y r t u i w p t p # e.0.  0.O   O   O O     @ . o o     O X O     X   X       . X X @ @ + #   e.O 6.7.w.  p p e e p y w u w ",
"C A N V M Z Z Z Z V B   q.6.. q.. } } [ |  .{  .| | |  .[  . . . . .{  .{  .[ |  .' }  .' ' |  .  w.  8.6.e.X V V C V Z M V C C ",
"N B A Z m C m m B N V X 0.9.. e.. [  .} ] {  .[ '  .} ]  .{ ' | ` ' [  .}  .]  .[ ] {  . . .} [ + e.  6.0.w.. Z A Z V m C N V Z ",
"t u A B V m ;.>.<.,.C # e.e.  e.. [  . .} {  .[ [ [  .{ [ | ' | ] } | | [ } } ]  .|  .| } { [ '   0.  q.w.w.  Z V A m V A m y p ",
"V A m m Z :.<.B N <.-.O 6.w.# e.O O + X   @ X +   . o       X .   . O       + o X O X .   O .     8.# 9.w.9.o N A B ;.2.>.B m A ",
"N M C <.<.Z Z C N m <.o e.e.  e.e.w.e.w.7.w.8.e.7.6.7.8.6.6.q.7.8.w.6.e.8.8.e.8.w.8.w.q.6.0.8.0.e.8.  0.7.0.@ m V V A N <.;.<.N ",
"m C B A m m Z C M Z Z + 7.6.    X O   O X X   O o     X X X .     X O   O X .     o   o X   .   o   @ w.8.0.. m M V m C m m M M ",
"A V N B A B N Z V B V   q.6.8.8.7.8.w.q.9.9.7.0.q.0.7.q.8.6.w.e.q.6.7.q.0.e.8.7.8.e.w.7.6.9.9.7.6.8.9.6.6.q.o C C C Z m B V m A ",
"A m B m C Z M Z N V m # w.8.w.e.9.7.w.9.8.7.6.0.9.0.9.0.0.8.w.w.9.9.w.8.w.9.6.8.w.0.8.8.q.7.q.6.6.0.0.8.w.8.+ N m V N B m M Z C ",
"r y p y y w t y w r i   +   O o   . X + o X   . #   . o # . @ o O X . # O @ o + @ X O o O O . @ . . . X . o . w e y t e r t t e ",
"C A M m N M V C m Z A B Z O 0.q.8.7.9.7.6.X C Z Z N M V y y u w u t m m m A m m B   9.9.0.e.7.e.e.7.  r u p B Z B Z A N B V B B ",
"Z V M N B 2.2.2.,.A V Z V . e.w.6.w.9.6.6.. V B Z Z M C V N M m B N A N M Z m B Z @ q.w.w.w.w.q.8.8.o A m N C m Z 2.2.:.1.M M A ",
"M M m ;.2.C m M N ,.2.Z M +   X   . + o o + V Z M N A V N m M <.1.<.2.>.2.2.m N Z @ @ # @ # + # .   O N A V C C 2.2.A Z 2.-.m N ",
"C <.<.A Z C V Z C m 2.Z M Z A 2.2.2.2.2.B V C V M B Z N :.1.2.2.A B B C M -.C m M V 2.2.Z C V A :.>.M V m C Z m >.>.A m m <.A B ",
"Z N Z N m A N <.C 2.:.A V M ,.A B N M 2.A B V M Z 2.2.1.Z M V A B B A Z V B A M A 1.>.A B B N B V 1.A C M N m m N 2.2.Z m 1.N M ",
"A N N M M B A :.,.1.M A N V A Z V B N 1.2.<.>.1.<.:.B B Z V B m m A 1.2.<.N A M m <.A B Z m B N V V C A V Z V M N m m M N A C m ",
"M N A V m C N M M A Z A A N N B V N V C Z V :.2.m M Z V B A m A C B V C N 2.1.2.<.M Z m Z M V m B B C A C i e p e u p C C A V C ",
"p r t t i t r t t p u y w i w p y u e w i i u t w p t u i i i i i r w i u p e i y p r t w e i y i u w w p p y i u t u w r t r r ",
"N B m A V B M C A C Z A B m B Z B m m V N m Z A B N M Z Z N V Z B C C C m B M B M M A m V V V M V C 2.C Z m m B M C A A M A B Z ",
"C N M A B V M 2.>.2.2.N A m M N B N N V Z M C N V 2.1.>.1.2.M V A m Z B C Z C N Z V :.<.2.2.2.1.Z C N 2.2.A M m A N 2.2.Z V V m ",
"N A N m M V B A N M m :.2.B Z V B M Z B V m M A V N C M V 2.2.V C V C m B m Z A B M M N N V M 2.M m Z 2.1.A C C C Z M 2.2.m N M "
};
