/* XPM */
static char *result[] = {
/* columns rows colors chars-per-pixel */
"64 64 92 1 ",
"  c black",
". c #010000",
"X c #000100",
"o c #010100",
"O c #000001",
"+ c #010001",
"@ c #000101",
"# c #010101",
"$ c #300F0F",
"% c #310F0F",
"& c #3C240E",
"* c #3D240E",
"= c #3C250E",
"- c #3D250E",
"; c #3C240F",
": c #3D240F",
"> c #3C250F",
", c #3D250F",
"< c #441616",
"1 c #451616",
"2 c #441716",
"3 c #451716",
"4 c #451617",
"5 c #451717",
"6 c #461616",
"7 c #631E1E",
"8 c #621F1E",
"9 c #631F1E",
"0 c #621E1F",
"q c #631E1F",
"w c #621F1F",
"e c #631F1F",
"r c #641F1E",
"t c #651F1E",
"y c #641E1F",
"u c #651E1F",
"i c #641F1F",
"p c #651F1F",
"a c #652020",
"s c #642121",
"d c #652121",
"f c #154218",
"g c #154318",
"h c #144219",
"j c #154219",
"k c #154319",
"l c #24722C",
"z c #25722C",
"x c #25732C",
"c c #24722D",
"v c #25722D",
"b c #25732D",
"n c #6C421E",
"m c #6D421E",
"M c #6C431E",
"N c #6D431E",
"B c #6C421F",
"V c #6D421F",
"C c #6C431F",
"Z c #6D431F",
"A c #8E2C2C",
"S c #8F2C2C",
"D c #8E2D2C",
"F c #8F2D2C",
"G c #8E2C2D",
"H c #8F2C2D",
"J c #8E2D2D",
"K c #8F2D2D",
"L c #8F2F2F",
"P c #A46630",
"I c #A56630",
"U c #A46730",
"Y c #A56730",
"T c #A46631",
"R c #A56631",
"E c #A46731",
"W c #A56731",
"Q c #CD4242",
"! c #CC4342",
"~ c #CD4342",
"^ c #CC4243",
"/ c #CD4243",
"( c #CC4343",
") c #CD4343",
"_ c #FEA04C",
"` c #FFA04C",
"' c #FEA14C",
"] c #FFA14C",
"[ c #FEA04D",
"{ c #FFA04D",
"} c #FEA14D",
"| c #FFA14D",
/* pixels */
"IERPIRTIYEPP}{[PEREWTTWUPUERE|{|RIPTTEIRTUIIEPU|{TPP}{EIYWYP|{]U",
"EERITUIIEPRYRU[{`EURR]|RRUWRRUP}}YIIEIPYPIUERPWY{{UPR{|YWRIUTWPU",
"UUPUEYTREEIYEURE{{[{|]UYIRTRETYYEUEPPEEREEPTPYYUEYETPTYIYEPPUYIP",
"BmmBBBmmMVVZnMmmNZnMBVBZmNmZNVnmMCMBmBMmmCVZVNCNmNZVZZMZZMCNBCCZ",
"TUUTEYRUREEPWTUITWYPPUPUYIYEERUTPEPPUYWTUYIRPETEIPEYWWYIYRETRIEP",
"TEW_TUPRUIUU|[_|_[||{]']'_|{EPEITRPPWRYTTEEWEWEPPETRPPWU{`{_[_}{",
"`}]_UIEPYUIEEWYEUIEEIPTPYWW{_[}[PTTEWTYWYEWPEEEWEIYUWTYPTYRPER{[",
"YWITUWEUYEWTIUWEPTEEREUURYYWIEPEYYWTEREUTRWURUWYWWTTITYUIWRYT{]]",
"TUTUEPRUWPUIIPPIWTUIIWUTTYPPYRWPRPRYPPTIEETUTYTPUIWURRTWITITEYUY",
"T[|__|_WITYEWEUIPYURWIWWERTURYPWRYYTEWWRIIEPTTY{[`{[`']{URWITPYT",
"WYUPUEEPITPYUYPETYY}[]{ETEWPUWRWWITEUPUIEUTRUIPYYPWYPREPWIUYPIPU",
"YRUTRRTWEEETYPIPIIEYTYY'IITUUYTUPYYYEUWUIWERUIYRIUTYTTEWPPIEYUYY",
"URTTIPEPRURUPIPUTYRTRYREITPWRRRWRTIEETURPRRYYPTEUPUPRIEPIPPPIPYR",
"NMZnBnNMVmNBnBBBZCCnZVBBmmMMBBmVNN;*&:*>=*-VVmnNnnVMNNMnCnCmNMZB",
"RPYRTETPEPPTIEPUTWEIUWTTTEYEEEWRRmnm;=>-&-mNRPRRETYWYYPWRYWYEEIP",
"]{}]|{[`|}`YIUIWYTPUPIRWEYITIIEEWPIBM,;=;ZNIWWWPUTRWRPWUIYWRP{{'",
"RWWTURPRYP}[{UEIEUPUEUTWYUYTUEWWTEUUZBVnNNPPYIURIYET`||}['_`'}TT",
"EIWUPEYTRUIYY_]`IRIIYEIUPEEIURRUWIjRUWnRURRRRUERT{_}{WUPTPTIURIR",
"'`{_}][}PUEYWPE]_]PWPRTUUUIYIUYWEfhPPEPUUEERWYYI__TIYER{{`_[_[`'",
"PRIPRUE][{`EPWIRE|{'_EEEPYR|{IUXohh..OTRYURPETIPYEPR`{}]RUIEUEPR",
"WRRERYIYUY}]{ITWTERTEUYTEYIT}{vljjGSAJ TWTRIPPYTYU__[URRPYRRIUYW",
"_][]{IWEEEPP|]PYRRIIUTXoO +zzzcvjkGzxzA XTRYYUWIPIPWIEYUPPU||`_{",
"UIUERUEYWYYRTRYEUTI #oAAAp6)zzxxgjxzzx)AXXOo @WUYWEWRIWWIUTYEEPR",
"mBmVBNmmVNnZZCMCVCXKADAAGJ1</)DvzbvzQ!/A11we9iX@+VZNZnZBVBnBVNnC",
"EETIPRUUTTRIIUIT  ADAHFADGK5e(^lzbv^/rqe<<9SJAH))XRIPPEIYRUIWUWW",
"|{|'``{UPUTWUYE.GAGGSDAHKADS<3/zzv/)qi9qDAHJSA())) .EPPETIWWUE']",
"PEUWUWTTIUPTYIY@SHADDASHDJAAF4sL^)(qe0wGAAAA)))(G)/Q@IRRPEE{|{|I",
"IPWTEEE__|'|[} GFDHASASGGAGGAGedSAAqAAJDSAAADAFSA()).IEYYW{TIEEY",
"WUPYI{{PREWWWE KDHAKAJSSAAGGJAA2a~~weAAGAAAAAAAKFD)~)+PU{{YUPPRT",
"TWRE`'IRPEERR@(~AAASSGAAGSGGADGAq~~)ieAAAFAGAAAHJHH/~#T]`PRPWYWR",
"WWP{}IRWYTTYWO()JAASAGAGASDADHADuw))eteHDFDDKDe9ADHA) |RUIIRPPRW",
"RWY|IPIPWEIRE+))SSSASAAKDHFDDSDDG7e(/ipeDKAAAGAy9DAD)OUETPEIUYTR",
"RTYYTTIWNZVnm.))FSSJSJGAAFGADAAJAJrs()GDAAASGGSAqwHAF UITITPPUWW",
"MnMMBCCmV,,,:X))JDGDAFSGAAASADAADGJe)~JFAGGGAAAAGwFAonVVBNMMNmVm",
"UWPRPYERNZBVVn#)AFHGAGAAJJGDASADGDAe(AFAADDGGAAAA8AD+UITETRIEPIR",
"TYT[RUTWETYUWI )FASSDDAAGHASAAFAHJqe)GAKHAADAASJDeA@WRUYPTURITET",
"PP[|EIIURYEYWITO)JGJDFGASAAKAGKAAAe)DAAAAJGGSASAAe.UYRUEW|PYIRIR",
"W`|IRWPRRUUUWUR X)SHHKGADDADDDSADSADSSAGHSKJAADSFe IPWWIW]|PTWYY",
"[{EEWERPTWTIURUY )FHAAGAASKSGFFAAHGGGGJADDDJGAHHHD {YIERRR|UPU_`",
"TIUPIETWWEWTRPPPX))FSDSSKADGGJDGJAADAASADDJFGSHASDO[{ERWYER}`{|I",
"IIPUPPITWTPWEIU{_+)ASDAASGSGAHAASGAJSASAFDDAADGSA+EYWIPEPUTYTWIE",
"W{`{`{`]|`}]''[[UO)(DKFAAAKSFADSGSHADAJSAGAHAGHAS.PYUUPWYRUUPWUR",
"YYYYIITUWPYITWYRIPO~)SAGGAGSAAGAJGGJGDAHAGGAAAFF.WUYEEYTIWYEYERU",
"BMnMNVCnZNZVBVmnCNZ ))SADKAGAAJAAAAAFSHAAKDAAAD#VnmCZZmVZmmZBnVm",
"RWUEIEEEETYEPEPTTITPX))GADDGGHAGDGFAAAADGSSFAK+TPYTEIYUTTRTTITRT",
"UWWEPRPPYUTEERETTUYPPO)/ADADJASGSJADJFAJSJJAA+WTIIURIYREYETPRUTE",
"NVWYTP]]{}RERRWRYWP{`R@)AGFASFADGDAGJJAAASAK@EPERTRUPYPEPWPRWPBZ",
"TWPPE'{YU{_WYWRYWEWTI]]  +SSAJAGS$$HDAAGA.@.YUUUP|'URIWUWY`|]YPE",
"YRR[{EERUI{{RUEWEERPTUYRPUOOXSAAi%DAHA#@oIY``[[UIP[[[TPPTTYU``{U",
"PRYWPPWRIEW]_RRWWTPYRIUETTWII.@  X+OOOUETUIEYI{{TWPU{WWPITPRPPII",
"WTUYWYUETYTTWWRRTUUIRIWERWIWPPIPWTRYRRRRTIUUTYWURURUWERRRREPUTPW",
"RPYPREIEUWPUTITWERITTRUIETTTUTIYTIREEWEETYITTIETRWETEURUPTUYPIER",
"MBZBnBNBnMCMCZZmNZCNmZBnNnnmmZnnVZVVBnZBZMnZnmVBBZnVnNmnVBNmMNNm",
"RWIPUITRPEWYEUPYIYREIIREEUITBBVMZMPPPWPUYTTWPWTUUEVMVZYEWEYYYTUY",
"ETIUY||{[RTETRPIERTTRUTYEEIRTEIPYUWUIEIWEURTWTWPUYRWIPTTE|}'}IPW",
"IIP`|TPIU[|EIPUUURPEWTTEIUWTPII{}{]]||PUETII]||]|TEUWERR||WE|`PU",
"I{{WERTERP]EIEW|||||YTRTIUEE'|||WYYRI_RPIT{|ERPW']ITPREP]]WPP{WY",
"EEEUPWU{R|'RTI_WYYI|WYTIE||}EITWYYWETYWIW}]WYYUYT}ERIUPPE||EP}UI",
"WUUIIYW'[}IWURWETYU}|{]}{'UYETYPPW}|{UWIP{WYEPYUETRWTETIUPPIUERP",
"IUWTIRUIIWEWWUUYTUTTET'|PIURYWPWRIRRP|'|{IEPEIWTYYRWRCmZmVZRRWTR",
"ZMNNCNMNNZVBnBmZCVNBCCVNnVNVCCCCCMnCVZmCBZMNnmCBBVnnZZBCVZVnMZMM",
"UYPWTYPRWREEYPYEYPPTUIEWYYIEEUTEYRRRPYIYIIWPTRTIRR|REPPYIRWWIWYE",
"RUIWYTI|]||UWPIUYUUTEIRUT|}]'|ITWPEYRERUET'{{||}ERU||WPPEU||ETTP",
"UWUUITYWUIP'|YETYIEYTTIWTURIT||TRTRPYPEYYIIUUTR|IPE]}RRWRTR}|IYY"
};
