/* XPM */
static char *result[] = {
/* columns rows colors chars-per-pixel */
"64 64 32 1 ",
"  c #3C240E",
". c #3D240E",
"X c #3C250E",
"o c #3D250E",
"O c #3C240F",
"+ c #3D240F",
"@ c #3C250F",
"# c #3D250F",
"$ c #6C421E",
"% c #6D421E",
"& c #6C431E",
"* c #6D431E",
"= c #6C421F",
"- c #6D421F",
"; c #6C431F",
": c #6D431F",
"> c #A46630",
", c #A56630",
"< c #A46730",
"1 c #A56730",
"2 c #A46631",
"3 c #A56631",
"4 c #A46731",
"5 c #A56731",
"6 c #FEA04C",
"7 c #FFA04C",
"8 c #FEA14C",
"9 c #FFA14C",
"0 c #FEA04D",
"q c #FFA04D",
"w c #FEA14D",
"e c #FFA14D",
/* pixels */
",<,<,,43<4,>eeq243<52251,<5,5eqe2,>22>,34<1,4><eq2,>w02,131>0q84",
"343,><,14>5,3<0q74<35ee3515,><>ee1,>>,>3>,445251qq<>3qe142,<>5>1",
"<<><412342,14<,40q0qq9<1,33342114<4,>44342><><1<4<42>21,15>2<13>",
";%%===**;%-:$:%%*-$*=:=:-*%:*-%%*;&$*=$:%;%:-&;*$*%-*:&-:&;*$;&-",
"2><44<3<544>424,2<52><><131425<2>4>>>1524153>434,241541>13423,4>",
"2456><>5<,<>e06w86qeq79896q04>4,252>54124445414>>4332>5477q6q6w0",
"7096<,441<,4451<<354,>2>131q80w0>2245213145>4445231<521>2<3>43qw",
"15,2<34414533<55>24<34<<3115<5>4535>534<235<3<515422,21>,2352998",
"2<444>215>42,<<,12<,,5<221>>134>3,35>,>3442<252><,5>333532,>41<1",
"38e70e653214,4<3<,<34,45432131>531224333,,5,2><007e07w9e<35,2>5>",
"551><4<1>3>1<124211w0974245245331,22>2<,4<23>2,1<>51>54>5,412,><",
"<,>2332544431>,>,,212118,,4><12<>115415>,542<,1,1<452245>>,41<11",
",3231>4>3<3<>,4<21,2313412>53,2<32>442<5<331,2241>>33,5,,<>2,>53",
"*&:&==*&--*=$==$:;=$::=-%%&&;=%-**O..+.@X..--*$%&$%&***$=$;%*&&-",
"3>13242,4><2,4,<2541<53224124<513%$-OXOo o%*3>23421111,1335144,>",
"9q0eeq0qeq61,>,514><>,3541,2,,545>,=&#OX.:*1555,<2253>51,125>qqw",
"5252<3>31>w06<4,4<><4>,1><1>1<5524<<:=-$**2>1,131,439eew08678w33",
"4,41,4123<3<1877,3,,1<,<,441<35<5,>3<5=3<33,3<43266wq5<32>21<333",
"9qq8w9qw<4415>496e>5>32<<<,1,1114<3>>42<<34,511>662,1437e7806078",
">2,>,2490q64,5,2<qq86<52><3eq,<43,4443231<3>423>14437qw93<,444<3",
"532431,,<1w9e,,534324<1241,2wq633,523312123,,<121<66q<55>533,<15",
"6e0eq,14<41,79>123,,,<3,3,15459780q988><4>511<5,>,25,45<>><ee76e",
"1,,425415113231442,<5214>>>2>43,11>4153><<,>545<15453,55,<41>4>2",
"%=%-=*%%-%$:;;&;-;$**=$--:;=*;%$$%$$-%=*%-%;$*-=:-:::=:=-=$=-*$:",
"242,>,5<>22,,<,2>3255>>q5<<4>44>2343511,52<,,1435<3,>>2,13<54153",
"qqq877q<><>511411,92>53q5>123877eqq76eqe42,32,4,,5134><42,55<487",
"<41,>522,<>21>11,9w1125w<54996143,,5<24>5,,513<114<3>,33244qq0e2",
",<524<466e8e0w078711<38,5<q7<52315245,<5<<,53>251>>eq,41<503,11,",
"44<1>q7>3445544>5<33<q>,99e,125,57q79q80>>522,55530614>40q1><<,4",
"253296,3><433<>14><e65>qe55332ee6313><<30e0554<>672><>3w7,3>5133",
"55,00,3,522141>,,e8,,18645359773<5,,1,42<51432e8e41<>1e3<,,,>>35",
"351e1>,>54,34,12<>15>55<,5479532,4>24007e9eq7q<>543<44152>4,<134",
"355122,5%:-=%%=&:<325<5,3,>1<52>54454,12,153>4><42>,<><,3,2>><51",
"&$&&=;;%-###+X+O;:=%***&&=;=&$&$:=$;&%--*::$%*;&=--=:$-:;%***%-%",
"11>3>1<3::=-%$=;:35,,22<<,4<2,114<,,5<42,<<<5,3<255>2<33423,5>,3",
"212q3<2542<<4,314>1>,>222,>4<2>42212<125<>,,,4441>2>53<1>2<3>242",
">,0q43>431515>21<4454252w52,22>4134>0w9e770q07e3>1,<13<25e<<,3,3",
"57e,,5>33<<<5>25332><296,23<1<,1,6974<>54<2<<1eq8w5>><5,57e>2511",
"0q44543>453,<3<,143,9e34241>315q0235>>>4>6eq15,43ewq1,4333q1><67",
"2,<><52534423>2>54097>1<5,<45,67124>3,5<,3,>w67221209431,43w7qe1",
",,><,,,232>34,4q8771,,,4,,1,<e1,12<41<921>e111e321415,>4<<2121,4",
"5q7q7qq9e7w989q0<22231,<,2<1q,3214>5,,ew0<<,49e<41,1<<>555<<>5<3",
"1111,,415>1,2513,>>5,21<4512,,3<,45<<>,1ee660q14>5>51454,51414,<",
"=--&*-;%:*:-;-%%;*:%;$:=;*=$%::%$=$&*%=**&*=:*$%:$%;=:%::%%*=$-$",
"33<21<4<4254>4>32,421,14,23<<<5,5,,5423512242512>124,1<24324,233",
">134>3>>1<24<34>2<1,><5,,4424<1>>>1<54,2<<,<>152,,<35134542>3424",
"*-5,2279q0345,53,,>7735<24521<41522<9eq981>>24>4333>,1>445>25>=:",
"25>>48q1<q65,,315452,98qqqe0q6<7eeqqe><107081<4<<e8>3,45417e91>5",
"1,3e744,<>qq314522322>13,>313q934<>3>3<2<157760<,>qq02<>2,5<qq0<",
">315>,43,4596,351>>15>442>5,><<13>5523<42<,413qq>5><q55,>2>3>>5,",
"5><155<4212255352<433,3523,5,<,<52,133332,><314<3<2<5433335>12>5",
"5>1>,4>4<2><2,2543,223<,53>242,42,14454431,221425542<<3<>2>1>,23",
";=*==$%=$&=$;::%*:&*$;==*$=%%:$$-:--=$*-:&$:$%-;=:$-$*%$%=*%&*:%",
"35,2<,23>45141>1,134,13<4<>2==-&=:>>>5>>1225>52<<<-$-:14123<1215",
"42,<1eww0544252,55223<2145,3><,>5<3<,4>1415>525,<135><3><ee8w,15",
"13>7e2>,<0e<,<1>>2,45324,<12<>,qwqe9ee4>443>9ee9e24<3235eq5>w6><",
"260543243>94>45eee9e5332,1419wqe55<3,63>,2we432569,2>34,995>>q51",
"4<4<>5<63e852,053<,e512,49qw53>51135215,5w95<1132w53,<>><e74>q43",
"5<<,,,460w,5<25425<weq7wq811421>>5weq<5,>751421<>235242,<>>,<33>",
",<44>3<1,5455<<12>23429e>,42,5>1313,<ewee,2>4,2>113<2;*:%--33523",
":&**;*&**:-=$;$*=-%$;;-*$:*-;;;;;&$;-:%;$:&*$*;=;-$$::=&-*-$&*&&",
"<14221,353451>141>>2<>431<344<>41333>1,1,,1,222,25e34>>1,345,314",
"3<,512,eeee<5>,<1<<243,129w7we,25111343<528qeeww42<ee5,24<ee5>2>",
"<5<>,215<,>795421,413>,54<3,2972325>1>551,,1<2,e,>4ew1>334,qe3>2"
};
