/* XPM */
static char *result[] = {
/* columns rows colors chars-per-pixel */
"64 64 48 1 ",
"  c black",
". c #010000",
"X c #000100",
"o c #010100",
"O c #000001",
"+ c #010001",
"@ c #000101",
"# c #010101",
"$ c #3C240E",
"% c #3D240E",
"& c #3C250E",
"* c #3D250E",
"= c #3C240F",
"- c #3D240F",
"; c #3C250F",
": c #3D250F",
"> c #6C421E",
", c #6D421E",
"< c #6C431E",
"1 c #6D431E",
"2 c #6C421F",
"3 c #6D421F",
"4 c #6C431F",
"5 c #6D431F",
"6 c #A46630",
"7 c #A56630",
"8 c #A46730",
"9 c #A56730",
"0 c #A46631",
"q c #A56631",
"w c #A46731",
"e c #A56731",
"r c #FEA04C",
"t c #FFA04C",
"y c #FEA14C",
"u c #FFA14C",
"i c #FEA04D",
"p c #FFA04D",
"a c #FEA14D",
"s c #FFA14D",
"d c #00B6EF",
"f c #00B7EF",
"g c #01B7EF",
"h c #F4E49C",
"j c #F5E49C",
"k c #F4E59C",
"l c #F5E59C",
"z c #F5E49D",
/* pixels */
"78e8700q8wq0ssi0we8e00qw78wqesps078w007qw877876spq66ip099096ppyw",
"0wq90877w6e8qwaptw87qsp0e8e7696as7q7q96q668we098pp867ps9e0786e69",
"9888w96qw07908q8ppipsu997qqq0w9908w76w8qww6w8e98e8w060977w7089q6",
"5,,2321,4351>3,>13>,232521,513,,<4>212>31<353<41,1,345<35<4132<3",
"068ww8q8qww6e0w909e06868979w0q866w666ee0w9qq7w0w70w9ew769q80q7w6",
"0eer086e8788uirsuipspuyyyrprw686qe08e096wwwewew66e0708ewttpyprat",
"taur87w8987wwe988qq0q0069e9iyisi600we0907we8wwwe0e99e09609q6e0pa",
"7e7w6e0w9we078ewq0w8qw88q99ewe6weee7eqw80qq9q8e9qwq060987wq90uuy",
"q8w8e698e6w67867w0877e8w09879ew6qqq9676qww080e0687e7qq6e7070w789",
"0ysraureqq9wqww7878ew7weeq09796eq98wweq077w7068iituitaus8qe70690",
"e9968w896q69890w099siute0wewweq9970e6099w80q8e7996e96qw0e7890q68",
"8786qq0ewwwq97766709099yq7068709699e88q87ew0879798we008e667w9879",
"7q0q76w6q8q86908097wq9ew706eq7q8006we08w6q09q7ww9667q7e6766676eq",
"1<4<231<2312222>542>53>3,31><21311XXX-%=;%$331>,>>3<1<1>2<<,1<<3",
"768qqe0700607w780ew8.X 00w90wwe7q jjjo=*$*,1q00q807eoX.eq7e9ww76",
"upauspipsir9787e807 jzj w97077wwe+jjj =&=519eee680q jjjX790e6ppy",
"eqew8q6q96api8w9w8@jjjjj.9968we9q ljjX3>1106979q97w jjjOprrtyy0q",
"w7e96w96e868eytt7Xjjjjhjj@w78qe8e.jjj 2q8qq7q8wq6pOjjjzj 6w7807q",
"yppuauii6ww9e6wur@kzjjjjj 79998ew.jjj 0860w79996trojjjjjOtritipy",
"607679wuipre9q6w8+jjzjjjjOesp+8w6Xjo q0q98e6w0q69w.jjjjj 87www7q",
"eqewq77869ats77eqojjjhjjjO76.j.q0 jj q76w6q7788w98 jjjjj eqq7999",
"tsiss7e08e77tu690OjjjjjjjOew j tyi  Xr68w0q789eq97Xjjjjj 68satrs",
"979w0w09e89q079w80#jjjjj+660.j 779 +9eq78976q0e899 jjjj@68w86w70",
",2,3213,3,>544<434 .jjjo.442X ,>< jj.,21,3,4>,321  jjjh 32>234>4",
"ww078qe800q778q06q0 jjjo 88wOX 6 jhjj 97e08q99wqe jlj@X79007w6eq",
"apsytrp8086e6ew9e7u jjjOq69w.jX@ @jjjOO @07707w .jzjj  807ee8wyt",
"6w9e6e00786w97997ua jjj 6ew Xjjjjjjjjjjjj @ 9q  jjjjj qq0wwppis6",
"78e0w8wrpsrsiairyp9.jjjj+o jjjjhjjjjjjjjjjjj   jjjjj  w98ep77e97",
"qw877ip6q0eeeww6e8qOjjjO jjjzhjjjjjjjjjjjjjjzjhjjjjj w68ip9886qw",
"0eq6ur7q68wqq869w68 hjjjjjjjjjjjjjjjjjjjjjjjjljjjjj  6qst00699qq",
"ee7pa7qqe00ee9077uOXjjjjjjjljjjjjjjjjjjjjjjjjjjjjjj 69sq877766qe",
"e99s9676ww70w7907q.jjjjjjjjjjjjjjjjjjjjjjjjjjjjhljl we7e06876eqe",
"0e99007e153<,,2<4oojjjjljjjjjjjjjjjjjjjjjjjjjjjjjjj 8887w70668e9",
"1><<244,3::*-&%;> jzjjjjjjl OXjjjjjjjjjjzjjjjjjjjjjo5>254,11,,3,",
"996qq8eq5522,>425+Xjjjjjjj fff#jjjjjjjjjjjjjjjjjjjjjX97qw0q9q67q",
"09wtq86ew088w7q9w6OjjjjjjXfgfff jjjjjjjjO+ jjjjjjjjj q8960w060w0",
"66ryw768q9wew6088w jjjjlj#ffffg jjjjjjzOfff jjjjjjjl.q80es887q7q",
"ets7ee6706w9e80eq0Ojjjjlj fffff jjjjjjj fff jjjjjjjl 8eqwus60e99",
"ipwwewq6we098q679w hjjjjjj fff+jjjjljjj.fdf jjjjjjlj#qwqqqi768rt",
"09868e0qqww0q806ewi jjjjjjjO Xjjjjjjjjlj   jjjjjjjj  8097wqitsu9",
"77680670q06qw79pyrt jjjjjjjjjjjjjjjjjjjjjjjljjjjjjj e76w78090e7w",
"eptststustatyusr866 OjjjjjjjjjjjjjjjzjjzjjjjjjjjjjX 866eeq986q8q",
"999977w9e6970e90766  jjjjjjjjjjjhjjjjjjjjjjjjjjjjj ee0ew7e909079",
"212<134>515343>14131 jjjjjjjjjjjjjjjjjjjjjjjjjjjjj 425,54,,12>3>",
"qq807ww8w09w6w6qe78  jjjjjjjjjjjjjjljjjjjjjjjjjjjj w79800q0w70qq",
"89qw6q66990w8e86088 Xjjjzjjjjjjhzjjjjjjjjjhjzhjjjj  e9qwee06q90w",
",3e906tupiqwq7eq7e6t jkjjjjhjjjjjjjjjjjjjjzjjjjjjjj 79680e60e625",
"0e66wrp96pre6qq9ewe7  jjjjjjjjjjjjjjjjjjjjjjjjjjjjj  7wew9tsu96e",
"87qppww7w6pp79we00q60      jjjhjjjjjzjjjjjjjjjjjjjjjO0860qewppi8",
"6qew67wq7w9tr7qee069e6ww66e  jj   jjjjhj     jjjjjjj qqq706060e7",
"ew89e96ww900eeqeqw87q7qqqq7e zj e  jjj O 9690 jjjjj ewqqq7w6906e",
"e6969w7w8088q70wwq7q0q87e76q    w7 jjz wq97009 jjjj 6wq8606e670q",
"<2522>12><<>415,15<1>4>21>3,,5>235O    35<>5>,     X>13>,21><55,",
"qe76870q8we9w96979qw79q8w870223<31686e6q900w8e06w95>359w9wq89099",
"w0789saaieww0q07we000809ww7q6w7698q87069w9w890e7997e6wq6wssya97e",
"776us06q9isw76986q7weq0w7890w67tassyps08wwq7ussus0w8eqeespe9ir08",
"qpuewqqwq6uw7wqssssse6q0780euassqe8q7rq670aswqqery706qw7use66pq9",
"06w88e8pqsyeq7req87se907wspawq6e99qw07e6eauq89870a9q9w668ssw6swq",
"ew8qq9eiia7e80ew098asptasy97w0966east8e96tq9w69800qq0ww786678qq6",
"78ew8q8979wee889060q00ss67w09e6eq9q78sasp706wq0699qeq515,,5eqe0q",
"5<1141<11532>4>523,<4435,51544444<>425,4>5<1>12253<>5125313>11<<",
"898e0977wqwe969w968686wq9860880w9q7q6969767700076esq86696q8e7e8w",
"q87e907sssa8e678968qw7690sitas70e8w7qwe8w0ypsssiw08sse7608ssw006",
"8e86908e876rsew097w9q699q8q7wuu0q0e688we9778807p76wsi9qqqe7ss6w7"
};
