/* XPM */
static char *result[] = {
/* columns rows colors chars-per-pixel */
"64 64 34 1 ",
"  c black",
". c #3C240E",
"X c #3D240E",
"o c #3C250E",
"O c #3D250E",
"+ c #3C240F",
"@ c #3D240F",
"# c #3C250F",
"$ c #3D250F",
"% c #6C421E",
"& c #6D421E",
"* c #6C431E",
"= c #6D431E",
"- c #6C421F",
"; c #6D421F",
": c #6C431F",
"> c #6D431F",
", c #A46630",
"< c #A56630",
"1 c #A46730",
"2 c #A56730",
"3 c #A46631",
"4 c #A56631",
"5 c #A46731",
"6 c #A56731",
"7 c #FEA04C",
"8 c #FFA04C",
"9 c #FEA14C",
"0 c #FFA14C",
"q c #FEA04D",
"w c #FFA04D",
"e c #FEA14D",
"r c #FFA14D",
"t c #F5E49C",
/* pixels */
"<161<354,543rrq355163345<55660wr3<1533<4512<1<,rw4,,qw,2<321ww95",
"354231<<5,6235ew851<4rw3616<,2,er<4<4134,<,56321ww2,<wr16341,6<2",
"151252,453<23141wwqwr012<3443522315<,514553516226153,32<<5<3124,",
">&&-;-=&:;==%:&%=;-&:;->-=&>=;&&*:%->-%;=*;>;*:=&=&;:>*;=*:=;-*>",
"4,255131455,63523263,1,1<<253<1,,5,,,6636244<535<,5165<,23134<5,",
"366841,21<11rq8r0qwrw87997w7511,4631632,5556565,,63<316488w9w7e8",
"8e091<5121<556211443333,262q9qrq,3356323<66155563622632,324,63we",
"<6<5,6452563<16543514511422656,5666<6451364241624543,321<5423009",
"35516<216,5,<1,<531<<615321<265,4442,<,455,1363,1,6<44,6<3<55<12",
"39r7r0764425455<2<165<566432<1,662,35633<<5<3,1qq80w8e0r1<6<3,23",
"522,2522,6,11255322rq086356516422<36,3225134,6,22,62,4536<1634,1",
"5<1,443655542<<1,<3234294<3,1<32,2261141<65,1<1,21563316,,,521<2",
"4436<,5,4145,23132,64265<3,64<4153,56325,4324<552,,<6<6,,,,,<,64",
"=*:*-;=*-;&----%>:-%>&%;&;=%*-=;==+XXXX+#X.;;=&&%%;*=*=%-**&=**;",
"<,14463<33,345<1,65116333123556<4;%;+o+O.O&=433413<622<64<6225<,",
"0werrwqwrq72<1<413<33<3652<3<<556<<:=$@o+>=2666,13464,61<236,ww7",
"665514,<2,9wq16251,151<5122,15524512=-;%==3,2<242<548rwqw7789934",
"5<62,12,61,1690826<125<,<61<14616<3416-4144<4154,w7eq61<3,5<13<4",
"9ww0r0qq,5526,507r,6,43115<22216526,,331,35<222,873<2558087q8qw9",
"334,<210qq7623351rw97164,66rw<25,<551444216,534,2534wwe041<555<4",
"64654<<1,2e8r,<6454,311552<,e87433654<<,5,4<<1152297q1<4,244<222",
"wrqrr<6316<<89,2344<234<1<4555089qr097,1544<12642<36<565,,1re87r",
"<<25353261243<2613<16325,,,3,52<<2,6264<121,436122554<66,151,5<3",
"&-&;-=;&;&%>::*:;:-=*-;;;::->:&%*&&%>&-=&;&:%&;-=;;>>%>;;-%-;:%:",
"513<1422334<<145,4343,,86115553,533<64<<63142254614<,<6<233<1,24",
"9wr987w131,6,6526,0,,54w4,254988rww87wr054<<3<5,362<1,1134561598",
",526,633<1<52<22<0e1<,5r,650r9654<<21<6364<<24226114<<44355wrqw,",
"<1635157wr7rweq79w2<549<61w8,63426356<5611<24,522,,rq<5216w<<62<",
"461<<qw,4366655,61441w,<80r<246<48ww080e,,6332<663w925,1qw212,45",
"364,07<4,15441,25,1e761wr66<33rr74<432,4qrq645<,783,1,4r733<2243",
"62<we<646342223<<09<<277566<0qw<11<41<,3,62543r9r521,2r41<<4,,46",
"622r2,<<55<31<23<426,66,16680643<5,35qq8r0rw7w25654516<63,14,646",
"362233<6=>;*&&:*:,45646,4<,616,,65665,2,<66<,5116,,,111<5<3,,24<",
"%&=*-::&>$$O@oX#%=:%*&=**-:-*%*->-%:*&&;=%>%&=::-;;->%->:&==&&;&",
"22,44164>>;-&%:->36<,53154513<2232446153<1556<<1325,,2<4534<4,<4",
"355831<653115<425,6<<13354,313,63,2352361,44,5512,3,6412,353,353",
",,895<,12<565,311554546,r6,<33,22451qe0r88qwq8e4,6<,24136r11<4<4",
"680<66,<3,52653643331307<,4122<2<7085 ,43151<2rw096<,,6450r,3621",
"qw55654,563214,<656,0r53362<3267q366, 25<7rw26<34rww245444q<,178",
"3<1,16344553<13,63q08,216<116<88<3135 6143<1e783323q81,2<54q8002",
"<<,53,<343,45<2wr782,<<5<46<1e2,2313 t ,2,r626r332526<,5<13<36<1",
"6wer8080r8e890r71,3541<123<2w24426< tt eq,1<30e152<61,,66421,414",
"2222<<526,2<36<32,1613215424<<3125 ttt 1wrr0qw25,4366365<62423<2",
"-=%*=;:*>=>;:;%=:=;=-%;-:=%*&>>%;: tttt =*&->=%;>%&:->&>:%&=-%;%",
"4413<55,5325,5,46<13<<2123411,522 ttttt 4,,352<3,235<21334354,44",
"1245,4,,1235161,351,,26<4513512,3 ttttt 5121,16,<2146245663,4235",
"=;623,80wq454<64<6,884655553215665  ttt 9,,,3515463,<2,156,36,-=",
",6,,5qq2,w76,442656<<r0wwwrqw918rrww   2q8q821511r9,4<56527e02,6",
"1<3ww5545,ww<256333,3124<,424w0<1,14,4135<2888q5<,wqq31,3465wwq1",
",365,<5<<5689<4564,26,55,,6<,51225263<1532<562ww,6,1w444<,,3<36<",
"651262,552336646451<4<4463,6<14163<<646432,23251424165444<5,23,6",
"6,2,25<513114<3154            <,5<25665532<3325365511541,3,4,<34",
"*->--%=-***%:=>&  tttttttttttt   >>;-%=;=*%>-&;-::%;%=;%&-=%*>>&",
"46<,1<34156<52  ttttttttttttttttt          5163,52>%;:2525412322",
"53<12reeq655  ttttttttttttttttttttttttttttt               r9e2<6",
"4<,0r3,42qr tttttttttttttttttttttttttttttttttttttttttttttt   w35",
"4w0114454, tttttttttttttttttttttttttttttttttttttttttttttttttt 42",
"3,51141w4r tttttttttttttttttttttttttttttttttttttttttttttttttt 54",
"6314426qqe< ttttttttttttttttttttttttttttttttttttttttttttttttt 4,",
"<1651422<25           tttttt      ttttttttttttttttttttttttttt 44",
">%==:=*==>;-%:%>            :::::*    ttttttttttttttttttttttt **",
"121632<<54562,252,111,5421,3213124<,,2    ttttttttttttttttt  615",
"41<623<rrre16,<12,145<,23rq8er23655<456153    ttttttttttt  r533,",
"161,23161<,7r6536,524,<241425003<46,11362<<153           6<rr15<"
};
