/* XPM */
static char *result[] = {
/* columns rows colors chars-per-pixel */
"64 64 51 1 ",
"  c black",
". c #010000",
"X c #000100",
"o c #010100",
"O c #000001",
"+ c #010001",
"@ c #000101",
"# c #010101",
"$ c #3C240E",
"% c #3D240E",
"& c #3C250E",
"* c #3D250E",
"= c #3C240F",
"- c #3D240F",
"; c #3C250F",
": c #3D250F",
"> c #6C421E",
", c #6D421E",
"< c #6C431E",
"1 c #6D431E",
"2 c #6C421F",
"3 c #6D421F",
"4 c #6C431F",
"5 c #6D431F",
"6 c #A46630",
"7 c #A56630",
"8 c #A46730",
"9 c #A56730",
"0 c #A46631",
"q c #A56631",
"w c #A46731",
"e c #A56731",
"r c #FEA04C",
"t c #FFA04C",
"y c #FEA14C",
"u c #FFA14C",
"i c #FEA04D",
"p c #FFA04D",
"a c #FEA14D",
"s c #FFA14D",
"d c #00B7EE",
"f c #00B6EF",
"g c #00B7EF",
"h c #01B7EF",
"j c #F4E49C",
"k c #F5E49C",
"l c #F4E59C",
"z c #F5E59C",
"x c #F4E49D",
"c c #F5E49D",
"v c #F5E59D",
/* pixels */
"78e8700q8wq0ssi0we8e00qw78wqesps078w007qw877876spq66ip099096ppyw",
"0wq90877w6e8qwaptw87qsp0e8e7696as7q7q96q668we098pp867ps9e0786e69",
"9888w96qw07908q8ppipsu997qqq0w9908w76w8qww6w8e98e8w060977w7089q6",
"5,,2321,4351>3,>13>,232521,513,,<4>212>31<353<41,1,345<35<4132<3",
"068ww8q8qww6e0w909e06868979w0q866w666ee0w9qq7w0w70w9ew769q80q7w6",
"0eer086e8788uirsuipspuyyyrprw686qe08e096wwwewew66e0708ewttpyprat",
"taur87w8987wwe988qq0q0069e9iyisi600we0907we8wwwe0e99e09609q6e0pa",
"7e7w6e0w9we078ewq0w8qw88q99ewe6weee7eqw80qq9q8e9qwq060987wq90uuy",
"q8w8e698e6w67867OO.77e8w09879ew6qqq9676qww080e0687e7qq6e7070w789",
"0ysraureqq9wqww.ckkXw7weeq09796eq98 XXq077w7068iituitaus8qe70690",
"e9968w896q6989 kkkkkOute0wewweq997Okck 9w80q8e7996e96qw0e7890q68",
"8786qq0ewwwq97.klkkkX99yq70687096.zkkkj 7ew0879798we008e667w9879",
"7q0q76w6q8q869 kkkkkX9ew706eq7q80 kzkck 6q09q7ww9667q7e6766676eq",
"1<4<231<231222OckjzkO3>3,3Oo X131 jkkkk ;%$331>,>>3<1<1>2<<,1<<3",
"768qqe0700607w kzkkk.e000w kk e7qXjkkzk $*,1q00q807  O7eq7e9ww76",
"upauspipsir9787 kckO670ew9 kkc we kkkkc =519eee680XckkX8790e6ppy",
"eqew8q6q96api8wO kkXw87w89  kc 9qwXzkk#>1106979q9 kkcck prrtyy0q",
"w7e96w96e868eytt.kk 9w787ewO   8e76XX 2q8qq7q8wq6 kkkkc 06w7807q",
"yppuauii6ww9e6wu  + 6q088w79XO8ew8e66w0860w79996t.kkkkk utritipy",
"607679wuipre9q6w8p  r8eq6ee   8w67wwwq0q98e6w0q69.kkkkk q87www7q",
"eqewq77869ats77eqw  w89ww97 j rq07ewqq76w6q7788w9 kkkkk 6eqq7999",
"tsiss7e08e77tu690q .90q707e+c+utyisuyr68wX  89eq97 kjkO8668satrs",
"979w0w09e89q079w80  X09w66. k. 7796 9eq7OOk  0e899w. Xee68w86w70",
",2,3213,3,>544<434OzkO3334Okzk >< Xo ,2  zkkX,32133X5>5332>234>4",
"ww078qe800q778q06qOlkz pe Okkc X  kz  o kkzkO9wq X  o6079007w6eq",
"apsytrp8086e6ew9e7 jkj..XXzvkxkXkkkkjckkkkkjX7+oXxk..68807ee8wyt",
"6w9e6e00786w97997u cckklkkkvkkckkkckkkkkkkjc++.kkk  77qq0wwppis6",
"78e0w8wrpsrsiairypOjkkkvkckkvckkzcklkkkkkkjkkOzkck si7w98ep77e97",
"qw877ip6q0eeeww6e8O.kkkkzzkkkkkkkkkkkkzckzzkzkjkkkOy9w68ip9886qw",
"0eq6ur7q68wqq869w68 zkkjckkkzzjkkkkkzkckkkjkkckkjk 686qst00699qq",
"ee7pa7qqe00ee9077uy  kkkzkcjkkkkzckckkkzkkkkkjkkkk@869sq877766qe",
"e99s9676ww70w7907q9.kjkkkckkkkkkkkckccjzjkkkkkkkkk#8we7e06876eqe",
"0e99007e153<,,2<46q kcvkkkkkjkzckzkzkkkkjckckkkjkkc 8887w70668e9",
"1><<244,3::*-&%;>54 czjckkkkjkkkkkkkkkkcX  kkkkkkzko5>254,11,,3,",
"996qq8eq5522,>4250e@Xkkckkkkjckjkkkkkk  ggg  cjjkkkO 97qw0q9q67q",
"09wtq86ew088w7q9w6e7@kkzkkjOo kkkkzkkz ggggg zkkkxkk q8960w060w0",
"66ryw768q9wew6088wwq kkkkk fgg kkckkkXggdgfdg zkkkkkXq80es887q7q",
"ets7ee6706w9e80eq00. kkkkk ghf kkjckkXgghgfgg kzkkkko8eqwus60e99",
"ipwwewq6we098q679we kkkckj gfg kkkkkj hggfdgg kkkkk  qwqqqi768rt",
"09868e0qqww0q806ewi kkkkkkk   kkkkkcjkXgfggg kkjcj +t8097wqitsu9",
"77680670q06qw79pyrt+kjkzkkkkkkzkkkzkkk Ogggo.kkkkkX9e76w78090e7w",
"eptststustatyusr866Okkkzckkkckkzkkkjkvkz   kjkkkkoOe866eeq986q8q",
"999977w9e6970e90766  kkkkkkkzkkkkkkzkkjkkkkkkkkkz 0ee0ew7e909079",
"212<134>515343>14131 ckkkkckkkkjckkkkkkkzkckjjkxk#,425,54,,12>3>",
"qq807ww8w09w6w6qe780Okkckkjckkkkkjjkkzkkkkkkkkkkkk w79800q0w70qq",
"89qw6q66990w8e860886 ckjkjkkkkkkkkkckzkkkjkckkkkvk.qe9qwee06q90w",
",3e906tupiqwq7eq7e6t kkkkkkkkkkckkkkkkkkjkkjzjjkkjX.79680e60e625",
"0e66wrp96pre6qq9ewe7 kkkkjkkjkkjkkkkkkk.O kzkkkkkkk+q7wew9tsu96e",
"87qppww7w6pp79we00q6.jkkkk  +zk..  .kzO+87.jjX XjkkXi0860qewppi8",
"6qew67wq7w9tr7qee069+ zkk+ 7 OO qw9@zxOw09+ck p @k. pqqq706060e7",
"ew89e96ww900eeqeqw87qX +O 7e78q8e07  OXq09 lX w8X @8ewqqq7w6906e",
"e6969w7w8088q70wwq7q0q87e76qw078w79weewwq9 zO9w0eew06wq8606e670q",
"<2522>12><<>415,15<1>4>21>3,,5>235332>135< kX,3424>3>13>,21><55,",
"qe76870q8we9w96979qw79q8w870223<31686e6q90X .e06w95>359w9wq89099",
"w0789saaieww0q07we000809ww7q6w7698q87069w9w890e7997e6wq6wssya97e",
"776us06q9isw76986q7weq0w7890w67tassyps08wwq7ussus0w8eqeespe9ir08",
"qpuewqqwq6uw7wqssssse6q0780euassqe8q7rq670aswqqery706qw7use66pq9",
"06w88e8pqsyeq7req87se907wspawq6e99qw07e6eauq89870a9q9w668ssw6swq",
"ew8qq9eiia7e80ew098asptasy97w0966east8e96tq9w69800qq0ww786678qq6",
"78ew8q8979wee889060q00ss67w09e6eq9q78sasp706wq0699qeq515,,5eqe0q",
"5<1141<11532>4>523,<4435,51544444<>425,4>5<1>12253<>5125313>11<<",
"898e0977wqwe969w968686wq9860880w9q7q6969767700076esq86696q8e7e8w",
"q87e907sssa8e678968qw7690sitas70e8w7qwe8w0ypsssiw08sse7608ssw006",
"8e86908e876rsew097w9q699q8q7wuu0q0e688we9778807p76wsi9qqqe7ss6w7"
};
