/* XPM */
static char *result[] = {
/* columns rows colors chars-per-pixel */
"64 64 45 1 ",
"  c black",
". c #010000",
"X c #000100",
"o c #010100",
"O c #000001",
"+ c #000101",
"@ c #3C240E",
"# c #3D240E",
"$ c #3C250E",
"% c #3D250E",
"& c #3C240F",
"* c #3D240F",
"= c #3C250F",
"- c #3D250F",
"; c #6C421E",
": c #6D421E",
"> c #6C431E",
", c #6D431E",
"< c #6C421F",
"1 c #6D421F",
"2 c #6C431F",
"3 c #6D431F",
"4 c #A46630",
"5 c #A56630",
"6 c #A46730",
"7 c #A56730",
"8 c #A46631",
"9 c #A56631",
"0 c #A46731",
"q c #A56731",
"w c #FEA04C",
"e c #FFA04C",
"r c #FEA14C",
"t c #FFA14C",
"y c #FEA04D",
"u c #FFA04D",
"i c #FEA14D",
"p c #FFA14D",
"a c #F4E49C",
"s c #F5E49C",
"d c #F4E59C",
"f c #F5E59C",
"g c #F4E49D",
"h c #F5E49D",
"j c #F5E59D",
/* pixels */
"56q658094098ppy8006q8850500qqtup856088590675654pu944yu4758q6pur0",
"8097865504q780iee0659pu8q6q5474ip59596894540q876uu745pp6q8964q57",
"6067074908578696yuyupt67589980778605406900906q77q604487550586794",
"3::<1<,:21,,;2:;,1<:21<3<,:3,1::>2;<3<;1,>331>2,:,:123>1,>2,1<>3",
"947006869004q80787q846465570856448444qq8q79950805406q65878689504",
"8qqe96476566pueptyupeewrrwuw06649q86q874000q0q044q8586q9eeuruwie",
"eitr650678500q76699888847q7yrypy4880q8785qq6q00q4q77q8748754q4ui",
"5q504q9070q856q098069066967q0740qqq6q9068q8796q79098487670978ttr",
"8086q576q604564508055q6087657q049997658900468q8464q5994q58500567",
"8ruwptwq99705005756q050qq587564qq7480q895507846yyetueitp65q58478",
"077470774q466700877pyteq80q06q97758q487786894q4774q74908q56q8946",
"05649980000979544587897r95846587477q66965q046564760q886q44407657",
"998q540496904786874q97q0584q95960840q870498795007445q5q4444456q9",
",>2><1,><1:<<<<;32<;3:;1,1,;><,1,,&####&=##11,::;;1>,;,;<>,,,>>1",
"54699q85884890564q066q88867800q591;1&$&%@%:,9889684q775q95077054",
"tuippuyypyw756596858848q07585500q552,-&$&3,7qqq4689q94q6578q4uuw",
"qq00654574ruy6q706460650677460079067><1;,,0475797509epuyuwwerr89",
"05q74474q746qwte7q5670545q656976q5896q<9699596094uwiyq6504056849",
"tuututyy4007q40rwp4q49866057776q07q4484648057774ew87700etewyeyur",
"8894576tyywq78906purw6q94qqpu5q04500699976q408947089uuit96500659",
"q9q0955647rep45q9q9486600754iew988q095540495566077rwy55947995777",
"upypp5q06q55ei4789957895659000teryptrw46099567q5758q50q0446piewp",
"55708047q67987796456q87044404075574q7q95676498q4770095qq46064058",
":<:1<,1:1:;322>212<,><11122<32:;>::13:<,;1:2;:1<,1133;3<1<;<12;2",
"06856976889556904989844eq66000840885q9q5q8697709q695450978854479",
"ryprewu6864q4q07q4t4409u94709reepuuewupt095585048q756466998q60re",
"407q4q88565075775ti6540p4q0tprq0955765q8q9557977q8455999800upyu4",
"96q806qwupwpuiywru7509r5q6ue4q897q80q50q667q9407744py5676qu55q55",
"9q655yu498qqq004q6996u45etp579q59euuteti44q8875qq8ur7046yu767490",
"8q94tw5966099647086iwq0upqq588ppw9598749ypyq9054we84649pw8857798",
"q75ui599q99777555tr557ww0qq5tyu5665967484q7058prp0764qp96559649q",
"q77p745500580578597q4qq46qqetq5850480yyeptpueu70q0906q5q84694q9q",
"8q77885q,31;::2>2490q9q4954q6064q0qq04585qq54066q444666505844795",
";:,><22:2--%*$#=;,2;>:,>><2<>;><3<:2>::1,;3>:,22<11<3;<32:,,::1:",
"774996q9331<:;2<28q58086098885778799q6q85600q5568704475908959659",
"800e865q0866059704q556888948694q8478078q649940867584q96768084808",
"44erq546750q0486608909q4pq4588457906yitpeeyuyei94q547968qp665959",
"qet5qq458407q88q988868tw549677575wte0649860657putrq544q90tp48q76",
"yu00q0940q876945q0q4tp088q7586qwy8qq45705wpu59509iuu750999w546we",
"85646q8990085684q8yte476q966q5ee506805q69854iwe8878ue647509yett7",
"554084589849057upwe7475059q56i74786856t474pq7qp88707q54056854q56",
"quipetetpeiertpw64809656q857u7997q5q55piy4678ti6075q644qq9764969",
"7777550794758q59746q68760979558670qqq676upptyu70498qq8q05q797857",
"<,;>,12>,,3123;,2,1,<;112,;>:33<12<>::<3,>:<3,;13,:213:32;:,<;1;",
"9968500408704049q5685576789664077X X . X9448075847805778898084q9",
"6790494467806q64806457q5986806.O  ssssas  O 46q45769q790qq849780",
",1q784etuy9095q95q4ee9q00008X sssshsssasssfsO O09q8457460q48q4<,",
"4q446yi74uwq4997q0759ptuu  Xsasfhssshsadssssss  6pr4950q07eit74q",
"658uu00904uu57qq88848679Oshsssgsaassfhssshshssa   uyy86489q0uuy6",
"48q0450550qyr790q947q4  hsfssssssssssshsssfssssa .X    5944898q7",
"q067q7400q88 .      X X sssss ssssasssssdhsjssgss   sssX 504784q",
"q474705068O  fhss +Ossssfsss sssshfhsfassfssg  shss sasss  94589",
"><3<<;,<>X sssshOXssassssdsssassssssshssfsassf ssgsfXfffsfX >33:",
"9q4465896 sssssssssfsssasssssfsssshsshsasssssssssssh Xhssas 7877",
"00567piiy sssgssshshshshasssssfsssssssssssassssssasfs.safhs  75q",
"954tp8497X sssfssssassassssasssssafassfsfshssssssssgssfsssss u80",
"9ut6699094  hasfssssfssssssssssssaasssfssssssfffsfsssssssasX u96",
"8406696u9prq  Ossssssdssshssssssffsfashssdfssssfsssssssaj  04t09",
"q86997qyyi5q68   OsshssshssassasfasssssssssfssssssssssO  4456qq4",
"56q06977770qq66q8   .  OX X+sssasssssssssssfsdss   O .,1::3q9q99",
"3;,,2,>,,31<>2;3<1;>221,,3, .      O o      +.  O1>;3,<31,:;:,>>",
"676q8q55q90q7470q46664097048764679544747545588854qp9644q496q5q60",
"965q785ppui6q457756905478tyeip78q00590q608ruuptu086ppq5486ppq884",
"6q64686q454wpq08q407945786970tt859q4068q7556087u74qpy7q95q5pp605"
};
