/* XPM */
static char *result[] = {
/* columns rows colors chars-per-pixel */
"64 64 41 1 ",
"  c black",
". c #010000",
"X c #000100",
"o c #000001",
"O c #000101",
"+ c #3C240E",
"@ c #3D240E",
"# c #3C250E",
"$ c #3D250E",
"% c #3C240F",
"& c #3D240F",
"* c #3C250F",
"= c #3D250F",
"- c #6C421E",
"; c #6D421E",
": c #6C431E",
"> c #6D431E",
", c #6C421F",
"< c #6D421F",
"1 c #6C431F",
"2 c #6D431F",
"3 c #A46630",
"4 c #A56630",
"5 c #A46730",
"6 c #A56730",
"7 c #A46631",
"8 c #A56631",
"9 c #A46731",
"0 c #A56731",
"q c #FEA04C",
"w c #FFA04C",
"e c #FEA14C",
"r c #FFA14C",
"t c #FEA04D",
"y c #FFA04D",
"u c #FEA14D",
"i c #FFA14D",
"p c #F5E49C",
"a c #F4E59C",
"s c #F5E59C",
"d c #F5E59D",
/* pixels */
"450547785987iit79050778945980iyi745977489544543iy833ty766763yye9",
"79867544930589uyw9548iy70504363ui484863833590765yy534yi607453036",
"6555963897467585yytyir664888796675943958993950650597376449475683",
"2;;,<,>;1<2>-<;-><-;,<,2,>;2><;;:1-,>,-<>:<2<:1>;>;<12:<2:1><,:<",
"7359958589930796760735356469785339333007968849794796094368578493",
"700q75305455rtqirtyiyreeeqyq9353807507639990909330747509wwyeyquw",
"wurq54956549906558878773606tetit377907674905999070660763768307yu",
"4049307969074509879589558660903900040895788685068987376549867rre",
"8595036503934534975440597654609388863438997570735404883047479456",
"7eiqurq0886989945450949008764630865990874494735ttwrtwuri58047367",
"0663595638365679766itrw07909908664703766957850466306389704567835",
"54538870999864433476766e8473547636605585409754646590775033496546",
"4878439385853675764986094730848577390759387684996334840343334308",
">:1:,<>:,<>,,,,-21,-2<-<;<>-:,><>>%@@&@%*@+<<>-;--<:>:>-,::;>::<",
"435880747737494570955077796799048<-<%#%$+$;>87785740664084069943",
"ryuriytyitq645405743347096474499044,>=%#%2>600035780830546703yye",
"0809583863uyt596953595495663590689562,<->>7364686498wiytyqqwee78",
"9406396305350eww4843694540945805043850,8588485983yqut09473945748",
"eyyrurtt3996039rqi303875594666509503397537946663wq74697wrwqtwtye",
"3743469rtyq068395yyeq508300iy45934999878650397836978yyur85499948",
"0809844536uwi440898795699643uyq8740988439384455965eqt54030884666",
"witii4075044wr3678446784740990rwetireq359784560864704905335iuwqi",
"6469797605687469574507693337390446306084564387056690840035953947",
";,;<,><;<;-211:1<1,>>,<<<11,21;-:;;-2;,>;<;1-;<,><<22-2<<,-,<1-1",
"99745805778445873878933y0559997377780864075866980584337467749308",
"uyiewqy57530309604r3398y83698ewwiyywqyii9744749480645355740059ew",
"39603077453964664ru5679u309rie09844058970446686605584488799yyti3",
"4507959qyiqitutqey6498e405yw30786079049955408396633it49650y44064",
"89544ty38700099305885y34wri468040wyyrwru3307764007te6935ty655389",
"7083rq4835988536935uq05yy00477iiq8487638tit08943tw73538iw7736688",
"004yu488077006744re446qq9084ryw855486437306987iei96536i854443380",
"066i63439947946748603005600wr08749379ttwiriyqy690985904073543080",
"70667740>2<:;;,:138705038450503309009463400439550333555494733506",
">-::,11;<==$&#@*-21-:;>::,:,:-:-2,-1:;;<>:2-;>11,<<,2-,21;>>;;<;",
"6638850822,,;-1,270449755895746675440507459904457693364897868348",
"769w853097559486930443779439573073679670538839035373085637973797",
"33qe94358690937559985803i03477366895turiwwtytwi8304368570i554848",
"0wi4003473960570877757rq438566464qrw9538759566iyre0435089ri37066",
"ty990983907658346904ri977063860tt78034694qiy60478iyy689888t435qw",
"765350788997857309trw365045504qw479704658845uqw7767tw576498twir6",
"443573478738946yeqw6344948645u63675745r763i060i77696043945767049",
"0ywiwiwriwuweriq533986454736y687694044iuy3547ru59640533008653858",
"6666449603647067433057659867447549096545iiirty693870070940676746",
",>,:><1-2>2<1<->1><>,-<,1>-:;22-<1,:;;,>>:;,2>-;2-;1,2;21;;>,-<-",
"8857499597693938045744654785530466489700033796473679465778794788",
"5689383366795053755336048957956773658747956535034658068900738679",
";<0673wryt898408403ww809999765560975riyre533393988734635703703,2",
"70339qy63yq0388609044iryyyityq5wiiyyi356twtq65955ie3849096wir630",
"548yy99493yy46907783756843868yr055583857546wwqt543yyto 37809yyt5",
"38093498496wq48007360399330435568960745X      oy3    s   7373704",
"0956063996770           .   o  X .      ssssssd  sssdssss 936730",
"036369495755 osssssssssssssssssssssssssssssasssssssssssss  03478",
":,2,,->,-::- ssssasssssssssssssdssspssssssspssssssssssssss -:22;",
"80435478590  ssasssssdssssssspsssdssssspsssssssssssss oX   56766",
"97456iuut099 X .s               ssssssssss            839iieu640",
"443ri7386ti9436  84908794567934w     X    84riiri7950800iy06tq75",
"8yr0988983r9498ii    O X   o  o 80584q8347ui98 .   73894ri033y86",
"7395505y8ie084q0  sssssssssssss      X  .o    ssssa      ii93i98",
"0958860ttu4057  ssssssssssssssdssssssasassssssssssssssss  345883",
"45095856469005 ssssssssssssssssssdsspssdssssassssssssssss 208078",
"2:>>1>:>>2<,-1  dsssssss .           ssssssssssssssdssssso<->>::",
"565076449890636  .X.    653755796848        sssspssssss  8504059",
"8540674iiiu50345635894367itwui470594890597e      .     375ii9773",
"50536750543qi0976496836685849rr7870355906445574y439it688804ii394"
};
