/* XPM */
static char *result[] = {
/* columns rows colors chars-per-pixel */
"64 64 34 1 ",
"  c black",
". c #3C240E",
"X c #3D240E",
"o c #3C250E",
"O c #3D250E",
"+ c #3C240F",
"@ c #3D240F",
"# c #3C250F",
"$ c #3D250F",
"% c #6C421E",
"& c #6D421E",
"* c #6C431E",
"= c #6D431E",
"- c #6C421F",
"; c #6D421F",
": c #6C431F",
"> c #6D431F",
", c #A46630",
"< c #A56630",
"1 c #A46730",
"2 c #A56730",
"3 c #A46631",
"4 c #A56631",
"5 c #A46731",
"6 c #A56731",
"7 c #FEA04C",
"8 c #FFA04C",
"9 c #FEA14C",
"0 c #FFA14C",
"q c #FEA04D",
"w c #FFA04D",
"e c #FEA14D",
"r c #FFA14D",
"t c #F5E49C",
/* pixels */
"<161<3341543rrq356163345<1546rwr3<1533<451<<1<,rw4,,qw32232,ww95",
"354231<<5,6145ew851<4rw3616<,2,er<4<42,4,,156321ww1,<wr263<1,6,2",
"211152,453<23141wwqwr022<4443522315<,51455,516216153,32<<5<3124,",
">&&-;-=&:;>=%;&%=;%&-;->-=&>=;&&*:%-=-%;=*;>;*:=&=&;:>*;>*:=;-*;",
"3,155141455,63523263,1,12<25341,,5,,,6635244<535<35265<,24134<5,",
"366731,61<110q7r0qwrw09997w75,1,4631632,5556565,,63<316588w9w7e8",
"8e071<5121<556211443433,262q9qrq,3356323<56155563622632,324,63we",
"<6<5,6352563<16543514511422656,5666<6451344241624543,321<5423009",
"41516,216,5,<1,<531<<615321<265,4442,<,45531363,1<6<44,6<3<35<12",
"39r7e0764425455<1<165<566432<2,642155643<<5<3,1qq80q8e0r146<3,23",
"622,1512,4,21235322rq086356556422<36,322513416<22,62,4536<1234,1",
"1<1,443655542<<,,<3232294<3,1<32,2261141<6531<2<21563316,,<521<2",
"<434<,5,4141,23132<54265<3,64<4133,56315,4324<552,,<4<6,<,,,<,64",
"=*:*-;=*-;=----%>:-%>;%;&;=%*-=;==+XX@X+#X.;;=%&%%;*=*=%-**&=**;",
"<,14463<33,3<5<1365116333523556<4;%;+o+O.O&=433413<622<64<6255<,",
"0we0rwqwrq72<1<613<,,<3652<3<<556<<-=$+o+>=2666,13464,61<236,ww9",
"646514,42,ewq15251,151<5122,15624512>-;%==3,2<242<548rwqw7789934",
"5<62,52,61,16988<4<,25<1<65<14616<,416-4144<4154,w7eq65<3,5<13<4",
"9ww0e0qq,5526,507r,6,43115<22216516, 531,35<222,873<2538087q8qw9",
",3<,<250qw7624,51ww97164,66rw<15,<55 434216,534,2534wwe041<555<4",
"64654<<1,2e8r<<64543512552<,ew743<65 4<,5,4<<1152197q1<6,644<222",
"8rqrr<6316<<80,234<<234<3<6556089qr0  ,1534<12642<36<561,,1re87r",
"2<25353261243<2513<16325,,,3,56<<2, t 4<12<,436122564<66,151,5<3",
"&-&;-=;&;&%>::*:;:-==-;;;::->:&%*&& tt  &;&:%&;-=;;>>%>;;-%-;:%:",
"553<1461334<<143,4345,,w6115553,333 tttt 3142254614<,,3<233<5,64",
"ewr987w131,6,6526<0,,54w4,254988rww ttttt <<3<5<462<1,113<661598",
",526,633<1,52<22<0e1235e,650r9654  ttttttt 224226114<<44355wwqr,",
"<1635157wr7rqeq79w2<549<61w8,6342 tttttttt 64,522,,rq<5216w<<62<",
"451<<qw,4366655,61441w,<80r<246<6 tttttttt 332<663q925,1qw211,45",
"364,07<4,15441,25,1e761ww66<33rr74 tttttt q645<,q83,1,4r833,2244",
"66<we<446336623<<09<<277564<0w8411 tttttt 2543r9r521,2r41<<<,,46",
"622r2,<,55<35<23<426,66126680643<5, tttt 0rw7w25654156<63,1<,646",
"362233<6=>;*&&-*:,43616,4<1616,,6566    <66<,5116,,,111<5<3,,162",
"=%**-::&;$$O@oX#%>:%*&=**-*-*%*%>-%:*&&;=*>%&=::-;;->%->:&==&&;&",
"22,44164>>--&%:->36<<53114513<2231<<6163<1556<<1325,,2<453424,<4",
"325841,653115<425,6<<,335<,513,63,2352361,44,56,1,3,6412,353,353",
",,795<,142565,311554146,r6,<33,22451qe0r88qwq8r4,6<,24136r11<4<4",
"68r<66,<3,52613643331307<,4122<2<70851,4315122rw096<,16450r,3622",
"qw55654,563214,<256<0r53362,426qq346,<25<7rw26<34 ww245444q<,178",
"321,16344553413,65q08,216<116<78<3536<2144<1e7833 3q8132<54q8r02",
"<<,13,<343,45<2w9782,<<5<42<1e2,2313<1032,r626r33  26<,5<13236<5",
"6w8r8r80r8e890r71,,542<1<3,2w24325<6<<rew,1<30e1 t 61,,66421,414",
"2222<<526,2<3623<,,613215423<<31<56521<1rrr0qw25 tt 6365<62323<2",
"-=-*=;:%>=>;:;%=:=;=-%;-:=%*&>>%;:-*&&-==*&->=%& ttt >&>:&&=-%;%",
"4413<5515325,5,46<13<<21<3411,6<22<453666,,352<3 ttt 2133435<344",
"1245,4,,2235161,311,,26<451351233,2143<35121,16, ttt 245663,4235",
"&;623,80wq454<64<6,884655553211265310rw091,,,5,54 tt 2,136,36,->",
"36,,57w2,w76,442656<<r0wwwrqw718rrwwr,12q8q721511r  4<56528r02,6",
"1<4ww55<5,ww<256334,3124<,424w061114,4131<2887q1<,wwq31,3465wwq1",
",465,<54<5287<4663,26,55,,6<,11245263<1532<526ww,6,1w444<3,3,36<",
"651262,552336646451<4<4444<6<14163<<644432,23251424165444<5,23,6",
"6,2,25<513114<3554<             5<25665542<332536653,541,3,6,<34",
"*->--%=-%**%:=>    ttttttttttttt             &;:-:%;%=;%&-=%*>>&",
"46<,1<3415625  tttttttttttttttttttttttttttttt               2322",
"53<12reeq65  tttttt     tttttttttttttttttttttttttttttttttttt 2<6",
"<<,0r3,42q ttttttttttttt tttttttttttttttttttttttttttttttttttt 31",
"4w0654454 ttttttttttttttt   tttttttttttt      ttttttttttttttt 42",
"3,51161w ttttttttttttttttttttttttttttt  tttttt  ttttttttttttt 54",
"6514426q ttttttttttttttttttttttttttttttttttttttt  ttttttttttt 4,",
"<1651412 tttttttttttttttttttttttttttttttttttttttttttttttttttt 34",
">*==:=*==  ttttttt                     ttttttttttttttttttttt =**",
"121632<<545   tt       421,3113524<4,2,            ttttttt  <615",
"41<623<rrre16         ,23rq8er<3615<4561539wrrrq531       rr533,",
"161,23161<,7r6532<524,22414<5003436,11562<<113<w<,5rq24446<rr,5<"
};
