/* XPM */
static char *result[] = {
/* columns rows colors chars-per-pixel */
"64 64 47 1 ",
"  c black",
". c #010000",
"X c #000100",
"o c #010100",
"O c #000001",
"+ c #010001",
"@ c #000101",
"# c #3C240E",
"$ c #3D240E",
"% c #3C250E",
"& c #3D250E",
"* c #3C240F",
"= c #3D240F",
"- c #3C250F",
"; c #3D250F",
": c #6C421E",
"> c #6D421E",
", c #6C431E",
"< c #6D431E",
"1 c #6C421F",
"2 c #6D421F",
"3 c #6C431F",
"4 c #6D431F",
"5 c #A46630",
"6 c #A56630",
"7 c #A46730",
"8 c #A56730",
"9 c #A46631",
"0 c #A56631",
"q c #A46731",
"w c #A56731",
"e c #FEA04C",
"r c #FFA04C",
"t c #FEA14C",
"y c #FFA14C",
"u c #FEA04D",
"i c #FFA04D",
"p c #FEA14D",
"a c #FFA14D",
"s c #F4E49C",
"d c #F5E49C",
"f c #F4E59C",
"g c #F5E59C",
"h c #F4E49D",
"j c #F5E49D",
"k c #F4E59D",
"l c #F5E59D",
/* pixels */
"67w769905q09aau9qq7w990q67q0waia967q9960q766765ai055ui988985iitq",
"9q089766q5w80qpirq760ai9w7w6585pa6060750567qw987ii856ia8w9675w58",
"8777q850q9689707iiuiay7860009q8897q65q70qq5q7w88w7q959866q697805",
"4>>121<>32<<:1>:<21>12141<>4<2>>,3:141:2<,242,3<><>234,2<,3<21,2",
"957qq7070qq5w9q898w95757668q96755q555ww9q8006q9q65q8wq65807906q5",
"9wwe97587677aurayuiaiyetteieq5750w97w985qqqwqwq55w9697w9rritiepr",
"rpye76q7876qqw87700999958w8utuau599qw9896qw7qqqw9w88w9859805w9ip",
"6w6q5w9q8qw967wq09q70q77088wqw5qwww6w0q7900807w80q0959876q089yyt",
"0qq7w587w5q56756q9766w7q98768wq500085650qq579w9575w6005w696qq678",
"9taeayew008q0qq6767wq6qww098685ww879qw0966q6957uuryurpya70w69589",
"w8857q78505778qq988auyrw9qwq7w08869w5988q7905w6885w850q9w6789057",
"q675009wqqq086675698908t06957698588w77076wq9768587qw997w556q8768",
"609w65q507075897986q08wq695w0607995qw98q509806qq855606w5555565w0",
"<,3,12<,12>1111:431:42:2>2<:,1<2<<*$$=$*-$#22<>>::2,<,<:1,,><,,2",
"65700w9699596q675wq77w999q89qqw602:2*%*&#&><0990796w886w06w87q65",
"yipaaiuiaue867607965969wq86966qqw663<;*%*4<8www5790w05w7689w5iit",
"w0qq705085piu7w8q757q76q78857qw80q78<12:<<95868086q0raiuieertt90",
"q6w85785w757wtrr6w678q676w7670w7w6907w10700607q05iepuw7695q67960",
"tiiypyuu5qq8w5qyea5w50977q68887wq7w5599759q68885re968qqryreuruit",
"9965687yuuew809q7iite7w05wwai67q56qq709087w5q9058q90iipy076qqq60",
"w0wq066758pra66w0q09q77qq865pre090wq0065q506677q88teu76w58006888",
"iauaa6w97w66ry589066890656wqqwyrtuayte57q90678w0869w6qw7557aprea",
"668q9q98w780968w7967w98q55595q86685w8w06787509w788qq06ww57q75q69",
">1>21<2>2>:433,3231<<122233143>:,>>:4>1<>2>3:>21<2244:4221:123:3",
"qq967087990667095090955iw77qqq959996w066w97088q0w70655w6899675w0",
"piatrei7975w5wq8w6y55q0i058q0trraiireiayq96696q59w86757790qw7qtr",
"5q8w5w99675q86886yp789qp5wqyatwq066876q9w0688088w77066009qqiiui5",
"67w9q7qeiaeaipueti86q0t6w7ir5w908w9qw6qq776805q8855au6q87wi66w86",
"0q766ui509wwwqq5w7007i56rya680w60riiyryp55w9986ww9ut8q57ui87750q",
"9w05ye6057q00758q57pew7iaww699aae0609850uauw0q65ur95750ar9968805",
"ww6ip6w0w99ww8966yt668eeqw06yui0776076595w8q09ataq8758a07660550w",
"w88a8566qq69q689608w5ww78wwryw096q59quurXX O i8qwq07qw6w95765w0w",
"9w88996w<42,2>1,3509w8w5065wqw55wqww  OOddddsX Ow5557776q6955708",
"<:<,133>4;;&=%$-:<3:,><,,131,:,:    ddgdddgdddddX2214:143><<>>2>",
"885007w04421>:3149w66q97q0q796   ddsdgdgsldddjddd.q55860q9080560",
"98qr976wq977q608q5w66599q0597 Xddjdfhgsgdddjdddsj.95w07859q959q9",
"55etq657w8qwq5977qq0q0w5aw56  djgddjggddghjddggds 658079wa776060",
"wra6ww5695q8wq9w099979ye650 Odjdddddjdddddsdgdgdd w657w0qya59w88",
"uiqqwq05qw9870568qw5yaq99w8 ggsddddjjddddgdhdddgd ii80q000u657er",
"96757w900qq90795w9uyr587w6o ldddgddjdfddfgddddddd 9ur7986q0uryy8",
"665795690950q68iter8566q60 sdjgdsgdddddddhgdsddjdOq8w65q67969w67",
"wiearyryarprtyae759q086789 jjdddddddkddgddjgdddld 6w755ww0875070",
"888866q8w5869w69655w7987q dddjdggsdjdjddshdgdddlg 9ww9wq6w898968",
"1<:,<23,4<4232:<3<2<1:213 dddddddsdddhddddddsddgsd 314>43:><1:2:",
"00796qq7q98q5q50w67966878odsjssdgdfggddsdjdgdsddsd q6879909q0500",
"780q5055889q7w759q7558w6 hjdddssdjdXsggsddd jdddddXXw80qww95089q",
">2w895ryiu0q06w06w5rr0wq.ddlddsdds Xddjsdgs hjdsddd+68579w59w51<",
"9w55qei85iew5008wqw66ayi dsssddddd ddjhsddd dddsjdd 06qwq8rpy85w",
"760iiqw6q5ii68qw9995978Osdsddsdsdf dgddjddgd dddjddO 97590wqiiu7",
"50wq56q66q8rt60ww958w5 Xgddjddddg gdgdjjdhsdOddhdddd 000655959w6",
"wq78w85qq899ww0w0q760 Ohgsdhddjd Xjdjdlddddd.Xsdddjdd@ 006q5895w",
"w5858q6q797  X   X   fdddsdddjdd ddjsgddd  dg  dddddfdX 595w5690",
",1411:<1:,, XdgjdddXgddjddjdfgddddgdjjdg , O d XdddddsdO 1<:,44>",
"0w6576907qw6q  dddjdgddgdsdldsdXoddjdghd 99q dsddddjdddd q078988",
"q9678appuwqq509. gddgjdjdjgsg O5O  dddgd.Oq78  gddddgddd aatp86w",
"665ya9508uaq @  dddgdddddkfd .6rpa ddsdj .06yaO  .hjd  .Xiw8ur9q",
"0iywq00q05yq6 .XOO  djd  . X paa0w XOgdd 9paq00weX .@ q6yaw56i08",
"95q7707i0atw06ew076O    qaipq05w880   ds.py078769p807q557aiq5aq0",
"w97008wuup6w79wq967pairpat86q9855wpar X @r08q58790009qq675667005",
"67wq708868qww77w9590q9aa56q98w5w08067apau695q095w80w04<2>>4w0w00",
"4,<<3<,<<421:3:412>,3324>4<433333,:314>3:4,<:<1142,:4<142<>:><,,",
"787w9866q0qw858q857775q08759779780695858656699965wa0755w507w6w7q",
"076w896aaap7w5678570q6589aurpa89w7q60qw7q9tiaaauq97aaw6597aaq995",
"7w75897w765eawq985q805880706qyy960w577qw8667q96i85qau8006w6aa5q6"
};
