/* XPM */
static char *result[] = {
/* columns rows colors chars-per-pixel */
"64 64 57 1 ",
"  c black",
". c #010000",
"X c #000100",
"o c #010100",
"O c #000001",
"+ c #010001",
"@ c #000101",
"# c #010101",
"$ c #3C240E",
"% c #3D240E",
"& c #3C250E",
"* c #3D250E",
"= c #3C240F",
"- c #3D240F",
"; c #3C250F",
": c #3D250F",
"> c #6C421E",
", c #6D421E",
"< c #6C431E",
"1 c #6D431E",
"2 c #6C421F",
"3 c #6D421F",
"4 c #6C431F",
"5 c #6D431F",
"6 c #A46630",
"7 c #A56630",
"8 c #A46730",
"9 c #A56730",
"0 c #A46631",
"q c #A56631",
"w c #A46731",
"e c #A56731",
"r c #FEA04C",
"t c #FFA04C",
"y c #FEA14C",
"u c #FFA14C",
"i c #FEA04D",
"p c #FFA04D",
"a c #FEA14D",
"s c #FFA14D",
"d c #4D6DF2",
"f c #4D6CF3",
"g c #4C6DF3",
"h c #4D6DF3",
"j c #00B6EE",
"k c #00B7EE",
"l c #01B7EE",
"z c #00B7EF",
"x c #01B7EF",
"c c #F4E49C",
"v c #F5E49C",
"b c #F4E59C",
"n c #F5E59C",
"m c #F4E49D",
"M c #F5E49D",
"N c #F4E59D",
"B c #F5E59D",
/* pixels */
"78e870wq6wq0ssi6w08e007w70weeuss0788007qw89q876spq76ip6970e8spy0",
"0wq90877w6e90wattw87qst0e8e7696as7q7q80q676we098pp967ss8e0q86eq9",
"8w89w96qw07908q8ipiptu8970q00w9908w76w8qwwqw8e99e8w660977w7089q6",
"5,12321,2311>4,>132,43>521,513,,<4>252>31<553<41,1,344<31<5134<5",
"q69ww809qww6wqw909e06868779w078660666ee0e9qq7w0w76w8e8609080q7w6",
"6eet78698788sptsuiputtryyrprw866qe08e096wwwewew66e0708eqttpyprat",
"tauy87w8907wwe98wqq000069e9iyisi600we0907ee8e6we6e99e0960976e6pa",
"7e7w6eqw9we078wwq0w8qw88q89ww96weee8eqw80e69q8e9qwq000989wq90suy",
"0w08e799e8w67867w0w77e8wq9w79ew6qqq9870qww680e0686e7qq6e707ww78e",
"0yprsureqq9w7ww7979ew7wee709786ee960we0q77w9668iituptaus87e70690",
"09969w996e6889ww099siute6wew8eq9970e609908006e6986e96qw0e78ewq68",
"w786qq6wwwwq9q7667090q9yq7068709699e88q87ew6878698wq008e666w9879",
"0q0e76w6q9qw690w696e09ee706eq7q8006we09w6q09q7ww9677e7e6666678eq",
"1<4<231<23,2222>542>5,>313<><21311=%%%%=;%%331,,>>3<1>1>2<111<<3",
"768qqe070060qw786ew89e000890w0e7q3>3=&=*$*,1q00q806e997eq7w99w76",
"usasspiisire987q8070060ew97077wwe7741:=&;5199ee680qew6e879qe6ppr",
"eeww966796ypi8e7w868w87w8996www9qw89<23>11w6979q87wqtppiprrtyy0q",
"w7e76696e968erutee788w767e878098e70q8e2q8qq7q8wq6praie87w6w78067",
"uppupuii6ww9e6wyrs6e6e088w79998ew9e6608860979996tr099wwtutritipy",
"00q0798uiire90qw8spyr8eq6eesp7ew67w880qq98e6w0q69w67ppauq87ww87q",
"eqe0q77869yts67e7eq6688ww978atrq00ewq776w807788w89yri77q79qq7999",
"psiss7ew8e77ta0e0qq790q7877wwwutyisuyr68eqq789e7970e7wew068satrs",
"779w0w69e89qq99q8878e09w666w6w97796e9eq78986q0e699wwq7ee68w86w70",
",2,3213,3,>544<43441<23334425<,><   O.21>3,4>,3213355>5232>234>4",
"w0078q980qq778qw6q0q066te88wwwOOX vvvv @O X 99wew8q767wq9007669q",
"yisyurp8086e6ee9e6u66wqpq69wqXnvvnvvvvvvnMvOXo 60e978688qq0e8wyt",
"0w9e6e00786w97997ua876ws6ewu cvvvvvvvnbvvnvMBMv . 679qqq0wwpsip6",
"78e0w8erpsrspairyp97wqy7e8p  nvvvvvcvnvvncvvMbvvcv si78e8ep77e77",
"qe877ip6q0eeeww8e8qq6p67tys vvnvcvvbvvvv   MvMvnvvMo9w68it9896qe",
"0eq6ur7q88eqq869w08arewpse ncv+ X .vnvc  h.  vcvvvM@86qsi00799q0",
"e87pa7qqeqq999777uy779yrwe nvn dh .XvvvXhhhhX+ncvcv 6esq877e86q9",
"e99s9677ww70w790qq9e6ee689 vvM hhhh BMvOgjkhh OMncm.8e7e068q69qe",
"0e99007915,>,,4<46qweqe6q7 vvv flkk@nvv jkkklk vbvv 8887w70669q7",
">,1<244,4:;*-&%;>14><,1<<2 vbNXkkkk vcv kkjkkk  vvv 5>254,11,33,",
"990qq8wq5532,>4240e70w08wXOMvv kx jXnvv@kkz kjk vv 6697qw0q7q67q",
"qwwt087ew08887q9w6e778000OMvM. kk   cvMOkkk .k  vv 6eq8980w060w0",
"66tye76897wew6088w0qwqe6sXvcv kl  n vvv kzkOvX.vvv 69q80es887q7q",
"eru7ee670609e00eq00080ur7Ovvv #XOvvvvbv    Xnn vmv 766eqwus60e98",
"ipwwewq00e098q67ewe8usw00 MMMMvMcvMcvBvvvvMvvnMvvnOp97wqqqr768rt",
"07868e0qqw807866e0iut698X.vnMnvvMvvvvcvvcMvvnvvvvv pt8697w7ituu9",
"770w067qq06qw79psrt9697wOvcvcvccvvbvcnMvvBcMvcnvvv 9e76e78076e78",
"epastutustytyusr8608q878 vvvMMvnvMBvvBvvcncMvncvcvOe866ee0986q8q",
"999977w9q6970e7q968e8098 MMnvvMvvvvvnvvnnvvMnMvnBM ee0ew7e9q9079",
"21><134<<15345>14,212>3XvnMvvvMnMvnvnvMvnccvvvvmvvo435,54>,12>3>",
"7q807ww6w09w6w6qe780779XnvvvnvvvvvvnnvvvvvvvvcvMnM  79900q0w06eq",
"69qw6766890w8e860w8679XvvBvvcnvMvvvcvvMvvnMnvvvvvvv  9qwee06q90w",
"13e906typiewq7eq7e6tt  vvvcvvO   #vvmnvMvvBvvvvcBvvcX.68we6we621",
"8e068ia96pre6qq9ew97q ncvcv  y8ps vNvvvvcvMn  MvvvMvb Oew9tau90e",
"870spwwqw6pp79eew006 @vvc o9qpu78 vvvnMmncOXt @ vcmvcv  0qewppa8",
"60ew67w77weiy9qwe96  MMv Xe76ww98w MvvvvvO w99po Mvvnvv q660q0e9",
"ew89e96w8e00eeqeqw vvnv  06e7878e0. vvNv  6909w8 .vvcnn q7w6906e",
"e696987w8088q708wq vvv  e78qw076w79 Ov   97069w0eOcvbvn 606q660q",
"<>522>12<<<>4,5,15 MvOO31>3,,5,23533 @ 3,<>52,3344.MMbv ,21><55,",
"qe66870q8we7e96979@  978w876223<356q6e07e0008e06w9  cvv@8wew9099",
"ww789saaieww6707we0w6809ww7q6w8698q87069898890e7997O O  wssya97e",
"q76ts06q9isw76996q6weq086890867trsiups08wwq8ussus0wweqeespe9ip0w",
"qpu88qqw76uw7wqusspse600q80euasaqe8q7aq670aswqeery706qw6uue67pq8",
"06w88q8pqsyeq7req67se9078spawq6e99qw67q7eauq89870s9q8w669spw6uwq",
"e08qq99iia7080ew089auptauy97w09669ast8996rq9w69907qe0ww786678ee6",
"78ew8q999ewee88e060qw0ss67w0ee6qe9q78sasiq06eeq6q9qeq513,,5eqeq7",
"5>1<21<11532<4>523><4431151542424<>425,4>5<1<12213<>512531,>>1<<",
"898q0877eqwe969we68866wq9w6098689q760969767700076es0866w6q8e7e8w",
"q87e907sspa8e679978qw7690uitas90e8077we8w0yptsupw09sse7609sse006",
"8e86808e676rsew0eww9q66908q90uu07qe6w80e9778w09p96esi9e77e7ss8w7"
};
