/* XPM */
static char *result[] = {
/* columns rows colors chars-per-pixel */
"64 64 51 1 ",
"  c black",
". c #010000",
"X c #000100",
"o c #010100",
"O c #000001",
"+ c #010001",
"@ c #000101",
"# c #010101",
"$ c #3C240E",
"% c #3D240E",
"& c #3C250E",
"* c #3D250E",
"= c #3C240F",
"- c #3D240F",
"; c #3C250F",
": c #3D250F",
"> c #6C421E",
", c #6D421E",
"< c #6C431E",
"1 c #6D431E",
"2 c #6C421F",
"3 c #6D421F",
"4 c #6C431F",
"5 c #6D431F",
"6 c #A46630",
"7 c #A56630",
"8 c #A46730",
"9 c #A56730",
"0 c #A46631",
"q c #A56631",
"w c #A46731",
"e c #A56731",
"r c #FEA04C",
"t c #FFA04C",
"y c #FEA14C",
"u c #FFA14C",
"i c #FEA04D",
"p c #FFA04D",
"a c #FEA14D",
"s c #FFA14D",
"d c #00B7EE",
"f c #00B6EF",
"g c #00B7EF",
"h c #01B7EF",
"j c #F4E49C",
"k c #F5E49C",
"l c #F4E59C",
"z c #F5E59C",
"x c #F4E49D",
"c c #F5E49D",
"v c #F5E59D",
/* pixels */
"78e8700q8wq0ssi0we8e00qw78wqesps078w007qw877876spq66ip099096ppyw",
"0wq90877w6e8qwaptw87qsp0e8e7696as7q7q96q668we098pp867ps9e0786e69",
"9888w96qw07908q8ppipsu997qqq0w9908w76w8qww6w8e98e8w060977w7089q6",
"5,,2321,4351>3,>13>,232521,513,,<4>212>31<353<41,1,345<35<4132<3",
"068ww8q8qww6e0w909e06868979w0q866w666ee0w9qq7w0w70w9ew769q80q7w6",
"0eer086e8788uirsu  Xpuyyyrprw686qe08e0.  wwewew66e07  Owttpyprat",
"taur87w8987wwe9  kzc #069e9iyisi600we kkk e8wwwe0e9Ockk 09q6e0pa",
"7e7w6e0w9we078e zkkkj.88q99ewe6weee7Xkkzkk 9q8e9qwOkkkjj wq90uuy",
"q8w8e698e6w678 kkkkckk w09879ew6qqq9 cjkkk.80e0687Okkkkk 070w789",
"0ysraureqq9wqw@kjkkkkcXeeq09796eq98w kkkkk 7068iit kcjkkOqe70690",
"e9968w896q6989 kkkkkkk e0wewweq9970e kkkkk q8e7996ojkkkk 7890q68",
"8786qq0ewwwq977 zkkkko9yq7068709699eOkkkkcX0879798 kkkkk 67w9879",
"7q0q76w6q8q8690  klk  ew706eq7q8006we.czkO09q7ww966 ckk 766676eq",
"1<4<231<2312222>5   53>3,31><21311=%%-.@ %$331>,>>3<O o>2<<,1<<3",
"768qqe0700607w780ew88e000X Xwwe7q3>3=&=*$*,1q00q807e997eq7e9ww76",
"upauspipsir9787e8076670e.kkko7wwe7721:=&=519eXX#80qeq6e8790e6ppy",
"eqew8q6q96api8w9w868w87wOkck we9qw89523>1106.czk 7wqtspiprrtyy0q",
"w7e96w96e868eytt7q769w78 kkkXqe8e76q8e2q8qq@kkkkk raiew706w7807q",
"yppuauii6ww9e6wurs6e6q088 O 998ew8e66w0860w kjkkj 079w0tutritipy",
"607679wuipre9q6w8ppyr8eq6eesp78w67wwwq0q98e ckkjkO0qppauq87www7q",
"eqewq77869ats77eqwq0w89ww976aprq07ewqq76w6q7 kjk.8yri87e6eqq7999",
"tsiss7e08e77tu690q7790q70   weutyi+O r68w0  Xj O970e7we8668satrs",
"979w0w09e89q079w807  X9w6 c  we77# k eq7O  zjk 899weq7ee68w86w70",
",2,3213,3,>544<434  kO 3 .ckX4,X  kk  .  kkkkk  13355>5332>234>4",
"ww078qe800q778q06 Okkk   kkk.   kkkkkczkkkckzkO O q766079007w6eq",
"apsytrp8086e6ew9e kkjkckkkkklkkkkkkjkkkkkkzkzkkkk .7868807ee8wyt",
"6w9e6e00786w97997 jcckkjkkjkzkzkkkjkkkkkkkkkkckzk 8q77qq0wwppis6",
"78e0w8wrpsrsiairy kkkkkzzkkkkkckkkkkzzjkckkzkkkkkO6si7w98ep77e97",
"qw877ip6q0eeeww6e kkckkkzkkkkkzkkkkkckkckkjkkjkkj+iy9w68ip9886qw",
"0eq6ur7q68wqq869w kkkkkkkckkkkkjkkkxckjkkckkkckjzOO686qst00699qq",
"ee7pa7qqe00ee9077 XckkkkkkkkkkkkkkkkkkkkO. jkzckzk 869sq877766qe",
"e99s9676ww70w7907q  zkkckkkjkkkkkkkkkjk dggXkkkkkk  we7e06876eqe",
"0e99007e153<,,2<46q+ kckkkc   kkkkcczk ggggg kckkck 8887w70668e9",
"1><<244,3::*-&%;>54> kkkk  dhg  kkckx ggggggg kjkkkk >254,11,,3,",
"996qq8eq5522,>4250e7 jkjc ggggg kkkkk ggghggg kkkkkk 97qw0q9q67q",
"09wtq86ew088w7q9w6e7.jkk ggggggf kkkz ggggdgf kkklkk q8960w060w0",
"66ryw768q9wew6088w @kkkj dgggggg kkjk.fggggggXkkkckk q80es887q7q",
"ets7ee6706w9e80eq  kkkck gdggggg kkkz ggggggg.czzvkz 8eqwus60e99",
"ipwwewq6we098q679 kckkkck ggggg kkkccv ggggg ckkkjk  qwqqqi768rt",
"09868e0qqww0q806e kkkkkzz  ggg okckkkkj gggOkkkkkk Xt8097wqitsu9",
"77680670q06qw79py jkkkkkcjk   kccjkkkkkk   ckkkkk  9e76w78090e7w",
"eptststustatyusr8 kkkkkkkkkkkjkjkkkkkkjkkzkkkkvk O7e866eeq986q8q",
"999977w9e6970e907  kkkkkkkkjjkkzkzkkkkkkkkkkkkkjOq0ee0ew7e909079",
"212<134>515343>141 jzkkkkjckkkkkkkkkxkkkkkkjkkkk >,425,54,,12>3>",
"qq807ww8w09w6w6qe78  kkkkkkkkkkjkkjkzkkkkkkkjkkc 90w79800q0w70qq",
"89qw6q66990w8e8608866OkkkkkkkkkkkkckkjkkkkkckkkzO98qe9qwee06q90w",
",3e906tupiqwq7eq7e6ttqXkzzkjkkkkkkkkckkkkkkkckkkO 0679680e60e625",
"0e66wrp96pre6qq9ewe77sOkkkj    kkkO  kckk  OOkckk y6q7wew9tsu96e",
"87qppww7w6pp79we00q608 xkkOOqp kkO qX kkkO9t  ckkkOpi0860qewppi8",
"6qew67wq7w9tr7qee069e.jkkk 768 kk 9e0 kk X7w9 kkkk+8pqqq706060e7",
"ew89e96ww900eeqeqw87q jkz  e78 v 077e kkX96909.kkkX8ewqqq7w6906e",
"e6969w7w8088q70wwq7q0+kkk 6qw0  w79weXkk.97009     06wq8606e670q",
"<2522>12><<>415,15<1> kkk 3,,5>235332 kv <>5>,3424>3>13>,21><55,",
"qe76870q8we9w96979qw7  k+ 70223<31686X.  00w8e06w95>359w9wq89099",
"w0789saaieww0q07we0008O  w7q6w7698q870  w9w890e7997e6wq6wssya97e",
"776us06q9isw76986q7weq0w7890w67tassyps08wwq7ussus0w8eqeespe9ir08",
"qpuewqqwq6uw7wqssssse6q0780euassqe8q7rq670aswqqery706qw7use66pq9",
"06w88e8pqsyeq7req87se907wspawq6e99qw07e6eauq89870a9q9w668ssw6swq",
"ew8qq9eiia7e80ew098asptasy97w0966east8e96tq9w69800qq0ww786678qq6",
"78ew8q8979wee889060q00ss67w09e6eq9q78sasp706wq0699qeq515,,5eqe0q",
"5<1141<11532>4>523,<4435,51544444<>425,4>5<1>12253<>5125313>11<<",
"898e0977wqwe969w968686wq9860880w9q7q6969767700076esq86696q8e7e8w",
"q87e907sssa8e678968qw7690sitas70e8w7qwe8w0ypsssiw08sse7608ssw006",
"8e86908e876rsew097w9q699q8q7wuu0q0e688we9778807p76wsi9qqqe7ss6w7"
};
