/* XPM */
static char *result[] = {
/* columns rows colors chars-per-pixel */
"64 64 54 1 ",
"  c black",
". c #010000",
"X c #000100",
"o c #010100",
"O c #000001",
"+ c #010001",
"@ c #000101",
"# c #010101",
"$ c #3C240E",
"% c #3D240E",
"& c #3C250E",
"* c #3D250E",
"= c #3C240F",
"- c #3D240F",
"; c #3C250F",
": c #3D250F",
"> c #6C421E",
", c #6D421E",
"< c #6C431E",
"1 c #6D431E",
"2 c #6C421F",
"3 c #6D421F",
"4 c #6C431F",
"5 c #6D431F",
"6 c #A46630",
"7 c #A56630",
"8 c #A46730",
"9 c #A56730",
"0 c #A46631",
"q c #A56631",
"w c #A46731",
"e c #A56731",
"r c #FEA04C",
"t c #FFA04C",
"y c #FEA14C",
"u c #FFA14C",
"i c #FEA04D",
"p c #FFA04D",
"a c #FEA14D",
"s c #FFA14D",
"d c #00B6EE",
"f c #00B7EE",
"g c #01B7EE",
"h c #00B6EF",
"j c #00B7EF",
"k c #01B7EF",
"l c #F4E49C",
"z c #F5E49C",
"x c #F4E59C",
"c c #F5E59C",
"v c #F4E49D",
"b c #F5E49D",
"n c #F4E59D",
"m c #F5E59D",
/* pixels */
"78e8700q8wq0ssi0we8e00qw78wqesps078w007qw877876spq66ip099096ppyw",
"0wq90877w6e8qwaptw87qsp0e8e7696as7q7q96q668we098pp867ps9e0786e69",
"9888w96qw07908q8ppipsu997qqq0w9908w76w8qww6w8e98e8w060977w7089q6",
"5,,2321,4351>3,>13>,232521,513,,<4>212>31<353<41,1,345<35<4132<3",
"068ww8q8qww6e0w909e06868979w0q866w666ee0w9qq7w0w70w9ew769q80q7w6",
"0eer086e8788uirsuipspuyyyrprw686qe08e096wwwewew66e0708ewttpyprat",
"taur87w8987wwe988qq0q0069e9iyisi600we0907we8wwwe0e99e09609q6e0pa",
"7e7w6e0w9we078ewq0w8qw88q99ewe6weee7eqw80qq9q8e9qwq060987wq90uuy",
"q8w8e698e6w67867w0877e8w09879ew6qqq9676qww080e0687e7qq6e7070w789",
"0ysraureqq9wqww7878ew7weeq09796eq98wweq077w7068iituitaus8qe70690",
"e9968w896q69890w099siute0wewweq9970e6099w80q8e7996e96qw0e7890q68",
"8786qq0ewwwq97766709099yq7068709699e88q87ew0879798we008e667w9879",
"7q0q76w6q8q86908097wq9ew706eq7q8006we08w6q09q7ww9667q7e6766676eq",
"1<4<231<2312222>542>53>3,31><21311=%%-%=;%$331>,>>3<1<1>2<<,1<<3",
"768qqe0700607w7  .++ e000w90wwe7q3>3=&=*$*,1q00q807e997eq7e9ww76",
"upauspipsir978O zzzbz+0ew97077wwe7721:OX=519ee. 80qeq6e8790e6ppy",
"eqew8q6q96api8OzzzzzxzOw89968we9qw8952XX 106+X  XXwqtspiprrtyy0q",
"w7e96w96e868eyOzlzzzz. 87ew78qe8e76q8  boqq zzzcb raiew706w7807q",
"yppuauii6ww9e6+ zczzb@088w  O .ew8e66.zz  wOXzzzz #79w0tutritipy",
"607679wuipre9q6@ zzvz.eq  zzzz w67www bz 8e6Xzzzcz qppauq87www7q",
"eqewq77869ats77XOzzc.89w zvzvX q07ew  cbX6q OzzlzOyri87e6eqq7999",
"tsiss7e08e77tu6  Ozc  q7X znXeut   u+zbb 0  zczzO70e7we8668satrs",
"979w0w09e89q079w @+cz Xw6XzbOOeozz XOzzz   zzzz 99weq7ee68w86w70",
",2,3213,3,>544<434.#zzO XXzzz...zlzzzzb   zzzxc 13355>5332>234>4",
"ww078qe800q778q06q0  zzzzbzllzzzzczzzzzzzblzzzboe8q766079007w6eq",
"apsytrp8086e6ew9e7u. lzzczczzzzbbzzzzczzzlzzzbzO e97868807ee8wyt",
"6w9e6e00786w97997ua8XzzzbzlzzzlxlczvlzbzlzbcvczzO 8q77qq0wwppis6",
"78e0w8wrpsrsiairyp9 Oczczzzzzbzzzxcczzzzbzxmzczbl 6si7w98ep77e97",
"qw877ip6q0eeeww6e8qOzczvzzzbzzzczczzlzzlzzlzbzzzzz y9w68ip9886qw",
"0eq6ur7q68wqq869w68 bzzzzzcczzzzczzzllclzlzlzzzczv.686qst00699qq",
"ee7pa7qqe00ee9077uy.zzzczvzzlzzzmzzzzcb    .zzzzzzO869sq877766qe",
"e99s9676ww70w7907q9 zbclzzbblbzxzzzczz jjkjj zzlzX 8we7e06876eqe",
"0e99007e153<,,2<46 zzzzzbzvzzvzzzzzzz kkkjjjjXczzX668887w70668e9",
"1><<244,3::*-&%;>5Xzzbzzblczxzzzczzz.djfjfkjjkozz@325>254,11,,3,",
"996qq8eq5522,>425Ozczzlzzzzl.O lcxzz jjfjjjkjg mz w6697qw0q9q67q",
"09wtq86ew088w7q9w@bzcclzzzz jjkXzbbz.jjhjjhhfj zz#06eq8960w060w0",
"66ryw768q9wew6088 zmzbxzzzOjfjjjXzzb.fkjjfjjhj.bc 769q80es887q7q",
"ets7ee6706w9e80eq zzlbzzzbXjfjjj cxz+jjhgjfhjj zlXe768eqwus60e99",
"ipwwewq6we098q679 mzcczzzz jjjdjOzzllOjkjfjjj czz pp9qwqqqi768rt",
"09868e0qqww0q806eObzclczzzz jjf zbzvzz jjdjj.czzc 0it8097wqitsu9",
"77680670q06qw79py cxzclzzccl . cblcbzxz.   Xzzzzz w9e76w78090e7w",
"eptststustatyusr8 zbzzcczzlzzlzlzzzlzzzczzzzbzlz@+7e866eeq986q8q",
"999977w9e6970e907ObzzzlzzzzzczzzzvzzzzzzczzllzbO q0ee0ew7e909079",
"212<134>515343>14 czzzzzczmzczzzlvzzzzzlzzzzzbb.5>,425,54,,12>3>",
"qq807ww8w09w6w6qeXzlzzzmlzlzzzbzbzzzcxzzlzzbzzzX690w79800q0w70qq",
"89qw6q66990w8e860.zzzlbzzczbzczbzzlzzzzzzzbbzzz 798qe9qwee06q90w",
",3e906tupiqwq7eq7.@vzzzzcczcczzzznbzclxzzbzzlzc qq0679680e60e625",
"0e66wrp96pre6qq9ew zzzczO O zzbzlzX@.Xzzz +. b.O8sy6q7wew9tsu96e",
"87qppww7w6pp79we00q .lz. 6q+  X @  q6  cO 9t X.876ppi0860qewppi8",
"6qew67wq7w9tr7qee069@XX 66e76889qw9e07  O97w9epp6e68pqqq706060e7",
"ew89e96ww900eeqeqw87q7qqqq7e78q8e077eqqq096909w8q9q8ewqqq7w6906e",
"e6969w7w8088q70wwq7q0q87e76qw078w79weewwq97009w0eew06wq8606e670q",
"<2522>12><<>415,15<1>4>21>3,,5>235332>135<>5>,3424>3>13>,21><55,",
"qe76870q8we9w96979qw79q8w870223<31686e6q900w8e06w95>359w9wq89099",
"w0789saaieww0q07we000809ww7q6w7698q87069w9w890e7997e6wq6wssya97e",
"776us06q9isw76986q7weq0w7890w67tassyps08wwq7ussus0w8eqeespe9ir08",
"qpuewqqwq6uw7wqssssse6q0780euassqe8q7rq670aswqqery706qw7use66pq9",
"06w88e8pqsyeq7req87se907wspawq6e99qw07e6eauq89870a9q9w668ssw6swq",
"ew8qq9eiia7e80ew098asptasy97w0966east8e96tq9w69800qq0ww786678qq6",
"78ew8q8979wee889060q00ss67w09e6eq9q78sasp706wq0699qeq515,,5eqe0q",
"5<1141<11532>4>523,<4435,51544444<>425,4>5<1>12253<>5125313>11<<",
"898e0977wqwe969w968686wq9860880w9q7q6969767700076esq86696q8e7e8w",
"q87e907sssa8e678968qw7690sitas70e8w7qwe8w0ypsssiw08sse7608ssw006",
"8e86908e876rsew097w9q699q8q7wuu0q0e688we9778807p76wsi9qqqe7ss6w7"
};
