/* XPM */
static char *result[] = {
/* columns rows colors chars-per-pixel */
"64 64 36 1 ",
"  c black",
". c #3C240E",
"X c #3D240E",
"o c #3C250E",
"O c #3D250E",
"+ c #3C240F",
"@ c #3D240F",
"# c #3C250F",
"$ c #3D250F",
"% c #6C421E",
"& c #6D421E",
"* c #6C431E",
"= c #6D431E",
"- c #6C421F",
"; c #6D421F",
": c #6C431F",
"> c #6D431F",
", c #A46630",
"< c #A56630",
"1 c #A46730",
"2 c #A56730",
"3 c #A46631",
"4 c #A56631",
"5 c #A46731",
"6 c #A56731",
"7 c #FEA04C",
"8 c #FFA04C",
"9 c #FEA14C",
"0 c #FFA14C",
"q c #FEA04D",
"w c #FFA04D",
"e c #FEA14D",
"r c #FFA14D",
"t c #4D6DF3",
"y c #00B7EF",
"u c #F5E49C",
/* pixels */
"<161<3341543rrq356163345<1546rwr3<1533<451<<1<,rw4,,qw32232,ww95",
"354231<<5,6145ew851<4rw3616<,2,er<4<42,4,,156321ww1,<wr263<1,6,2",
"211152,453<23141wwqwr022<4443522315<,51455,516216153,32<<5<3124,",
">&&-;-=&:;>=%;&%=;%&-;->-=&>=;&&*:%-=-%;=*;>;*:=&=&;:>*;>*:=;-*;",
"3,155141455,63523263,1,12<25341,,5,,,6635244<535<35265<,24134<5,",
"366731,61<110q7r0qwrw09997w75,1,4631632,5556565,,63<316588w9w7e8",
"8e071<5121<556211443433,262q9qrq,3356323<56155563622632,324,63we",
"<6<5,6352563<16543514511422656,5666<6451344241624543,321<5423009",
"41516,216,5,<1,<531<<615321<265,4442,<,45531363,1<6<44,6<3<35<12",
"39r7e0764425455<1<165<566432<2,642155643<<5<3,1qq80q8e0r146<3,23",
"622,1512,4,21235322rq086356556422<36,322513416<22,62,4536<1234,1",
"1<1,443655542<<,,<3232294<3,1<32,2261141<6531<2<21563316,,<521<2",
"<434<,5,4141,23132<54265<3,64<4133,56315,4324<552,,<4<6,<,,,<,64",
"=*:*-;=*-;=----%>:-%>;%;&;=%*-=;==+XX@X+#X.;;=%&%%;*=*=%-**&=**;",
"<,14463<33,3<5<1365116333523556<4;%;+o+O.O&=433413<622<64<6255<,",
"0we0rwqwrq72<1<613<,,<3652<3<<556<<-=$+o+>=2666,13464,61<236,ww9",
"646514,42,ewq15251,151<5122,15624512>-;%==3,2<242<548rwqw7789934",
"5<62,52,61,16988<4<,25<1<65<14616<,416-4144<4154,w7eq65<3,5<13<4",
"9ww0e0qq,5526,507r,6,43115<22216516,,531,35<222,873<2538087q8qw9",
",3<,<250qw7624,51ww97164,66rw<15,<555434216,534,2534wwe041<555<4",
"64654<<1,2e8r<<64543512552<,ew743<654 <,5,4<<1152197q1<6,644<222",
"8rqrr<6316<<80,234<<234<3<65         u 1534<12642<36<561,,1re87r",
"2<25353261243<2513<16325,,  uuuuuuuuuuu 12<,4   22564<66,151,5<3",
"&-&;-=;&;&%>::*:;:-==-    uuuuuuuuuuuuuu ;   uuu ;;>>%>;;-%-;:%:",
"553<1461334<<143,4345 uuuuuuuuuuuuuuuuuuu uuuuuu 14<,,3<233<5,64",
"ewr987w131,6,6526<0  uuuuuuuuuuuuuuuuuuuuuuuuuuu 62<1,113<661598",
",526,633<1,52<22<0 uuuuuuuuuuuuuuuuuuuuuuuuuuuuuu 14<<44355wwqr,",
"<1635157wr7rqeq79w uuuuuuuuuuuuuuuuuuuuuuuuuuuuuu ,rq<5216w<<62<",
"451<<qw,4366655,61 uuuuuuuuuuuuuuuuuuuuuuuuuuuuuu q925,1qw211,45",
"364,07<4,15441,25, uuuuuuuuuuuuuuuuuuuuuuuuuuuuuu 3,1,4r833,2244",
"66<we<446336623<<0 uuuuuuuuuuuuuuuuuuuuuuuuuuuuuu 21,2r41<<<,,46",
"622r2,<,55<35<23<4 uuuuuuuuuuuuuuuuuuuuuuuuuuuuuu 4156<63,1<,646",
"362233<6=>;*&&-*:, uuuuuuuuuuuuuuuuuuuuuuuuuuuuuuu ,111<5<3,,162",
"=%**-::&;$$O@oX#%> uuuuuuu     uuuuuuuuuuu uuuuuuu ->%->:&==&&;&",
"22,44164>>--&%:->3 uuuuuu ttttt uuuuuuuu   uuuuuuu ,,2<453424,<4",
"325841,653115<425, uuuuuu tyyyt uuuuuuu ttt uuuuuu ,6412,353,353",
",,795<,142565,3115 uuuuuu tyyyyt uuuuuu tyt uuuuuu ,24136r11<4<4",
"68r<66,<3,52613643 uuuuuu tyyyyt uuuuuu tttt uuuuu <,16450r,3622",
"qw55654,563214,<25 uuuuuuu tttt uuuuuuuu     uuuuu w245444q<,178",
"321,16344553413,6 uuuuuuuuu    uuuuuuuuuuuuuuuuuuu q8132<54q8r02",
"<<,13,<343,45<2w9 uuuuuuuuuuuuuuuuuuuuuuuuuuuuuuuu 26<,5<13236<5",
"6w8r8r80r8e890r71 uuuuuuuuuuuuuuuuuuuuuuuuuuuuuuuu 61,,66421,414",
"2222<<526,2<3623< uuuuuuuuuuuuuuuuuuuuuuuuuuuuuuuu 66365<62323<2",
"-=-*=;:%>=>;:;%=: uuuuuuuuuuuuuuuuuuuuuuuuuuuuuuu &:->&>:&&=-%;%",
"4413<5515325,5,46< uuuuuuuuuuuuuuuuuuuuuuuuuuuuu 235<2133435<344",
"1245,4,,2235161,311 uuuuuuuuuuuuuuuuuuuuuuuuuuuu 2146245663,4235",
"&;623,80wq454<64<6, uuuuuuuu   uuuuuuuuuu       443,<2,136,36,->",
"36,,57w2,w76,442656< uuuuuu w71 uuuuuuuu 8q721511r9,4<56528r02,6",
"1<4ww55<5,ww<256334,3 uuuu 24w06 uuuuuuu <2887q1<,wwq31,3465wwq1",
",465,<54<5287<4663,26,    6<,1124  uuu  32<526ww,6,1w444<3,3,36<",
"651262,552336646451<4<4444<6<14163<   4432,23251424165444<5,23,6",
"6,2,25<513114<3554<4341<6<,453<15<25665542<332536653,541,3,6,<34",
"*->--%=-%**%:=>&=>*=%:%-=%;&&>%-;>;;-%=;>*%>%&;:-:%;%=;%&-=%*>>&",
"46<,1<34156252,2<245<24151<3--;*;=,1,6,42335163,52>%;>2525412322",
"53<12reeq655343<5633313255<4,5<,2141<3,25251236<22<6,54,5rr9e2<6",
"<<,0r3,42qr5<,21,4<56435<1235,<8err9wr31554<0rr0r3516466rw62q731",
"4w0654454,05<54rrrrr6,43<1360err4614<74,<3er544679<3,45<0r6,,w42",
"3,51161w4r964<7641<r623<5rwe54,622453<6,6e04121<3e2425,,1rr5,r54",
"6514426qqe<61365321erw8er92<532,,6er8162,8425,213344355<1,,<144,",
"<1651412<25661123,3433rr,<5326,6424<1rerw<3,543,22464>=>&&>64634",
">*==:=*==>;-%:%>-;&*::;>&>=>:::::*%:->&:%>*=%=-->;*%>=->;=;%==**",
"121632<<54562,252,1,1,5421,3113524<4,2,2<,<<333<,6r41,,2,416<615",
"41<623<rrre16,<12,145<,23rq8er<3615<4561539wrrrq531rr6<,31rr533,",
"161,23161<,7r6532<524,22414<5003436,11562<<113<w<,5rq24446<rr,5<"
};
