/* XPM */
static char *result[] = {
/* columns rows colors chars-per-pixel */
"64 64 34 1 ",
"  c black",
". c #3C240E",
"X c #3D240E",
"o c #3C250E",
"O c #3D250E",
"+ c #3C240F",
"@ c #3D240F",
"# c #3C250F",
"$ c #3D250F",
"% c #6C421E",
"& c #6D421E",
"* c #6C431E",
"= c #6D431E",
"- c #6C421F",
"; c #6D421F",
": c #6C431F",
"> c #6D431F",
", c #A46630",
"< c #A56630",
"1 c #A46730",
"2 c #A56730",
"3 c #A46631",
"4 c #A56631",
"5 c #A46731",
"6 c #A56731",
"7 c #FEA04C",
"8 c #FFA04C",
"9 c #FEA14C",
"0 c #FFA14C",
"q c #FEA04D",
"w c #FFA04D",
"e c #FEA14D",
"r c #FFA14D",
"t c #F5E49C",
/* pixels */
"<161<3341543rrq356163345<1546rwr3<1533<451<<1<,rw4,,qw32232,ww95",
"354231<<5,6145ew851<4rw3616<,2,er<4<42,4,,156321ww1,<wr263<1,6,2",
"211152,453<23141wwqwr022<4443522315<,51455,516216153,32<<5<3124,",
">&&-;-=&:;>=%;&%=;%&-;->-=&>=;&&*:%-=-%;=*;>;*:=&=&;:>*;>*:=;-*;",
"3,155141455,63523263,1,12<25341,,5,,,6635244<535<35265<,24134<5,",
"366731,61<110q7r0qwrw09997w75,1,4631632,5556565,,63<316588w9w7e8",
"8e071<5121<556211443433,262q9qrq,3356323<56155563622632,324,63we",
"<6<5,6352563<16543514511422656,5666<6451344241624543,321<5423009",
"41516,216,5,<1,<531<<615321<265,4442,<,45531363,1<6<44,6<3<35<12",
"39r7e0764425455<1<165<566432<2,642155643<<5<3,1qq80q8e0r146<3,23",
"622,1512,4,21235322rq086356556422<36,322513416<22,62,4536<1234,1",
"1<1,443655542<<,,<3232294<3,1<32,2261141<6531<2<21563316,,<521<2",
"<434<,5,4141,23132<54265<3,64<4133,56315,4324<552,,<4<6,<,,,<,64",
"=*:*-;=*-;=----%>:-%>;%;&;=%*-=;==+XX@X+#X.;;=%&%%;*=*=%-**&=**;",
"<,14463<33,3<5<1365116333523556<4;%;+o+O.O&=433413<622<64<6255<,",
"0we0rwqwrq72<1<613<,,<3652<3<<556<<-=$+o+>=2666,13464,61<236,ww9",
"646514,42,ewq15251,151<5122,15624512>-;% =3,2<242<548rwqw7789934",
"5<62,52,61,16988<4<,25<1<65<14616<,416-  44<4154,w7eq65<3,5<13<4",
"9ww0e0qq,5526,507r,6,43115<22 16516,,53  35<222,873 2538087q8qw9",
",3<,<250qw7624,51ww97164,66rw 15,<55543  16,534,25  wwe041<555<4",
"64654<<1,2e8r<<64543512552<,  743<6544 t ,4<<11521  q1<6,644<222",
"8rqrr<6316<<80,234<<234<3<65 t 89qr097 t 34<12642 t <561,,1re87r",
"2<25353261243<2513<16325,,,3 t <<2,62 tt 2<,43612 t 4<66,151,5<3",
"&-&;-=;&;&%>::*:;:-==-;;;::- t %*&&% tttt &:%&;-= t >%>;;-%-;:%:",
"553<1461334<<143,4345,,w6115 tt 3334 tttt 142254 tt ,,3<233<5,64",
"ewr987w131,6,6526<0,,54w4,25 tt rww8 tttt <<3<5< tt 1,113<661598",
",526,633<1,52<22<0e1235e,650 tt 4<< ttttt <2242 ttt <<44355wwqr,",
"<1635157wr7rqeq79w2<549<61w8 tt 263 ttttt <64,5 ttt q<5216w<<62<",
"451<<qw,4366655,61441w,<80r< ttt 8 tttttt 6332 tttt 25,1qw211,45",
"364,07<4,15441,25,1e761ww66< ttt 4 tttttt q64 ttttt 1,4r833,2244",
"66<we<446336623<<09<<277564< tttt ttttttt 254 ttttt ,2r41<<<,,46",
"622r2,<,55<35<23<426,6612668 ttttttttttttt   tttttt 56<63,1<,646",
"362233<6=>;*&&-*:,43616,4<16 tttttttttttttttttttttt 111<5<3,,162",
"=%**-::&;$$O@oX#%>:%*&=**-*- ttttttttttttttttttttt ->%->:&==&&;&",
"22,44164>>--&%:->36<<5311451 ttttttttttttttttttttt ,,2<453424,<4",
"325841,653115<425,6<<,335<, tttttttttttttttttttttt ,6412,353,353",
",,795<,142565,311554146,r6, tttttttttttttttttttttt ,24136r11<4<4",
"68r<66,<3,52613643331307<,4 tttttttttttttttttttttt <,16450r,3622",
"qw55654,563214,<256<0r53362 tttttttttttttttttttttt w245444q<,178",
"321,16344553413,65q08,216<1 tttttttttttttttttttttt q8132<54q8r02",
"<<,13,<343,45<2w9782,<<5<42 ttttttttttttttttttttt 526<,5<13236<5",
"6w8r8r80r8e890r7 ,,542<1<3, ttttttttttttttttttttt <61,,664 1,414",
"2222<<526,2<362 t ,61321542 ttttttttttttttttttttt 36636   t 23<2",
"-=-*=;:%>=>;:; ttt =-%;-:=%* tttttttttttttttttttt &:-> tttt -%;%",
"4413<5515325,5 tttt <<21<341 tttttttttttttttttttt 35< ttttt <344",
"1245,4,,223516 ttttt 26<4513 tttttttttttttttttttt 1  tttttt 4235",
"&;623,80wq454< tttttt 6555532 ttttttttttttttttttt  ttttttt 36,->",
"36,,57w2,w76,4 ttttttt wwwrqw ttttttttttttttttttt tttttttt r02,6",
"1<4ww55<5,ww<25 ttttttt <,424 tttttttttttttttttt tttttttt 65wwq1",
",465,<54<5287<46 ttttttt ,6<, tttttttttttttttttt tttttttt ,3,36<",
"651262,5523366464 ttttttt <6<1 tttttttttttttttt  ttttttt <5,23,6",
"6,2,25<513114<3554   ttttt     tttttttttttttttt ttttttt ,3,6,<34",
"*->--%=-%**%:=    t ttttttttttttttttttttttttt  tttttttt &-=%*>>&",
"46<,1<3415625 tttttt tttttttttttttttttt      t ttttttt    412322",
"53<12reeq655 tttttttt  tttttttttttttttttttttttttttttt tttt 9e2<6",
"<<,0r3,42qr5 tttttttttt tttt   tttttttttttttttttttt  tttttt q731",
"4w0654454,05 tttttttttttttttttt      ttttt     tttttttttttt ,w42",
"3,51161w4r96 tttttttttttttttttttttttttttttttttttttttttttttt ,r54",
"6514426qqe<61 ttttttttttttttttttttttttttttttttttttttttttttt 144,",
"<1651412<25661     ttttttttttttttttttttttttttttttttttttttt 64634",
">*==:=*==>;-%:%>-;&           ttttttttttttttttttttttttt   ;%==**",
"121632<<54562,252,1,1,5421,311                         2,416<615",
"41<623<rrre16,<12,145<,23rq8er<3615<4561539wrrrq531rr6<,31rr533,",
"161,23161<,7r6532<524,22414<5003436,11562<<113<w<,5rq24446<rr,5<"
};
