/* XPM */
static char *result[] = {
/* columns rows colors chars-per-pixel */
"64 64 64 1 ",
"  c black",
". c #010000",
"X c #000100",
"o c #010100",
"O c #000001",
"+ c #010001",
"@ c #000101",
"# c #010101",
"$ c #3C240E",
"% c #3D240E",
"& c #3C250E",
"* c #3D250E",
"= c #3C240F",
"- c #3D240F",
"; c #3C250F",
": c #3D250F",
"> c #6C421E",
", c #6D421E",
"< c #6C431E",
"1 c #6D431E",
"2 c #6C421F",
"3 c #6D421F",
"4 c #6C431F",
"5 c #6D431F",
"6 c #980030",
"7 c #990030",
"8 c #980130",
"9 c #990130",
"0 c #980031",
"q c #990031",
"w c #980131",
"e c #990131",
"r c #9C5A3C",
"t c #9D5A3C",
"y c #9C5B3C",
"u c #9D5B3C",
"i c #9C5A3D",
"p c #9D5A3D",
"a c #9C5B3D",
"s c #9D5B3D",
"d c #A46630",
"f c #A56630",
"g c #A46730",
"h c #A56730",
"j c #A46631",
"k c #A56631",
"l c #A46731",
"z c #A56731",
"x c #FEA04C",
"c c #FFA04C",
"v c #FEA14C",
"b c #FFA14C",
"n c #FEA04D",
"m c #FFA04D",
"M c #FEA14D",
"N c #FFA14D",
"B c #F4E49C",
"V c #F5E49C",
"C c #F4E59C",
"Z c #F5E59C",
"A c #F4E49D",
"S c #F5E49D",
"D c #F4E59D",
"F c #F5E59D",
/* pixels */
"ffhgdjgkhlfkNNMlhdgkjjdhhhzkzmmNjf@aO9777qeq0eqqe80w6ewqq SAZBVC",
"jlffflfdldlkfgMMclgkzNNzhlhfdjjbNh+t#98600q67799q8766q890 VVSAAV",
"hfdglhjkzjfglfddnmnxmbhhzkzkglhzjg ro796668q79q78w676qeq7 SAVVZS",
"<,123>114233,1,,15<5253331,5135,<4 s q907w98q766e68qwe98wXVVCBZZ",
"jgggldkgzlldhllfllzjdljggkffdhllgzXy+q69969e667ew6ewe08e9 BBVBCV",
"jgkxjgdzgfldNxnNvvnnmcbvbxnmzdldjz y 609q07qe69q660986060 VZVSSD",
"cnNxgfjlhdfkghhggkzkfdkddkgmxnMxdkOr 60068e7q98q6077eq67e VCVSBV",
"fzfljklhhzzkjgzhdlldkkhhkhhkgkdzzj p.9q8e7q679706q7980e78 FBBAFC",
"jlgggkffzjljflgdhljfklgzklg*%=:;%$-==$==7770ww0e9069q9979XFSVSVV",
"kbNcnNchjjhljhgfghhklfkzl==;53<313=<4<,-09807668q7697e89e ASVBZV",
"zzjdglhhdkdhgzfzjhgvnbMlj;4:<215<1-:-11$7e070e60qqqwq6079 AVFDVB",
"gkfkkkjhllldgdgkffdflhzmf=2-<2,443$<11,&960q77q8707707wq9 DBVBZV",
"kkjzfdlgfhjgjdzhjgfdkfhjh-&=44>,<2-,12<*$e69q677707987q68.BVABVB",
"<<32>45<53>2>22>51525324,11$44,35<:-%14=$67q0q9709q97w97q DSVZCV",
"kdhzkdkjjdhjfldgjzjfhzkjdzf;5>55,,-1<&4;-q6997788876qq77q BVVAZS",
"bcnnNmnmNnchdlflzgfhdffzzhk;<,,453=$==3:&q9680q60q7qw779w VSVZZB",
"zlkffkghzdNnngkflddglddzfdz=22<<13=;$&,&:q779e67q8q7q796w BBFSVZ",
"lflzdlhjhlflfvcbfkdhhgfjfll-5>24,2-<5-1*:q9067q0q6q9q97e0 CFZBBB",
"bmcNNNmvlllhzdjbxmfldljgggf:<<<34>$*=3,*-w76we0w86767w7e7 VVBVZV",
"djffflgxnnxgdzdkhmcvbhhjd==*4542,5-2,54%&6906668899eqe6ewOVSSVVV",
"zkjlfgfhlhNbbfhkzjklglhgl-5&,,>41>;<1<<:6w899q69e7079qqq7.DBBSVB",
"xMnNndhgghhfcxjzjkfkdldjj$3$242,1<=%%,,$ee9w877q66676e07e DVVFVV",
"gkfgdlzfzghfjkzzzjddzjhld*$=23>141=5115=qeq86w76e8qw87066 BVCVFD",
",2,33,,5>,>54513,5>532<3354-*;::$&;-;==$w7677w69e8eeqq669OSBSBZC",
"jljfdhjhdjjffgkjjfdlhdlmggdljzldjkOro0086qq779e908087878q VVCSVB",
"vnmvccmggglzhkjhgfvdkzjckfhjfncbNm io87e68w7eq76790qq0q9e ZBBSVZ",
"flhkfhkjfgdjzdhhhvMhhfhNgzlbcxhlkdXiOq989e69q069qe6677qq6 BVZFCS",
"ggzjlglvvNMbxMncvxzhgzbkzgNclzlzfz tO79wq87w77q70q609e997 BCVBBF",
"zghhdmcdkzgzzgzdfgfdlmdfbbNfhlhklc@roe0q69qw90we0w00667we VSFSDS",
"dzzzbvfkdglkkgfggjgbxlfmMzzjfkNNvh.yoq96eqewqq67wqqq0q877 VSZVVC",
"zzjnxhkzldjfghdffnvffhvxjzzlNcxkzz@yX9978q7q70e6q77q9868q BSFVVV",
"dzgNggdjzjdklfgjdjhzghzjdzlcNhkjhf r ee7e087w988708807807 DVZFAS",
"kllhkjfh533>53><5gkkkldhffdhgklkzl rO879098q9767807967w67 ZVBBVV",
",>15244,3::-%*-=<12>11,5>22,<><252.r.qqw9qq6qq9e7w709q967XVSABZV",
"zhjjghdk3133,2441khfkdjddfjhjfhglhXro778q90eq98q8760w9qw6 BSZBFS",
"jhjmkdlzljglzfkzldzffdjjjddllkdzjd y+76e86w6q0706e7689098 VBBVBZ",
"jjMmzkfjkflzzdjhlflkljzdMkjdjlflhkOt.66767769696888eqq8e9 ZZFFZV",
"jcNjfdjdkdgjzzhkkjdkdlNxhjzghffhfv yOqq977099e77e68678qqe FZZVBB",
"xxjlkjkdlkjkgkkhhlkfbvkjjjzdjhzNnj i.006q8q787e667we8eq68 SAFSVV",
"jfggdzjlklljkhkgzlcNcdfgzfglzfxchdOy+77w77e87799w7007w970 SZVZVZ",
"jkdzhfzkfjjlzfgmncchfhklhhzdhMhfhloi+8qe9ee9q8qe9q6976q09 CBZADV",
"znbmxncbNNNbMbcngzjkkhfhhddkmffjhz i e87ww76q706968e07008 VBVBVV",
"fhhhkflhzjzgjzhfffdhfjzglhgkzhkdhg y 6q8q77q9qeeq707q90qq ABCACS",
"43311,4,511,<3,>41234>5><43>,55,>2.t@w7060qe0we0ewqqq9w79OVVSZVF",
"zkhjhdjlgjzldzfkdfjjhfhgfkkgggzfkfOuOw6787qe86eq69e7679qq FBABVV",
"fhkkfkdghgjggfjddhffdfkhjlljzlhjjd.i#9qe8796q067e8ew88078OVZBBVA",
"41zfjjcbNMhzzfzkhddccjlglgzkzlzkzkoao98w0q97789987766qwe0OSBSZVB",
"llklknbhgNxzffzgzzhjfbvmmmNnMvgmNbOu#69q86eq778689w799qq6 DVCVFC",
"hkzNczlfgkmmzglzjfkkzjhkfjzfzmbzlf t.800w87w9098eq89e9q9e VZDCZV",
"dzhzjflkfgzcMhzhgjdhzflgjflddhfhjj.p.6868qw96799q78eeq967 CCCSBV",
"zdggzzklkhkjzzzffglfkdkhjkfzzgfglzOr.e7q70e8709790706q7q0 VVCDVV",
"zffdkjdjgddgjkjzlzdkflgdfhgjljdzlf yo8q0776w677q6e8q7707eOVFBBVV",
"443>22,22<23514,13<5,12>12<,,1>>25 i@066q077qqww89w677e6w VVVCDV",
"kzfjgfjddjhhjhjfkhkzfzlflggj22,<,4oy@797q90w8qe098q00e087 FVSVVA",
"ljflhcMMxllklzjfzzjlkhjhlfdkdlfdzg r@8qe8987980709q97ewew VZSSSZ",
"ggdcMldfgxmhfghfdjdlzkjlkjhjhhzNMnXt+90qqq7eq067060qw790e ZBVSZV",
"dvMhzkjjzgbldhzbNNbmjgldfhjhMbMNzk i@qe78q678e6688eqqe006 ZZSSBA",
"lglglzlnkbvzdkmljjfmkkjhjbmvhkdzghXaX6e877w6wq6699qwq9697 ZFZCVZ",
"zgdgdjlvnbfhjjklkhgxNmxMmvhzjkhgdz rX766670890q7e89qw097w VVAVDZ",
"fglhgkdhfzfkjzdhddgkkjNcdfdlfzdhkhXs@e96q66796w779q666798 BFBBBS",
"5>,1<111134,>4,132,345,<251>54244< s 8e6e97w60w877w778877 VVVZVV",
"lzldlfhkfhlzhfhzgddjdjzkggjllgdzhk@i wq98wqq0qq9q68889779 VZSFFF",
"jgflhzfNNnNgzdkghggkjzdhjNMcnNdzfhOpO7680wqwqe9e99ew96679.CVVVSA",
"dlzdhjzzzdjcvzljghjzjgfllgkfdbcjkk+r 0q879q6eq860e00787q0 FAVCCC"
};
