/* XPM */
static char *result[] = {
/* columns rows colors chars-per-pixel */
"64 64 65 1 ",
"  c black",
". c #010000",
"X c #000100",
"o c #010100",
"O c #000001",
"+ c #010001",
"@ c #000101",
"# c #010101",
"$ c #3D240E",
"% c #3D250F",
"& c #603E32",
"* c #613E32",
"= c #603F32",
"- c #613F32",
"; c #603E33",
": c #613E33",
"> c #613F33",
", c #6C421E",
"< c #6D421E",
"1 c #6C431E",
"2 c #6D431E",
"3 c #6C421F",
"4 c #6D421F",
"5 c #6C431F",
"6 c #6D431F",
"7 c #785448",
"8 c #795448",
"9 c #785548",
"0 c #795548",
"q c #785449",
"w c #795449",
"e c #785549",
"r c #795549",
"t c #786248",
"y c #796248",
"u c #786348",
"i c #796348",
"p c #786249",
"a c #796249",
"s c #786349",
"d c #796349",
"f c #A46630",
"g c #A56630",
"h c #A46730",
"j c #A56730",
"k c #A46631",
"l c #A56631",
"z c #A46731",
"x c #A56731",
"c c #FEEA3A",
"v c #FFEA3A",
"b c #FEEB3A",
"n c #FFEB3A",
"m c #FEEA3B",
"M c #FFEA3B",
"N c #FEEB3B",
"B c #FFEB3B",
"V c #FEA04C",
"C c #FFA04C",
"Z c #FEA14C",
"A c #FFA14C",
"S c #FEA04D",
"D c #FFA04D",
"F c #FEA14D",
"G c #FFA14D",
/* pixels */
"gjjjgfhxzzglGGSzhkhlkkkjjgxlxDDGkglhkfgghhjxzfhADhhfGSfjlljgGGZz",
"lzgggzggzfzlghAZVzhkxGGxjzjgkkfAGjlflflkggxzgzzxSDffxGDxzkffflfh",
"hgfhzjkkxkghzjfzDGSVDAjjxxjlhklxlhgjfxxlzlkhhzkhhzzkfzjgjxkkjjlf",
"111333<23343<2<<2456366442<6246215<42336<1,6<26212<4661<6116,1,<",
"kfjhzflhxzzfjzzgzzxkfzkhhljgfjhzxxkffjfkkjlgfllzjfghzzjkjkzzllkf",
"fhlVlhfxfghfGCSFZZDSDCAZCVSSxfzfzxklxzzfkzzxzjkffzllllxxCVDVGVGF",
"CSGVhgkzjhjlzxjhhlxlgfgfflhDDFFVflfhjfxgjxzgzzzlgljjxkhfkhggzjDF",
"gxgkklzhjzxlkhjjfxhhlkjzxxjkhlfzzkxfxlzhkkxhlhlxjxkfjgxfjlxxkGGZ",
"kzzhjlggxkzkgzhfjzkjjzhxlxhfxlzflfllgkjkhhljkxkghjkkxflxgfzfxjjh",
"lAGCSGCjlljzk#oo XXX#o#..+ o O ++.OX.##O#o@ O+o@ #oGCFAGxjhjkhlj",
"lxlfhzjjhlfjj 7r00r8w897wr89w98 e8e9r88q0q87908wr7Ojfjzfjgxhgfzh",
"jlgllkfjkhzfhX9wr7e9q8rw8800e77#89ewe9q7878r909rr8#xgkzlhxhzjhjj",
"llkxgfzhggkhk+07e00qer70708er8eXsr89qre8q7q8r90ee9+lxflgzhfkgfjg",
"1143,56164,3, rq7ewqwwe78e97009Osr70e79r009rq90890X2222<61426,13",
"lfjxlzllkflkgOd9eqewrw08re88wq9oys709r099wre700q0q+kjhgjlgzxzzgg",
"AAGSGGSDSSCjfXdr0780qq7e0e09ew7Xupqe9q70e8098e00e7OzkgjjfjlxfSCF",
"xklgzlhhxfGDS.t79wr07eq0707rq7roupw0e878errw98708wOkGAAFSZZVAFzf",
"zjzxhzhkjzfzg@se9rqqe008778eeww#st0w80r8rr7r89997q FCxhlffkxflxg",
"ADCGGGDZzzzjxOtre0q0w0w09r88 +eXiyo+w908wq7e7wr8q9 jhzlCGCZFSSCZ",
"fkgfgzjZSSVxf iarqr97r0wweew  eOdyoow7w987089rqew0oxSDFGlhlhzlhz",
"jlkzgjgjzjGAAOttsarr90ew809er9e iudtpys7we7r99777eXVSgxkgxjlfhjj",
"VFSGSfjhhgjgC+ysppttiee98e9q9wqOtddttyuppr99re7q8e+lghxhzhhDGVVA",
"flgjfzxgxhxgfOX@X.X .X O+#XX.+X#XooX++.o.##oOo#X+X@xlhxxhkzgfzhf",
"<4<44<<63<,65#wq8q78rqr8****:**;*-;*-;&**>*:&-*&*-#6,353<<,,4236",
"kzkgfjljgkkggo0rrwr08e99e8r**:********-******&&***#gffzfgljxhjxf",
"ZSDZCDDjfhkjj+89899we0r0rr9w8rq>********:***-:=**:@lxfzkhhzlzjZS",
"gxjlfjlkghfgxXq97wrw098er78890q0ere0w*************OgfgxlkzzGCSDf",
"hhxkzhkZFGFAVO8r0w9q98rwq90qe8rewrr07ere***:******#GDxzghxDjgjjh",
"zhjjfDVflxhjxO788ree9r0r8ew8q7908w0ewwe88qr7:&-*-*+CjzzlSDjhhjfz",
"fjxxAVglghzll+e007w7q87e89809r8r0q9r897qrqw98e***&.ghfxZVjlhxjkl",
"xxzSVzlghfkgjOqweerq8eq7qrq87e89rqrr8qrqewwqr8q***@ffjGxhfglhgll",
"fxhGhhfklkflhXww99w09www70rw0qr07999rq79rw7w0ewq*:+fkkjxkfzfzjgz",
"lxzjlkgz644,6.09r8r9wr8e89e08qeww0w99r89999e8rww** jzzhlkjkkfjxx",
"<,22455<4%%%$+0ww87wr0980r0r7e7008ew7r8000w0err0r*O<6,<<3<2<6433",
"xjlfhxfl424<<#@OXO..#OXX++. .X OO##X+ooO+ @oO#O@O+Xgkhggjfkgjffl",
"kjkDlfzxzkhzz@e8079778e989eqe7we80mBnNnvNBMBbnB98qXhxlhjhzhgflkl",
"zlSDxlgklgzxx@wq97r0e80re89w9w7r00BnMmBBMvnBcMc9re#gfghgxGhhlkgl",
"zCGkgfkflhhzz#ytypuupatptptuutdtu8NnmnBbMnMNcnN098olfzxgxVFfkxjj",
"AVfzgklkzgklh@O#o@#OX@.o@@ OX+oXX#@+#.   X.X@. + X#DxjzkllCgfzVC",
"kgfhfxkzlzzkgOq977e907w87887rere7e70we88wqe899r8we+FGkljghlCCSGl",
"flfxjgxzgkkxx wqwreeew880ree888rr80008w8rree7qqwrw.hxgfzjffjzgjh",
"xSADVSCCGZAAF w0rO XOwe7q07r00w7rq0qw7r0q# o.qqqqq#zjjzjlxhjkxfx",
"jjjjlgxfxzxjk#eqw87q88w809090900w097r9ewrqr078qwr8@xxzzzgxjxjxjf",
"1342245<622<1 88r7rer8q08988re8897re899w00rw977899O632666,3334,3",
"xljzjkkzhfxzk@tutpttustyttudtttaaytatt98q8r8wqeq0wXkgzhkzlkzgklg",
"kjklglkhjhzffOyuyyuuttpysiysuutypduutpptttuaew899q lxjgzjklzlzkf",
"62xgkkCAGFjxx.o  O@Oo XXOO#OO@@.+O##+.+ O .oX.  .OXfgjfkzjflkf64",
"xzhhlSAjhGVjg.rqe7qr97e79qq9wree80w00qerq09e7rwq97XfffzhkjVFAgzl",
"jlxGCxzghlDDxOwewe097e089eeqer7q77780r89rw08w7werroDDkhfkjhzGDSj",
"fxjxfghlghjCS sq7.#+O8r80q78777rwrwqwww70 o.@w8wewohCjjgffljhfxg",
"xfhhxklzljlzx.t9r88qe778797eq08rewere90qe8r00r8we8@zxzlxlklfxkfx",
"xggflkfkhffhz.u8w9w8w0q9ewe0e0r7w880rq88wrre9e80q0#lhhlzhkgxkxzk",
"653,3,43313<4+ittapittpautyttitdeqeqqrr0q990eqq0r7X3,,<,,324,663",
"llgzhgkffzjjkXtttttapsptuttuppttpuptqe07w8e8qr9887+,66jxjkghxlgl",
"zkgzjCFSVzzlz+O+O@@O.X@OO@@  #. X+OO@@.@ ++@O ..XXXxfhlfjGZVVgjz",
"jhfCFzfghCSjghjXoOXzxlkzlkjkjjxGZSAAAFzfzzlfo##.FkxjlkxxGSlgFVfj",
"fCZjxxkkxgAzkjx.  +VzjhggjkjFGFGxxhlgDxggfFG@Xo@VAlkkxlfAAlfgDxf",
"zhkhzjzSlZZxkxSXo.XCllkgkADZjlhjhjlxfhlfzFZx .++kFzllhfffCCjfDzl",
"xhhhhkzZSAlxfkg..+XVGDVFDVgxkljzfxFAChjgfVgf.O@@hkxxfkkkhffghlxx",
"fhzjhlkhfljlkxfjjfhllkGDhgfzhxfjljzjhZSGDgkflgkgljkjx326<44glzfl",
"6,<21621245<,5<24,<<56<1362,653551,242152515415,33,,62,1334,1151",
"zlzfzgjkgjzxhgjzhffzffxljhkzzffjjlkjfhjhgjjgxfzjkxDkzgghhjzxfljh",
"khgzjlgGGFGhjflhxhhlzxfjkGFCDGfljjhgzxxhxkZDDGZFjlzFGxgklfGDxfkg",
"fzxfjkxxxjkCZlzkhgkxkhgzzhlgfADfxkxklfxxjlljfklGxfkSSjjgxzgCAlzk"
};
