/* XPM */
static char *result[] = {
/* columns rows colors chars-per-pixel */
"64 64 73 1 ",
"  c black",
". c #010000",
"X c #000100",
"o c #010100",
"O c #000001",
"+ c #010001",
"@ c #000101",
"# c #010101",
"$ c #3C240E",
"% c #3D240E",
"& c #3C250E",
"* c #3D250E",
"= c #3C240F",
"- c #3D240F",
"; c #3C250F",
": c #3D250F",
"> c #6C421E",
", c #6D421E",
"< c #6C431E",
"1 c #6D431E",
"2 c #6C421F",
"3 c #6D421F",
"4 c #6C431F",
"5 c #6D431F",
"6 c #980030",
"7 c #990030",
"8 c #980130",
"9 c #990130",
"0 c #980031",
"q c #990031",
"w c #980131",
"e c #990131",
"r c #9C5A3C",
"t c #9D5A3C",
"y c #9C5B3C",
"u c #9D5B3C",
"i c #9C5A3D",
"p c #9D5A3D",
"a c #9C5B3D",
"s c #9D5B3D",
"d c #A46630",
"f c #A56630",
"g c #A46730",
"h c #A56730",
"j c #A46631",
"k c #A56631",
"l c #A46731",
"z c #A56731",
"x c #FFC20E",
"c c #FFC30E",
"v c #FEC20F",
"b c #FFC20F",
"n c #FFC30F",
"m c #FEA04C",
"M c #FFA04C",
"N c #FEA14C",
"B c #FFA14C",
"V c #FEA04D",
"C c #FFA04D",
"Z c #FEA14D",
"A c #FFA14D",
"S c #536CFE",
"D c #526DFE",
"F c #536DFE",
"G c #536DFF",
"H c #F4E49C",
"J c #F5E49C",
"K c #F4E59C",
"L c #F5E59C",
"P c #F4E49D",
"I c #F5E49D",
"U c #F4E59D",
"Y c #F5E59D",
/* pixels */
"KJHJLPJ 70w968qq8eqq9qq0e79q79OaOfdljdfjlghfjdgACjdfZVjhhkhdVANl",
"JHIHIJI 098q667e8q99776q6q6998#tOhfdddjkdfllzjlzCCgdzCChljfjdzdh",
"ILLJJJH.7q8q6q6ww77797q8667q9qor glfdllkljjgdlfgggljdjhfhzdjghkd",
"LLJJLJJ w89qwq8887666q89w70090Os 4,212>5,<>53141<1,315<,5<41>4<,",
"JLHJJJH 9q96ewe766wq66e969906q.y zdddhljjhzkdlklfjlhzjgdhjljkfjd",
"LIIHJYJ 0667890q66e96eqq079w06 y zjdzlljjzlzlhjddzkkklzzBmCmANZV",
"JHIJHKJ e76qe77708099q7q877097 rOkjlzdhfhzldlllzjkhghjgdjgkflhCZ",
"KIIUHHY 87e089q8q66q776qqe67qe p kzdzklgjkzgkgzzhzjjfjhdhjhzjAZN",
"JJIJJJL e79ee97708w0qww777906qXy fzzdkfklgjgjzjdghkjzjkhkjkdlhhf",
"JLHPJIJ w98e79697q6677q890e606 aOhdjlfkjfdlzjghmVMACMZBAlzzhjgzf",
"HJPLYJH 9706qwe6qq06e090e7979e a fjjdjhflgjkddfhgdzhgzldhfzhjhdg",
"JLJYJHY 97w677qq078q79q069qqw7Op fhzjhzdfzldgfhhzdgzjjlzdfhlhlhh",
"JJJPUJJ 86q7896qe7696q97068979Or jdlljhkgzkhfjjlgfgzzfffhgjjfdzf",
"JKIJJIH q79e89q79079q0q78677q6.r 1=:%-%;$$%,31>>4,,<111,4>3,5<<3",
"JLKJJJH 777qq69798979996q677w8@y 1>3-*=*$*5,kdjkllzzhgfhkflzllfd",
"HJLHJIJ w977w77eq0690769qq88qeXt+jf2<;$&%21hzzjfhjkzjfzhdhkzdVMN",
"JJIJYHJ e69977qw8q7qe777q679e8.u lgl422>11jjhhhkhfzjBAAZVNmMNZjk",
"HHHJJYK 0q990eq66q0q76797ewweq u hdkgh2fgkkfkhzkkmmZCzgkddjhgkkk",
"JYJIHJY 79q0766768w670678e68e6Xy+hkgdjjdgklfzhhdmmkhhjjCAMNVmVMN",
"JJJHIJJ we7qqe9999907689709e88 y djjlkjkhdkdljkdfllkMCZBklfglkgz",
"HJIJJJP 7q00.   O X  X+  77770OuOdzjfkzjhjkffghjhgmmChzzdzzzfghh",
"JJYJJJU e70e bbbnvbxbbvb 0067e@sXVMBNNdgkfhhzgzfjfjkfgzgddgAAmmA",
"KYJHLJH 6707 bbxbnnbbcbx qqq79Ot zjjhfkjggfdzlklhzzzkgzzfglfdldj",
"HLHHYHJ 966q vbxbbbbnbbb wq700op.,>2332<,2,4>1325355,45>,2>23125",
"HJJYHJH q878 nb       bn 69000.rOklkzhffzdgkfflfzgkfddldfkgzlhzf",
"LJIJLHL 9970 bb.FFFSF nb 87078.i CCMNACBgjkkdfldfzhkzdljjflzglNC",
"JKYHLIH 6qq7 nn FDFFF bb.e8w97Xi ffzdjlgzffzhkghflgkdfzkjjlACVCf",
"YHHHJUH q9eq bb FFFFF bb.q6797Oi zjlzfhzggfzkfdzzddACklfglVzfhhd",
"JHILYYJ ew9qObn FFFFF vv 9767eor@MCMMCNVgdzjjfzzzjVmhldlVCfdlgkl",
"HJJLJIJ 77wq bb FFFFF bv e679qoa zffdjdfVCmzzkgfmCkdgdkNMhkdzhjk",
"JJJJLJJ 0866 bb@GFFDG bn 968eeXyOzkfgfljgzhlkjANAlhgjhAkgfdkldkz",
"PIIHLJJ 7087Xbb FFFFF+nn e7eqe r fdjlVVMABACMCgdzjkgllhljdlfghfl",
"JJHJHJL 67w7 bn FFFFF bb 07978 r zlllfhjfhzkdldlljdfgjgfjfjddhzz",
"JLHJHIJ q69q.bbOFFFDF bb 8w6qq.t.22<>>23,35>,14<33325>354,115,2,",
"IYHJLLH 6we9 bb@FFDFG bn 77076or gffzdljflggzkhgjzzdjgffzjjfzddk",
"LHJJHHJ w908Xbx FDFFF xbO6eq67Oa jhjghjzgdhfdgjlhfjdzkghdlgffklj",
"JLYHLLJ we70 bb FFDFF bxO87806 r kldVACAMCVCVMBkjzkddfgdzBggkjfj",
"HJJLHLI 0qqw.bb GFFFF bbX796qq+y mBMggfzlgjlgfCCZZkddlzfzmAdjzhz",
"JJIHLPJ 76qe nb SFFFF bb q6eq0oi jlzddflfmABhzfgkZZChflkkkChdgNM",
"JJLJJLI 0q7w nbOSFFFF bb.90877Oy dldkkzgfkffZmAkjhkVBlkhfgkBMCAl",
"JKJJLHK 90q7 bb  ..  ObvX9eq78+i lglhgBjhkAhhhCkjhlhzfdlggjhlhfl",
"LJHJJJJ 8006 vvbbnbbbbbxX07qweor ldzffAVVggflBAglffhzglhzzghjzgz",
"LHPLKHP qq09 xbbbbbbbbxb q87q6 y gzlgddzZZMNVVgldldzllllfzhlflfd",
"YJJPJJJX9787 bbbbvbbvbvb 6699w@t.2,4,,25<<1251>,3>,425555,>52>3>",
"JJHUPHY qw97       . .   6787w.sOfkzljfzhjdljzgjdhklflhllkjlfjkk",
"PHJHHLJ 67088we09e760e7978e7q9Xi.dhgzgfjgghjdhzjffhkzhflzlkdkljj",
"HJLJIHI 0q6q667877998779qqwq89XsokjlBACBmfdflldlfzzdfhdjlzdjjd45",
"KLJHKJP.606997w97969760e69qe87#uOACCAfdfCCVNhgjgdANdkdlzlhmZBfjz",
"JJKJLLJ.99e9w9887q89w7078707w6.iXgdzgkgdfhzMBmVlfhCCCjgdjfhgACVg",
"IHIIJLK 6686eq877q9e7788e67680op.dlzjkgljgflhjVCdhdgChhfdjdkgdzf",
"JLYKKJJ 6q7q787eq7680qwqw7q97e.rOkfhfkkfjgdlkhlgkgfgzlkzkkzdhjdh",
"JJHHHIJ e7667q87e8777790970ee9#r fhlgzllkgfjjhljzzgjggkgfjdzjhjj",
"JKKKJIH w6e976w778ew0q770q7760@r 535<>131<>2,,3425>2>>,>,213<15,",
"UJJLJJL 7we966qe896976009q7e97@y.4dddzddhjjhdzlggg5>35hzhjkgfjhz",
"LIIJJJJ 8qwq78e790707978e8e7e9Xr gkgfgdhlhldhjzkghkzdgkdgAANmfhl",
"JLJKJJL e0978q6067767qe77qq009+tXmBBAZldllkdBAABAjlhkjkzACzdZVdg",
"HHIKILJ 600eqee0888q9896q879eq@i kgkfmkffdZBlkzzmBfjdklfBBzddCzh",
"LJPJLJJ 7907qwq09866q87e8896e6Xa hkljhzdzZBzghhkjZlkhgddgAMzdClk",
"LKJLPJJ w7778q7e897q0980766067 r zZACgzkgmfflzhgdjkzjjjfgddfgkhg",
"IHPJJIJ 897660799776697707079eOsXhjfgZZACfjdzfjdfhjhl415,33kkljk",
"JJLJJJI 979979w8779e07879q67we t <>551,515<4,14242>>552<353><<4<",
"JIYJIJJ 9q79889q7q9eq777w897qw.i@kkfdhhhffhfjdjfjzCklfdgfdlzfkhg",
"IIIJJJL 976696qe97e9q7w7eq6q67Op@hhhllzgzjNCAAZZljgAAzfjjdZCzdjd",
"KKHYJPI 0q7w900we066qe7q9787q8.r.jzdkdzzzkfhgjfAfdlAZhhjklfMAzgj"
};
