/* XPM */
static char *result[] = {
/* columns rows colors chars-per-pixel */
"64 64 110 2 ",
"   c black",
".  c #010000",
"X  c #000100",
"o  c #010100",
"O  c #000001",
"+  c #010001",
"@  c #000101",
"#  c #010101",
"$  c #6C421E",
"%  c #6D421E",
"&  c #6C431E",
"*  c #6D431E",
"=  c #6C421F",
"-  c #6D421F",
";  c #6C431F",
":  c #6D431F",
">  c #980030",
",  c #990030",
"<  c #980130",
"1  c #990130",
"2  c #980031",
"3  c #990031",
"4  c #980131",
"5  c #990131",
"6  c #9C5A3C",
"7  c #9D5A3C",
"8  c #9C5B3C",
"9  c #9D5B3C",
"0  c #9C5A3D",
"q  c #9D5A3D",
"w  c #9C5B3D",
"e  c #9D5B3D",
"r  c #A46630",
"t  c #A56630",
"y  c #A46730",
"u  c #A56730",
"i  c #A46631",
"p  c #A56631",
"a  c #A46731",
"s  c #A56731",
"d  c #A6E61D",
"f  c #A8E41A",
"g  c #A8E51A",
"h  c #A9E51A",
"j  c #A8E41B",
"k  c #A9E51B",
"l  c #A8E61A",
"z  c #A8E61B",
"x  c #A9E71B",
"c  c #A9E41C",
"v  c #A8E51C",
"b  c #A8E41D",
"n  c #A9E41D",
"m  c #A8E51D",
"M  c #A9E51D",
"N  c #A8E61C",
"B  c #A9E61C",
"V  c #A8E71C",
"C  c #A9E71C",
"Z  c #A8E61D",
"A  c #A9E61D",
"S  c #A8E71D",
"D  c #A9E71D",
"F  c #AAE61C",
"G  c #ABE61C",
"H  c #A9E61F",
"J  c #A6E91D",
"K  c #AAE91C",
"L  c #ABE91C",
"P  c #ABE81D",
"I  c #AAE91D",
"U  c #ABE91D",
"Y  c #FEA04C",
"T  c #FFA04C",
"R  c #FEA14C",
"E  c #FFA14C",
"W  c #FEA04D",
"Q  c #FFA04D",
"!  c #FEA14D",
"~  c #FFA14D",
"^  c #E4AA7A",
"/  c #E5AA7A",
"(  c #E4AB7A",
")  c #E5AB7A",
"_  c #E4AA7B",
"`  c #E5AA7B",
"'  c #E4AB7B",
"]  c #E5AB7B",
"[  c #CCFA6C",
"{  c #CDFA6C",
"}  c #CCFB6C",
"|  c #CDFB6C",
" . c #CCFA6D",
".. c #CDFA6D",
"X. c #CCFB6D",
"o. c #CDFB6D",
"O. c #01B6EE",
"+. c #00B7EE",
"@. c #01B7EE",
"#. c #00B6EF",
"$. c #00B7EF",
"%. c #01B7EF",
"&. c #F4E49C",
"*. c #F5E49C",
"=. c #F4E59C",
"-. c #F5E59C",
";. c #F4E49D",
":. c #F5E49D",
">. c #F4E59D",
",. c #F5E59D",
/* pixels */
"*.:.&.,.*.;.-.*.&.*.-.-.-.-.&.*.,.&.=.-.*.:.=.=.*.*.*.-.:.*.*.:.-.&.:.*.:.;.:.*.&.*.:.=.:.&.;.*.-.*.*.,.*.*.*.&.,.*.*.*.*.*.:.&.",
":.*.*.*.-.-.*.,.:.*.*.*.*.-.*.-.*.=.:.*.&.=.*.,.-.;.*.>.:.-.=.*.*.*.*.=.*.*.;.;.:.*.*.*.*.*.*.-.,.:.:.*.&.*.*.*.*.&.*.*.*.*.*.-.",
"&.:.:.*.-.-.*.*.*.&.*.;.*.*.*.*.*.&.*.,.*.*.*.&.-.*.&.&.*.*.,.&.&.,.&.-.*.&.&.:.:.*.*.;.:.*.-.&.*.=.;.*.:.*.:.:.&.;.*.-.:.:.*.*.",
"-.*.*.:.-.:.*.-.*.*.*.*.;.:.&.*.*.*.*.&.&.*.-.*.*.*.*.*.*.*.:.*.-.&.:.:.&.;.*.-.*.*.*.-.-.&.*.*.*.*.*.*.;.*.-.*.=.*.&.*.*.-.:.&.",
"                                      .                                                                           X       X     ",
"> 3 , , > , , , , 3 , , 1 , , 3 3 5 , , > , 3 , < , 3 , 3 1 , 2 , , 1 5 , < , , , ,       X     O   @       , 3 , 2 , 2 < , , , ",
"> < , 1 5 , , 5 , 4 4 > 2 < > 1 1 , , , , 2 , 3 , > 1 3 , > 1 1 > , 4 , 1 1 3 , > 5   6 8 6 7 0 8 0 6 6 6   3 , > , , , 1 < 1 , ",
"2 < , > , 4 , 3 3 > 3 1 1 , 3 1 3 , > 3 , , 1 1 , 5 2 , , < 3 , < 5 , , 3 > 3 , , ,   0                 0   , > , , , 3 5 , , 3 ",
", 3 , , > , > 1 , 1 3 > , 3 , , 1 , > 1 3 3 , > 3   X   3 , 3 , , , > 3 < > 1 , < ,   0   $.$.$.$.#.$.  6 O 3 , , > > > 1 > 3 3 ",
", 1 , , , 1 3 , > > > 1 > , , 1 , > 2 5 , 3 > , o G { C S X > > 2 , 3 1 , , , , , ,   6   %.#.$.$.$.+.O 6   2 3 1 > , , 5 , , , ",
"1 3 > > 3 1 , 1 2 1 , , 2 , , 3 , , 3 , 1 1 , 3 X v  ... .Z O , 2 3 , 1 , , , , , ,   6   @.$.%.O.$.@.  6   , , 5 , 1 , , 1 > 1 ",
", > , , 5 3 5 , , < 2 , 1 o < 1 , 1 , , < 1 1 . D A ....o.D X 4 , 3 2 > , , 3 3 > ,   6   $.$.@.+.%.#.  8   , 3 > 2 , , > 3 > , ",
", 5 , , , , 1 2 3 , , O X B o . , 1 3 , 3 3 3   S | { o. .V   5 1 1 1 , > , , , , 2 . 6   +.$.%.+.#.$.  w   > 3 , , 2 , , 3 , > ",
", 3 > > 1 > , , < , O I B B A Z @ . o 1 , , O z C ..{  .B k + > , , , , , > 5 5 , >   6   #.+.$.$.@.$.  6   3 > 1 2 > , 1 3 , 1 ",
", 5 3 > 3 > , , , X K Z X.{ ....N b O , ,   j N { X...V l   , , 1 , , , , , 5 , 1 , X 6                 6   , 3 , , 1 , 3 , 3 3 ",
"3 3 1 , 1 , > 2 > O P A | [ o. .S m X , . . V { o. .{ H + , 1 1 > < > > > > 4 3 < <   7 8 6 6 6 6 8 6 q 6   , 5 , 2 1 , , 3 5 , ",
", , , 1 , , , 3 3 X D  .{  . ...| V c +   J o.D ..o.S D O 1 > 5 3 2 , 1 , > 3 , 1 ,     .               X . 1 2 , 1 < , , 1 , 3 ",
"1 < , 1 2 , 5 3 O U { ..o.| o.o.X. .S M X V | N Z V V # , , 1 , 3 3 4 > , 1 > 1 , > , , > 1 , , 3 , , > , > , 1 1 , , , 1 , > 3 ",
", , , 2 3 > 4 3   L ..{  .[ X...X.} S M   C [ C X O . , 3 , 3 , 5 1 , > , , 5 4 , , 3 1 > , , , , > 1 1 , , , , , 3 , , 1 > , 5 ",
"1 3 , > , , 3 , . Z ....X.|  . .....{ V . C X.B o 1 , 2 , > , > , 3 4 2 , , , , , 3 > 1 , > , , 1 1 3 , , , > 1 , 5 , , , > 3 , ",
", 1 1 1 , 3 , ,   Z o.X... ...S [  ... .n o...B o > , , 1 , , , , 5 3 3 2 , , 3 1 > , 1 , , , > 1 , , , , 4 , , < , , , , > 3 1 ",
"3 3 > , , , 3 ,   V Z  .{ { { V  .......C o.X.B o 3 , 3 > , , 1 1 1 1 5 , , , 1 > < 1 , , < , , 1 , , , 1 , , , , , , 2 , 3 , , ",
", 3 3 > > , , > , + C X.....X.V { X. .[ S .. .S O 3 , > 3 5 > , , 1 1 3 , , > , , , 1 , 1 > 1 , , , 2 2 > , , < , , > , , 1 2 > ",
"1 , 1 > > , , , , o Z { X... .D ....o...Z { D S . , 3 , , , , , , . . > > , 3 , 3 1 3 3 1 , , 2 3 > > > 2 , , > , , > , 3 > , , ",
", 3 3 1 , > , 3 1 . C { X...} D o.o. . .D o.N C # , , 3 < X o . o A B + # , 1 2 , , 2 , , 5 1 1 , 1 1 3 , , , , , , 1 2 2 3 < > ",
"> , , 3 > 3 , 5 > X V ..o.X...C | ....{ D o. .S   , ,   @ N B N N B } N B o o 2 > , > 3 > > > , > , 3 , 1 , 5 , < , , > , , , 1 ",
", , , 1 1 2 1 5 1   V o...o.{ N |  .{ { S o.} S + o   F v S { ..{ {  .....D A O , , , , , , , , 3 , , 1 > > , 1 2 , > > 3 3 > > ",
", , 3 , , , 3 , >   Z { X. .{ N { ....{ V { X.S O f B D .. ...{ ..[ { ..{ ..Z S @ 3 3 3 , 3 1 1 , , 3 > 3 < 3 1 , 3 < , 1 , 2 , ",
", 5 1 , > , , , , + C { [ ....S  .| .. .C ....N N N ..} .... ..... .| [ [ ..A O , > > 3 , , , , , , 3 , , < 2 , , 1 3 , , 1 , , ",
", > , , , , 3 , > X D .. .|  .C B X... .N o.o.D V ......{ ..| | .... .| o...Z # 3 < 3 3 , 5 , , , , , , , 3 , , 3 1 3 , , , 1 > ",
"> , , 5 , , , > , . S V { { ..| V .. ...C [ ..V { [ ..{ ..{ ..A A  .o... ...C o 5 , , 3 > 3 5 , 1 > , , , , > , , 3 > , , , 2 3 ",
", < , 2 5 1 > , , 3 . B B { ..{ V N o. .C S V o.| o...| ..V B ..o... .| ..B O , , , , , 1 , 3 , 1 2 , 1 , 3 , 3 , , , , , 3 , 1 ",
", > 2 , > , > > 1 , . Z V {  .{ ..C A ..V B  .{ X.[ { Z A Z o. ... ...B A + 1 , 1 5 , , > , , 3 , , 1 , 3 > 1 1 < < > , , , , > ",
", > , 4 , 5 , , , 1 , @ Z { [ ..X.o. .[ B D | .. .o.S N [ { { o.o.} X.Z X 1 3 > , , , > 1 1 3 3 > , , , 3 3 3 , 3 , > , 1 , 3 , ",
", , 3 2 3 4 , , 3 1 , 1 X N N { ......B D A { ..S S ..o.{ { ..{  ...N B g @ 1 1 2 , , 2 , , 5 1 , 1 , , , 1 1 > , , , , , , , 3 ",
", , < 2 1 > 2 , 2 , > 3 O A B  ...o. .C N  .o. ... .o.[ { o.....V C d # o , 1 1 , , , 2 , , , 2 3 1 , 1 3 3 , , 5 > 5 < , , < > ",
", , 5 3 3 , , 1 , 3 , < @ @ o D S D V Z d A X.{ o.o. ..... .C V D O   > < > , 1 , , , > 5 1 , 2 > , , , , , , 1 3 , > , , < , , ",
"5 , 1 , > , 3 , , , , , , 5   . @ X # X @ C ..o.o.{  .N V B x # . 2 , < > , , 3 , , , , 3 3 1 1 , , , 5 , , 3 > 2 , 3 > 5 3 5 > ",
"> 1 , , 1 , 1 1 3 > , 2 > , > > , , 3 ,   D { | Z Z D X O h O > , < 1 , > , > 3 < > 3 , 3 , , 2 3 , < , , , , 3 3 3 > , 3 , 1 , ",
", 1 , , , > 1 < , , 1 , , > , , , , , 1 O V o.Z o X # + , O , < 1 5 , , > , 3 , , 1 > 3 > > , 3 > > , 1 > 3 , , , > , 2 5 , , 1 ",
"  +   O     X . O O . O . X @ O o   + @ @ + # O @ @ o X O         . X X X O X     X   o . .     o .   o X +     @     O   . O   ",
"6 6 7 0 6 6 6 8 e 6 6 6 7 6 X ] ^ ' ` ] ] ) ` ) ( ( ] / ) X 6 6 8 7 6 7 6 6 6 6 7 6 6 7 6 7 6 6 6 8 6 6 6 6 q 8 6 7 0 6 7 6 7 6 ",
"6 8 6 6 6 6 6 6 6 9 6 6 w 8 . ' ' ) ( _ ` ' ` ) ( ) ' ] ] O 6 6 6 6 6 0 6 6 7 6 6 7 6 8 0 6 7 6 0 6 6 6 6 6 6 6 7 6 6 6 6 6 w 6 ",
"O .     .   X     +     O   O X @ @ o + + . o O @ o X o O +   O     X @     X           o         .   X + X     o   O X         ",
"p p y i u y a y a i s a r s r p @ ] ] _ ] ' ' ' ` ' ) @ y y s t s t t s a i p s u i i a i s u i r u i a t u u i a p i a t i p p ",
"r u p a r p r r u y i a y p i r o ^ ] ) ) ) ^ ^ ) ] / @ a y u r r r u y s a t i y y t a r u s i t t u p s u p a s a i r p a i a ",
"* - s t i i T E Q W p a s t s p @ ^ _ ^ ( ` ] ` ) _ ` . u y s u s i i a E ~ Q E R u r t i a t a p p p r t u r i a s r i p r = : ",
"i a r r a R Q u y Q Y s t t p y X ` ^ ) ' ' ) ^ ' _ ( X Q Y u T ~ ~ Q Q ! r y u W T W R u y a y y ~ R r p t a s a u T ~ E t r s ",
"u t p ~ T a a t y r Q Q p u a s X _ ) ^ ] / ( _ _ ^ ' @ p Q E p a y r p r p y i y u s T T Y W y t r Q Q W i y r i t s y Q Q W y ",
"r p u s r t a p t a s E Y t p s   O ) ^ / ) ` ' _ ^ # . r y t u p r a s i p y a i y t a u i Q Q r s r y Q s s t r i r p r r s t ",
"s r y u s s y a i u i i s s p s i   ` ^ ' _ _ ^ ( _ . s t y t y a i t u t p p p i t r y p u a y p y p y s a p p p p s r u i r s ",
"s r u r t i r i y i r y i t i s a . ( / ' ( ) ] ] / . i a i t a i t u a y s a a p u t i i u a i s s a i y y p y r i r u r u i p ",
"; = * = = $ - = $ & = $ ; : : % * X ` ( / ` ( ^ ( ] . % % * $ $ - : - - = $ * - : & $ ; $ % - ; = : $ - $ * % $ - = * % & * : % ",
"p s t i y t i p r a s u a u r u t X ' ( ' / ] / ' ( X i = = - & = ; r r r s r r u i i s r s i y y y - $ - : u s u i p y u i u s ",
"a i t y u ~ ! ! W s a a a s i t s . _ _ ` _ _ ' ` ( # p r y t r s y p y t a r u a u s r p i s t y u p s r y p r y ~ ~ R R t u s ",
"u p r T ~ i r t y W ~ u t y u r r + ^ ' ^ ` ' ] ^ / @ p y r u Q ! Q ~ E ~ ! a r a a p r E ~ ~ E ~ i a y p i p s ~ Q s r ! Y r y ",
"i Y W s a p i a p r E a r a s ~ ~ . # . O X . @     + u E ! Q ~ s a y p t Y p r t i ! ~ a p i s Y E t i r p a t E E s r r Q s u ",
"a y a y r s a Y p ~ R s i t W s i r t ~ s t i t a E Q ! s p r s u u p a i u s t s ! E s y u u p i ! a p t y r r y ~ T s r Q a p ",
"s y y u t t a Y W ! t s y i p a i s y Y ~ Q T ! Q R u u a i u r r s ! ~ Q y s t r T s u a p u y r i p s i a i t y r r t y p p r ",
"t y a a r p r u t s a s s y y u i r i p s i E ~ r t a a t s t u p u p t y ~ ! ~ ~ t i r a t i i u u p u a ; * : % - - p p s i p ",
": & * * ; * & * * * - = $ ; $ * = - % $ ; ; - * $ : * = ; ; ; ; ; & $ ; - * % ; % : & * $ * ; = ; = $ $ : : = & - : - $ & & & & ",
"y s a i i t t p s p a s u r u a u r r i y r a p u y p a a y r a u p p t r u t u t t u t i r i t i s ~ p a r r s t t a s t p u a ",
"p y t s u i t ~ ~ ~ ~ y s r t y u y y i a p t u i E ! T ! ~ t p u u u u p a p y s i R Q ~ ~ ! ! a i y ~ ~ p t i a y ! ~ s r i r ",
"y s y r t i u s y t r T E s a i u t a u p r t s a y p t i E T i p i s r u r s s u t t u y i t ~ t r a ~ ! u r p p a t Q ~ p r i "
};
