/* XPM */
static char *result[] = {
/* columns rows colors chars-per-pixel */
"64 64 79 1 ",
"  c black",
". c #010000",
"X c #000100",
"o c #010100",
"O c #000001",
"+ c #010001",
"@ c #000101",
"# c #010101",
"$ c #3C240E",
"% c #3D240E",
"& c #3C250E",
"* c #3D250E",
"= c #3C240F",
"- c #3D240F",
"; c #3C250F",
": c #3D250F",
"> c #6C421E",
", c #6D421E",
"< c #6C431E",
"1 c #6D431E",
"2 c #6C421F",
"3 c #6D421F",
"4 c #6C431F",
"5 c #6D431F",
"6 c #970030",
"7 c #970130",
"8 c #970031",
"9 c #970131",
"0 c #970230",
"q c #980030",
"w c #990030",
"e c #980130",
"r c #990130",
"t c #980031",
"y c #990031",
"u c #980131",
"i c #990131",
"p c #9B5A3C",
"a c #9B5B3D",
"s c #9C5A3C",
"d c #9D5A3C",
"f c #9C5B3C",
"g c #9D5B3C",
"h c #9C5A3D",
"j c #9D5A3D",
"k c #9C5B3D",
"l c #A36730",
"z c #A46630",
"x c #A56630",
"c c #A46730",
"v c #A56730",
"b c #A46631",
"n c #A56631",
"m c #A46731",
"M c #A56731",
"N c #FEA04C",
"B c #FFA04C",
"V c #FEA14C",
"C c #FFA14C",
"Z c #FEA04D",
"A c #FFA04D",
"S c #FEA14D",
"D c #FFA14D",
"F c #F4E49C",
"G c #F5E49C",
"H c #F4E59C",
"J c #F5E59C",
"K c #F4E49D",
"L c #F5E49D",
"P c #F4E59D",
"I c #F5E59D",
"U c #FEFEFE",
"Y c #FFFEFE",
"T c #FEFFFE",
"R c #FFFFFE",
"E c #FEFEFF",
"W c #FFFEFF",
"Q c #FEFFFF",
"! c white",
/* pixels */
"xcxcxxmncmxzDDAmmncMbbmvxmMnMDADbxzmbzxnmcvxmzcDAzzzSZbvvnxzZDVm",
"nmnxxcxvmzMxncZABmmnMDDnvMMxzczDDcxczzbnzxmmMbmMAAczMBSMmbxbzMzv",
"cvzcmvbnMbxvmxxmZAZBACvvxxnnmbvMmcmnzmmnmbbczcvcccmnzmvxvMzbcvnz",
"4,3222114,3535,,13<1252531,5135114<>12>5,4>53121<1,315>,3<41>4<,",
"bzcMmzncMmmzmbmxbmMbzczccbxbzMcbzmzzzvMbbvMnzmnmxzMvMmvzcnmbnxmz",
"bmnNzczMcxcxDZNSVNZAABCNCNAZmzmzmMbzMmmbmmmMmvbzzmnnbmMMBNANDNSZ",
"BZDNcvmmvcxxMMvmcnMmzzbzxnvAVZSZxbbmMzvnvmmzmmmvbnvcvbczbcnxmvAD",
"vMxbcnmmvmMnncMMzbmcnzcvnvcMcMzbMnMzMnmcbnMcMcMMvMbbxbvzxbvMmCSV",
"bcmcmbnxMzbbxccxvmmxzMcbbczzvnmznxMMznznmmbczMbzzvMzMmnvnbnxmvcx",
"nVDBZDBMnbvmxmcnmxcnmxmMmnbvnvzmMxbbmnnnxcMxbzcNZBDZBSCDmMMxbzMz",
"MMvzzmcvznzxvvzmbvcSZCBMbmMbMvnnvxbbzbcxmcbnzbxcczMvzMbzcxmvbvzc",
"cnxbnnbnbmmzmzxzxxbvbvvSxxmzzMnczxvMbvMzxMmzcxvvmccmbbmMzxxmvzvv",
"xnbnvzmzbcMczxmmbvxbnvxmcbzvnvmvnbzmmbmncnncxbbbvzcMnxMxvczbxzMn",
"1<5<221<33>2>22>524253>3,,<<42,311=%--%;$$%331>,<>,<111,4>3>5<13",
"nzvnncbxmzcbxMxcbMmvcMnbbmvbmcMvn1>3=&=*$*<1nzbnmmvMvcxvnnMvmmxx",
"CBZDDAAADABvx.X @ o +#@    O .O. o.+ X .XXX.O O  @OMbxMvnvbMzZBV",
"MbMzcncnvzDZZO;:=&%;;::;;;=:*&==;&$%;;$;:=:-$*;;;: bCDDSZVNBVSbn",
"mxmMxmvbncncv %;-==*=$=&--;:&;&=-*&:;--;-;$=$*=:=- SAMcnbzbvcnnx",
"CAAVDCAScmmvb#$=ZAADABAB;;$--&%*%:-:&=;-ZADNCZNN:; xvbnADBVZBZBN",
"bbxzxbcVZANmx &;ZZSZAASD;;=*;=&;&;;;;:;*SNZZNZZD-%OnBASCncxmmMcM",
"vnbmnvxxmvSCD **ZNZ!!ZZZ;*$=;-=&;$;:&==;VZZTTZAV*;#NAvMMcMnMxcvv",
"NDZDAxvmcvvxB ;;ZZ!!!YNZ--=--$*;;&&&-;**CZYWQEZN&-XMxcMczzcSDNND",
"vnxcbmMvMvvnb =%AR!!!!!Z:&-;;;==&:&:-:;-BW!!Y!QC$: mnvMMxcmxzmzb",
"32,321,,>,>54 :&AQQW!!!Z;=;&$;&$=;=:=;:;CYWREQQZ;-X5541>22>23525",
"bmbxzvMczbbxx &$Z!Q!!!!D-:&=*:$*==;;;:=-SRTRTEWD:=XxzcmxvncMmMMn",
"ZAAVBBAccczMv :&BZ!Y!QZD$;$&;=&:*;&;&;=;AZ!YEUZA=;onmzmmbxmMcmVB",
"cmvxzMbbzczbv@&;ZSZQ!BZD:::&:;%;-=;=;:--SZSQTNZV%; bzxnnbbmDZZDz",
"xcMbmzmNVDVCZO;&DZSZZZZA-;&:==;;$;-;&*;%DZZZZZZB&& DAnmxcmZMxcvx",
"mmcvzACznMcMM.:;ZNDACASA$:==:=;:&&:::;:=BNSNNVBZ-; NvmzmZAvzmcxm",
"bMnmCNxnzcmnbo;;&%;;=:;;:;:;-$;&&==&;;;&=*$&-;&;;= zcznSBvnzMvnM",
"MnxZZvbxmbbzl.%::=:==;;=%:&-=$:$=;;;;-;$:=&;%;=;:& czvDnvxxxmbnM",
"XXOO+@@oO.X OX. ..#  +X X@..   .+X   .. X oo XO  XX.OX@#..X X + ",
"fgddksssfaafsgfsdfffddsfsshhfgshpppfffhssfssjshshdsdsfsdhsfddhjs",
"X+    O X  O+ +O  O  X ...O oX.  .oo @o. XXXoXO+OX #O+o+OXX  .O.",
"wwwtyqwiwquyqtqyywrruqwtrrwqyweuwt6wwyywrieturywqwyrewrryqwtrwie",
"rrrretrwq8qiwytyryiwyiieqrwwwriywtqqtwwwryywyyrruuwiwrrqwtyrriqt",
"wuqqyuuqu0utrwwqriqrwquywwerwwerq6qyeqyeyiiriwytwwriiywywqtwrwww",
"rewtwrwwwuqqrwyewqwwwtwqryuqwqqwweqrweqqiyrqwiyyywyywwyweretwirw",
"ywewwwwewqwe8eeyqiiuqqryiueyeqiu67rqewwrwwytwrwiwqwwtyrrqewwyyiw",
"yqqrqtqywri6t9yytwqwqwrqyryuriquqywtwwiwiwqweyyqerieywuwtywtutie",
"yierrtwqwrqt6t7etrwyriyqyititte7tqqiqryyiqriqwyrweytwqewqiwwyrwr",
"ttyqwyqqwyrwe8u6q6erreeewwe77itwyeqwwrwiryywywqqwywwwqtyewiyerte",
"wqwwtiwwtyeeyyrq66t68eeqqqqqewytrwywireqyyitwwqwqwywiqwyuqweyiwi",
"ewrqqtrryriwqiwyitte8qee8tqwyywwwqrtqurwtititttqewtwtywrqtqwtqww",
"iiwtwwryqyyyreewtywtqqwrrwwytwwtwwiiwwirwuwwwqriryqwertqwqweyyww",
"yuqrriywuqyuqwqtwetwqwwwrqrwwywqwriiqwwryqwirwrqwyqwyiwqewwrweyr",
"iwqwwyeqqqyrwrqtiterrwiyqqwqiqwierqeqyrirrwiwwwweqieeryrrurqwrwy",
"wwyrwqqyyyrutirwrqqrrqqreeyweywtweyiqqwwwreuyqwwrwwyterwqwerwwwy",
"iteewtwqwwewqwwwuqywyqiwwqrirqrrwwqqqwqteeiuwwrwrwiwwuyiytirqyie",
"wwtqrqwywquwwyrrwyrrtqqwwiewytrrwwyyeeiwwreitqwytrweuttwetyryitt",
"rqywurwiuruyrywwwitrrwqteiwtqriewyqqwwiwqiirwqwwwwqyqwwiyiwweiwq",
"rywtyrieyyywuitiwuwyewqyyweiqiwiqurwrirwwrtuwryyurqwyqwwqyewyiri",
"wyyyqytqqywqwrwqrwqytuywqwwyyyqrwyreqewqqwiqwqyrwtwyruywrqwwrewi",
"tewwwqwiwrquyeqreryweywtrrtireqwtwywqwyyyyqrqwtqwqwweeqrqtwwrurw",
"wwteywqwyeqwqywreyriyywteitruyrtwquwiyqyttywiwitywiwqyytqrwwriwy",
"qyyqytyeriireriuytwiriqrweqquqqwwtwuuqwtieyryqtqeqqitweiqrqrryrt",
"         .O                           O          o             X",
"GLKGGJJGGGGLGGGGGGGFFJGGFGGGGGGJGGGGGLGJGGLGIGLFGGGGFJGFGGIGGFIG",
"LGGGFJGGGGGGGGGJJGGLGGLGFGGHGGLGGGJGJGGGFGGGGGGFGGGLGGLGGGGGGGFG",
"GLGJJGGGGLGKFGJGLGFGJGJIGJGGLLGJFFJGGFGLLLGGJFLGLGFGGGGGGGKGFGGG",
"GGGGGGGLFGJHHGGGGGIGGGFGFGPGGJLKGGFGFJGGGGJLGGGGGGGGIGGJFGGGGFFL",
"FLGGGGGFLGHGJPGJGKGJGGJJGGGHGGGGGGGGGJGGGJFGKGJGJLLFLLGJJGGGJFGG",
"GGHGHPGGFIGGGIGIGLKGGGGGGGJFFGGLGGLGGGJGGGGJGFGJGGGGGGKGFGFFGGGJ",
"GGLGGGFIGGGGJGGFJGGJGGGGGGGIGGGGGGGHGFJGGGGJGFGGGKGGGLLLFGGGGJLF"
};
